<svg width="421" height="347" viewBox="0 0 421 347" fill="none" xmlns="http://www.w3.org/2000/svg">
<path d="M171.051 98.4321C171.051 98.4321 160.692 98.663 163.73 129.437C166.769 160.213 191.874 151.267 195.667 148.772C199.461 146.275 213.817 146.611 218.392 139.247C222.967 131.884 210.109 85.6405 189.587 87.2202C169.447 88.7765 171.051 98.4321 171.051 98.4321Z" fill="#3A3A3A"/>
<path d="M199.753 127.94L199.58 99.9265L173.402 106.26C173.402 106.26 168.985 110.737 170.592 119.917C172.2 129.099 168.415 128.942 169.306 131.549C171.271 137.287 175.228 145.691 181.736 145.206C188.243 144.721 189.607 140.028 190.619 143.164C190.833 143.931 190.987 144.716 191.079 145.517C190.99 154.226 185.263 158.469 185.263 158.469C185.263 158.469 190.128 157.842 196.854 157.233C196.854 157.233 204.57 151.143 203.55 148.441C202.332 145.218 201.402 141.881 200.762 138.427C200.122 134.973 199.787 131.477 199.753 127.94Z" fill="#FFE1B6"/>
<path d="M172.276 107.837C172.276 107.837 174.328 104.393 177.164 109.376C184.159 121.654 197.307 122.252 201.921 117.253C201.921 117.253 203.403 103.265 200.634 98.5007C197.867 93.7365 193.24 86.7198 176.038 97.1988C173.035 99.0278 170.19 102.425 169.4 103.908C166.776 108.791 172.276 107.837 172.276 107.837Z" fill="#3A3A3A"/>
<path d="M197.818 119.825C198.309 118.925 199.975 115.396 202.663 115.898C205.351 116.398 204.913 128.964 200.052 128.992C196.634 129.031 197.818 119.825 197.818 119.825Z" fill="#FFE1B6"/>
<path d="M174.064 126.137C175.122 127.797 176.427 128.733 176.98 128.226C177.533 127.717 177.125 125.965 176.07 124.305C175.016 122.645 173.704 121.713 173.164 122.228C172.624 122.745 173.007 124.482 174.064 126.137Z" fill="#3A3A3A"/>
<path d="M173.165 122.228C174.094 120.935 175.762 120.781 177.022 121.323C177.466 121.507 177.857 121.793 178.2 122.178C177.76 122.218 177.318 122.226 176.878 122.205C175.65 122.154 174.396 122.151 173.151 122.228H173.165Z" fill="#3A3A3A"/>
<path d="M170.672 120.499C171.935 119.283 173.16 118.065 174.771 117.476C176.379 116.945 178.222 117.164 179.488 118.523L179.447 118.624C178.642 118.511 177.896 118.47 177.141 118.428C176.386 118.384 175.656 118.245 174.926 118.369C174.184 118.557 173.479 118.86 172.807 119.278C172.1 119.663 171.411 120.126 170.73 120.592L170.672 120.499Z" fill="#3A3A3A"/>
<path d="M191.491 122.74C193.638 122.74 195.822 121.905 197.94 119.825L197.737 119.529C189.057 128.06 179.089 114.907 175.82 110.583L175.682 110.4C174.569 108.935 173.514 108.279 172.55 108.453C171.305 108.68 170.698 110.201 170.672 110.263L170.962 110.424C170.962 110.424 171.525 109.023 172.602 108.829C173.45 108.68 174.408 109.293 175.447 110.655L175.586 110.841C178.128 114.182 184.613 122.737 191.491 122.74Z" fill="#3A3A3A"/>
<path d="M176.617 152.229C178.283 152.206 179.912 151.896 181.503 151.305L181.411 150.939C176.994 152.515 173.247 152.037 170.282 149.527C165.512 145.487 162.794 136.4 162.206 122.524C161.934 116.162 162.416 107.479 166.245 102.244C168.525 99.1283 170.952 98.7133 170.978 98.7083L170.936 98.3234C170.833 98.3234 168.383 98.7518 166.023 101.963C162.11 107.286 161.615 116.09 161.888 122.536C162.48 136.536 165.245 145.718 170.097 149.831C171.051 150.633 172.085 151.239 173.198 151.649C174.312 152.058 175.451 152.253 176.617 152.229Z" fill="#3A3A3A"/>
<path d="M210.998 214.37L172.713 214.899C172.713 214.843 172.713 214.787 172.713 214.733V214.346C173.193 198.233 175.125 181.357 177.951 170.218C178.308 168.809 178.679 167.492 179.064 166.279C186.041 144.292 200.335 142.724 200.335 142.724C206.445 142.174 212.112 156.466 210.367 179.004C209.525 190.107 210.353 203.444 210.998 214.37Z" fill="#A60F1B"/>
<path d="M200.444 136.539C200.444 136.539 201.991 145.067 202.749 146.23C203.509 147.393 209.797 144.97 209.797 144.97L200.444 136.539Z" fill="#3A3A3A"/>
<path d="M180.468 132.034C179.875 132.831 178.111 134.911 175.781 135.219C175.746 135.224 175.714 135.241 175.685 135.267C175.657 135.293 175.636 135.326 175.622 135.364C175.608 135.405 175.604 135.446 175.608 135.488C175.612 135.532 175.625 135.57 175.646 135.604C176.238 136.44 177.896 138.3 179.875 136.317C181.311 134.888 181.026 132.943 180.813 132.115C180.801 132.075 180.781 132.039 180.755 132.011C180.727 131.983 180.696 131.964 180.66 131.956C180.625 131.947 180.59 131.951 180.556 131.964C180.521 131.977 180.492 132.001 180.468 132.034Z" fill="#3A3A3A"/>
<path d="M180.276 132.28C180.345 132.468 180.373 132.664 180.361 132.869C180.35 133.074 180.297 133.263 180.206 133.435C179.544 134.692 177.444 135.811 177.026 136.039C176.752 136.186 176.261 135.607 175.955 135.192C177.987 134.841 179.566 133.171 180.276 132.28Z" fill="white"/>
<path d="M174.321 97.8264C174.321 97.8264 189.112 92.8463 194.198 117.21C194.198 117.21 199.496 116.212 199.663 114.823C199.831 113.433 193.59 89.0342 174.321 97.8264Z" fill="white"/>
<path d="M193.741 115.215C193.807 115.181 193.868 115.138 193.924 115.084C194.226 114.765 196.921 113.377 199.12 112.27C198.786 111.15 198.398 110.061 197.953 109C194.525 110.213 195.059 107.074 188.628 101.123C181.868 94.8845 175.092 97.5 174.386 97.7996L174.321 97.8263C174.321 97.8263 188.292 93.1274 193.741 115.215Z" fill="#F5F5F5"/>
<path d="M191.197 119.494C190.967 114.321 195.236 110.113 200.069 110.929C201.109 111.103 202.089 111.498 203.008 112.111C208.695 115.878 209.19 131.02 202.245 133.343C196.76 135.184 191.753 132.011 191.197 119.494Z" fill="white"/>
<path d="M205.457 130.727C202.936 131.295 199.747 130.597 197.075 125.525C191.844 115.581 197.422 111.09 197.598 110.944C193.873 111.614 190.999 115.227 191.187 119.494C191.745 132.011 196.75 135.184 202.235 133.358C202.878 133.144 203.476 132.811 204.028 132.361C204.578 131.911 205.056 131.367 205.457 130.727Z" fill="#F5F5F5"/>
<path d="M199.503 134.263C198.734 134.28 197.983 134.153 197.248 133.884C196.513 133.612 195.831 133.212 195.204 132.68C192.59 130.436 191.118 126.007 190.831 119.517C190.809 118.905 190.844 118.296 190.936 117.692C191.027 117.089 191.174 116.505 191.373 115.939C191.573 115.374 191.822 114.843 192.121 114.345C192.42 113.846 192.761 113.393 193.143 112.986C193.611 112.481 194.12 112.044 194.669 111.674C195.217 111.304 195.793 111.011 196.397 110.795C196.999 110.578 197.615 110.444 198.244 110.39C198.873 110.339 199.497 110.369 200.12 110.482C201.204 110.667 202.225 111.077 203.184 111.714C206.721 114.064 208.11 120.187 207.64 125.006C207.193 129.593 205.264 132.781 202.344 133.755C201.417 134.081 200.469 134.25 199.503 134.263ZM191.565 119.47C191.837 125.679 193.208 129.869 195.631 131.969C197.348 133.443 199.602 133.775 202.149 132.92C204.762 132.046 206.499 129.126 206.91 124.917C207.418 119.713 205.663 114.371 202.83 112.496C201.952 111.91 201.013 111.532 200.017 111.364C199.448 111.259 198.877 111.23 198.303 111.279C197.728 111.326 197.167 111.448 196.615 111.645C196.065 111.843 195.538 112.111 195.036 112.447C194.533 112.785 194.07 113.183 193.641 113.644C193.297 114.005 192.991 114.408 192.721 114.852C192.453 115.295 192.228 115.77 192.049 116.274C191.869 116.778 191.738 117.3 191.657 117.84C191.574 118.379 191.544 118.923 191.565 119.47Z" fill="#3A3A3A"/>
<path d="M186.311 138.146C186.218 138.149 186.136 138.116 186.065 138.044C185.993 137.972 185.951 137.881 185.937 137.771C185.924 137.66 185.943 137.56 185.993 137.466C186.045 137.373 186.115 137.312 186.204 137.284C193.818 134.553 193.223 130.282 193.217 130.239C193.208 130.182 193.208 130.125 193.217 130.068C193.227 130.011 193.247 129.958 193.273 129.909C193.301 129.862 193.335 129.822 193.375 129.789C193.416 129.757 193.46 129.737 193.508 129.725C193.555 129.713 193.603 129.715 193.65 129.727C193.698 129.738 193.743 129.76 193.783 129.792C193.822 129.825 193.856 129.866 193.884 129.914C193.91 129.963 193.928 130.016 193.937 130.073C193.969 130.277 194.658 135.169 186.414 138.127C186.38 138.139 186.345 138.146 186.311 138.146Z" fill="#3A3A3A"/>
<path d="M185.982 135.435C187.034 134.988 187.912 135.527 188.233 136.589C188.274 136.722 188.303 136.855 188.321 136.994C188.338 137.133 188.343 137.272 188.336 137.411C188.331 137.552 188.311 137.689 188.282 137.824C188.251 137.958 188.209 138.089 188.158 138.214C188.105 138.338 188.042 138.455 187.969 138.566C187.896 138.674 187.815 138.773 187.725 138.864C187.635 138.952 187.539 139.029 187.435 139.095C187.332 139.16 187.224 139.212 187.111 139.252C186.061 139.694 184.307 139.428 183.999 138.377C183.69 137.326 184.932 135.878 185.982 135.435Z" fill="#3A3A3A"/>
<mask id="mask0_951_365" style="mask-type:luminance" maskUnits="userSpaceOnUse" x="61" y="212" width="162" height="13">
<path d="M61.2461 212.912H222.153V224.441H61.2461V212.912Z" fill="white"/>
</mask>
<g mask="url(#mask0_951_365)">
<path d="M66.0481 213.014H217.264C217.577 213.014 217.887 213.051 218.194 213.125C218.501 213.197 218.8 213.306 219.09 213.449C219.379 213.593 219.654 213.769 219.915 213.978C220.175 214.186 220.417 214.423 220.638 214.688C220.86 214.954 221.057 215.243 221.231 215.555C221.404 215.866 221.553 216.196 221.671 216.542C221.791 216.89 221.882 217.246 221.944 217.615C222.005 217.983 222.035 218.354 222.035 218.729C222.035 219.106 222.005 219.477 221.944 219.845C221.882 220.213 221.791 220.57 221.671 220.916C221.553 221.264 221.404 221.592 221.231 221.905C221.057 222.217 220.86 222.506 220.638 222.77C220.417 223.037 220.175 223.274 219.915 223.482C219.654 223.691 219.379 223.867 219.09 224.01C218.8 224.154 218.501 224.261 218.194 224.335C217.887 224.409 217.577 224.446 217.264 224.446H66.0481C65.7338 224.446 65.4237 224.409 65.1163 224.335C64.809 224.261 64.5114 224.154 64.2222 224.01C63.9316 223.867 63.6578 223.691 63.3966 223.482C63.1367 223.274 62.895 223.037 62.6743 222.77C62.4522 222.506 62.2538 222.217 62.0806 221.905C61.9059 221.592 61.7593 221.264 61.6391 220.916C61.519 220.57 61.4296 220.213 61.3681 219.845C61.3066 219.477 61.2759 219.106 61.2759 218.729C61.2759 218.354 61.3066 217.983 61.3681 217.615C61.4296 217.246 61.519 216.89 61.6391 216.542C61.7593 216.196 61.9059 215.866 62.0806 215.555C62.2538 215.243 62.4522 214.954 62.6743 214.688C62.895 214.423 63.1367 214.186 63.3966 213.978C63.6578 213.769 63.9316 213.593 64.2222 213.449C64.5114 213.306 64.809 213.197 65.1163 213.125C65.4237 213.051 65.7338 213.014 66.0481 213.014Z" fill="white"/>
</g>
<path d="M138.028 192.707C138.028 192.707 129.92 192.113 125.453 193.696C120.988 195.28 112.216 207.176 115.857 207.372C119.496 207.569 124.625 202.42 127.431 202.817C130.238 203.213 137.054 208.424 140.102 206.314C143.151 204.202 138.028 192.707 138.028 192.707Z" fill="#FFE1B6"/>
<path d="M206.524 180.694C206.091 184.682 205.302 188.566 204.158 192.344C203.013 196.125 201.541 199.711 199.74 203.104C196.422 209.318 190.416 213.612 184.524 213.89C173.61 214.417 132.237 217.355 132.237 196.446C132.237 177.814 158.216 176.035 174.334 180.374C174.334 180.374 184.999 144.839 197.281 146.739C208.055 148.417 208.811 160.245 206.524 180.694Z" fill="#A60F1B"/>
<path d="M171.023 214.787C158.439 214.787 142.025 213.322 135.151 205.432C134.63 204.863 134.165 204.237 133.756 203.551C133.345 202.867 132.999 202.137 132.716 201.366C132.434 200.593 132.222 199.794 132.079 198.969C131.937 198.143 131.867 197.309 131.871 196.466C131.871 191.77 133.479 187.855 136.637 184.827C144.626 177.175 161.458 176.551 174.099 179.882C175.987 173.925 178.247 168.179 180.88 162.645C186.536 151.001 192.072 145.509 197.323 146.322C197.371 146.329 197.417 146.347 197.459 146.377C197.501 146.406 197.537 146.442 197.568 146.489C197.597 146.536 197.618 146.586 197.631 146.643C197.643 146.7 197.647 146.757 197.641 146.816C197.635 146.873 197.62 146.928 197.596 146.978C197.571 147.028 197.54 147.072 197.501 147.109C197.463 147.144 197.42 147.169 197.372 147.184C197.326 147.199 197.277 147.204 197.23 147.196C185.382 145.363 174.771 180.19 174.679 180.54C174.648 180.645 174.592 180.726 174.511 180.779C174.43 180.833 174.344 180.848 174.254 180.821C161.747 177.444 144.97 177.971 137.093 185.512C134.116 188.367 132.592 192.06 132.592 196.466C132.589 197.249 132.654 198.026 132.786 198.792C132.919 199.56 133.117 200.303 133.38 201.021C133.644 201.739 133.967 202.417 134.348 203.053C134.73 203.69 135.163 204.272 135.646 204.8C144.97 215.499 172.698 214.074 183.138 213.535L184.497 213.47C190.285 213.188 196.133 209.032 199.419 202.879C201.2 199.507 202.659 195.946 203.793 192.195C204.927 188.445 205.713 184.591 206.148 180.637C206.155 180.579 206.171 180.525 206.195 180.475C206.22 180.423 206.25 180.381 206.29 180.346C206.329 180.309 206.371 180.284 206.418 180.269C206.466 180.254 206.513 180.251 206.562 180.259C206.609 180.266 206.656 180.284 206.697 180.314C206.739 180.343 206.776 180.381 206.805 180.426C206.834 180.473 206.857 180.525 206.869 180.58C206.882 180.637 206.885 180.694 206.878 180.753C206.435 184.772 205.637 188.686 204.483 192.498C203.329 196.309 201.847 199.927 200.036 203.352C196.625 209.741 190.535 214.054 184.527 214.346L183.17 214.417C180.238 214.567 175.917 214.787 171.023 214.787Z" fill="#3A3A3A"/>
<path d="M98.2506 207.08H145.437C146.491 207.08 147.344 207.969 147.344 209.067V213.443C147.344 214.539 146.491 215.432 145.437 215.432H98.2506C97.1987 215.432 96.3437 214.539 96.3437 213.443V209.067C96.3213 207.969 97.1833 207.08 98.2506 207.08Z" fill="#3A3A3A"/>
<path d="M87.4696 149.045H80.7666C80.6884 149.045 80.6101 149.055 80.5333 149.076C80.4579 149.097 80.3838 149.128 80.314 149.17C80.2427 149.21 80.1785 149.262 80.117 149.321C80.0569 149.381 80.0024 149.448 79.9549 149.523C79.9074 149.597 79.8669 149.677 79.8348 149.763C79.8027 149.848 79.7789 149.938 79.7649 150.03C79.7496 150.122 79.744 150.214 79.7468 150.308C79.7496 150.402 79.7622 150.495 79.7817 150.586L93.4432 212.348C93.4921 212.568 93.555 212.78 93.6332 212.988C93.7101 213.195 93.8023 213.393 93.907 213.582C94.0118 213.771 94.1278 213.948 94.2577 214.114C94.3862 214.28 94.5259 214.432 94.6768 214.569C94.8263 214.708 94.9842 214.83 95.1518 214.937C95.318 215.044 95.4913 215.135 95.6715 215.208C95.8503 215.282 96.0333 215.337 96.2205 215.374C96.4063 215.411 96.5949 215.429 96.7835 215.429H102.935L88.467 149.958C88.4377 149.826 88.3916 149.704 88.3287 149.59C88.2659 149.476 88.189 149.378 88.0996 149.296C88.0088 149.214 87.9096 149.15 87.802 149.107C87.6945 149.065 87.5841 149.043 87.4696 149.045Z" fill="#3A3A3A"/>
<path d="M76.8569 96.7471C72.6759 114.239 84.9043 131.619 104.17 135.567C123.435 139.515 142.443 128.535 146.624 111.044C150.805 93.5518 138.576 76.1715 119.311 72.2236C100.045 68.2757 81.038 79.2553 76.8569 96.7471Z" fill="#080B16"/>
<path d="M110.902 103.468L113.388 93.0527L112.494 92.8673L111.649 92.6889L109.159 103.103C109.115 103.291 109.163 103.491 109.295 103.658C109.426 103.825 109.629 103.947 109.859 103.996C109.974 104.02 110.092 104.026 110.207 104.012C110.321 103.999 110.43 103.967 110.527 103.918C110.624 103.869 110.707 103.804 110.771 103.726C110.836 103.649 110.88 103.561 110.902 103.468Z" fill="#FFC79E"/>
<path d="M110.094 104.307L127.122 107.955L127.366 106.925L127.664 105.723L110.636 102.08C110.484 102.047 110.326 102.044 110.172 102.069C110.018 102.095 109.871 102.15 109.738 102.23C109.606 102.31 109.491 102.415 109.4 102.537C109.309 102.66 109.244 102.798 109.209 102.944C109.172 103.09 109.166 103.242 109.191 103.389C109.216 103.537 109.271 103.679 109.353 103.805C109.435 103.932 109.543 104.042 109.671 104.128C109.798 104.214 109.942 104.275 110.094 104.307Z" fill="#FFC79E"/>
<path d="M73.9876 96.1592C75.6081 89.3799 79.4063 83.2065 84.902 78.4198C90.3977 73.6331 97.344 70.448 104.862 69.2672C112.381 68.0865 120.134 68.9632 127.141 71.7864C134.148 74.6097 140.095 79.2527 144.229 85.1283C148.363 91.0039 150.498 97.8483 150.366 104.796C150.233 111.743 147.838 118.482 143.484 124.16C139.129 129.838 133.011 134.199 125.902 136.693C118.793 139.188 111.014 139.702 103.547 138.172C93.5403 136.111 84.8082 130.53 79.2667 122.654C73.7251 114.777 71.8266 105.249 73.9876 96.1592ZM145.34 110.781C146.783 104.747 146.223 98.4448 143.731 92.6712C141.238 86.8975 136.926 81.9116 131.338 78.3441C125.751 74.7765 119.139 72.7875 112.34 72.6286C105.541 72.4697 98.8591 74.148 93.1399 77.4513C87.4207 80.7546 82.921 85.5345 80.2097 91.1865C77.4984 96.8386 76.6974 103.109 77.9079 109.205C79.1184 115.3 82.2861 120.947 87.0104 125.432C91.7347 129.916 97.8034 133.037 104.449 134.399C113.359 136.215 122.667 134.748 130.333 130.32C137.999 125.893 143.396 118.866 145.34 110.781Z" fill="#A60F1B"/>
<path d="M109.142 102.704C109.199 102.463 109.332 102.244 109.525 102.074C109.717 101.904 109.961 101.791 110.225 101.748C110.488 101.705 110.76 101.736 111.006 101.835C111.251 101.934 111.459 102.098 111.604 102.306C111.748 102.513 111.822 102.755 111.817 103.001C111.812 103.247 111.727 103.486 111.573 103.687C111.42 103.888 111.205 104.043 110.955 104.131C110.706 104.219 110.433 104.238 110.171 104.183C109.822 104.111 109.518 103.915 109.325 103.637C109.132 103.36 109.066 103.024 109.142 102.704ZM111.479 103.182C111.524 102.998 111.508 102.805 111.433 102.628C111.358 102.451 111.228 102.298 111.059 102.189C110.89 102.079 110.69 102.019 110.483 102.014C110.277 102.009 110.074 102.061 109.9 102.162C109.726 102.263 109.589 102.41 109.506 102.583C109.423 102.756 109.398 102.948 109.435 103.135C109.471 103.322 109.566 103.495 109.709 103.632C109.852 103.769 110.036 103.864 110.238 103.905C110.507 103.96 110.789 103.914 111.021 103.779C111.254 103.644 111.418 103.429 111.479 103.182Z" fill="white"/>
</svg>
