<svg xmlns="http://www.w3.org/2000/svg" xmlns:xlink="http://www.w3.org/1999/xlink" width="1920" zoomAndPan="magnify" viewBox="0 0 1440 809.999993" height="1080" preserveAspectRatio="xMidYMid meet" version="1.0"><defs><clipPath id="65598a7437"><path d="M 656.671875 274 L 783.421875 274 L 783.421875 567 L 656.671875 567 Z M 656.671875 274 " clip-rule="nonzero"/></clipPath></defs><g clip-path="url(#65598a7437)"><path fill="#231815" d="M 783.078125 377.703125 C 783.078125 374.613281 782.683594 371.519531 782.550781 368.363281 C 782.421875 363.824219 782.816406 359.222656 781.828125 354.75 C 781.5 353.367188 781.300781 351.921875 781.101562 350.472656 C 780.246094 344.09375 778.867188 337.78125 776.5625 331.726562 C 774.851562 327.253906 772.675781 322.980469 770.042969 318.96875 C 768.925781 317.324219 767.675781 315.679688 766.820312 313.902344 C 765.964844 312.128906 764.777344 310.746094 763.460938 309.367188 C 761.617188 307.523438 759.644531 306.078125 757.339844 304.828125 C 753.257812 302.589844 749.636719 299.566406 745.09375 298.050781 C 743.910156 297.65625 743.121094 296.671875 743.054688 295.289062 C 742.921875 293.382812 742.660156 291.539062 742.527344 289.632812 C 742.394531 288.121094 742.527344 286.671875 743.84375 285.6875 C 744.765625 285.027344 745.03125 284.109375 745.03125 283.054688 C 745.03125 282.136719 745.160156 281.28125 745.03125 280.359375 C 744.765625 277.203125 742.988281 275.886719 739.894531 276.214844 C 736.605469 276.609375 733.246094 277.070312 729.953125 277.136719 C 724.160156 277.203125 718.367188 277.464844 712.640625 276.742188 C 707.441406 276.019531 702.242188 275.820312 697.039062 275.292969 C 696.054688 275.230469 695.066406 274.964844 694.078125 274.835938 C 693.15625 274.703125 692.300781 274.898438 691.578125 275.558594 C 689.667969 277.269531 689.140625 282.792969 692.367188 284.371094 C 693.15625 284.765625 693.882812 285.226562 694.671875 285.621094 C 694.671875 287.132812 694.605469 288.449219 694.671875 289.765625 C 694.867188 292.066406 694.800781 293.183594 693.089844 293.316406 C 692.960938 293.449219 692.761719 293.578125 692.5625 293.578125 C 692.039062 293.710938 691.445312 293.777344 690.917969 293.972656 C 689.867188 294.433594 688.679688 294.765625 687.496094 295.027344 C 686.507812 295.355469 685.453125 295.75 684.46875 296.144531 C 683.085938 296.933594 681.703125 297.722656 680.320312 298.511719 C 679.203125 299.234375 678.082031 299.960938 677.027344 300.683594 C 675.910156 301.40625 674.726562 302.128906 673.605469 302.984375 C 670.839844 306.933594 667.679688 310.679688 665.640625 315.085938 C 664.851562 316.796875 664.125 318.574219 663.335938 320.285156 C 661.363281 324.886719 660.441406 329.886719 658.859375 334.621094 C 658.730469 334.953125 658.792969 335.28125 658.730469 335.609375 C 658.464844 338.371094 658.269531 341.132812 657.808594 343.894531 C 656.886719 349.816406 656.6875 355.667969 656.6875 361.589844 C 656.6875 366.257812 656.6875 370.929688 656.953125 375.597656 C 657.214844 381.386719 657.675781 387.109375 658.003906 392.898438 C 658.332031 398.421875 658.398438 404.011719 658.925781 409.539062 C 659.453125 415.328125 660.175781 421.046875 660.175781 426.835938 C 660.175781 427.496094 660.175781 428.152344 660.308594 428.808594 C 660.902344 434.335938 661.492188 439.859375 662.019531 445.386719 C 662.347656 449.003906 662.480469 452.6875 662.875 456.367188 C 663.601562 462.550781 663.863281 468.800781 664.125 474.984375 C 664.125 475.773438 664.125 476.5625 664.191406 477.351562 C 664.585938 483.007812 665.046875 488.664062 665.378906 494.320312 C 665.574219 498.070312 665.574219 501.882812 665.839844 505.632812 C 666.101562 510.433594 666.429688 515.171875 666.761719 519.90625 C 666.761719 520.433594 666.890625 521.023438 667.023438 521.550781 C 668.078125 525.890625 669.0625 530.234375 670.25 534.507812 C 671.367188 538.585938 671.894531 542.730469 673.871094 546.609375 C 675.710938 550.226562 677.6875 553.648438 680.058594 556.871094 C 681.769531 559.105469 683.875 560.75 686.640625 561.804688 C 689.867188 562.988281 693.089844 563.316406 696.449219 563.515625 C 699.015625 563.644531 701.253906 562.988281 703.425781 561.671875 C 704.480469 561.015625 705.464844 560.355469 706.585938 559.699219 C 707.179688 560.09375 707.835938 560.421875 708.296875 560.882812 C 710.074219 562.527344 712.3125 563.316406 714.550781 563.84375 C 716.195312 564.238281 717.84375 564.5 719.421875 564.894531 C 724.953125 566.078125 730.285156 565.816406 735.351562 563.121094 C 737.128906 562.199219 738.777344 561.082031 740.488281 560.027344 C 740.617188 560.09375 740.816406 560.160156 740.949219 560.355469 C 742.792969 563.644531 745.820312 565.160156 749.308594 565.949219 C 754.046875 567 758.328125 565.421875 762.539062 563.578125 C 763 563.382812 763.394531 562.855469 763.789062 562.460938 C 766.949219 559.765625 768.464844 556.015625 769.914062 552.332031 C 770.4375 551.015625 770.898438 549.636719 771.296875 548.253906 C 772.414062 544.175781 773.53125 540.097656 774.519531 536.019531 C 775.046875 533.851562 775.308594 531.679688 775.707031 529.441406 C 776.167969 526.679688 776.757812 523.984375 777.089844 521.222656 C 777.613281 516.75 778.207031 512.210938 778.007812 507.671875 C 777.878906 504.054688 778.339844 500.371094 778.601562 496.6875 C 778.601562 496.226562 778.601562 495.832031 778.734375 495.371094 C 779.128906 491.03125 779.65625 486.757812 779.851562 482.414062 C 780.183594 474.984375 780.3125 467.550781 780.578125 460.117188 C 780.839844 452.09375 781.101562 444.136719 781.367188 436.109375 C 781.367188 435.585938 781.433594 434.992188 781.5 434.464844 C 781.828125 429.597656 782.289062 424.730469 782.550781 419.863281 C 782.816406 414.734375 782.878906 409.667969 783.078125 404.539062 C 783.40625 395.660156 783.277344 386.714844 783.210938 377.835938 Z M 783.078125 377.703125 " fill-opacity="1" fill-rule="nonzero"/></g><path fill="#ebf6fa" d="M 661.363281 344.816406 C 661.757812 341.988281 661.953125 339.09375 662.285156 336.199219 C 662.414062 335.214844 662.613281 334.226562 662.808594 333.242188 C 663.269531 331.332031 663.796875 329.492188 664.324219 327.652344 C 664.523438 326.402344 664.71875 325.21875 665.046875 323.96875 C 665.378906 322.71875 665.773438 321.140625 666.496094 319.890625 C 667.15625 317.125 668.339844 314.5625 669.855469 312.257812 C 672.617188 307.917969 676.042969 303.773438 680.386719 300.878906 C 683.347656 298.90625 686.640625 297.527344 690.0625 296.539062 C 690.523438 296.34375 690.917969 296.144531 691.378906 295.949219 C 692.105469 295.683594 692.828125 295.421875 693.617188 295.222656 C 694.738281 294.828125 695.921875 294.5 696.976562 294.171875 C 697.238281 291.871094 697.4375 289.765625 697.632812 287.726562 C 697.832031 285.6875 697.632812 283.714844 696.644531 281.804688 C 696.382812 281.804688 696.121094 281.609375 695.789062 281.609375 C 693.550781 281.609375 692.960938 281.082031 693.089844 278.976562 C 693.15625 277.859375 693.617188 277.269531 694.671875 277.203125 C 696.25 277.203125 697.832031 277.136719 699.34375 277.398438 C 703.886719 278.121094 708.429688 278.386719 712.972656 278.582031 C 718.433594 278.847656 723.832031 279.308594 729.296875 279.109375 C 731.667969 279.109375 733.96875 279.109375 736.273438 278.648438 C 738.117188 278.320312 740.027344 278.386719 742.066406 278.320312 C 742.527344 279.636719 742.527344 280.753906 741.476562 281.675781 C 740.949219 282.136719 740.617188 282.660156 740.09375 283.054688 C 738.183594 284.503906 737.984375 286.609375 737.984375 288.777344 C 737.984375 289.566406 738.445312 290.355469 738.316406 291.082031 C 737.921875 294.5 739.960938 296.738281 742.066406 298.90625 C 742.792969 299.632812 743.910156 300.222656 744.964844 300.421875 C 747.726562 301.078125 750.164062 302.328125 752.46875 303.972656 C 754.113281 305.15625 755.824219 306.140625 757.667969 306.933594 C 759.511719 307.722656 761.027344 308.839844 762.078125 310.417969 C 765.105469 314.957031 768.265625 319.429688 770.964844 324.164062 C 772.613281 326.992188 773.664062 330.28125 774.785156 333.371094 C 775.769531 336.070312 776.757812 338.832031 777.484375 341.59375 C 778.074219 343.832031 778.273438 346.199219 778.601562 348.5 C 778.996094 351.132812 779.324219 353.761719 779.65625 356.460938 C 779.917969 358.628906 779.324219 360.339844 777.089844 361.65625 C 776.824219 359.683594 776.429688 357.972656 776.363281 356.261719 C 776.167969 352.25 774.914062 348.367188 774.390625 344.421875 C 773.796875 340.082031 772.613281 335.9375 770.769531 331.992188 C 770.042969 330.414062 769.519531 328.636719 768.992188 326.992188 C 768.070312 324.363281 766.753906 321.929688 765.042969 319.691406 C 761.550781 315.023438 757.40625 311.007812 752.601562 307.722656 C 750.296875 306.140625 747.664062 305.289062 744.765625 305.289062 C 738.777344 305.289062 732.785156 305.8125 726.796875 306.472656 C 725.675781 306.601562 724.558594 306.472656 723.4375 306.601562 C 721.660156 306.734375 719.882812 306.933594 718.105469 307.0625 C 717.710938 307.0625 717.25 307.0625 716.855469 307.128906 C 713.101562 307.722656 709.152344 307.128906 705.53125 306.40625 C 702.703125 306.539062 699.9375 305.878906 697.105469 305.746094 C 694.800781 305.617188 692.5 305.089844 690.195312 304.628906 C 689.007812 304.433594 687.824219 303.972656 686.707031 303.707031 C 685.980469 303.578125 684.996094 303.183594 684.46875 303.445312 C 682.425781 304.695312 679.925781 305.484375 678.9375 307.984375 C 678.742188 308.511719 678.28125 308.90625 677.949219 309.300781 C 674.199219 314.035156 671.300781 319.230469 669.589844 325.085938 C 667.945312 330.675781 667.15625 336.332031 666.300781 342.054688 C 665.507812 347.515625 665.574219 352.90625 665.640625 358.367188 C 665.640625 360.140625 665.96875 361.917969 666.101562 363.695312 C 666.101562 364.484375 666.101562 365.207031 666.101562 366.195312 C 665.3125 366.324219 664.585938 366.652344 663.863281 366.652344 C 660.96875 366.652344 660.441406 366.128906 660.375 363.101562 C 660.242188 356.984375 660.636719 350.867188 661.425781 344.816406 Z M 661.363281 344.816406 " fill-opacity="1" fill-rule="nonzero"/><path fill="#231815" d="M 774.324219 362.378906 C 773.269531 363.496094 771.953125 363.5625 770.835938 363.890625 C 769.320312 364.285156 767.804688 364.679688 766.359375 365.074219 C 765.632812 365.273438 764.84375 365.601562 764.121094 365.734375 C 761.488281 366.0625 758.851562 366.523438 756.15625 366.589844 C 750.492188 366.71875 744.898438 367.839844 739.238281 368.296875 C 738.25 368.363281 737.261719 368.5625 736.273438 368.5625 C 730.351562 368.5625 724.492188 368.5625 718.566406 368.5625 C 717.578125 368.5625 716.527344 368.429688 715.539062 368.5625 C 711.917969 368.890625 708.429688 367.839844 704.875 367.902344 C 700.398438 367.96875 696.054688 366.984375 691.578125 367.179688 C 688.285156 367.3125 684.929688 366.652344 681.636719 366.324219 C 679.332031 366.0625 677.09375 365.863281 674.789062 366.984375 C 673.078125 367.839844 671.105469 367.378906 669.195312 367.113281 C 668.800781 367.113281 668.40625 366.652344 668.207031 366.324219 C 667.945312 365.863281 667.746094 365.273438 667.679688 364.746094 C 667.417969 357.445312 666.300781 350.144531 668.078125 342.84375 C 668.933594 339.292969 668.933594 335.542969 669.722656 331.992188 C 670.511719 328.308594 671.695312 324.691406 672.75 321.074219 C 672.949219 320.414062 673.210938 319.757812 673.605469 319.230469 C 675.25 316.996094 676.765625 314.628906 678.742188 312.71875 C 680.582031 310.945312 682.296875 309.101562 684.136719 307.261719 C 685.125 306.273438 686.046875 306.011719 687.429688 306.339844 C 693.683594 307.917969 700.132812 308.445312 706.519531 309.101562 C 710.734375 309.496094 714.945312 309.367188 719.160156 308.839844 C 719.816406 308.773438 720.476562 308.640625 721.132812 308.640625 C 726.464844 308.773438 731.796875 307.984375 737.128906 307.589844 C 738.117188 307.523438 739.105469 307.390625 740.09375 307.195312 C 741.015625 306.996094 741.804688 306.933594 742.726562 307.328125 C 743.316406 307.589844 744.042969 307.65625 744.632812 307.523438 C 746.347656 307.128906 747.664062 307.722656 748.980469 308.707031 C 749.769531 309.300781 750.558594 309.957031 751.480469 310.351562 C 756.023438 312.324219 759.117188 316.007812 762.277344 319.625 C 765.042969 322.78125 766.753906 326.464844 768.003906 330.480469 C 768.464844 331.992188 769.1875 333.371094 769.648438 334.820312 C 770.375 337.121094 771.230469 339.488281 771.691406 341.859375 C 772.675781 346.660156 773.53125 351.460938 774.257812 356.328125 C 774.585938 358.367188 774.257812 360.539062 774.257812 362.445312 Z M 774.324219 362.378906 " fill-opacity="1" fill-rule="nonzero"/><path fill="#ebf6fa" d="M 776.429688 480.246094 C 775.902344 484.453125 776.230469 488.664062 775.769531 492.875 C 775.179688 498.199219 775.375 503.527344 775.046875 508.855469 C 774.71875 514.511719 773.863281 520.105469 773.007812 525.695312 C 772.152344 531.351562 770.769531 536.808594 769.714844 542.402344 C 769.648438 542.859375 769.519531 543.253906 769.386719 543.714844 C 767.871094 547.53125 766.359375 551.347656 764.84375 555.160156 C 763.265625 559.105469 760.171875 561.277344 756.089844 562.132812 C 754.574219 562.460938 752.996094 562.726562 751.480469 562.855469 C 751.085938 562.855469 750.625 562.789062 750.03125 562.660156 C 749.964844 562.660156 749.835938 562.660156 749.769531 562.660156 C 749.769531 562.660156 749.703125 562.660156 749.636719 562.660156 C 749.507812 562.660156 749.308594 562.527344 749.175781 562.460938 C 749.175781 562.460938 749.109375 562.460938 749.046875 562.460938 C 748.980469 562.460938 748.847656 562.332031 748.78125 562.332031 C 748.78125 562.332031 748.714844 562.265625 748.648438 562.199219 C 748.320312 562.066406 747.992188 561.933594 747.664062 561.804688 C 747.003906 561.476562 746.347656 561.015625 745.820312 560.554688 C 745.621094 560.355469 745.359375 560.160156 745.160156 559.894531 C 745.160156 559.894531 745.09375 559.894531 745.03125 559.832031 C 744.632812 559.5 744.371094 559.042969 744.109375 558.648438 C 743.777344 558.316406 743.515625 557.988281 743.253906 557.527344 C 742.332031 555.949219 742.265625 556.015625 740.488281 555.226562 C 739.699219 556.015625 738.90625 557.003906 737.984375 557.726562 C 734.890625 560.09375 731.402344 561.539062 727.585938 561.804688 C 723.703125 562 719.816406 562 715.933594 561.144531 C 713.234375 560.554688 710.863281 559.5 708.824219 557.726562 C 708.101562 557.066406 707.308594 556.476562 706.519531 555.882812 C 704.941406 556.804688 703.359375 557.460938 702.042969 558.515625 C 697.898438 561.871094 693.421875 561.476562 688.746094 559.894531 C 684.46875 558.515625 681.441406 555.820312 679.664062 551.675781 C 679.332031 550.953125 678.9375 550.292969 678.476562 549.703125 C 677.292969 548.058594 676.566406 546.28125 676.238281 544.242188 C 675.84375 541.941406 674.988281 539.769531 674.527344 537.46875 C 673.011719 530.429688 671.566406 523.328125 670.050781 516.289062 C 669.855469 515.433594 669.722656 514.511719 669.722656 513.65625 C 669.457031 507.210938 669.261719 500.765625 668.867188 494.320312 C 668.601562 489.453125 668.140625 484.585938 667.8125 479.71875 C 667.8125 479.585938 667.8125 479.519531 667.8125 479.390625 C 667.550781 474.71875 667.285156 470.050781 667.089844 465.378906 C 667.089844 464.589844 667.15625 463.867188 667.21875 462.878906 C 669.394531 462.683594 670.445312 463.539062 670.578125 465.25 C 670.773438 467.023438 670.839844 468.800781 670.644531 470.574219 C 670.445312 472.15625 670.578125 473.667969 670.710938 475.179688 C 671.300781 479.914062 671.695312 484.71875 672.15625 489.453125 C 672.488281 493.003906 672.75 496.558594 673.078125 500.109375 C 673.210938 501.226562 673.539062 502.34375 673.472656 503.398438 C 673.210938 507.804688 674.199219 512.011719 675.054688 516.289062 C 676.042969 521.222656 676.765625 526.15625 677.621094 531.085938 C 678.804688 537.730469 680.714844 544.046875 684.535156 549.703125 C 686.507812 552.53125 689.207031 554.4375 692.300781 555.820312 C 693.089844 556.148438 694.078125 556.277344 694.933594 556.148438 C 697.371094 555.882812 699.804688 555.554688 702.175781 554.964844 C 703.164062 554.699219 704.085938 553.84375 704.941406 553.1875 C 705.730469 552.59375 706.453125 551.9375 707.308594 551.214844 C 708.164062 551.804688 708.957031 552.265625 709.613281 552.859375 C 712.90625 555.621094 716.722656 557.003906 720.9375 557.265625 C 724.492188 557.527344 728.113281 557.460938 731.535156 556.410156 C 734.167969 555.621094 736.667969 554.238281 739.171875 553.121094 C 739.894531 552.792969 740.488281 552.265625 741.277344 551.742188 C 742.921875 553.449219 744.832031 554.699219 747.070312 555.359375 C 748.386719 555.753906 749.636719 555.753906 751.019531 555.6875 C 754.574219 555.425781 757.339844 554.042969 759.644531 551.347656 C 761.355469 549.371094 763 547.464844 764.054688 545.097656 C 765.171875 542.53125 766.554688 540.097656 767.410156 537.46875 C 768.265625 534.769531 768.792969 531.878906 769.253906 529.046875 C 769.78125 525.628906 770.175781 522.207031 770.503906 518.789062 C 770.898438 513.789062 772.414062 508.921875 772.019531 503.921875 C 772.019531 503.726562 772.019531 503.460938 772.019531 503.265625 C 773.074219 498.59375 773.269531 493.792969 773.664062 489.058594 C 773.664062 488.925781 773.664062 488.859375 773.664062 488.730469 C 773.664062 482.808594 775.375 477.085938 775.308594 471.167969 C 775.308594 469.195312 775.707031 467.289062 775.96875 465.117188 C 776.429688 465.445312 776.824219 465.644531 776.824219 465.839844 C 776.757812 470.707031 776.957031 475.640625 776.363281 480.507812 Z M 776.429688 480.246094 " fill-opacity="1" fill-rule="nonzero"/><path fill="#231815" d="M 679.664062 524.179688 C 679.070312 521.484375 678.542969 518.722656 678.082031 515.960938 C 677.621094 513 677.359375 510.039062 676.964844 507.015625 C 676.503906 503.921875 675.976562 500.898438 675.582031 497.804688 C 675.316406 495.703125 675.121094 493.597656 674.921875 491.492188 C 674.660156 488.859375 674.328125 486.164062 674.066406 483.535156 C 673.933594 482.546875 673.804688 481.558594 673.738281 480.574219 C 673.34375 475.441406 673.011719 470.378906 672.683594 465.25 C 672.550781 463.605469 673.078125 462.878906 674.726562 462.945312 C 675.777344 462.945312 676.964844 463.210938 677.949219 463.605469 C 679.925781 464.394531 681.964844 464.722656 684.136719 464.917969 C 692.5 465.773438 700.792969 465.378906 709.152344 465.445312 C 712.707031 465.445312 716.261719 465.445312 719.816406 465.445312 C 721.464844 465.445312 723.109375 465.183594 724.820312 465.050781 C 726.597656 464.984375 728.375 464.917969 730.152344 464.855469 C 734.957031 464.789062 739.699219 464.523438 744.503906 465.183594 C 745.359375 465.3125 746.28125 465.3125 747.136719 465.378906 C 754.574219 465.378906 762.078125 465.511719 769.519531 465.511719 C 770.375 465.511719 771.230469 465.644531 772.214844 465.707031 C 772.941406 467.484375 772.742188 468.933594 772.480469 470.378906 C 772.28125 471.5625 772.085938 472.8125 772.019531 473.996094 C 771.953125 476.234375 771.820312 478.402344 771.425781 480.640625 C 770.898438 484.058594 770.835938 487.480469 770.570312 490.898438 C 770.242188 494.976562 769.976562 499.121094 769.714844 503.199219 C 769.582031 504.710938 769.648438 506.292969 769.386719 507.804688 C 768.925781 511.09375 768.199219 514.382812 767.742188 517.667969 C 767.148438 521.746094 766.488281 525.824219 766.027344 529.902344 C 765.832031 532.007812 765.304688 534.046875 764.582031 536.019531 C 763.527344 538.847656 762.40625 541.613281 761.289062 544.441406 C 759.839844 547.992188 757.140625 550.492188 754.179688 552.726562 C 751.152344 554.964844 745.886719 553.449219 743.976562 550.160156 C 742.726562 547.992188 741.804688 547.859375 739.761719 549.371094 C 738.578125 550.226562 737.460938 551.082031 736.207031 551.871094 C 731.207031 554.832031 725.742188 555.488281 720.082031 555.027344 C 717.25 554.832031 714.683594 553.78125 712.378906 552.070312 C 711.390625 551.347656 710.46875 550.554688 709.480469 549.832031 C 708.164062 548.847656 706.785156 548.847656 705.402344 549.636719 C 704.546875 550.097656 703.753906 550.753906 702.964844 551.347656 C 700.464844 553.320312 697.566406 553.78125 694.472656 553.78125 C 693.089844 553.78125 691.90625 553.1875 690.785156 552.332031 C 688.351562 550.492188 686.441406 548.1875 684.996094 545.492188 C 682.953125 541.613281 681.636719 537.535156 680.582031 533.257812 C 680.519531 532.929688 680.386719 532.601562 680.453125 532.273438 C 680.78125 529.507812 680.1875 526.8125 679.597656 524.117188 Z M 679.664062 524.179688 " fill-opacity="1" fill-rule="nonzero"/><path fill="#231815" d="M 780.445312 392.570312 C 780.378906 398.027344 779.851562 403.421875 779.457031 408.878906 C 779.457031 409.210938 779.390625 409.539062 779.324219 409.867188 C 779.0625 416.445312 778.734375 422.957031 778.535156 429.535156 C 778.46875 431.902344 778.339844 434.203125 777.679688 436.441406 C 777.484375 437.164062 777.21875 437.953125 777.285156 438.742188 C 777.746094 444.070312 776.890625 449.398438 777.152344 454.726562 C 777.285156 457.027344 777.023438 459.394531 776.101562 461.894531 C 772.613281 462.550781 769.121094 463.667969 765.371094 463.078125 C 763.394531 462.75 761.355469 462.945312 759.378906 462.878906 C 754.179688 462.75 748.914062 462.75 743.714844 462.355469 C 737.855469 461.894531 731.863281 461.828125 726.003906 462.355469 C 717.511719 463.144531 709.085938 462.683594 700.660156 462.878906 C 695.988281 463.011719 691.3125 462.878906 686.640625 462.878906 C 684.535156 462.878906 682.359375 462.683594 680.386719 461.960938 C 677.6875 460.972656 674.988281 460.777344 672.15625 460.90625 C 671.039062 460.90625 669.917969 460.90625 668.800781 460.90625 C 667.8125 460.90625 667.15625 460.316406 666.890625 459.328125 C 666.695312 458.671875 666.496094 458.011719 666.429688 457.355469 C 665.96875 452.488281 665.441406 447.621094 665.046875 442.753906 C 664.585938 437.230469 664.125 431.703125 663.730469 426.113281 C 663.601562 424.535156 663.601562 423.023438 663.601562 421.441406 C 663.601562 417.429688 663.140625 413.484375 662.546875 409.472656 C 662.546875 409.011719 662.347656 408.617188 662.347656 408.15625 C 662.085938 404.078125 661.757812 399.933594 661.625 395.859375 C 661.363281 390.070312 661.164062 384.28125 660.902344 378.558594 C 660.902344 377.441406 660.636719 376.324219 660.507812 375.269531 C 660.242188 373.296875 660.046875 371.324219 660.507812 369.152344 C 661.164062 369.023438 661.558594 368.824219 661.824219 368.957031 C 664.980469 369.878906 668.273438 369.417969 671.433594 369.8125 C 671.894531 369.8125 672.355469 369.878906 672.75 369.8125 C 675.976562 369.285156 679.136719 369.878906 682.359375 370.140625 C 685.585938 370.402344 688.8125 370.667969 692.039062 370.929688 C 692.5 370.929688 692.960938 370.996094 693.355469 370.929688 C 696.578125 370.273438 699.738281 370.535156 702.964844 370.863281 C 704.941406 371.0625 706.914062 371.257812 708.957031 371.390625 C 711.589844 371.519531 714.289062 371.71875 716.988281 371.71875 C 722.253906 371.71875 727.453125 371.652344 732.71875 371.652344 C 736.273438 371.652344 739.828125 371.457031 743.382812 370.863281 C 745.359375 370.535156 747.332031 370.46875 749.375 370.273438 C 752.996094 369.941406 756.679688 369.546875 760.300781 369.21875 C 761.550781 369.085938 762.738281 369.023438 763.988281 368.957031 C 766.554688 368.824219 769.058594 368.429688 771.492188 367.574219 C 774.058594 366.71875 776.757812 366.984375 779.324219 367.246094 C 779.523438 367.640625 779.785156 367.96875 779.851562 368.234375 C 780.117188 373.558594 780.511719 378.886719 780.578125 384.214844 C 780.578125 387.109375 780.578125 390.003906 780.445312 392.832031 Z M 780.445312 392.570312 " fill-opacity="1" fill-rule="nonzero"/><path fill="#301815" d="M 772.742188 465.839844 C 773.46875 467.617188 773.269531 468.996094 773.007812 470.445312 C 772.808594 471.628906 772.613281 472.8125 772.546875 474.0625 C 772.480469 476.234375 772.28125 478.46875 771.953125 480.640625 C 771.425781 483.992188 771.296875 487.414062 771.097656 490.835938 C 770.769531 494.914062 770.503906 498.992188 770.175781 503.003906 C 770.042969 504.515625 770.109375 506.09375 769.847656 507.605469 C 769.320312 510.894531 768.660156 514.117188 768.136719 517.339844 C 767.476562 521.351562 766.882812 525.429688 766.421875 529.441406 C 766.226562 531.546875 765.699219 533.585938 764.910156 535.558594 C 763.855469 538.324219 762.738281 541.085938 761.617188 543.847656 C 760.171875 547.398438 757.40625 549.832031 754.441406 552.003906 C 751.414062 554.238281 746.015625 552.726562 744.109375 549.4375 C 742.855469 547.332031 741.9375 547.136719 739.828125 548.648438 C 738.644531 549.503906 737.523438 550.359375 736.273438 551.082031 C 731.207031 554.042969 725.675781 554.632812 719.949219 554.238281 C 717.050781 554.042969 714.484375 552.988281 712.179688 551.28125 C 711.195312 550.554688 710.207031 549.765625 709.21875 549.042969 C 707.902344 548.058594 706.453125 548.058594 705.070312 548.847656 C 704.214844 549.308594 703.359375 549.898438 702.570312 550.554688 C 700.070312 552.53125 697.105469 552.992188 694.011719 552.992188 C 692.5625 552.992188 691.378906 552.398438 690.328125 551.609375 C 687.890625 549.765625 685.914062 547.53125 684.46875 544.835938 C 682.425781 541.019531 681.042969 536.941406 679.992188 532.730469 C 679.925781 532.402344 679.792969 532.074219 679.859375 531.746094 C 680.1875 528.984375 679.597656 526.351562 679.003906 523.65625 C 678.410156 520.957031 677.882812 518.261719 677.425781 515.566406 C 676.964844 512.605469 676.699219 509.644531 676.238281 506.75 C 675.777344 503.726562 675.25 500.632812 674.855469 497.609375 C 674.59375 495.570312 674.394531 493.464844 674.199219 491.359375 C 673.933594 488.730469 673.605469 486.097656 673.34375 483.46875 C 673.210938 482.480469 673.078125 481.496094 673.011719 480.507812 C 672.617188 475.445312 672.289062 470.378906 671.960938 465.3125 C 671.828125 463.671875 672.355469 463.011719 674 463.078125 C 675.121094 463.078125 676.238281 463.339844 677.226562 463.734375 C 679.265625 464.523438 681.308594 464.855469 683.480469 465.050781 C 691.90625 465.90625 700.398438 465.511719 708.824219 465.578125 C 712.445312 465.578125 716.066406 465.578125 719.621094 465.578125 C 721.332031 465.578125 722.976562 465.3125 724.6875 465.183594 C 726.464844 465.117188 728.242188 465.050781 730.085938 465.050781 C 734.957031 464.984375 739.761719 464.722656 744.570312 465.378906 C 745.492188 465.511719 746.347656 465.511719 747.269531 465.578125 C 754.839844 465.578125 762.34375 465.707031 769.914062 465.707031 C 770.769531 465.707031 771.691406 465.839844 772.675781 465.90625 Z M 772.742188 465.839844 " fill-opacity="1" fill-rule="nonzero"/><path fill="#301815" d="M 773.007812 355.667969 C 772.28125 350.867188 771.425781 346 770.503906 341.265625 C 770.042969 338.898438 769.253906 336.59375 768.464844 334.226562 C 768.003906 332.78125 767.28125 331.332031 766.820312 329.886719 C 765.566406 325.941406 763.921875 322.191406 761.15625 319.035156 C 758.0625 315.417969 755.035156 311.734375 750.558594 309.761719 C 749.636719 309.367188 748.847656 308.773438 748.058594 308.117188 C 746.808594 307.128906 745.492188 306.539062 743.777344 306.933594 C 743.1875 307.0625 742.460938 306.933594 741.871094 306.734375 C 741.015625 306.339844 740.160156 306.472656 739.300781 306.601562 C 738.316406 306.800781 737.394531 306.933594 736.40625 306.996094 C 731.140625 307.390625 725.9375 308.179688 720.671875 308.050781 C 720.015625 308.050781 719.355469 308.117188 718.699219 308.246094 C 714.550781 308.773438 710.339844 308.90625 706.257812 308.511719 C 699.9375 307.851562 693.617188 307.328125 687.429688 305.746094 C 686.046875 305.417969 685.125 305.746094 684.203125 306.667969 C 682.425781 308.445312 680.714844 310.351562 678.9375 312.128906 C 676.964844 314.035156 675.515625 316.402344 673.871094 318.640625 C 673.472656 319.164062 673.210938 319.824219 673.078125 320.480469 C 672.027344 324.097656 670.90625 327.714844 670.117188 331.398438 C 669.394531 334.953125 669.328125 338.699219 668.472656 342.253906 C 666.761719 349.554688 667.878906 356.855469 668.140625 364.15625 C 668.140625 364.285156 668.140625 364.484375 668.207031 364.613281 C 671.039062 365.074219 673.871094 365.46875 676.765625 365.800781 C 678.410156 365.40625 680.121094 365.535156 681.835938 365.800781 C 685.125 366.195312 688.351562 366.851562 691.644531 366.652344 C 696.054688 366.457031 700.332031 367.445312 704.742188 367.378906 C 708.230469 367.3125 711.65625 368.429688 715.210938 368.035156 C 716.195312 367.902344 717.183594 368.035156 718.171875 368.035156 C 723.964844 368.035156 729.824219 368.035156 735.617188 368.035156 C 736.601562 368.035156 737.589844 367.902344 738.578125 367.773438 C 744.109375 367.3125 749.636719 366.195312 755.234375 366.0625 C 757.867188 366.0625 760.433594 365.535156 763.066406 365.207031 C 763.789062 365.140625 764.515625 364.8125 765.304688 364.550781 C 766.753906 364.15625 768.265625 363.761719 769.714844 363.367188 C 770.835938 363.035156 772.085938 362.972656 773.203125 361.851562 C 773.203125 359.945312 773.46875 357.773438 773.203125 355.734375 Z M 773.007812 355.667969 " fill-opacity="1" fill-rule="nonzero"/><path fill="#231815" d="M 731.402344 296.34375 C 721.59375 297.066406 712.117188 296.671875 702.703125 295.355469 C 702.703125 293.121094 702.898438 292.855469 704.480469 292.988281 C 708.691406 293.382812 712.839844 294.171875 717.117188 293.972656 C 717.777344 293.972656 718.433594 294.105469 719.09375 294.238281 C 720.738281 294.566406 722.382812 294.5 724.03125 294.238281 C 725.875 293.972656 727.78125 293.972656 729.691406 294.039062 C 730.875 294.039062 731.46875 294.765625 731.402344 296.40625 Z M 731.402344 296.34375 " fill-opacity="1" fill-rule="nonzero"/><path fill="#231815" d="M 695.722656 243.527344 C 698.621094 243.527344 701.515625 243.527344 704.347656 243.527344 C 705.863281 243.527344 707.375 243.261719 708.890625 243.132812 C 710.339844 243.066406 711.71875 243 713.167969 243.066406 C 715.210938 243.132812 717.25 243.394531 719.289062 243.527344 C 721.726562 243.65625 724.160156 243.855469 726.597656 243.988281 C 727.585938 243.988281 728.636719 243.988281 729.625 243.789062 C 732.71875 243.199219 735.484375 244.183594 738.25 245.234375 C 739.300781 245.632812 739.761719 246.550781 739.894531 247.605469 C 739.894531 247.933594 739.894531 248.195312 739.894531 248.523438 C 739.894531 253.457031 740.421875 258.257812 740.882812 263.125 C 740.882812 263.71875 740.949219 264.375 740.949219 264.96875 C 740.949219 268.257812 741.078125 271.414062 742.199219 274.636719 C 743.253906 277.726562 742.527344 278.648438 739.171875 278.914062 C 737.0625 279.109375 734.890625 279.042969 732.71875 279.042969 C 731.007812 279.042969 729.296875 279.042969 727.519531 279.4375 C 726.335938 279.703125 725.082031 279.636719 723.898438 279.636719 C 720.015625 279.636719 716.132812 279.636719 712.246094 279.703125 C 711.851562 279.703125 711.390625 279.703125 710.996094 279.703125 C 707.375 280.359375 703.886719 279.703125 700.398438 278.914062 C 698.6875 278.582031 696.976562 278.253906 695.328125 277.792969 C 693.550781 277.332031 692.960938 276.414062 693.421875 274.636719 C 694.144531 272.070312 694.078125 269.375 695.261719 266.941406 C 695.59375 266.21875 695.527344 265.363281 695.527344 264.507812 C 695.460938 257.800781 695.328125 251.023438 695.261719 244.316406 C 695.261719 244.117188 695.394531 243.921875 695.59375 243.328125 Z M 695.722656 243.527344 " fill-opacity="1" fill-rule="nonzero"/><path fill="#231815" d="M 739.894531 275.359375 C 740.09375 274.242188 739.894531 273.125 739.171875 272.203125 C 737.921875 270.492188 737.921875 268.652344 738.183594 266.679688 C 738.445312 264.902344 738.183594 263.0625 738.183594 261.21875 C 738.183594 260.429688 737.984375 259.574219 737.921875 258.785156 C 737.722656 255.300781 737.523438 251.878906 737.328125 248.394531 C 737.261719 247.078125 736.867188 246.683594 735.484375 246.355469 C 733.640625 245.894531 731.863281 245.894531 730.019531 246.355469 C 728.175781 246.75 726.398438 246.683594 724.558594 246.355469 C 723.175781 246.15625 721.726562 246.089844 720.277344 246.027344 C 717.910156 245.894531 715.605469 245.761719 713.234375 245.632812 C 712.640625 245.632812 711.984375 245.566406 711.390625 245.632812 C 708.363281 246.289062 705.269531 246.027344 702.242188 246.027344 C 701.453125 246.027344 700.59375 245.960938 699.804688 246.027344 C 698.292969 246.089844 697.832031 246.683594 697.832031 248.128906 C 697.832031 250.695312 697.898438 253.195312 697.960938 255.761719 C 698.027344 259.707031 697.699219 263.71875 698.488281 267.664062 C 698.6875 268.71875 698.421875 269.636719 697.632812 270.492188 C 696.316406 271.941406 696.054688 273.652344 696.316406 275.6875 C 696.777344 275.886719 697.238281 276.148438 697.699219 276.28125 C 702.570312 277.859375 707.507812 278.253906 712.511719 277.664062 C 715.078125 277.332031 717.578125 277.269531 720.144531 277.269531 C 722.714844 277.269531 725.214844 277.136719 727.78125 277.070312 C 728.96875 277.070312 730.21875 276.808594 731.402344 276.742188 C 733.046875 276.742188 734.695312 276.742188 736.273438 276.742188 C 737.523438 276.742188 738.710938 276.542969 739.632812 275.492188 Z M 739.894531 275.359375 " fill-opacity="1" fill-rule="nonzero"/><path fill="#e60012" d="M 659.648438 368.167969 C 660.375 368.035156 660.703125 367.839844 661.03125 367.96875 C 664.257812 368.890625 667.550781 368.429688 670.773438 368.824219 C 671.234375 368.824219 671.695312 368.890625 672.09375 368.824219 C 675.382812 368.296875 678.609375 368.890625 681.835938 369.152344 C 685.125 369.417969 688.351562 369.679688 691.644531 369.941406 C 692.105469 369.941406 692.5625 370.007812 693.023438 369.941406 C 696.25 369.21875 699.542969 369.546875 702.769531 369.878906 C 704.808594 370.074219 706.785156 370.273438 708.824219 370.402344 C 711.523438 370.535156 714.222656 370.730469 716.988281 370.730469 C 722.320312 370.730469 727.652344 370.667969 732.917969 370.667969 C 736.539062 370.667969 740.160156 370.46875 743.714844 369.878906 C 745.6875 369.546875 747.726562 369.480469 749.769531 369.285156 C 753.457031 368.890625 757.207031 368.5625 760.894531 368.167969 C 762.144531 368.035156 763.394531 367.96875 764.644531 367.902344 C 767.28125 367.773438 769.78125 367.378906 772.28125 366.523438 C 774.914062 365.601562 777.613281 365.929688 780.246094 366.128906 C 780.445312 366.589844 780.773438 366.851562 780.773438 367.113281 C 781.039062 372.507812 781.433594 377.902344 781.5 383.292969 C 781.5 386.1875 781.5 389.148438 781.367188 392.042969 C 781.300781 397.566406 780.707031 403.027344 780.378906 408.550781 C 780.378906 408.878906 780.3125 409.210938 780.246094 409.539062 C 779.984375 416.179688 779.65625 422.824219 779.457031 429.402344 C 779.390625 431.769531 779.195312 434.136719 778.601562 436.441406 C 778.40625 437.164062 778.140625 438.019531 778.207031 438.742188 C 778.667969 444.136719 777.8125 449.527344 778.074219 454.921875 C 778.207031 457.289062 777.945312 459.65625 777.023438 462.15625 C 773.46875 462.816406 769.976562 463.933594 766.160156 463.339844 C 764.1875 463.011719 762.078125 463.210938 760.039062 463.144531 C 754.707031 463.011719 749.441406 463.011719 744.109375 462.617188 C 738.117188 462.15625 732.0625 462.089844 726.136719 462.617188 C 717.511719 463.40625 708.957031 462.945312 700.398438 463.144531 C 695.660156 463.273438 690.917969 463.144531 686.113281 463.144531 C 683.941406 463.144531 681.769531 462.945312 679.792969 462.15625 C 677.09375 461.171875 674.265625 460.972656 671.433594 461.039062 C 670.316406 461.039062 669.195312 461.039062 668.011719 461.039062 C 667.023438 461.039062 666.300781 460.445312 666.035156 459.460938 C 665.839844 458.800781 665.640625 458.144531 665.574219 457.488281 C 665.113281 452.554688 664.585938 447.621094 664.191406 442.6875 C 663.730469 437.097656 663.269531 431.507812 662.808594 425.851562 C 662.679688 424.273438 662.679688 422.691406 662.679688 421.113281 C 662.679688 417.035156 662.21875 413.023438 661.625 409.011719 C 661.625 408.550781 661.425781 408.15625 661.425781 407.695312 C 661.164062 403.554688 660.835938 399.410156 660.636719 395.265625 C 660.375 389.410156 660.175781 383.558594 659.914062 377.769531 C 659.914062 376.652344 659.648438 375.535156 659.519531 374.414062 C 659.253906 372.441406 659.058594 370.402344 659.519531 368.234375 Z M 659.648438 368.167969 " fill-opacity="1" fill-rule="nonzero"/><path fill="#e60012" d="M 739.566406 272.136719 C 738.316406 270.425781 738.316406 268.585938 738.578125 266.546875 C 738.839844 264.707031 738.578125 262.863281 738.578125 261.023438 C 738.578125 260.234375 738.382812 259.378906 738.316406 258.589844 C 738.117188 255.101562 737.921875 251.550781 737.65625 248.066406 C 737.589844 246.683594 737.195312 246.289062 735.8125 245.960938 C 733.96875 245.5 732.128906 245.5 730.21875 245.960938 C 728.375 246.355469 726.53125 246.289062 724.621094 245.960938 C 723.175781 245.761719 721.726562 245.695312 720.277344 245.632812 C 717.910156 245.5 715.539062 245.300781 713.101562 245.171875 C 712.511719 245.171875 711.851562 245.039062 711.257812 245.171875 C 708.164062 245.828125 705.070312 245.566406 701.910156 245.566406 C 701.054688 245.566406 700.265625 245.5 699.410156 245.566406 C 697.898438 245.632812 697.371094 246.222656 697.4375 247.734375 C 697.4375 250.300781 697.566406 252.867188 697.566406 255.496094 C 697.632812 259.507812 697.304688 263.585938 698.09375 267.535156 C 698.292969 268.585938 698.027344 269.507812 697.238281 270.363281 C 695.921875 271.808594 695.59375 273.585938 695.921875 275.625 C 696.382812 275.820312 696.84375 276.085938 697.371094 276.28125 C 702.308594 277.859375 707.375 278.253906 712.445312 277.664062 C 715.011719 277.332031 717.578125 277.269531 720.210938 277.269531 C 722.78125 277.269531 725.414062 277.136719 727.980469 277.070312 C 729.230469 277.070312 730.480469 276.808594 731.667969 276.742188 C 733.3125 276.742188 735.023438 276.742188 736.667969 276.742188 C 737.921875 276.742188 739.171875 276.542969 740.09375 275.492188 C 740.289062 274.375 740.09375 273.191406 739.367188 272.269531 Z M 739.566406 272.136719 " fill-opacity="1" fill-rule="nonzero"/><path fill="#e60012" d="M 705.53125 261.480469 C 705.53125 261.023438 705.335938 260.628906 705.402344 260.234375 C 705.796875 258.71875 705.597656 257.207031 705.402344 255.695312 C 705.269531 254.574219 705.402344 253.457031 705.464844 252.339844 C 705.464844 251.8125 705.597656 251.351562 705.597656 250.828125 C 705.597656 250.039062 704.941406 249.3125 704.347656 249.378906 C 703.558594 249.445312 703.425781 250.105469 703.425781 250.761719 C 703.492188 253.195312 703.625 255.628906 703.753906 258.0625 C 703.753906 259.113281 704.28125 260.234375 703.953125 261.285156 C 702.570312 261.679688 701.320312 262.074219 700.132812 262.402344 C 700.070312 263.585938 700.726562 263.851562 701.453125 263.914062 C 703.953125 264.113281 706.519531 264.441406 709.085938 264.507812 C 717.050781 264.707031 724.953125 264.769531 732.917969 264.507812 C 733.378906 264.507812 733.839844 264.3125 734.429688 264.113281 C 734.167969 263.652344 734.101562 263.324219 733.90625 263.191406 C 732.71875 262.46875 731.46875 262.140625 730.085938 262.335938 C 729.363281 262.46875 728.703125 262.601562 727.980469 262.667969 C 720.738281 263.0625 713.496094 262.335938 706.324219 261.941406 C 706.125 261.941406 705.925781 261.8125 705.464844 261.546875 Z M 705.53125 261.480469 " fill-opacity="1" fill-rule="nonzero"/><path fill="#e60012" d="M 700.859375 268.914062 C 701.320312 270.164062 702.371094 270.230469 703.164062 270.363281 C 705.664062 270.820312 708.230469 270.625 710.667969 271.546875 C 710.996094 271.675781 711.457031 271.480469 711.851562 271.480469 C 713.101562 271.414062 714.289062 271.28125 715.539062 271.28125 C 718.960938 271.28125 722.449219 271.480469 725.875 270.757812 C 727.257812 270.492188 728.703125 270.757812 730.152344 270.886719 C 730.746094 270.886719 731.335938 271.152344 731.929688 271.21875 C 733.113281 271.347656 733.96875 270.953125 733.90625 270.363281 C 733.773438 269.507812 733.113281 269.242188 732.390625 269.046875 C 731.796875 268.914062 731.207031 268.847656 730.613281 268.78125 C 729.824219 268.71875 728.96875 268.71875 728.175781 268.519531 C 726.859375 268.191406 725.542969 268.453125 724.226562 268.519531 C 719.226562 268.71875 714.289062 268.71875 709.285156 268.78125 C 708.890625 268.78125 708.496094 268.519531 708.101562 268.519531 C 706.058594 268.453125 704.019531 268.324219 702.042969 268.386719 C 701.648438 268.386719 701.253906 268.78125 700.859375 269.046875 Z M 700.859375 268.914062 " fill-opacity="1" fill-rule="nonzero"/><path fill="#e60012" d="M 715.273438 260.628906 C 715.671875 259.96875 716.066406 259.574219 716.066406 259.113281 C 716.394531 256.878906 716.589844 254.707031 716.855469 252.472656 C 716.855469 252.078125 716.855469 251.683594 716.789062 251.289062 C 716.65625 250.695312 715.867188 250.105469 715.472656 250.300781 C 715.078125 250.5625 714.683594 251.023438 714.683594 251.417969 C 714.617188 254.050781 714.617188 256.679688 714.683594 259.3125 C 714.683594 259.640625 715.011719 259.96875 715.40625 260.5625 Z M 715.273438 260.628906 " fill-opacity="1" fill-rule="nonzero"/><path fill="#e60012" d="M 710.007812 258.984375 C 711.324219 256.351562 711.785156 252.800781 711.128906 250.894531 C 710.996094 250.5625 710.46875 250.367188 710.007812 249.972656 C 708.824219 252.996094 709.152344 255.695312 710.007812 258.984375 Z M 710.007812 258.984375 " fill-opacity="1" fill-rule="nonzero"/><path fill="#e60012" d="M 719.949219 250.105469 C 719.027344 253.328125 719.289062 256.945312 720.605469 258.984375 C 720.804688 258.71875 721.066406 258.457031 721.066406 258.257812 C 721.132812 256.15625 721.199219 253.984375 721.265625 251.878906 C 721.265625 251.484375 721.132812 251.023438 720.871094 250.761719 C 720.671875 250.5 720.277344 250.367188 719.882812 250.167969 Z M 719.949219 250.105469 " fill-opacity="1" fill-rule="nonzero"/><path fill="#e60012" d="M 725.742188 259.902344 C 727.257812 257.207031 726.730469 254.707031 726.796875 252.339844 C 726.796875 251.8125 726.53125 251.289062 726.398438 250.761719 C 725.214844 250.957031 725.148438 251.746094 725.082031 252.40625 C 724.953125 254.773438 724.492188 257.207031 725.742188 259.902344 Z M 725.742188 259.902344 " fill-opacity="1" fill-rule="nonzero"/><path fill="#e60012" d="M 732.457031 258.257812 C 733.046875 256.746094 732.984375 255.234375 732.917969 253.722656 C 732.917969 253.0625 732.785156 252.273438 732.457031 251.683594 C 732.257812 251.289062 731.601562 251.023438 730.613281 250.300781 C 731.007812 253.457031 731.007812 255.957031 732.457031 258.195312 Z M 732.457031 258.257812 " fill-opacity="1" fill-rule="nonzero"/><path fill="#231815" d="M 705.53125 261.480469 C 705.992188 261.679688 706.191406 261.8125 706.386719 261.878906 C 713.628906 262.273438 720.804688 262.996094 728.046875 262.601562 C 728.769531 262.601562 729.429688 262.402344 730.152344 262.273438 C 731.535156 262.007812 732.785156 262.402344 733.96875 263.125 C 734.167969 263.257812 734.234375 263.585938 734.496094 264.046875 C 733.90625 264.179688 733.445312 264.375 732.984375 264.441406 C 725.019531 264.769531 717.117188 264.707031 709.152344 264.441406 C 706.585938 264.375 704.085938 264.113281 701.515625 263.851562 C 700.792969 263.785156 700.132812 263.519531 700.199219 262.335938 C 701.386719 262.007812 702.636719 261.613281 704.019531 261.21875 C 704.347656 260.167969 703.886719 259.113281 703.820312 257.996094 C 703.6875 255.5625 703.558594 253.128906 703.492188 250.695312 C 703.492188 250.105469 703.625 249.445312 704.414062 249.3125 C 705.007812 249.3125 705.664062 249.972656 705.664062 250.761719 C 705.664062 251.289062 705.53125 251.746094 705.53125 252.273438 C 705.53125 253.390625 705.335938 254.511719 705.464844 255.628906 C 705.597656 257.140625 705.796875 258.652344 705.464844 260.167969 C 705.402344 260.5625 705.53125 260.957031 705.597656 261.417969 Z M 705.53125 261.480469 " fill-opacity="1" fill-rule="nonzero"/><path fill="#231815" d="M 700.859375 268.914062 C 701.253906 268.71875 701.648438 268.257812 702.042969 268.257812 C 704.085938 268.257812 706.125 268.324219 708.101562 268.386719 C 708.496094 268.386719 708.890625 268.652344 709.285156 268.652344 C 714.289062 268.652344 719.226562 268.652344 724.226562 268.386719 C 725.542969 268.386719 726.859375 268.125 728.175781 268.386719 C 728.96875 268.585938 729.824219 268.585938 730.613281 268.652344 C 731.207031 268.71875 731.863281 268.78125 732.390625 268.914062 C 733.113281 269.113281 733.773438 269.375 733.90625 270.230469 C 733.96875 270.820312 733.113281 271.21875 731.929688 271.085938 C 731.335938 271.085938 730.746094 270.820312 730.152344 270.757812 C 728.703125 270.691406 727.257812 270.363281 725.875 270.625 C 722.449219 271.28125 718.960938 271.085938 715.539062 271.152344 C 714.289062 271.152344 713.101562 271.28125 711.851562 271.347656 C 711.457031 271.347656 710.996094 271.546875 710.667969 271.414062 C 708.230469 270.492188 705.664062 270.691406 703.164062 270.230469 C 702.308594 270.097656 701.253906 270.03125 700.859375 268.78125 Z M 700.859375 268.914062 " fill-opacity="1" fill-rule="nonzero"/><path fill="#231815" d="M 715.273438 260.628906 C 714.945312 260.035156 714.550781 259.707031 714.550781 259.378906 C 714.550781 256.746094 714.550781 254.117188 714.550781 251.484375 C 714.550781 251.089844 715.011719 250.628906 715.339844 250.367188 C 715.734375 250.105469 716.589844 250.761719 716.65625 251.351562 C 716.722656 251.746094 716.789062 252.140625 716.722656 252.539062 C 716.460938 254.773438 716.261719 256.945312 715.933594 259.179688 C 715.933594 259.574219 715.472656 259.96875 715.144531 260.691406 Z M 715.273438 260.628906 " fill-opacity="1" fill-rule="nonzero"/><path fill="#231815" d="M 710.007812 258.984375 C 709.152344 255.695312 708.824219 252.996094 710.007812 249.972656 C 710.535156 250.367188 711.0625 250.5625 711.128906 250.894531 C 711.785156 252.800781 711.324219 256.351562 710.007812 258.984375 Z M 710.007812 258.984375 " fill-opacity="1" fill-rule="nonzero"/><path fill="#231815" d="M 719.949219 250.105469 C 720.277344 250.300781 720.738281 250.433594 720.9375 250.695312 C 721.132812 251.023438 721.332031 251.417969 721.332031 251.8125 C 721.332031 253.984375 721.265625 256.089844 721.132812 258.195312 C 721.132812 258.457031 720.804688 258.652344 720.671875 258.917969 C 719.355469 256.878906 719.027344 253.261719 720.015625 250.039062 Z M 719.949219 250.105469 " fill-opacity="1" fill-rule="nonzero"/><path fill="#231815" d="M 725.742188 259.902344 C 724.492188 257.140625 725.019531 254.773438 725.082031 252.40625 C 725.082031 251.746094 725.214844 250.957031 726.398438 250.761719 C 726.53125 251.289062 726.859375 251.8125 726.796875 252.339844 C 726.730469 254.707031 727.191406 257.207031 725.742188 259.902344 Z M 725.742188 259.902344 " fill-opacity="1" fill-rule="nonzero"/><path fill="#231815" d="M 732.457031 258.257812 C 730.941406 256.023438 731.007812 253.457031 730.613281 250.367188 C 731.667969 251.089844 732.257812 251.351562 732.457031 251.746094 C 732.785156 252.339844 732.917969 253.0625 732.917969 253.785156 C 732.917969 255.300781 733.046875 256.8125 732.457031 258.324219 Z M 732.457031 258.257812 " fill-opacity="1" fill-rule="nonzero"/><path fill="#ffffff" d="M 683.414062 334.292969 C 679.070312 334.292969 679.070312 341.003906 683.414062 341.003906 C 687.757812 341.003906 687.757812 334.292969 683.414062 334.292969 Z M 683.414062 334.292969 " fill-opacity="1" fill-rule="nonzero"/><path fill="#ffffff" d="M 695 355.667969 C 690.65625 355.667969 690.65625 362.378906 695 362.378906 C 699.34375 362.378906 699.34375 355.667969 695 355.667969 Z M 695 355.667969 " fill-opacity="1" fill-rule="nonzero"/><path fill="#ffffff" d="M 687.824219 481.164062 C 683.480469 481.164062 683.480469 487.875 687.824219 487.875 C 692.167969 487.875 692.167969 481.164062 687.824219 481.164062 Z M 687.824219 481.164062 " fill-opacity="1" fill-rule="nonzero"/><path fill="#ffffff" d="M 699.410156 508.328125 C 695.066406 508.328125 695.066406 515.039062 699.410156 515.039062 C 703.753906 515.039062 703.753906 508.328125 699.410156 508.328125 Z M 699.410156 508.328125 " fill-opacity="1" fill-rule="nonzero"/><path fill="#ffffff" d="M 693.222656 527.929688 C 688.878906 527.929688 688.878906 534.640625 693.222656 534.640625 C 697.566406 534.640625 697.566406 527.929688 693.222656 527.929688 Z M 693.222656 527.929688 " fill-opacity="1" fill-rule="nonzero"/><path fill="#ffffff" d="M 701.648438 540.953125 C 700.332031 540.953125 700.332031 542.992188 701.648438 542.992188 C 702.964844 542.992188 702.964844 540.953125 701.648438 540.953125 Z M 701.648438 540.953125 " fill-opacity="1" fill-rule="nonzero"/><path fill="#ffffff" d="M 690.984375 325.085938 C 689.667969 325.085938 689.667969 327.125 690.984375 327.125 C 692.300781 327.125 692.300781 325.085938 690.984375 325.085938 Z M 690.984375 325.085938 " fill-opacity="1" fill-rule="nonzero"/><path fill="#ffffff" d="M 687.429688 315.285156 C 686.113281 315.285156 686.113281 317.324219 687.429688 317.324219 C 688.746094 317.324219 688.746094 315.285156 687.429688 315.285156 Z M 687.429688 315.285156 " fill-opacity="1" fill-rule="nonzero"/><path fill="#ffffff" d="M 688.285156 350.867188 C 686.96875 350.867188 686.96875 352.90625 688.285156 352.90625 C 689.601562 352.90625 689.601562 350.867188 688.285156 350.867188 Z M 688.285156 350.867188 " fill-opacity="1" fill-rule="nonzero"/><path fill="#ffffff" d="M 673.605469 351.789062 C 672.289062 351.789062 672.289062 353.828125 673.605469 353.828125 C 674.921875 353.828125 674.921875 351.789062 673.605469 351.789062 Z M 673.605469 351.789062 " fill-opacity="1" fill-rule="nonzero"/><path fill="#ffffff" d="M 688.285156 472.417969 C 686.96875 472.417969 686.96875 474.457031 688.285156 474.457031 C 689.601562 474.457031 689.601562 472.417969 688.285156 472.417969 Z M 688.285156 472.417969 " fill-opacity="1" fill-rule="nonzero"/><path fill="#ffffff" d="M 698.09375 502.277344 C 696.777344 502.277344 696.777344 504.316406 698.09375 504.316406 C 699.410156 504.316406 699.410156 502.277344 698.09375 502.277344 Z M 698.09375 502.277344 " fill-opacity="1" fill-rule="nonzero"/><path fill="#ffffff" d="M 682.03125 496.03125 C 680.714844 496.03125 680.714844 498.070312 682.03125 498.070312 C 683.347656 498.070312 683.347656 496.03125 682.03125 496.03125 Z M 682.03125 496.03125 " fill-opacity="1" fill-rule="nonzero"/><path fill="#ffffff" d="M 687.429688 506.6875 C 686.113281 506.6875 686.113281 508.726562 687.429688 508.726562 C 688.746094 508.726562 688.746094 506.6875 687.429688 506.6875 Z M 687.429688 506.6875 " fill-opacity="1" fill-rule="nonzero"/><path fill="#ffffff" d="M 710.535156 403.09375 C 721.59375 396.710938 735.351562 394.542969 747.992188 395.660156 C 752.335938 396.054688 752.269531 389.28125 747.992188 388.953125 C 731.269531 387.4375 711.851562 391.582031 699.148438 403.09375 C 687.957031 413.289062 682.953125 431.113281 692.894531 443.9375 C 701.582031 455.054688 719.75 456.039062 727.320312 443.347656 C 731.863281 445.1875 737.195312 445.121094 741.476562 442.753906 C 748.058594 439.070312 751.085938 430.914062 749.175781 423.746094 C 748.058594 419.535156 741.539062 421.3125 742.660156 425.519531 C 744.898438 433.613281 736.800781 440.320312 729.625 437.03125 C 730.613281 432.03125 730.152344 426.3125 724.886719 425.71875 C 722.054688 425.390625 719.355469 427.230469 718.5 429.863281 C 717.382812 433.347656 719.355469 437.03125 721.726562 439.53125 C 719.554688 443.347656 715.671875 445.84375 711.257812 445.976562 C 700.792969 446.371094 694.011719 436.636719 694.210938 426.902344 C 694.472656 416.574219 701.910156 408.027344 710.46875 403.09375 Z M 710.535156 403.09375 " fill-opacity="1" fill-rule="nonzero"/><path fill="#ffffff" d="M 730.152344 408.617188 C 725.808594 408.617188 725.808594 415.328125 730.152344 415.328125 C 734.496094 415.328125 734.496094 408.617188 730.152344 408.617188 Z M 730.152344 408.617188 " fill-opacity="1" fill-rule="nonzero"/><path fill="#ffffff" d="M 742.660156 404.605469 C 738.316406 404.605469 738.316406 411.3125 742.660156 411.3125 C 747.003906 411.3125 747.003906 404.605469 742.660156 404.605469 Z M 742.660156 404.605469 " fill-opacity="1" fill-rule="nonzero"/></svg>