<svg xmlns="http://www.w3.org/2000/svg" xmlns:xlink="http://www.w3.org/1999/xlink" width="1920" zoomAndPan="magnify" viewBox="0 0 1440 809.999993" height="1080" preserveAspectRatio="xMidYMid meet" version="1.0"><defs><clipPath id="e03582ee85"><path d="M 609.175781 177 L 831 177 L 831 688 L 609.175781 688 Z M 609.175781 177 " clip-rule="nonzero"/></clipPath><clipPath id="8478d92ed6"><path d="M 673 121.5 L 760 121.5 L 760 187 L 673 187 Z M 673 121.5 " clip-rule="nonzero"/></clipPath></defs><g clip-path="url(#e03582ee85)"><path fill="#231815" d="M 830.570312 357.230469 C 830.570312 351.820312 829.878906 346.414062 829.648438 340.886719 C 829.417969 332.945312 830.109375 324.886719 828.378906 317.0625 C 827.800781 314.644531 827.457031 312.113281 827.109375 309.578125 C 825.613281 298.414062 823.191406 287.363281 819.15625 276.773438 C 816.15625 268.949219 812.351562 261.464844 807.742188 254.445312 C 805.78125 251.566406 803.589844 248.6875 802.09375 245.582031 C 800.59375 242.472656 798.519531 240.058594 796.210938 237.640625 C 792.984375 234.417969 789.527344 231.882812 785.492188 229.699219 C 778.34375 225.785156 772 220.488281 764.046875 217.839844 C 761.96875 217.152344 760.585938 215.425781 760.472656 213.007812 C 760.242188 209.667969 759.78125 206.445312 759.550781 203.109375 C 759.320312 200.460938 759.550781 197.929688 761.855469 196.203125 C 763.46875 195.050781 763.929688 193.441406 763.929688 191.597656 C 763.929688 189.988281 764.160156 188.492188 763.929688 186.878906 C 763.46875 181.355469 760.355469 179.050781 754.9375 179.628906 C 749.171875 180.316406 743.292969 181.125 737.527344 181.238281 C 727.382812 181.355469 717.238281 181.8125 707.207031 180.546875 C 698.097656 179.28125 688.992188 178.9375 679.882812 178.015625 C 678.152344 177.902344 676.425781 177.441406 674.695312 177.210938 C 673.082031 176.980469 671.582031 177.324219 670.3125 178.476562 C 666.96875 181.46875 666.046875 191.136719 671.695312 193.898438 C 673.082031 194.589844 674.347656 195.394531 675.730469 196.085938 C 675.730469 198.734375 675.617188 201.035156 675.730469 203.339844 C 676.078125 207.367188 675.960938 209.324219 672.964844 209.554688 C 672.734375 209.785156 672.386719 210.015625 672.042969 210.015625 C 671.121094 210.246094 670.082031 210.359375 669.160156 210.707031 C 667.316406 211.511719 665.242188 212.085938 663.164062 212.546875 C 661.4375 213.121094 659.589844 213.8125 657.863281 214.503906 C 655.441406 215.886719 653.019531 217.265625 650.597656 218.648438 C 648.636719 219.914062 646.679688 221.179688 644.832031 222.445312 C 642.875 223.710938 640.796875 224.976562 638.839844 226.472656 C 633.996094 233.378906 628.460938 239.941406 624.886719 247.652344 C 623.503906 250.644531 622.238281 253.753906 620.851562 256.746094 C 617.394531 264.804688 615.78125 273.550781 613.011719 281.839844 C 612.78125 282.414062 612.898438 282.992188 612.78125 283.566406 C 612.320312 288.398438 611.976562 293.234375 611.167969 298.070312 C 609.554688 308.429688 609.207031 318.671875 609.207031 329.03125 C 609.207031 337.203125 609.207031 345.375 609.667969 353.546875 C 610.132812 363.679688 610.9375 373.691406 611.515625 383.820312 C 612.089844 393.488281 612.207031 403.273438 613.128906 412.941406 C 614.050781 423.070312 615.320312 433.085938 615.320312 443.214844 C 615.320312 444.367188 615.320312 445.515625 615.550781 446.667969 C 616.585938 456.335938 617.625 466.003906 618.546875 475.671875 C 619.125 482.003906 619.355469 488.449219 620.046875 494.894531 C 621.3125 505.714844 621.777344 516.652344 622.238281 527.46875 C 622.238281 528.851562 622.238281 530.234375 622.351562 531.613281 C 623.042969 541.511719 623.851562 551.410156 624.425781 561.3125 C 624.773438 567.871094 624.773438 574.546875 625.234375 581.109375 C 625.695312 589.511719 626.273438 597.796875 626.847656 606.085938 C 626.847656 607.007812 627.078125 608.042969 627.308594 608.964844 C 629.152344 616.558594 630.882812 624.15625 632.957031 631.640625 C 634.917969 638.773438 635.839844 646.027344 639.300781 652.816406 C 642.527344 659.148438 645.988281 665.132812 650.136719 670.773438 C 653.136719 674.6875 656.824219 677.566406 661.667969 679.40625 C 667.316406 681.480469 672.964844 682.054688 678.84375 682.398438 C 683.339844 682.628906 687.261719 681.480469 691.066406 679.175781 C 692.910156 678.027344 694.640625 676.875 696.601562 675.722656 C 697.636719 676.414062 698.789062 676.988281 699.597656 677.796875 C 702.710938 680.671875 706.628906 682.054688 710.550781 682.976562 C 713.433594 683.664062 716.316406 684.125 719.082031 684.816406 C 728.765625 686.886719 738.105469 686.429688 746.984375 681.707031 C 750.09375 680.097656 752.976562 678.140625 755.976562 676.300781 C 756.207031 676.414062 756.550781 676.527344 756.78125 676.875 C 760.011719 682.628906 765.3125 685.277344 771.425781 686.660156 C 779.726562 688.5 787.21875 685.738281 794.597656 682.515625 C 795.40625 682.167969 796.097656 681.25 796.789062 680.558594 C 802.324219 675.839844 804.976562 669.277344 807.511719 662.832031 C 808.433594 660.53125 809.242188 658.113281 809.933594 655.695312 C 811.890625 648.558594 813.851562 641.421875 815.582031 634.285156 C 816.503906 630.488281 816.964844 626.6875 817.65625 622.777344 C 818.464844 617.941406 819.5 613.222656 820.078125 608.386719 C 821 600.5625 822.039062 592.617188 821.691406 584.675781 C 821.460938 578.347656 822.269531 571.898438 822.730469 565.453125 C 822.730469 564.648438 822.730469 563.957031 822.960938 563.152344 C 823.652344 555.554688 824.574219 548.074219 824.921875 540.476562 C 825.496094 527.46875 825.726562 514.464844 826.1875 501.457031 C 826.648438 487.414062 827.109375 473.488281 827.570312 459.445312 C 827.570312 458.523438 827.6875 457.488281 827.800781 456.566406 C 828.378906 448.046875 829.1875 439.53125 829.648438 431.011719 C 830.109375 422.035156 830.222656 413.171875 830.570312 404.195312 C 831.144531 388.65625 830.914062 373 830.800781 357.460938 Z M 830.570312 357.230469 " fill-opacity="1" fill-rule="nonzero"/></g><path fill="#ebf6fa" d="M 617.394531 299.679688 C 618.085938 294.730469 618.433594 289.667969 619.007812 284.601562 C 619.238281 282.875 619.585938 281.148438 619.929688 279.421875 C 620.738281 276.085938 621.660156 272.859375 622.582031 269.636719 C 622.929688 267.453125 623.273438 265.378906 623.851562 263.191406 C 624.425781 261.003906 625.117188 258.242188 626.386719 256.054688 C 627.539062 251.222656 629.617188 246.734375 632.265625 242.703125 C 637.109375 235.105469 643.105469 227.855469 650.714844 222.792969 C 655.902344 219.339844 661.667969 216.921875 667.660156 215.195312 C 668.46875 214.847656 669.160156 214.503906 669.96875 214.160156 C 671.234375 213.699219 672.503906 213.238281 673.886719 212.890625 C 675.847656 212.203125 677.921875 211.625 679.765625 211.050781 C 680.230469 207.023438 680.574219 203.339844 680.921875 199.769531 C 681.265625 196.203125 680.921875 192.75 679.191406 189.410156 C 678.730469 189.410156 678.269531 189.066406 677.691406 189.066406 C 673.773438 189.066406 672.734375 188.144531 672.964844 184.460938 C 673.082031 182.503906 673.886719 181.46875 675.730469 181.355469 C 678.5 181.355469 681.265625 181.238281 683.917969 181.699219 C 691.875 182.964844 699.828125 183.425781 707.785156 183.769531 C 717.351562 184.230469 726.804688 185.039062 736.375 184.691406 C 740.527344 184.691406 744.5625 184.691406 748.597656 183.886719 C 751.824219 183.3125 755.167969 183.425781 758.742188 183.3125 C 759.550781 185.613281 759.550781 187.570312 757.703125 189.179688 C 756.78125 189.988281 756.207031 190.90625 755.285156 191.597656 C 751.941406 194.128906 751.59375 197.8125 751.59375 201.613281 C 751.59375 202.992188 752.402344 204.375 752.171875 205.640625 C 751.480469 211.625 755.054688 215.539062 758.742188 219.339844 C 760.011719 220.605469 761.972656 221.640625 763.816406 221.984375 C 768.65625 223.136719 772.921875 225.324219 776.957031 228.199219 C 779.839844 230.273438 782.839844 232 786.066406 233.378906 C 789.296875 234.761719 791.945312 236.71875 793.792969 239.480469 C 799.09375 247.421875 804.628906 255.25 809.355469 263.539062 C 812.238281 268.488281 814.082031 274.242188 816.042969 279.652344 C 817.773438 284.371094 819.5 289.207031 820.769531 294.039062 C 821.808594 297.953125 822.152344 302.097656 822.730469 306.125 C 823.421875 310.730469 823.996094 315.335938 824.574219 320.054688 C 825.035156 323.851562 823.996094 326.84375 820.078125 329.148438 C 819.617188 325.695312 818.925781 322.699219 818.808594 319.707031 C 818.464844 312.6875 816.273438 305.894531 815.351562 298.988281 C 814.3125 291.394531 812.238281 284.140625 809.011719 277.234375 C 807.742188 274.472656 806.820312 271.363281 805.898438 268.488281 C 804.28125 263.882812 801.976562 259.625 798.980469 255.710938 C 792.867188 247.539062 785.605469 240.515625 777.1875 234.761719 C 773.152344 232 768.542969 230.503906 763.46875 230.503906 C 752.976562 230.503906 742.488281 231.425781 731.996094 232.574219 C 730.035156 232.804688 728.074219 232.574219 726.113281 232.804688 C 723.003906 233.035156 719.890625 233.378906 716.777344 233.609375 C 716.085938 233.609375 715.277344 233.609375 714.585938 233.726562 C 708.015625 234.761719 701.097656 233.726562 694.753906 232.460938 C 689.796875 232.691406 684.957031 231.539062 679.996094 231.308594 C 675.960938 231.078125 671.925781 230.15625 667.890625 229.351562 C 665.816406 229.007812 663.742188 228.199219 661.78125 227.742188 C 660.511719 227.511719 658.785156 226.820312 657.863281 227.28125 C 654.289062 229.46875 649.90625 230.847656 648.175781 235.222656 C 647.832031 236.144531 647.023438 236.832031 646.449219 237.523438 C 639.875 245.8125 634.804688 254.90625 631.804688 265.148438 C 628.921875 274.933594 627.539062 284.832031 626.042969 294.847656 C 624.65625 304.398438 624.773438 313.839844 624.886719 323.390625 C 624.886719 326.5 625.464844 329.605469 625.695312 332.714844 C 625.695312 334.097656 625.695312 335.363281 625.695312 337.089844 C 624.3125 337.320312 623.042969 337.894531 621.777344 337.894531 C 616.703125 337.894531 615.78125 336.972656 615.664062 331.679688 C 615.433594 320.972656 616.125 310.269531 617.507812 299.679688 Z M 617.394531 299.679688 " fill-opacity="1" fill-rule="nonzero"/><path fill="#231815" d="M 815.234375 330.414062 C 813.390625 332.371094 811.085938 332.484375 809.125 333.058594 C 806.472656 333.75 803.820312 334.441406 801.285156 335.132812 C 800.015625 335.476562 798.632812 336.054688 797.367188 336.28125 C 792.753906 336.859375 788.140625 337.664062 783.414062 337.78125 C 773.5 338.007812 763.699219 339.964844 753.785156 340.773438 C 752.054688 340.886719 750.328125 341.234375 748.597656 341.234375 C 738.21875 341.234375 727.960938 341.234375 717.582031 341.234375 C 715.855469 341.234375 714.007812 341.003906 712.28125 341.234375 C 705.9375 341.808594 699.828125 339.964844 693.601562 340.082031 C 685.761719 340.195312 678.152344 338.46875 670.3125 338.816406 C 664.546875 339.046875 658.667969 337.894531 652.902344 337.320312 C 648.867188 336.859375 644.949219 336.511719 640.914062 338.46875 C 637.917969 339.964844 634.457031 339.160156 631.113281 338.699219 C 630.421875 338.699219 629.730469 337.894531 629.382812 337.320312 C 628.921875 336.511719 628.578125 335.476562 628.460938 334.554688 C 628 321.78125 626.042969 309.003906 629.152344 296.226562 C 630.652344 290.011719 630.652344 283.449219 632.035156 277.234375 C 633.417969 270.789062 635.496094 264.457031 637.339844 258.128906 C 637.6875 256.976562 638.148438 255.824219 638.839844 254.90625 C 641.722656 250.992188 644.371094 246.847656 647.832031 243.507812 C 651.058594 240.402344 654.058594 237.179688 657.285156 233.957031 C 659.015625 232.230469 660.628906 231.769531 663.050781 232.34375 C 674.003906 235.105469 685.300781 236.027344 696.484375 237.179688 C 703.863281 237.871094 711.242188 237.640625 718.621094 236.71875 C 719.773438 236.605469 720.925781 236.375 722.078125 236.375 C 731.417969 236.601562 740.757812 235.222656 750.09375 234.53125 C 751.824219 234.417969 753.554688 234.1875 755.285156 233.839844 C 756.898438 233.496094 758.28125 233.378906 759.894531 234.070312 C 760.933594 234.53125 762.203125 234.648438 763.238281 234.417969 C 766.238281 233.726562 768.542969 234.761719 770.847656 236.488281 C 772.230469 237.523438 773.613281 238.675781 775.230469 239.367188 C 783.183594 242.820312 788.601562 249.265625 794.136719 255.59375 C 798.980469 261.121094 801.976562 267.566406 804.167969 274.585938 C 804.976562 277.234375 806.242188 279.652344 807.050781 282.183594 C 808.316406 286.214844 809.816406 290.355469 810.625 294.5 C 812.351562 302.902344 813.851562 311.304688 815.121094 319.824219 C 815.695312 323.390625 815.121094 327.191406 815.121094 330.527344 Z M 815.234375 330.414062 " fill-opacity="1" fill-rule="nonzero"/><path fill="#ebf6fa" d="M 818.925781 536.679688 C 818.003906 544.046875 818.578125 551.410156 817.773438 558.777344 C 816.734375 568.101562 817.082031 577.425781 816.503906 586.75 C 815.925781 596.648438 814.429688 606.429688 812.929688 616.214844 C 811.429688 626.113281 809.011719 635.667969 807.164062 645.453125 C 807.050781 646.257812 806.820312 646.949219 806.589844 647.753906 C 803.9375 654.429688 801.285156 661.105469 798.632812 667.78125 C 795.867188 674.6875 790.449219 678.484375 783.300781 679.980469 C 780.648438 680.558594 777.882812 681.019531 775.230469 681.25 C 774.539062 681.25 773.730469 681.132812 772.691406 680.902344 C 772.578125 680.902344 772.347656 680.902344 772.230469 680.902344 C 772.230469 680.902344 772.117188 680.902344 772 680.902344 C 771.769531 680.902344 771.425781 680.671875 771.195312 680.558594 C 771.195312 680.558594 771.078125 680.558594 770.964844 680.558594 C 770.847656 680.558594 770.617188 680.328125 770.503906 680.328125 C 770.503906 680.328125 770.386719 680.210938 770.273438 680.097656 C 769.695312 679.867188 769.117188 679.636719 768.542969 679.40625 C 767.390625 678.832031 766.238281 678.027344 765.3125 677.21875 C 764.96875 676.875 764.507812 676.527344 764.160156 676.070312 C 764.160156 676.070312 764.046875 676.070312 763.929688 675.953125 C 763.238281 675.378906 762.777344 674.574219 762.316406 673.882812 C 761.738281 673.304688 761.277344 672.730469 760.816406 671.925781 C 759.203125 669.164062 759.089844 669.277344 755.976562 667.894531 C 754.59375 669.277344 753.207031 671.003906 751.59375 672.269531 C 746.175781 676.414062 740.066406 678.945312 733.378906 679.40625 C 726.574219 679.753906 719.773438 679.753906 712.972656 678.253906 C 708.246094 677.21875 704.09375 675.378906 700.519531 672.269531 C 699.25 671.121094 697.867188 670.082031 696.484375 669.046875 C 693.71875 670.660156 690.949219 671.808594 688.644531 673.652344 C 681.382812 679.523438 673.542969 678.832031 665.355469 676.070312 C 657.863281 673.652344 652.558594 668.933594 649.445312 661.679688 C 648.867188 660.414062 648.175781 659.265625 647.371094 658.226562 C 645.296875 655.351562 644.027344 652.242188 643.449219 648.675781 C 642.757812 644.644531 641.261719 640.847656 640.453125 636.820312 C 637.800781 624.503906 635.265625 612.070312 632.613281 599.753906 C 632.265625 598.257812 632.035156 596.648438 632.035156 595.152344 C 631.574219 583.871094 631.230469 572.589844 630.539062 561.3125 C 630.078125 552.792969 629.269531 544.273438 628.691406 535.757812 C 628.691406 535.527344 628.691406 535.414062 628.691406 535.183594 C 628.230469 527.007812 627.769531 518.835938 627.425781 510.664062 C 627.425781 509.285156 627.539062 508.019531 627.65625 506.292969 C 631.460938 505.945312 633.304688 507.441406 633.535156 510.433594 C 633.882812 513.542969 633.996094 516.652344 633.652344 519.757812 C 633.304688 522.519531 633.535156 525.167969 633.765625 527.816406 C 634.804688 536.101562 635.496094 544.503906 636.300781 552.792969 C 636.878906 559.007812 637.339844 565.222656 637.917969 571.441406 C 638.148438 573.398438 638.722656 575.351562 638.609375 577.195312 C 638.148438 584.90625 639.875 592.273438 641.375 599.753906 C 643.105469 608.386719 644.371094 617.019531 645.871094 625.652344 C 647.945312 637.277344 651.289062 648.328125 657.976562 658.226562 C 661.4375 663.175781 666.164062 666.515625 671.582031 668.933594 C 672.964844 669.507812 674.695312 669.738281 676.191406 669.507812 C 680.460938 669.046875 684.726562 668.472656 688.875 667.4375 C 690.605469 666.976562 692.21875 665.480469 693.71875 664.328125 C 695.101562 663.292969 696.371094 662.140625 697.867188 660.875 C 699.367188 661.910156 700.75 662.71875 701.902344 663.753906 C 707.667969 668.585938 714.355469 671.003906 721.734375 671.464844 C 727.960938 671.925781 734.300781 671.808594 740.296875 669.96875 C 744.90625 668.585938 749.289062 666.171875 753.667969 664.214844 C 754.9375 663.636719 755.976562 662.71875 757.359375 661.796875 C 760.242188 664.789062 763.585938 666.976562 767.503906 668.125 C 769.8125 668.816406 772 668.816406 774.421875 668.703125 C 780.648438 668.242188 785.492188 665.824219 789.527344 661.105469 C 792.523438 657.652344 795.40625 654.3125 797.25 650.171875 C 799.210938 645.679688 801.632812 641.421875 803.128906 636.820312 C 804.628906 632.097656 805.550781 627.035156 806.359375 622.085938 C 807.28125 616.101562 807.972656 610.113281 808.546875 604.128906 C 809.242188 595.382812 811.890625 586.863281 811.199219 578.117188 C 811.199219 577.769531 811.199219 577.308594 811.199219 576.964844 C 813.046875 568.792969 813.390625 560.390625 814.082031 552.101562 C 814.082031 551.871094 814.082031 551.757812 814.082031 551.527344 C 814.082031 541.167969 817.082031 531.152344 816.964844 520.792969 C 816.964844 517.339844 817.65625 514.003906 818.117188 510.203125 C 818.925781 510.78125 819.617188 511.125 819.617188 511.472656 C 819.5 519.988281 819.847656 528.621094 818.808594 537.140625 Z M 818.925781 536.679688 " fill-opacity="1" fill-rule="nonzero"/><path fill="#231815" d="M 649.445312 613.566406 C 648.40625 608.847656 647.484375 604.015625 646.679688 599.179688 C 645.871094 594 645.410156 588.820312 644.71875 583.527344 C 643.910156 578.117188 642.988281 572.820312 642.296875 567.410156 C 641.835938 563.726562 641.492188 560.042969 641.144531 556.359375 C 640.683594 551.757812 640.105469 547.039062 639.644531 542.433594 C 639.414062 540.707031 639.183594 538.980469 639.070312 537.253906 C 638.378906 528.277344 637.800781 519.414062 637.222656 510.433594 C 636.992188 507.558594 637.917969 506.292969 640.796875 506.40625 C 642.644531 506.40625 644.71875 506.867188 646.449219 507.558594 C 649.90625 508.9375 653.480469 509.515625 657.285156 509.859375 C 671.925781 511.355469 686.453125 510.664062 701.097656 510.78125 C 707.320312 510.78125 713.546875 510.78125 719.773438 510.78125 C 722.65625 510.78125 725.539062 510.320312 728.535156 510.089844 C 731.648438 509.972656 734.761719 509.859375 737.875 509.746094 C 746.289062 509.628906 754.59375 509.167969 763.007812 510.320312 C 764.507812 510.550781 766.121094 510.550781 767.621094 510.664062 C 780.648438 510.664062 793.792969 510.894531 806.820312 510.894531 C 808.316406 510.894531 809.816406 511.125 811.546875 511.242188 C 812.816406 514.347656 812.46875 516.878906 812.007812 519.414062 C 811.660156 521.484375 811.316406 523.671875 811.199219 525.742188 C 811.085938 529.65625 810.855469 533.457031 810.164062 537.367188 C 809.242188 543.355469 809.125 549.339844 808.664062 555.324219 C 808.085938 562.460938 807.625 569.714844 807.164062 576.847656 C 806.933594 579.496094 807.050781 582.257812 806.589844 584.90625 C 805.78125 590.660156 804.511719 596.417969 803.707031 602.171875 C 802.667969 609.308594 801.515625 616.445312 800.707031 623.582031 C 800.363281 627.265625 799.441406 630.832031 798.171875 634.285156 C 796.328125 639.234375 794.367188 644.070312 792.40625 649.019531 C 789.871094 655.234375 785.144531 659.609375 779.957031 663.523438 C 774.652344 667.4375 765.429688 664.789062 762.085938 659.035156 C 759.894531 655.234375 758.28125 655.003906 754.707031 657.652344 C 752.632812 659.148438 750.671875 660.644531 748.480469 662.027344 C 739.71875 667.207031 730.148438 668.355469 720.234375 667.550781 C 715.277344 667.207031 710.78125 665.363281 706.746094 662.371094 C 705.015625 661.105469 703.402344 659.722656 701.671875 658.457031 C 699.367188 656.730469 696.945312 656.730469 694.523438 658.113281 C 693.027344 658.917969 691.640625 660.070312 690.257812 661.105469 C 685.878906 664.558594 680.804688 665.363281 675.386719 665.363281 C 672.964844 665.363281 670.890625 664.328125 668.929688 662.832031 C 664.664062 659.609375 661.320312 655.582031 658.785156 650.859375 C 655.210938 644.070312 652.90625 636.933594 651.058594 629.453125 C 650.945312 628.875 650.714844 628.300781 650.828125 627.726562 C 651.40625 622.890625 650.367188 618.171875 649.332031 613.453125 Z M 649.445312 613.566406 " fill-opacity="1" fill-rule="nonzero"/><path fill="#231815" d="M 825.957031 383.246094 C 825.84375 392.800781 824.921875 402.238281 824.226562 411.792969 C 824.226562 412.367188 824.113281 412.941406 823.996094 413.519531 C 823.535156 425.027344 822.960938 436.421875 822.613281 447.933594 C 822.5 452.078125 822.269531 456.105469 821.117188 460.019531 C 820.769531 461.285156 820.308594 462.667969 820.425781 464.046875 C 821.230469 473.371094 819.730469 482.695312 820.191406 492.019531 C 820.425781 496.046875 819.960938 500.191406 818.347656 504.566406 C 812.238281 505.714844 806.128906 507.671875 799.554688 506.636719 C 796.097656 506.0625 792.523438 506.40625 789.0625 506.292969 C 779.957031 506.0625 770.734375 506.0625 761.625 505.371094 C 751.363281 504.566406 740.871094 504.449219 730.609375 505.371094 C 715.738281 506.75 700.980469 505.945312 686.222656 506.292969 C 678.039062 506.519531 669.851562 506.292969 661.667969 506.292969 C 657.976562 506.292969 654.171875 505.945312 650.714844 504.679688 C 645.988281 502.953125 641.261719 502.609375 636.300781 502.839844 C 634.34375 502.839844 632.382812 502.839844 630.421875 502.839844 C 628.691406 502.839844 627.539062 501.800781 627.078125 500.074219 C 626.734375 498.925781 626.386719 497.773438 626.273438 496.621094 C 625.464844 488.105469 624.542969 479.585938 623.851562 471.070312 C 623.042969 461.402344 622.238281 451.730469 621.542969 441.949219 C 621.3125 439.1875 621.3125 436.539062 621.3125 433.777344 C 621.3125 426.753906 620.507812 419.847656 619.46875 412.828125 C 619.46875 412.019531 619.125 411.332031 619.125 410.523438 C 618.664062 403.386719 618.085938 396.136719 617.855469 389 C 617.394531 378.871094 617.046875 368.742188 616.585938 358.726562 C 616.585938 356.773438 616.125 354.816406 615.894531 352.972656 C 615.433594 349.519531 615.089844 346.066406 615.894531 342.269531 C 617.046875 342.039062 617.738281 341.691406 618.203125 341.921875 C 623.734375 343.535156 629.5 342.730469 635.035156 343.417969 C 635.839844 343.417969 636.648438 343.535156 637.339844 343.417969 C 642.988281 342.5 648.523438 343.535156 654.171875 343.996094 C 659.820312 344.457031 665.472656 344.914062 671.121094 345.375 C 671.925781 345.375 672.734375 345.492188 673.425781 345.375 C 679.074219 344.226562 684.609375 344.6875 690.257812 345.261719 C 693.71875 345.605469 697.175781 345.953125 700.75 346.183594 C 705.363281 346.414062 710.089844 346.757812 714.816406 346.757812 C 724.039062 346.757812 733.148438 346.640625 742.371094 346.640625 C 748.597656 346.640625 754.824219 346.296875 761.046875 345.261719 C 764.507812 344.6875 767.964844 344.570312 771.539062 344.226562 C 777.882812 343.648438 784.335938 342.960938 790.679688 342.382812 C 792.867188 342.152344 794.945312 342.039062 797.136719 341.921875 C 801.632812 341.691406 806.011719 341.003906 810.277344 339.507812 C 814.773438 338.007812 819.5 338.46875 823.996094 338.929688 C 824.34375 339.621094 824.804688 340.195312 824.921875 340.65625 C 825.382812 349.980469 826.074219 359.304688 826.1875 368.628906 C 826.1875 373.691406 826.1875 378.757812 825.957031 383.707031 Z M 825.957031 383.246094 " fill-opacity="1" fill-rule="nonzero"/><path fill="#301815" d="M 812.46875 511.472656 C 813.738281 514.578125 813.390625 516.996094 812.929688 519.527344 C 812.582031 521.601562 812.238281 523.671875 812.121094 525.859375 C 812.007812 529.65625 811.660156 533.570312 811.085938 537.367188 C 810.164062 543.238281 809.933594 549.226562 809.585938 555.210938 C 809.011719 562.347656 808.546875 569.484375 807.972656 576.503906 C 807.742188 579.152344 807.855469 581.914062 807.394531 584.5625 C 806.472656 590.316406 805.320312 595.957031 804.398438 601.597656 C 803.246094 608.617188 802.207031 615.753906 801.402344 622.777344 C 801.054688 626.460938 800.132812 630.027344 798.75 633.480469 C 796.902344 638.316406 794.945312 643.148438 792.984375 647.984375 C 790.449219 654.199219 785.605469 658.457031 780.417969 662.257812 C 775.113281 666.167969 765.660156 663.523438 762.316406 657.765625 C 760.125 654.085938 758.511719 653.738281 754.824219 656.386719 C 752.746094 657.882812 750.789062 659.378906 748.597656 660.644531 C 739.71875 665.824219 730.035156 666.859375 720.003906 666.167969 C 714.929688 665.824219 710.433594 663.984375 706.398438 660.988281 C 704.671875 659.722656 702.941406 658.34375 701.210938 657.078125 C 698.90625 655.351562 696.371094 655.351562 693.949219 656.730469 C 692.449219 657.539062 690.949219 658.574219 689.566406 659.722656 C 685.1875 663.175781 679.996094 663.984375 674.578125 663.984375 C 672.042969 663.984375 669.96875 662.945312 668.121094 661.566406 C 663.855469 658.34375 660.398438 654.429688 657.863281 649.710938 C 654.289062 643.035156 651.867188 635.898438 650.023438 628.53125 C 649.90625 627.957031 649.675781 627.378906 649.792969 626.804688 C 650.367188 621.96875 649.332031 617.367188 648.292969 612.648438 C 647.253906 607.925781 646.332031 603.207031 645.527344 598.488281 C 644.71875 593.308594 644.257812 588.128906 643.449219 583.066406 C 642.644531 577.769531 641.722656 572.359375 641.027344 567.066406 C 640.566406 563.496094 640.222656 559.8125 639.875 556.132812 C 639.414062 551.527344 638.839844 546.921875 638.378906 542.320312 C 638.148438 540.59375 637.917969 538.867188 637.800781 537.140625 C 637.109375 528.277344 636.53125 519.414062 635.957031 510.550781 C 635.726562 507.671875 636.648438 506.519531 639.53125 506.636719 C 641.492188 506.636719 643.449219 507.097656 645.179688 507.789062 C 648.753906 509.167969 652.328125 509.746094 656.132812 510.089844 C 670.890625 511.585938 685.761719 510.894531 700.519531 511.011719 C 706.859375 511.011719 713.203125 511.011719 719.429688 511.011719 C 722.425781 511.011719 725.308594 510.550781 728.304688 510.320312 C 731.417969 510.203125 734.53125 510.089844 737.757812 510.089844 C 746.289062 509.972656 754.707031 509.515625 763.125 510.664062 C 764.738281 510.894531 766.238281 510.894531 767.851562 511.011719 C 781.109375 511.011719 794.253906 511.242188 807.511719 511.242188 C 809.011719 511.242188 810.625 511.472656 812.351562 511.585938 Z M 812.46875 511.472656 " fill-opacity="1" fill-rule="nonzero"/><path fill="#301815" d="M 812.929688 318.671875 C 811.660156 310.269531 810.164062 301.753906 808.546875 293.464844 C 807.742188 289.320312 806.359375 285.292969 804.976562 281.148438 C 804.167969 278.617188 802.898438 276.085938 802.09375 273.550781 C 799.902344 266.644531 797.019531 260.085938 792.175781 254.558594 C 786.757812 248.230469 781.453125 241.78125 773.613281 238.332031 C 772 237.640625 770.617188 236.605469 769.234375 235.453125 C 767.042969 233.726562 764.738281 232.691406 761.738281 233.378906 C 760.703125 233.609375 759.433594 233.378906 758.398438 233.035156 C 756.898438 232.34375 755.398438 232.574219 753.898438 232.804688 C 752.171875 233.152344 750.558594 233.378906 748.828125 233.496094 C 739.605469 234.1875 730.496094 235.566406 721.273438 235.335938 C 720.121094 235.335938 718.964844 235.453125 717.8125 235.683594 C 710.550781 236.605469 703.171875 236.832031 696.023438 236.144531 C 684.957031 234.992188 673.886719 234.070312 663.050781 231.308594 C 660.628906 230.734375 659.015625 231.308594 657.402344 232.921875 C 654.289062 236.027344 651.289062 239.367188 648.175781 242.472656 C 644.71875 245.8125 642.183594 249.957031 639.300781 253.867188 C 638.609375 254.789062 638.148438 255.941406 637.917969 257.09375 C 636.070312 263.421875 634.113281 269.753906 632.726562 276.199219 C 631.460938 282.414062 631.34375 288.976562 629.847656 295.191406 C 626.847656 307.96875 628.808594 320.746094 629.269531 333.519531 C 629.269531 333.75 629.269531 334.097656 629.382812 334.328125 C 634.34375 335.132812 639.300781 335.824219 644.371094 336.398438 C 647.253906 335.707031 650.253906 335.9375 653.25 336.398438 C 659.015625 337.089844 664.664062 338.238281 670.429688 337.894531 C 678.152344 337.550781 685.648438 339.277344 693.371094 339.160156 C 699.480469 339.046875 705.476562 341.003906 711.703125 340.3125 C 713.433594 340.082031 715.160156 340.3125 716.890625 340.3125 C 727.039062 340.3125 737.296875 340.3125 747.445312 340.3125 C 749.171875 340.3125 750.902344 340.082031 752.632812 339.851562 C 762.316406 339.046875 772 337.089844 781.800781 336.859375 C 786.414062 336.859375 790.910156 335.9375 795.519531 335.363281 C 796.789062 335.246094 798.058594 334.671875 799.441406 334.210938 C 801.976562 333.519531 804.628906 332.832031 807.164062 332.140625 C 809.125 331.5625 811.316406 331.449219 813.277344 329.492188 C 813.277344 326.152344 813.738281 322.355469 813.277344 318.789062 Z M 812.929688 318.671875 " fill-opacity="1" fill-rule="nonzero"/><path fill="#231815" d="M 740.066406 214.847656 C 722.886719 216.113281 706.285156 215.425781 689.796875 213.121094 C 689.796875 209.207031 690.144531 208.75 692.910156 208.980469 C 700.289062 209.667969 707.554688 211.050781 715.046875 210.707031 C 716.199219 210.707031 717.351562 210.933594 718.503906 211.164062 C 721.386719 211.742188 724.269531 211.625 727.152344 211.164062 C 730.378906 210.707031 733.722656 210.707031 737.066406 210.820312 C 739.144531 210.820312 740.179688 212.085938 740.066406 214.964844 Z M 740.066406 214.847656 " fill-opacity="1" fill-rule="nonzero"/><g clip-path="url(#8478d92ed6)"><path fill="#231815" d="M 677.578125 122.421875 C 682.648438 122.421875 687.722656 122.421875 692.679688 122.421875 C 695.332031 122.421875 697.984375 121.960938 700.636719 121.730469 C 703.171875 121.613281 705.59375 121.5 708.128906 121.613281 C 711.703125 121.730469 715.277344 122.191406 718.851562 122.421875 C 723.117188 122.652344 727.382812 122.996094 731.648438 123.226562 C 733.378906 123.226562 735.222656 123.226562 736.953125 122.882812 C 742.371094 121.84375 747.214844 123.570312 752.054688 125.414062 C 753.898438 126.105469 754.707031 127.714844 754.9375 129.558594 C 754.9375 130.132812 754.9375 130.59375 754.9375 131.167969 C 754.9375 139.800781 755.859375 148.203125 756.667969 156.722656 C 756.667969 157.757812 756.78125 158.910156 756.78125 159.945312 C 756.78125 165.699219 757.011719 171.226562 758.972656 176.863281 C 760.816406 182.273438 759.550781 183.886719 753.667969 184.347656 C 749.980469 184.691406 746.175781 184.578125 742.371094 184.578125 C 739.375 184.578125 736.375 184.578125 733.261719 185.265625 C 731.1875 185.726562 728.996094 185.613281 726.921875 185.613281 C 720.121094 185.613281 713.316406 185.613281 706.515625 185.726562 C 705.824219 185.726562 705.015625 185.726562 704.324219 185.726562 C 697.984375 186.878906 691.875 185.726562 685.761719 184.347656 C 682.765625 183.769531 679.765625 183.195312 676.886719 182.390625 C 673.773438 181.585938 672.734375 179.972656 673.542969 176.863281 C 674.808594 172.375 674.695312 167.65625 676.769531 163.398438 C 677.347656 162.132812 677.230469 160.636719 677.230469 159.140625 C 677.117188 147.398438 676.886719 135.542969 676.769531 123.800781 C 676.769531 123.457031 677 123.113281 677.347656 122.074219 Z M 677.578125 122.421875 " fill-opacity="1" fill-rule="nonzero"/></g><path fill="#231815" d="M 754.9375 178.132812 C 755.285156 176.175781 754.9375 174.21875 753.667969 172.605469 C 751.480469 169.613281 751.480469 166.390625 751.941406 162.9375 C 752.402344 159.828125 751.941406 156.605469 751.941406 153.382812 C 751.941406 152.003906 751.59375 150.507812 751.480469 149.125 C 751.132812 143.023438 750.789062 137.039062 750.441406 130.9375 C 750.328125 128.636719 749.632812 127.945312 747.214844 127.371094 C 743.984375 126.566406 740.871094 126.566406 737.644531 127.371094 C 734.414062 128.0625 731.304688 127.945312 728.074219 127.371094 C 725.652344 127.023438 723.117188 126.910156 720.582031 126.792969 C 716.429688 126.566406 712.394531 126.335938 708.246094 126.105469 C 707.207031 126.105469 706.054688 125.988281 705.015625 126.105469 C 699.714844 127.253906 694.292969 126.792969 688.992188 126.792969 C 687.605469 126.792969 686.109375 126.679688 684.726562 126.792969 C 682.074219 126.910156 681.265625 127.945312 681.265625 130.476562 C 681.265625 134.96875 681.382812 139.339844 681.496094 143.832031 C 681.613281 150.734375 681.035156 157.757812 682.417969 164.664062 C 682.765625 166.503906 682.304688 168.117188 680.921875 169.613281 C 678.613281 172.144531 678.152344 175.136719 678.613281 178.707031 C 679.421875 179.050781 680.230469 179.511719 681.035156 179.742188 C 689.566406 182.503906 698.214844 183.195312 706.976562 182.160156 C 711.472656 181.585938 715.855469 181.46875 720.351562 181.46875 C 724.847656 181.46875 729.226562 181.238281 733.722656 181.125 C 735.800781 181.125 737.988281 180.664062 740.066406 180.546875 C 742.949219 180.546875 745.828125 180.546875 748.597656 180.546875 C 750.789062 180.546875 752.863281 180.203125 754.476562 178.359375 Z M 754.9375 178.132812 " fill-opacity="1" fill-rule="nonzero"/><path fill="#e60012" d="M 614.398438 340.542969 C 615.664062 340.3125 616.242188 339.964844 616.816406 340.195312 C 622.46875 341.808594 628.230469 341.003906 633.882812 341.691406 C 634.6875 341.691406 635.496094 341.808594 636.1875 341.691406 C 641.953125 340.773438 647.601562 341.808594 653.25 342.269531 C 659.015625 342.730469 664.664062 343.1875 670.429688 343.648438 C 671.234375 343.648438 672.042969 343.765625 672.851562 343.648438 C 678.5 342.382812 684.265625 342.960938 689.914062 343.535156 C 693.488281 343.878906 696.945312 344.226562 700.519531 344.457031 C 705.246094 344.6875 709.972656 345.03125 714.816406 345.03125 C 724.15625 345.03125 733.492188 344.914062 742.71875 344.914062 C 749.058594 344.914062 755.398438 344.570312 761.625 343.535156 C 765.082031 342.960938 768.65625 342.84375 772.230469 342.5 C 778.6875 341.808594 785.257812 341.234375 791.714844 340.542969 C 793.90625 340.3125 796.097656 340.195312 798.289062 340.082031 C 802.898438 339.851562 807.28125 339.160156 811.660156 337.664062 C 816.273438 336.054688 821 336.628906 825.613281 336.972656 C 825.957031 337.78125 826.535156 338.238281 826.535156 338.699219 C 826.996094 348.140625 827.6875 357.578125 827.800781 367.015625 C 827.800781 372.082031 827.800781 377.261719 827.570312 382.324219 C 827.457031 391.992188 826.417969 401.546875 825.84375 411.214844 C 825.84375 411.792969 825.726562 412.367188 825.613281 412.941406 C 825.152344 424.566406 824.574219 436.191406 824.230469 447.703125 C 824.113281 451.847656 823.765625 455.992188 822.730469 460.019531 C 822.382812 461.285156 821.921875 462.78125 822.039062 464.046875 C 822.84375 473.488281 821.347656 482.925781 821.808594 492.363281 C 822.039062 496.507812 821.578125 500.652344 819.960938 505.023438 C 813.738281 506.175781 807.625 508.132812 800.941406 507.097656 C 797.480469 506.519531 793.792969 506.867188 790.21875 506.75 C 780.878906 506.519531 771.65625 506.519531 762.316406 505.832031 C 751.824219 505.023438 741.21875 504.910156 730.84375 505.832031 C 715.738281 507.210938 700.75 506.40625 685.761719 506.75 C 677.460938 506.980469 669.160156 506.75 660.746094 506.75 C 656.941406 506.75 653.136719 506.40625 649.675781 505.023438 C 644.949219 503.296875 639.992188 502.953125 635.035156 503.066406 C 633.074219 503.066406 631.113281 503.066406 629.039062 503.066406 C 627.308594 503.066406 626.042969 502.03125 625.578125 500.304688 C 625.234375 499.15625 624.886719 498.003906 624.773438 496.851562 C 623.964844 488.21875 623.042969 479.585938 622.351562 470.953125 C 621.542969 461.171875 620.738281 451.386719 619.929688 441.488281 C 619.699219 438.726562 619.699219 435.960938 619.699219 433.199219 C 619.699219 426.0625 618.894531 419.042969 617.855469 412.019531 C 617.855469 411.214844 617.507812 410.523438 617.507812 409.71875 C 617.046875 402.46875 616.472656 395.214844 616.125 387.964844 C 615.664062 377.71875 615.320312 367.476562 614.859375 357.347656 C 614.859375 355.390625 614.398438 353.433594 614.167969 351.476562 C 613.703125 348.023438 613.359375 344.457031 614.167969 340.65625 Z M 614.398438 340.542969 " fill-opacity="1" fill-rule="nonzero"/><path fill="#e60012" d="M 754.363281 172.492188 C 752.171875 169.5 752.171875 166.273438 752.632812 162.707031 C 753.09375 159.484375 752.632812 156.261719 752.632812 153.039062 C 752.632812 151.65625 752.285156 150.160156 752.171875 148.78125 C 751.824219 142.679688 751.480469 136.464844 751.019531 130.363281 C 750.902344 127.945312 750.210938 127.253906 747.789062 126.679688 C 744.5625 125.875 741.332031 125.875 737.988281 126.679688 C 734.761719 127.371094 731.535156 127.253906 728.191406 126.679688 C 725.652344 126.335938 723.117188 126.21875 720.582031 126.105469 C 716.429688 125.875 712.28125 125.527344 708.015625 125.296875 C 706.976562 125.296875 705.824219 125.066406 704.785156 125.296875 C 699.367188 126.449219 693.949219 125.988281 688.414062 125.988281 C 686.914062 125.988281 685.53125 125.875 684.03125 125.988281 C 681.382812 126.105469 680.460938 127.140625 680.574219 129.789062 C 680.574219 134.277344 680.804688 138.765625 680.804688 143.371094 C 680.921875 150.390625 680.34375 157.527344 681.726562 164.433594 C 682.074219 166.273438 681.613281 167.886719 680.230469 169.382812 C 677.921875 171.914062 677.347656 175.023438 677.921875 178.589844 C 678.730469 178.9375 679.535156 179.398438 680.460938 179.742188 C 689.105469 182.503906 697.984375 183.195312 706.859375 182.160156 C 711.359375 181.585938 715.855469 181.46875 720.464844 181.46875 C 724.960938 181.46875 729.574219 181.238281 734.070312 181.125 C 736.261719 181.125 738.449219 180.664062 740.527344 180.546875 C 743.410156 180.546875 746.40625 180.546875 749.289062 180.546875 C 751.480469 180.546875 753.667969 180.203125 755.285156 178.359375 C 755.628906 176.40625 755.285156 174.332031 754.015625 172.722656 Z M 754.363281 172.492188 " fill-opacity="1" fill-rule="nonzero"/><path fill="#e60012" d="M 694.753906 153.84375 C 694.753906 153.039062 694.410156 152.347656 694.523438 151.65625 C 695.214844 149.007812 694.871094 146.363281 694.523438 143.714844 C 694.292969 141.757812 694.523438 139.800781 694.640625 137.84375 C 694.640625 136.925781 694.871094 136.117188 694.871094 135.199219 C 694.871094 133.816406 693.71875 132.550781 692.679688 132.664062 C 691.296875 132.78125 691.066406 133.929688 691.066406 135.082031 C 691.179688 139.339844 691.410156 143.601562 691.640625 147.859375 C 691.640625 149.699219 692.566406 151.65625 691.988281 153.5 C 689.566406 154.1875 687.375 154.878906 685.300781 155.457031 C 685.1875 157.527344 686.339844 157.988281 687.605469 158.101562 C 691.988281 158.449219 696.484375 159.023438 700.980469 159.140625 C 714.929688 159.484375 728.765625 159.597656 742.71875 159.140625 C 743.523438 159.140625 744.332031 158.792969 745.367188 158.449219 C 744.90625 157.640625 744.792969 157.066406 744.445312 156.835938 C 742.371094 155.570312 740.179688 154.996094 737.757812 155.339844 C 736.492188 155.570312 735.339844 155.800781 734.070312 155.914062 C 721.386719 156.605469 708.707031 155.339844 696.140625 154.648438 C 695.792969 154.648438 695.445312 154.417969 694.640625 153.960938 Z M 694.753906 153.84375 " fill-opacity="1" fill-rule="nonzero"/><path fill="#e60012" d="M 686.570312 166.851562 C 687.375 169.039062 689.222656 169.152344 690.605469 169.382812 C 694.984375 170.1875 699.480469 169.84375 703.75 171.453125 C 704.324219 171.683594 705.132812 171.339844 705.824219 171.339844 C 708.015625 171.226562 710.089844 170.996094 712.28125 170.996094 C 718.273438 170.996094 724.386719 171.339844 730.378906 170.074219 C 732.800781 169.613281 735.339844 170.074219 737.875 170.304688 C 738.914062 170.304688 739.949219 170.765625 740.988281 170.878906 C 743.0625 171.109375 744.5625 170.417969 744.445312 169.382812 C 744.214844 167.886719 743.0625 167.425781 741.792969 167.082031 C 740.757812 166.851562 739.71875 166.734375 738.683594 166.621094 C 737.296875 166.503906 735.800781 166.503906 734.414062 166.160156 C 732.109375 165.585938 729.804688 166.046875 727.5 166.160156 C 718.734375 166.503906 710.089844 166.503906 701.328125 166.621094 C 700.636719 166.621094 699.945312 166.160156 699.25 166.160156 C 695.675781 166.046875 692.105469 165.816406 688.644531 165.929688 C 687.953125 165.929688 687.261719 166.621094 686.570312 167.082031 Z M 686.570312 166.851562 " fill-opacity="1" fill-rule="nonzero"/><path fill="#e60012" d="M 711.820312 152.347656 C 712.511719 151.195312 713.203125 150.507812 713.203125 149.699219 C 713.777344 145.785156 714.125 141.988281 714.585938 138.074219 C 714.585938 137.382812 714.585938 136.695312 714.46875 136.003906 C 714.238281 134.96875 712.855469 133.929688 712.164062 134.277344 C 711.472656 134.738281 710.78125 135.542969 710.78125 136.234375 C 710.664062 140.835938 710.664062 145.441406 710.78125 150.046875 C 710.78125 150.621094 711.359375 151.195312 712.050781 152.234375 Z M 711.820312 152.347656 " fill-opacity="1" fill-rule="nonzero"/><path fill="#e60012" d="M 702.59375 149.46875 C 704.902344 144.867188 705.707031 138.652344 704.554688 135.3125 C 704.324219 134.738281 703.402344 134.390625 702.59375 133.699219 C 700.519531 138.996094 701.097656 143.714844 702.59375 149.46875 Z M 702.59375 149.46875 " fill-opacity="1" fill-rule="nonzero"/><path fill="#e60012" d="M 720.003906 133.929688 C 718.390625 139.570312 718.851562 145.902344 721.15625 149.46875 C 721.503906 149.007812 721.964844 148.550781 721.964844 148.203125 C 722.078125 144.519531 722.195312 140.722656 722.308594 137.039062 C 722.308594 136.347656 722.078125 135.542969 721.617188 135.082031 C 721.273438 134.621094 720.582031 134.390625 719.890625 134.046875 Z M 720.003906 133.929688 " fill-opacity="1" fill-rule="nonzero"/><path fill="#e60012" d="M 730.148438 151.082031 C 732.800781 146.363281 731.878906 141.988281 731.996094 137.84375 C 731.996094 136.925781 731.535156 136.003906 731.304688 135.082031 C 729.226562 135.425781 729.113281 136.808594 728.996094 137.960938 C 728.765625 142.105469 727.960938 146.363281 730.148438 151.082031 Z M 730.148438 151.082031 " fill-opacity="1" fill-rule="nonzero"/><path fill="#e60012" d="M 741.910156 148.203125 C 742.949219 145.558594 742.832031 142.910156 742.71875 140.261719 C 742.71875 139.109375 742.488281 137.730469 741.910156 136.695312 C 741.5625 136.003906 740.410156 135.542969 738.683594 134.277344 C 739.375 139.800781 739.375 144.175781 741.910156 148.089844 Z M 741.910156 148.203125 " fill-opacity="1" fill-rule="nonzero"/><path fill="#231815" d="M 694.753906 153.84375 C 695.5625 154.1875 695.910156 154.417969 696.253906 154.535156 C 708.9375 155.226562 721.503906 156.492188 734.183594 155.800781 C 735.453125 155.800781 736.605469 155.457031 737.875 155.226562 C 740.296875 154.765625 742.488281 155.457031 744.5625 156.722656 C 744.90625 156.953125 745.023438 157.527344 745.484375 158.332031 C 744.445312 158.5625 743.640625 158.910156 742.832031 159.023438 C 728.882812 159.597656 715.046875 159.484375 701.097656 159.023438 C 696.601562 158.910156 692.21875 158.449219 687.722656 157.988281 C 686.453125 157.871094 685.300781 157.414062 685.417969 155.339844 C 687.492188 154.765625 689.683594 154.074219 692.105469 153.382812 C 692.679688 151.542969 691.875 149.699219 691.757812 147.742188 C 691.527344 143.484375 691.296875 139.226562 691.179688 134.96875 C 691.179688 133.929688 691.410156 132.78125 692.796875 132.550781 C 693.832031 132.550781 694.984375 133.699219 694.984375 135.082031 C 694.984375 136.003906 694.753906 136.808594 694.753906 137.730469 C 694.753906 139.6875 694.410156 141.644531 694.640625 143.601562 C 694.871094 146.246094 695.214844 148.894531 694.640625 151.542969 C 694.523438 152.234375 694.753906 152.921875 694.871094 153.730469 Z M 694.753906 153.84375 " fill-opacity="1" fill-rule="nonzero"/><path fill="#231815" d="M 686.570312 166.851562 C 687.261719 166.503906 687.953125 165.699219 688.644531 165.699219 C 692.21875 165.699219 695.792969 165.816406 699.25 165.929688 C 699.945312 165.929688 700.636719 166.390625 701.328125 166.390625 C 710.089844 166.390625 718.734375 166.390625 727.5 165.929688 C 729.804688 165.929688 732.109375 165.46875 734.414062 165.929688 C 735.800781 166.273438 737.296875 166.273438 738.683594 166.390625 C 739.71875 166.503906 740.871094 166.621094 741.792969 166.851562 C 743.0625 167.195312 744.214844 167.65625 744.445312 169.152344 C 744.5625 170.1875 743.0625 170.878906 740.988281 170.648438 C 739.949219 170.648438 738.914062 170.1875 737.875 170.074219 C 735.339844 169.957031 732.800781 169.382812 730.378906 169.84375 C 724.386719 170.996094 718.273438 170.648438 712.28125 170.765625 C 710.089844 170.765625 708.015625 170.996094 705.824219 171.109375 C 705.132812 171.109375 704.324219 171.453125 703.75 171.226562 C 699.480469 169.613281 694.984375 169.957031 690.605469 169.152344 C 689.105469 168.921875 687.261719 168.808594 686.570312 166.621094 Z M 686.570312 166.851562 " fill-opacity="1" fill-rule="nonzero"/><path fill="#231815" d="M 711.820312 152.347656 C 711.242188 151.3125 710.550781 150.734375 710.550781 150.160156 C 710.550781 145.558594 710.550781 140.953125 710.550781 136.347656 C 710.550781 135.65625 711.359375 134.851562 711.933594 134.390625 C 712.625 133.929688 714.125 135.082031 714.238281 136.117188 C 714.355469 136.808594 714.46875 137.5 714.355469 138.191406 C 713.894531 142.105469 713.546875 145.902344 712.972656 149.816406 C 712.972656 150.507812 712.164062 151.195312 711.589844 152.460938 Z M 711.820312 152.347656 " fill-opacity="1" fill-rule="nonzero"/><path fill="#231815" d="M 702.59375 149.46875 C 701.097656 143.714844 700.519531 138.996094 702.59375 133.699219 C 703.515625 134.390625 704.441406 134.738281 704.554688 135.3125 C 705.707031 138.652344 704.902344 144.867188 702.59375 149.46875 Z M 702.59375 149.46875 " fill-opacity="1" fill-rule="nonzero"/><path fill="#231815" d="M 720.003906 133.929688 C 720.582031 134.277344 721.386719 134.507812 721.734375 134.96875 C 722.078125 135.542969 722.425781 136.234375 722.425781 136.925781 C 722.425781 140.722656 722.308594 144.40625 722.078125 148.089844 C 722.078125 148.550781 721.503906 148.894531 721.273438 149.355469 C 718.964844 145.785156 718.390625 139.457031 720.121094 133.816406 Z M 720.003906 133.929688 " fill-opacity="1" fill-rule="nonzero"/><path fill="#231815" d="M 730.148438 151.082031 C 727.960938 146.246094 728.882812 142.105469 728.996094 137.960938 C 728.996094 136.808594 729.226562 135.425781 731.304688 135.082031 C 731.535156 136.003906 732.109375 136.925781 731.996094 137.84375 C 731.878906 141.988281 732.6875 146.363281 730.148438 151.082031 Z M 730.148438 151.082031 " fill-opacity="1" fill-rule="nonzero"/><path fill="#231815" d="M 741.910156 148.203125 C 739.257812 144.289062 739.375 139.800781 738.683594 134.390625 C 740.527344 135.65625 741.5625 136.117188 741.910156 136.808594 C 742.488281 137.84375 742.71875 139.109375 742.71875 140.378906 C 742.71875 143.023438 742.949219 145.671875 741.910156 148.320312 Z M 741.910156 148.203125 " fill-opacity="1" fill-rule="nonzero"/><path fill="#ffffff" d="M 656.015625 281.265625 C 648.40625 281.265625 648.40625 293.003906 656.015625 293.003906 C 663.625 293.003906 663.625 281.265625 656.015625 281.265625 Z M 656.015625 281.265625 " fill-opacity="1" fill-rule="nonzero"/><path fill="#ffffff" d="M 676.308594 318.671875 C 668.699219 318.671875 668.699219 330.414062 676.308594 330.414062 C 683.917969 330.414062 683.917969 318.671875 676.308594 318.671875 Z M 676.308594 318.671875 " fill-opacity="1" fill-rule="nonzero"/><path fill="#ffffff" d="M 663.742188 538.289062 C 656.132812 538.289062 656.132812 550.03125 663.742188 550.03125 C 671.351562 550.03125 671.351562 538.289062 663.742188 538.289062 Z M 663.742188 538.289062 " fill-opacity="1" fill-rule="nonzero"/><path fill="#ffffff" d="M 684.03125 585.828125 C 676.425781 585.828125 676.425781 597.566406 684.03125 597.566406 C 691.640625 597.566406 691.640625 585.828125 684.03125 585.828125 Z M 684.03125 585.828125 " fill-opacity="1" fill-rule="nonzero"/><path fill="#ffffff" d="M 673.195312 620.128906 C 665.585938 620.128906 665.585938 631.867188 673.195312 631.867188 C 680.804688 631.867188 680.804688 620.128906 673.195312 620.128906 Z M 673.195312 620.128906 " fill-opacity="1" fill-rule="nonzero"/><path fill="#ffffff" d="M 687.953125 642.917969 C 685.648438 642.917969 685.648438 646.488281 687.953125 646.488281 C 690.257812 646.488281 690.257812 642.917969 687.953125 642.917969 Z M 687.953125 642.917969 " fill-opacity="1" fill-rule="nonzero"/><path fill="#ffffff" d="M 669.277344 265.148438 C 666.96875 265.148438 666.96875 268.71875 669.277344 268.71875 C 671.582031 268.71875 671.582031 265.148438 669.277344 265.148438 Z M 669.277344 265.148438 " fill-opacity="1" fill-rule="nonzero"/><path fill="#ffffff" d="M 663.050781 248 C 660.746094 248 660.746094 251.566406 663.050781 251.566406 C 665.355469 251.566406 665.355469 248 663.050781 248 Z M 663.050781 248 " fill-opacity="1" fill-rule="nonzero"/><path fill="#ffffff" d="M 664.546875 310.269531 C 662.242188 310.269531 662.242188 313.839844 664.546875 313.839844 C 666.855469 313.839844 666.855469 310.269531 664.546875 310.269531 Z M 664.546875 310.269531 " fill-opacity="1" fill-rule="nonzero"/><path fill="#ffffff" d="M 638.839844 311.882812 C 636.53125 311.882812 636.53125 315.449219 638.839844 315.449219 C 641.144531 315.449219 641.144531 311.882812 638.839844 311.882812 Z M 638.839844 311.882812 " fill-opacity="1" fill-rule="nonzero"/><path fill="#ffffff" d="M 664.546875 522.980469 C 662.242188 522.980469 662.242188 526.550781 664.546875 526.550781 C 666.855469 526.550781 666.855469 522.980469 664.546875 522.980469 Z M 664.546875 522.980469 " fill-opacity="1" fill-rule="nonzero"/><path fill="#ffffff" d="M 681.726562 575.238281 C 679.421875 575.238281 679.421875 578.804688 681.726562 578.804688 C 684.03125 578.804688 684.03125 575.238281 681.726562 575.238281 Z M 681.726562 575.238281 " fill-opacity="1" fill-rule="nonzero"/><path fill="#ffffff" d="M 653.597656 564.304688 C 651.289062 564.304688 651.289062 567.871094 653.597656 567.871094 C 655.902344 567.871094 655.902344 564.304688 653.597656 564.304688 Z M 653.597656 564.304688 " fill-opacity="1" fill-rule="nonzero"/><path fill="#ffffff" d="M 663.050781 582.949219 C 660.746094 582.949219 660.746094 586.519531 663.050781 586.519531 C 665.355469 586.519531 665.355469 582.949219 663.050781 582.949219 Z M 663.050781 582.949219 " fill-opacity="1" fill-rule="nonzero"/><path fill="#ffffff" d="M 703.515625 401.660156 C 722.886719 390.496094 746.984375 386.699219 769.117188 388.65625 C 776.726562 389.347656 776.613281 377.492188 769.117188 376.914062 C 739.835938 374.265625 705.824219 381.519531 683.570312 401.660156 C 663.972656 419.503906 655.210938 450.695312 672.621094 473.140625 C 687.835938 492.59375 719.660156 494.320312 732.917969 472.105469 C 740.871094 475.328125 750.210938 475.214844 757.703125 471.070312 C 769.234375 464.625 774.539062 450.351562 771.195312 437.804688 C 769.234375 430.4375 757.820312 433.546875 759.78125 440.914062 C 763.699219 455.070312 749.519531 466.8125 736.953125 461.054688 C 738.683594 452.308594 737.875 442.292969 728.652344 441.257812 C 723.695312 440.683594 718.964844 443.90625 717.46875 448.507812 C 715.507812 454.609375 718.964844 461.054688 723.117188 465.429688 C 719.3125 472.105469 712.511719 476.480469 704.785156 476.710938 C 686.453125 477.398438 674.578125 460.363281 674.925781 443.328125 C 675.386719 425.257812 688.414062 410.292969 703.402344 401.660156 Z M 703.515625 401.660156 " fill-opacity="1" fill-rule="nonzero"/><path fill="#ffffff" d="M 737.875 411.332031 C 730.265625 411.332031 730.265625 423.070312 737.875 423.070312 C 745.484375 423.070312 745.484375 411.332031 737.875 411.332031 Z M 737.875 411.332031 " fill-opacity="1" fill-rule="nonzero"/><path fill="#ffffff" d="M 759.78125 404.308594 C 752.171875 404.308594 752.171875 416.050781 759.78125 416.050781 C 767.390625 416.050781 767.390625 404.308594 759.78125 404.308594 Z M 759.78125 404.308594 " fill-opacity="1" fill-rule="nonzero"/></svg>