<svg width="1440" height="1024" viewBox="0 0 1440 1024" fill="none" xmlns="http://www.w3.org/2000/svg">
<g clip-path="url(#clip0_1538_387)">
<rect width="1440" height="1024" fill="#F3EFE9"/>
<mask id="mask0_1538_387" style="mask-type:luminance" maskUnits="userSpaceOnUse" x="1173" y="810" width="380" height="386">
<path d="M1173 810H1552.48V1195.34H1173V810Z" fill="white"/>
</mask>
<g mask="url(#mask0_1538_387)">
<path d="M1515.11 1006.03C1512.81 1019.63 1507.69 1034.52 1499.09 1045.54V1045.55C1490.64 1056.36 1478.85 1063.46 1463.1 1061.94C1455.15 1061.17 1434.07 1053.41 1426.99 1059.64C1422.37 1063.7 1428.38 1073.47 1430.17 1077.55C1442.45 1105.51 1427.64 1136.24 1400.96 1148.45C1398.43 1149.61 1395.82 1150.67 1393.14 1151.64C1380.17 1156.32 1365.48 1158.76 1350.14 1158.76C1335.28 1158.76 1320.3 1156.47 1305.61 1151.97C1282.74 1144.95 1262.7 1133.18 1247.67 1117.91C1239.28 1109.4 1232.79 1100.14 1228.66 1090.92C1226.6 1086.34 1225.12 1081.77 1224.28 1077.3C1223.71 1074.3 1223.44 1071.28 1223.45 1068.3V1068.29C1223.47 1058.28 1226.73 1048.65 1233.22 1041.32C1236.55 1037.56 1240.72 1034.4 1245.76 1032.1C1248.54 1030.83 1251.51 1029.87 1254.02 1028.11C1256.52 1026.34 1258.57 1023.53 1258.37 1020.47C1258.08 1015.9 1253.33 1013.16 1249.18 1011.24C1244.5 1009.08 1240.17 1006.97 1236.22 1004.69H1236.21C1225.35 998.438 1217.37 990.938 1213.09 977.729C1212.58 976.151 1212.12 974.49 1211.71 972.734C1209.43 962.859 1209.18 952.651 1210.43 942.609C1211.32 935.458 1212.96 928.391 1215.16 921.589C1220.8 905.651 1229.79 891.792 1241.17 881.5C1252.92 870.88 1267.53 861.849 1283.43 855.391C1293.29 851.391 1303.35 848.552 1312.83 847.052C1317.99 846.229 1322.97 845.813 1327.66 845.813C1338.73 845.813 1353.04 848.406 1360.21 857.76C1369.21 869.495 1374.08 880.422 1375.41 894.906C1375.77 898.807 1376.3 903.078 1379.16 905.755C1384.26 910.526 1388.73 903.193 1391.47 899.734C1394.97 895.292 1397.83 892.036 1402.77 888.609C1419.53 877.021 1443.19 866.068 1463.54 875.297C1463.59 875.323 1463.64 875.349 1463.69 875.37C1490.94 887.828 1504.74 921.115 1511.65 948.193C1516.93 968.901 1518.09 988.359 1515.11 1006.03ZM1546.32 939.344C1519.75 835.109 1440.11 811.531 1396.21 860.099C1381.58 786.021 1275.09 802.557 1217.18 854.932C1163.94 903.083 1156.93 998.104 1209.82 1022.71C1159.51 1062.53 1198.23 1156.47 1295.12 1186.2C1397.43 1217.59 1495.58 1155.56 1460.79 1084.68C1507.83 1109.91 1572.89 1043.57 1546.32 939.344Z" fill="#75A81E"/>
<path d="M1541 1010.42C1536.82 1034.02 1525.01 1061.29 1503.49 1073.9C1497.34 1077.51 1490.51 1079.52 1483.35 1079.26C1477.7 1079.06 1472.9 1076.33 1467.46 1075.72C1462.52 1075.17 1456.59 1074.04 1454.51 1076.72C1450.98 1081.26 1453.59 1091.67 1455.23 1097.68C1459.33 1112.72 1456.79 1131.68 1447.61 1144.66C1442.03 1152.54 1435.01 1159.32 1427.06 1164.79C1420.31 1169.44 1413.01 1173.25 1405.39 1176.25C1386.17 1183.82 1365.28 1186.58 1344.71 1185.6C1335.14 1185.15 1325.6 1183.86 1316.22 1181.89C1288.97 1176.13 1262.35 1164.65 1240.54 1147.17C1229.9 1138.65 1220.39 1128.6 1213.06 1117.07C1204.68 1103.9 1198.64 1088.48 1197.92 1072.76C1197.56 1065.04 1198.55 1057.21 1201.45 1050.02C1203.74 1044.3 1209.23 1036.78 1213.54 1032.4C1216.69 1029.19 1228.44 1024.06 1227.26 1020.92C1226.21 1018.14 1216.45 1014.87 1212.03 1012.65C1166.65 989.865 1182.54 923.906 1202.56 889.12C1210.92 874.578 1222.93 862.38 1236.35 852.453C1266.68 830.026 1316.49 809.865 1354.16 822.849C1365.78 826.854 1374.45 835.281 1379.91 846.177C1382.55 851.453 1384.41 857.094 1385.96 862.776C1386.85 866.073 1386.53 869.005 1387.76 872.302C1390.85 880.594 1400.85 868.813 1404.03 865.297C1413.29 855.031 1426.26 848.677 1439.9 846.87C1446.81 845.948 1453.89 846.177 1460.73 847.563C1491.96 853.87 1512.96 883.719 1525.86 910.849C1539.74 940.016 1546.92 976.953 1541 1010.42ZM1546.32 939.344C1519.75 835.109 1440.11 811.531 1396.21 860.099C1381.58 786.021 1275.09 802.557 1217.18 854.932C1163.94 903.083 1156.93 998.104 1209.82 1022.71C1159.51 1062.53 1198.23 1156.47 1295.12 1186.2C1397.43 1217.59 1495.58 1155.57 1460.79 1084.69C1507.83 1109.91 1572.89 1043.57 1546.32 939.344Z" fill="#5B7A0D"/>
</g>
<path d="M1438.07 -35.9947C1438.07 -32.4947 1437.98 -28.9947 1437.8 -25.4999C1437.62 -21.9999 1437.36 -18.5103 1437 -15.026C1436.66 -11.5416 1436.21 -8.06762 1435.69 -4.60408C1435.16 -1.14054 1434.54 2.30738 1433.84 5.73967C1433.14 9.17717 1432.35 12.5886 1431.47 15.9845C1430.6 19.3803 1429.64 22.7553 1428.59 26.1043C1427.55 29.4584 1426.42 32.7813 1425.2 36.0782C1423.99 39.3751 1422.69 42.6407 1421.32 45.8751C1419.94 49.1095 1418.48 52.3074 1416.94 55.474C1415.4 58.6355 1413.78 61.7657 1412.08 64.8543C1410.39 67.9376 1408.61 70.9845 1406.76 73.9897C1404.91 76.9897 1402.98 79.948 1400.98 82.8595C1398.98 85.7709 1396.91 88.6303 1394.76 91.4428C1392.61 94.2553 1390.4 97.0157 1388.11 99.7241C1385.83 102.427 1383.48 105.078 1381.06 107.672C1378.65 110.266 1376.16 112.802 1373.61 115.276C1371.07 117.755 1368.46 120.167 1365.79 122.516C1363.12 124.87 1360.4 127.156 1357.61 129.375C1354.83 131.599 1351.99 133.75 1349.1 135.839C1346.21 137.922 1343.26 139.938 1340.27 141.886C1337.27 143.828 1334.23 145.703 1331.14 147.5C1328.05 149.302 1324.92 151.026 1321.74 152.677C1318.57 154.328 1315.35 155.901 1312.1 157.396C1308.84 158.896 1305.55 160.313 1302.22 161.651C1298.9 162.995 1295.54 164.25 1292.15 165.432C1288.75 166.609 1285.34 167.708 1281.89 168.724C1278.44 169.74 1274.97 170.677 1271.48 171.526C1267.99 172.375 1264.47 173.146 1260.94 173.828C1257.41 174.511 1253.86 175.109 1250.3 175.62C1246.74 176.136 1243.17 176.563 1239.58 176.906C1235.99 177.25 1232.41 177.505 1228.81 177.677C1225.21 177.849 1221.61 177.938 1218.01 177.938C1214.41 177.938 1210.81 177.849 1207.21 177.677C1203.61 177.505 1200.03 177.25 1196.44 176.906C1192.86 176.563 1189.29 176.136 1185.72 175.62C1182.16 175.109 1178.61 174.511 1175.08 173.828C1171.55 173.146 1168.04 172.375 1164.54 171.526C1161.05 170.677 1157.58 169.74 1154.13 168.724C1150.69 167.708 1147.27 166.609 1143.87 165.432C1140.48 164.25 1137.12 162.995 1133.8 161.651C1130.47 160.313 1127.18 158.896 1123.93 157.396C1120.67 155.901 1117.45 154.328 1114.28 152.677C1111.1 151.026 1107.97 149.302 1104.88 147.5C1101.79 145.703 1098.75 143.828 1095.75 141.886C1092.76 139.938 1089.82 137.922 1086.93 135.839C1084.03 133.75 1081.19 131.599 1078.41 129.375C1075.62 127.156 1072.9 124.87 1070.23 122.516C1067.56 120.167 1064.95 117.755 1062.41 115.276C1059.86 112.802 1057.38 110.266 1054.96 107.672C1052.54 105.078 1050.19 102.427 1047.91 99.7241C1045.62 97.0157 1043.41 94.2553 1041.26 91.4428C1039.11 88.6303 1037.04 85.7709 1035.04 82.8595C1033.04 79.948 1031.11 76.9897 1029.27 73.9897C1027.41 70.9845 1025.64 67.9376 1023.94 64.8543C1022.24 61.7657 1020.62 58.6355 1019.08 55.474C1017.54 52.3074 1016.08 49.1095 1014.71 45.8751C1013.33 42.6407 1012.03 39.3751 1010.82 36.0782C1009.6 32.7813 1008.48 29.4584 1007.43 26.1043C1006.39 22.7553 1005.43 19.3803 1004.55 15.9845C1003.68 12.5886 1002.89 9.17717 1002.18 5.73967C1001.48 2.30738 1000.86 -1.14054 1000.34 -4.60408C999.807 -8.06762 999.369 -11.5416 999.015 -15.026C998.661 -18.5103 998.396 -21.9999 998.218 -25.4999C998.047 -28.9947 997.958 -32.4947 997.958 -35.9947C997.958 -39.4947 998.047 -42.9947 998.218 -46.4895C998.396 -49.9895 998.661 -53.4791 999.015 -56.9635C999.369 -60.4478 999.807 -63.9218 1000.34 -67.3853C1000.86 -70.8489 1001.48 -74.2968 1002.18 -77.7291C1002.89 -81.1666 1003.68 -84.578 1004.55 -87.9739C1005.43 -91.3697 1006.39 -94.7447 1007.43 -98.0937C1008.48 -101.448 1009.6 -104.771 1010.82 -108.068C1012.03 -111.364 1013.33 -114.63 1014.71 -117.864C1016.08 -121.099 1017.54 -124.297 1019.08 -127.463C1020.62 -130.63 1022.24 -133.755 1023.94 -136.844C1025.64 -139.927 1027.41 -142.974 1029.27 -145.979C1031.11 -148.979 1033.04 -151.937 1035.04 -154.849C1037.04 -157.76 1039.11 -160.62 1041.26 -163.432C1043.41 -166.245 1045.62 -169.005 1047.91 -171.713C1050.19 -174.417 1052.54 -177.068 1054.96 -179.661C1057.38 -182.255 1059.86 -184.792 1062.41 -187.266C1064.95 -189.745 1067.56 -192.156 1070.23 -194.51C1072.9 -196.859 1075.62 -199.146 1078.41 -201.365C1081.19 -203.588 1084.03 -205.74 1086.93 -207.828C1089.82 -209.911 1092.76 -211.927 1095.75 -213.875C1098.75 -215.818 1101.79 -217.693 1104.88 -219.49C1107.97 -221.292 1111.1 -223.016 1114.28 -224.667C1117.45 -226.318 1120.67 -227.891 1123.93 -229.385C1127.18 -230.885 1130.47 -232.302 1133.8 -233.641C1137.12 -234.984 1140.48 -236.24 1143.87 -237.422C1147.27 -238.599 1150.69 -239.698 1154.13 -240.713C1157.58 -241.729 1161.05 -242.667 1164.54 -243.516C1168.04 -244.365 1171.55 -245.135 1175.08 -245.818C1178.61 -246.5 1182.16 -247.099 1185.72 -247.609C1189.29 -248.125 1192.86 -248.552 1196.44 -248.896C1200.03 -249.24 1203.61 -249.495 1207.21 -249.667C1210.81 -249.838 1214.41 -249.927 1218.01 -249.927C1221.61 -249.927 1225.21 -249.838 1228.81 -249.667C1232.41 -249.495 1235.99 -249.24 1239.58 -248.896C1243.17 -248.552 1246.74 -248.125 1250.3 -247.609C1253.86 -247.099 1257.41 -246.5 1260.94 -245.818C1264.47 -245.135 1267.99 -244.365 1271.48 -243.516C1274.97 -242.667 1278.44 -241.729 1281.89 -240.713C1285.34 -239.698 1288.75 -238.599 1292.15 -237.422C1295.54 -236.24 1298.9 -234.984 1302.22 -233.641C1305.55 -232.302 1308.84 -230.885 1312.1 -229.385C1315.35 -227.891 1318.57 -226.318 1321.74 -224.667C1324.92 -223.016 1328.05 -221.292 1331.14 -219.49C1334.23 -217.693 1337.28 -215.818 1340.27 -213.875C1343.26 -211.927 1346.21 -209.911 1349.1 -207.828C1351.99 -205.74 1354.83 -203.588 1357.61 -201.365C1360.4 -199.146 1363.12 -196.859 1365.79 -194.51C1368.46 -192.156 1371.07 -189.745 1373.61 -187.266C1376.16 -184.792 1378.65 -182.255 1381.06 -179.661C1383.48 -177.068 1385.83 -174.417 1388.11 -171.713C1390.4 -169.005 1392.61 -166.245 1394.76 -163.432C1396.91 -160.62 1398.98 -157.76 1400.98 -154.849C1402.98 -151.937 1404.91 -148.979 1406.76 -145.979C1408.61 -142.974 1410.39 -139.927 1412.08 -136.844C1413.78 -133.755 1415.4 -130.625 1416.94 -127.463C1418.48 -124.297 1419.94 -121.099 1421.32 -117.864C1422.69 -114.63 1423.99 -111.364 1425.2 -108.068C1426.42 -104.771 1427.55 -101.448 1428.59 -98.0937C1429.64 -94.7447 1430.6 -91.3697 1431.47 -87.9739C1432.35 -84.578 1433.14 -81.1666 1433.84 -77.7291C1434.54 -74.2968 1435.16 -70.8489 1435.69 -67.3853C1436.21 -63.9218 1436.66 -60.4478 1437 -56.9635C1437.36 -53.4791 1437.62 -49.9895 1437.8 -46.4895C1437.98 -42.9947 1438.07 -39.4947 1438.07 -35.9947Z" fill="#DF443C"/>
<mask id="mask1_1538_387" style="mask-type:luminance" maskUnits="userSpaceOnUse" x="996" y="-252" width="444" height="432">
<path d="M996 -252H1440V180H996V-252Z" fill="white"/>
</mask>
<g mask="url(#mask1_1538_387)">
<path d="M1438.07 -35.9947C1438.07 -32.4947 1437.98 -28.9947 1437.8 -25.4999C1437.62 -21.9999 1437.36 -18.5103 1437 -15.0259C1436.66 -11.5415 1436.21 -8.06755 1435.69 -4.60401C1435.16 -1.14047 1434.54 2.30743 1433.84 5.73973C1433.13 9.17723 1432.35 12.5887 1431.47 15.9845C1430.6 19.3804 1429.63 22.7554 1428.59 26.1043C1427.55 29.4585 1426.42 32.7814 1425.2 36.0783C1423.99 39.3752 1422.69 42.6408 1421.32 45.8752C1419.94 49.1095 1418.48 52.3075 1416.94 55.4741C1415.4 58.6356 1413.78 61.7658 1412.08 64.8543C1410.38 67.9377 1408.61 70.9846 1406.76 73.9898C1404.91 76.9898 1402.98 79.9481 1400.98 82.8595C1398.98 85.771 1396.91 88.6304 1394.76 91.4429C1392.61 94.2554 1390.4 97.0158 1388.11 99.7241C1385.83 102.427 1383.48 105.078 1381.06 107.672C1378.65 110.266 1376.16 112.802 1373.61 115.276C1371.07 117.755 1368.46 120.167 1365.79 122.516C1363.12 124.87 1360.4 127.156 1357.61 129.375C1354.83 131.599 1351.99 133.75 1349.1 135.839C1346.21 137.922 1343.26 139.938 1340.26 141.886C1337.27 143.828 1334.23 145.703 1331.14 147.5C1328.05 149.302 1324.92 151.026 1321.74 152.677C1318.57 154.328 1315.35 155.901 1312.1 157.396C1308.84 158.896 1305.55 160.313 1302.22 161.651C1298.9 162.995 1295.54 164.25 1292.15 165.432C1288.75 166.61 1285.34 167.709 1281.89 168.724C1278.44 169.74 1274.97 170.677 1271.48 171.526C1267.99 172.375 1264.47 173.146 1260.94 173.828C1257.41 174.511 1253.86 175.11 1250.3 175.62C1246.74 176.136 1243.17 176.563 1239.58 176.906C1235.99 177.25 1232.41 177.505 1228.81 177.677C1225.21 177.849 1221.61 177.938 1218.01 177.938C1214.41 177.938 1210.81 177.849 1207.21 177.677C1203.61 177.505 1200.03 177.25 1196.44 176.906C1192.86 176.563 1189.29 176.136 1185.72 175.62C1182.16 175.11 1178.61 174.511 1175.08 173.828C1171.55 173.146 1168.04 172.375 1164.54 171.526C1161.05 170.677 1157.58 169.74 1154.13 168.724C1150.69 167.709 1147.27 166.61 1143.87 165.432C1140.48 164.25 1137.12 162.995 1133.8 161.651C1130.47 160.313 1127.18 158.896 1123.93 157.396C1120.67 155.901 1117.45 154.328 1114.28 152.677C1111.1 151.026 1107.97 149.302 1104.88 147.5C1101.79 145.703 1098.75 143.828 1095.75 141.886C1092.76 139.938 1089.82 137.922 1086.93 135.839C1084.03 133.75 1081.19 131.599 1078.41 129.375C1075.62 127.156 1072.9 124.87 1070.23 122.516C1067.56 120.167 1064.95 117.755 1062.41 115.276C1059.86 112.802 1057.38 110.266 1054.96 107.672C1052.54 105.078 1050.19 102.427 1047.91 99.7241C1045.62 97.0158 1043.41 94.2554 1041.26 91.4429C1039.11 88.6304 1037.04 85.771 1035.04 82.8595C1033.04 79.9481 1031.11 76.9898 1029.27 73.9898C1027.41 70.9846 1025.64 67.9377 1023.94 64.8543C1022.24 61.7658 1020.62 58.6356 1019.08 55.4741C1017.54 52.3075 1016.08 49.1095 1014.71 45.8752C1013.33 42.6408 1012.03 39.3752 1010.82 36.0783C1009.6 32.7814 1008.48 29.4585 1007.43 26.1043C1006.39 22.7554 1005.43 19.3804 1004.55 15.9845C1003.68 12.5887 1002.89 9.17723 1002.18 5.73973C1001.48 2.30743 1000.86 -1.14047 1000.34 -4.60401C999.807 -8.06755 999.369 -11.5415 999.015 -15.0259C998.661 -18.5103 998.396 -21.9999 998.218 -25.4999C998.047 -28.9947 997.958 -32.4947 997.958 -35.9947C997.958 -39.4947 998.047 -42.9947 998.218 -46.4894C998.396 -49.9894 998.661 -53.479 999.015 -56.9634C999.369 -60.4478 999.807 -63.9217 1000.34 -67.3853C1000.86 -70.8488 1001.48 -74.2967 1002.18 -77.729C1002.89 -81.1665 1003.68 -84.578 1004.55 -87.9738C1005.43 -91.3697 1006.39 -94.7447 1007.43 -98.0936C1008.48 -101.448 1009.6 -104.771 1010.82 -108.068C1012.03 -111.364 1013.33 -114.63 1014.71 -117.864C1016.08 -121.099 1017.54 -124.297 1019.08 -127.463C1020.62 -130.63 1022.24 -133.755 1023.94 -136.844C1025.64 -139.927 1027.41 -142.974 1029.27 -145.979C1031.11 -148.979 1033.04 -151.937 1035.04 -154.849C1037.04 -157.76 1039.11 -160.62 1041.26 -163.432C1043.41 -166.245 1045.62 -169.005 1047.91 -171.713C1050.19 -174.417 1052.54 -177.068 1054.96 -179.661C1057.38 -182.255 1059.86 -184.792 1062.41 -187.266C1064.95 -189.745 1067.56 -192.156 1070.23 -194.51C1072.9 -196.859 1075.62 -199.146 1078.41 -201.364C1081.19 -203.588 1084.03 -205.739 1086.93 -207.828C1089.82 -209.911 1092.76 -211.927 1095.75 -213.875C1098.75 -215.818 1101.79 -217.693 1104.88 -219.489C1107.97 -221.292 1111.1 -223.016 1114.28 -224.667C1117.45 -226.318 1120.67 -227.891 1123.93 -229.385C1127.18 -230.885 1130.47 -232.302 1133.8 -233.641C1137.12 -234.984 1140.48 -236.239 1143.87 -237.422C1147.27 -238.599 1150.69 -239.698 1154.13 -240.713C1157.58 -241.729 1161.05 -242.667 1164.54 -243.516C1168.04 -244.365 1171.55 -245.135 1175.08 -245.818C1178.61 -246.5 1182.16 -247.099 1185.72 -247.609C1189.29 -248.125 1192.86 -248.552 1196.44 -248.896C1200.03 -249.239 1203.61 -249.495 1207.21 -249.667C1210.81 -249.838 1214.41 -249.927 1218.01 -249.927C1221.61 -249.927 1225.21 -249.838 1228.81 -249.667C1232.41 -249.495 1235.99 -249.239 1239.58 -248.896C1243.17 -248.552 1246.74 -248.125 1250.3 -247.609C1253.86 -247.099 1257.41 -246.5 1260.94 -245.818C1264.47 -245.135 1267.99 -244.365 1271.48 -243.516C1274.97 -242.667 1278.44 -241.729 1281.89 -240.713C1285.34 -239.698 1288.75 -238.599 1292.15 -237.422C1295.54 -236.239 1298.9 -234.984 1302.22 -233.641C1305.55 -232.302 1308.84 -230.885 1312.1 -229.385C1315.35 -227.891 1318.57 -226.318 1321.74 -224.667C1324.92 -223.016 1328.05 -221.292 1331.14 -219.489C1334.23 -217.693 1337.28 -215.818 1340.26 -213.875C1343.26 -211.927 1346.21 -209.911 1349.1 -207.828C1351.99 -205.739 1354.83 -203.588 1357.61 -201.364C1360.4 -199.146 1363.12 -196.859 1365.79 -194.51C1368.46 -192.156 1371.07 -189.745 1373.61 -187.266C1376.16 -184.792 1378.65 -182.255 1381.06 -179.661C1383.48 -177.068 1385.83 -174.417 1388.11 -171.713C1390.4 -169.005 1392.61 -166.245 1394.76 -163.432C1396.91 -160.62 1398.98 -157.76 1400.98 -154.849C1402.98 -151.937 1404.91 -148.979 1406.76 -145.979C1408.61 -142.974 1410.38 -139.927 1412.08 -136.844C1413.78 -133.755 1415.4 -130.625 1416.94 -127.463C1418.48 -124.297 1419.94 -121.099 1421.32 -117.864C1422.69 -114.63 1423.99 -111.364 1425.2 -108.068C1426.42 -104.771 1427.55 -101.448 1428.59 -98.0936C1429.63 -94.7447 1430.6 -91.3697 1431.47 -87.9738C1432.35 -84.578 1433.13 -81.1665 1433.84 -77.729C1434.54 -74.2967 1435.16 -70.8488 1435.69 -67.3853C1436.21 -63.9217 1436.66 -60.4478 1437 -56.9634C1437.36 -53.479 1437.62 -49.9894 1437.8 -46.4894C1437.98 -42.9947 1438.07 -39.4947 1438.07 -35.9947Z" stroke="#DF443C" stroke-width="3.9895" stroke-miterlimit="1.5" stroke-linecap="round" stroke-linejoin="round"/>
</g>
<path fill-rule="evenodd" clip-rule="evenodd" d="M1020.16 -59.4537C1037.57 -132.178 1078.39 -201.141 1154.94 -222.094C1176.35 -227.959 1199.64 -226.938 1221.6 -226.151C1258.82 -224.813 1300.45 -218.448 1332.02 -196.761C1339.47 -191.641 1346.44 -184.094 1353.27 -178.105C1360.47 -171.797 1368.93 -165.99 1374.89 -158.438C1386.24 -144.058 1393.52 -126.563 1401.36 -110.219C1405.32 -101.974 1411.45 -94.8286 1415.13 -86.4953C1424.66 -64.9745 1423.48 -34.7298 1418.95 -12.2298C1414.71 8.79621 1404.57 25.6087 1394.8 44.4576C1379.06 74.8273 1365.06 107.364 1332.99 124.004C1321.83 129.796 1309.02 132.786 1297.54 138.03C1270.67 150.306 1241.43 160.817 1211.37 161.473C1201.4 161.692 1191.8 158.161 1182.01 156.572C1160.84 153.14 1135.32 153.306 1116.96 140.296C1104.08 131.176 1095.16 118.39 1083.41 108.062C1072.55 98.5096 1059.24 91.5461 1049.87 80.3534C1036.22 64.0513 1016.21 2.11912 1015.13 -19.9069C1014.61 -30.4798 1018.49 -48.9798 1020.16 -59.4537Z" fill="#C73321" stroke="#C73321" stroke-width="3.99249" stroke-miterlimit="1.5" stroke-linecap="round" stroke-linejoin="round"/>
<path fill-rule="evenodd" clip-rule="evenodd" d="M1098.8 -32.0683C1095.16 -27.9641 1087.72 -18.7298 1095.11 -14.7454C1097.42 -13.5058 1100.04 -13.6621 1102.35 -14.86C1110.35 -19.0162 1115.37 -27.1308 1122.76 -32.0006C1133.29 -38.9381 1163.56 -48.7089 1169.31 -30.5058C1174.44 -14.2662 1146.84 -6.62565 1138.24 2.58788C1130.17 11.2389 1129.63 21.317 1125.19 31.6972C1117.42 49.843 1095.51 79.6034 1072.76 77.4003C1056.06 75.7805 1052.33 46.5149 1048.65 34.3066C1045.79 24.8327 1042.49 15.6139 1039.98 6.02019C1036.48 -7.37562 1032.18 -20.5058 1032.51 -34.5475C1032.83 -48.261 1037.67 -61.2037 1041.01 -74.3495C1050.97 -113.553 1069.35 -149.511 1097.77 -178.417C1104.68 -185.448 1112.17 -193.375 1120.99 -197.98C1134.1 -204.828 1145.48 -199.537 1157.12 -192.948C1184.95 -177.203 1196.4 -141.86 1199.58 -111.886C1200.77 -100.724 1203.99 -85.7974 1196.5 -76.037C1190.7 -68.4693 1180.05 -76.2505 1175.75 -81.6828C1168.02 -91.4797 1160.94 -128.672 1141.67 -120.808C1122.27 -112.891 1149.68 -94.9536 1146.74 -91.3443C1136.69 -78.9797 1120.15 -108.73 1110.08 -94.8547C1108.09 -92.1203 1107.21 -88.7766 1107.53 -85.4328C1108.73 -72.9797 1125.62 -77.7818 1125.64 -68.0995C1125.66 -58.0735 1112.86 -61.6151 1109.06 -55.7349C1105.82 -50.7297 1117.94 -47.4589 1116.48 -42.6933C1114.51 -36.2558 1103.24 -36.0683 1098.8 -32.0683Z" fill="#F96D55" stroke="#F96D55" stroke-width="1.597" stroke-miterlimit="1.5" stroke-linecap="round" stroke-linejoin="round"/>
<path fill-rule="evenodd" clip-rule="evenodd" d="M1234.04 -9.87575C1229.5 -3.06847 1235.18 7.27524 1237.61 13.9106C1241.1 23.4263 1241.49 33.8325 1241.46 43.8689C1241.41 63.1033 1239.12 82.3116 1239.37 101.588C1239.51 112.671 1240.29 125.358 1248.64 133.749C1262.27 147.442 1280.41 135.692 1294.11 128.129C1298.48 125.718 1302.06 122.28 1306.39 119.801C1315.45 114.608 1325.17 110.171 1333.94 104.494C1352.23 92.6605 1374.72 71.5564 1383.05 50.9054C1385.12 45.744 1386.75 39.5356 1386.2 33.921C1384.89 20.7075 1372.58 5.28567 1359.14 3.4263C1337.66 0.447139 1312.75 12.7596 1291.49 5.82734C1278.5 1.59297 1270.66 -7.32368 1261.46 -16.9747C1258.8 -19.7716 1254.44 -26.808 1249.85 -23.9278C1242.13 -19.0737 1253.29 -3.06326 1257.47 1.07736C1263.96 7.50964 1272.72 14.1294 1280.65 18.6919C1289.45 23.7544 1297.91 27.3586 1305.74 34.0148C1310.93 38.4106 1320.48 45.7283 1313.93 52.8898C1300.62 67.421 1290.28 40.0096 1279.88 38.0981C1269.6 36.2075 1275.1 59.5304 1263.84 56.4418C1256.32 54.3741 1259.16 44.0721 1258.86 38.4158C1258.59 33.5617 1257.64 28.6294 1256.61 23.8846C1253.79 10.8273 1236.41 -13.433 1234.04 -9.87575Z" fill="#F96D55" stroke="#F96D55" stroke-width="1.597" stroke-miterlimit="1.5" stroke-linecap="round" stroke-linejoin="round"/>
<path fill-rule="evenodd" clip-rule="evenodd" d="M1179.12 -8.8235C1174.01 -1.97976 1172.05 5.65566 1168.18 13.0619C1159.12 30.4369 1148.59 47.8796 1135.89 62.8795C1126.31 74.192 1110.73 89.5097 1113.78 106.01C1117.02 123.536 1127.2 117.937 1138.18 126.072C1145.8 131.723 1146.94 140.197 1158.15 139.697C1167.99 139.26 1175.86 131.072 1185.54 130.869C1197.68 130.619 1209.55 143.03 1219.18 128.103C1231.15 109.562 1227.64 51.7025 1227.33 29.0879C1227.28 25.3327 1226.77 -1.86515 1222.31 -2.99015C1213.35 -5.24536 1212.56 9.57753 1212.73 15.0567C1213.31 33.666 1222.3 64.5878 1210.92 80.9889C1209.68 82.7805 1207.95 84.2597 1206.21 85.5462C1187.22 99.6086 1194.24 64.9681 1188.44 62.9524C1181.18 60.4368 1171.35 77.4264 1165.47 73.9212C1159.43 70.3222 1165.38 60.817 1165.94 56.265C1166.51 51.6035 1161.73 49.0722 1162.89 43.9941C1164.26 37.9473 1169.74 33.5306 1172.8 28.364C1176.21 22.5984 1178.54 16.1504 1180.72 9.83794C1181.06 8.85878 1181.39 7.8692 1181.77 6.90045C1182.11 6.04108 1182.12 6.04628 1182.43 5.27545C1183.53 2.54629 1184.79 -0.240181 1185.29 -3.15684C1185.77 -5.95371 1183.92 -12.9641 1179.12 -8.8235Z" fill="#F96D55" stroke="#F96D55" stroke-width="1.597" stroke-miterlimit="1.5" stroke-linecap="round" stroke-linejoin="round"/>
<path fill-rule="evenodd" clip-rule="evenodd" d="M1204.42 -22.25C1200.83 -18.4948 1199.15 -14.2187 1198.61 -9.60417C1198 -4.32812 1198.9 1.38021 1200.15 7.22917C1201.34 12.7969 1202.85 18.4948 1203.74 24.0469C1204.37 28.0417 1204.68 31.9688 1204.32 35.7135C1203.94 39.7083 1202.79 43.4948 1200.56 46.974C1198.83 49.599 1196.37 50.4167 1194.18 49.9167C1192.03 49.4323 1190.08 47.6667 1189.35 44.9479C1188.92 43.2917 1189.02 41.6927 1189.4 40.125C1189.79 38.4583 1190.5 36.8229 1191.08 35.1823C1191.63 33.6406 1192.09 32.0938 1191.98 30.474C1191.91 29.3854 1191.63 28.4531 1191.25 27.5938C1190.24 25.3385 1188.5 23.5885 1187.41 21.1563C1186.21 18.5156 1185.82 16.3021 1185.99 14.2396C1186.27 11.0208 1187.94 8.17708 1190.08 4.65625C1188.51 7.58333 1187.22 10.0469 1186.74 12.5885C1186.28 15.0625 1186.6 17.6042 1188.23 20.7552C1189.46 23.1458 1191.28 24.8229 1192.41 27.0417C1192.9 28.0156 1193.25 29.0885 1193.4 30.349C1193.78 33.8229 1191.87 37.1302 1191.19 40.5208C1190.93 41.7969 1190.87 43.0833 1191.28 44.4063C1191.83 46.2604 1193.15 47.4948 1194.62 47.7865C1196.04 48.0677 1197.54 47.4167 1198.6 45.7188C1200.61 42.5573 1201.59 39.1042 1201.96 35.4792C1202.33 31.9115 1202.11 28.1771 1201.61 24.3594C1200.88 18.8177 1199.58 13.1042 1198.62 7.52083C1197.59 1.50521 1196.97 -4.36458 1197.86 -9.70833C1198.64 -14.3698 1200.57 -18.6302 1204.42 -22.25Z" fill="#F96D55"/>
<path d="M1315.95 55.7336C1315.38 57.7441 1315.6 59.7284 1315.82 61.7701C1316.16 64.8638 1316.61 67.9107 1317.58 70.8795C1318.2 72.7805 1319.07 75.567 1321.6 75.0461C1322.97 74.7597 1324.06 73.7232 1325.03 72.7753C1326.46 71.3794 1328.65 69.2232 1328.56 66.9992C1328.46 64.5774 1324.26 60.8847 1322.47 59.3326C1321.41 58.4159 1318.89 55.5409 1317.11 55.8222C1315.54 56.0722 1315.92 58.8066 1316.1 59.8743C1316.73 63.3691 1317.98 66.6347 1319.5 69.8222C1319.78 70.3899 1320.46 72.7597 1321.15 73.0878C1321.34 73.1815 1321.86 72.5669 1321.94 72.4836C1322.45 71.8274 1322.66 70.9211 1322.78 70.119C1323.21 67.4576 1322.17 64.5149 1320.82 62.244C1320.3 61.3534 1319.78 60.4576 1319.18 59.6139C1318.97 59.3066 1318.74 59.0149 1318.51 58.7232C1318.41 58.5826 1318.03 58.218 1318.19 58.2962C1319.04 58.7128 1319.82 59.5357 1320.53 60.1503C1322.33 61.7076 1324.99 64.1034 1325.79 66.4263C1326.22 67.718 1326.21 69.1295 1325.57 70.3378C1325.5 70.468 1324.65 71.7232 1324.62 71.6972C1323.61 70.6607 1323.91 67.567 1323.65 66.2284C1323.17 63.8118 1321.87 62.4628 1320.25 60.7389C1319.94 60.4003 1318.56 58.5982 1317.96 58.6138C1317.91 58.6138 1317.91 59.317 1317.91 59.343C1317.93 60.2493 1318.17 61.1399 1318.49 61.9784C1319.4 64.317 1320.56 66.5097 1321.67 68.7493C1322.08 69.5722 1322.35 70.5722 1322.9 71.3117" stroke="#F09977" stroke-width="2.39549" stroke-miterlimit="1.5" stroke-linecap="round" stroke-linejoin="round"/>
<path d="M1315.83 33.7129C1318.89 37.1973 1322.63 40.8066 1326.94 42.666C1328.91 43.5097 1331.71 43.8952 1332.91 41.6295C1334.41 38.791 1333.99 35.0983 1333.34 32.1035C1333.09 30.9369 1332.72 29.2494 1331.54 28.6556C1329.25 27.5046 1325.63 28.3691 1323.15 28.4212C1320.96 28.4629 1318.35 28.7233 1316.25 29.3691C1315.44 29.6191 1314.35 29.9629 1313.94 30.791C1313.01 32.6296 1315.32 34.5254 1316.54 35.5202C1319.45 37.8952 1323.1 39.9212 1326.47 41.5722C1328.61 42.6139 1330.68 42.9264 1331.98 40.5566C1332.66 39.3118 1332.64 37.8275 1332.43 36.4629C1331.88 32.9629 1331.04 30.0775 1327.19 29.4473C1326.46 29.3275 1325.75 29.3692 1325.03 29.4108C1323.83 29.4785 1322.7 29.6504 1321.53 29.8691C1320.16 30.1191 1318.79 30.3796 1317.41 30.6139C1317.22 30.6452 1316.28 30.6921 1316.17 30.8744C1315.89 31.3327 1317.39 32.8587 1317.66 33.1348C1319.78 35.2754 1322.44 36.8379 1324.85 38.6035C1325.63 39.1764 1326.38 39.7858 1327.2 40.3118C1327.5 40.5045 1327.81 40.6868 1328.12 40.8587C1328.24 40.9212 1328.6 41.1295 1328.49 41.0462C1326.11 39.1608 1323.93 37.14 1321.83 34.9421C1321.08 34.1504 1320.3 33.3691 1319.48 32.6348C1319.23 32.4056 1318.97 32.1869 1318.71 31.9785C1318.59 31.8848 1318.23 31.7806 1318.36 31.7025C1318.54 31.5931 1320.31 32.6973 1320.55 32.8327C1322.67 34.0046 1324.67 35.4837 1326.57 36.9681C1327.25 37.4941 1327.91 38.0202 1328.54 38.6087C1328.77 38.8327 1329.01 39.0618 1329.26 39.2702C1329.37 39.3639 1329.67 39.6921 1329.6 39.5619C1328.49 37.4212 1326.52 35.4785 1324.87 33.7389C1324.31 33.14 1323.69 32.6035 1323.05 32.0879C1322.84 31.916 1322.62 31.7545 1322.41 31.5983C1322.32 31.5358 1322.03 31.4004 1322.13 31.4108C1324.53 31.6868 1327.47 33.1452 1329.09 34.9368C1329.62 35.5254 1330.09 36.1608 1330.5 36.8431C1330.66 37.1139 1330.81 37.3848 1330.95 37.666C1331.03 37.8223 1331.22 38.3275 1331.17 38.1556C1330.48 36.041 1329.32 34.2598 1328.05 32.4525C1327.64 31.8744 1327.24 31.4733 1326.64 31.0931C1326.43 30.9577 1326.22 30.8275 1326 30.6973C1325.92 30.6452 1325.67 30.5618 1325.76 30.5514C1327.91 30.3223 1329.83 32.0983 1331.04 33.6296" stroke="#F09977" stroke-width="2.39549" stroke-miterlimit="1.5" stroke-linecap="round" stroke-linejoin="round"/>
<path d="M1280.12 60.994C1277.5 63.6607 1274.78 66.6086 1272.71 69.718C1271.91 70.9107 1270.94 72.0669 1270.69 73.5253C1269.99 77.5305 1274.64 80.4211 1277.69 81.9419C1279.06 82.6242 1280.18 83.6034 1281.79 83.2231C1283.41 82.8429 1284.2 80.8534 1284.86 79.5148C1287.15 74.8325 1286.14 69.9367 1284.2 65.343C1283.55 63.8273 1282.7 59.9836 1280.41 60.0357C1278.13 60.093 1276.45 63.9784 1275.59 65.6086C1273.78 69.0669 1270.9 73.4471 1273.29 77.2701C1273.94 78.3117 1274.97 79.0877 1275.87 79.9107C1276.95 80.9054 1278.52 82.2179 1280.07 82.2388C1281.73 82.2596 1282.79 80.7909 1283.41 79.4211C1284.89 76.1034 1284.34 72.3378 1283.59 68.9315C1283.33 67.718 1283.13 66.494 1282.68 65.3274C1282.53 64.9315 1282.35 64.5513 1282.19 64.1607C1282.09 63.9523 1281.99 63.3482 1281.88 63.5461C1281.13 65.0461 1281.46 66.843 1281.6 68.4263C1281.78 70.3586 1281.78 72.4367 1281.64 74.369C1281.56 75.5148 1281.62 76.7023 1281.42 77.843C1281.35 78.2336 1281.28 78.6294 1281.16 79.0096C1281.09 79.2179 1281.07 79.7804 1280.93 79.6138C1280.41 79.0096 1280.27 77.5409 1280.17 76.8013C1279.81 74.3482 1279.8 71.843 1279.82 69.369C1279.83 68.3273 1279.81 67.2857 1279.77 66.244C1279.76 65.8638 1279.74 65.4836 1279.76 65.1034C1279.76 64.8898 1279.96 64.3325 1279.79 64.4628C1277.26 66.4107 1276.97 71.7961 1277.21 74.6555C1277.31 75.7857 1277.41 76.9679 1277.7 78.0721C1277.79 78.4002 1277.89 78.7336 1278 79.0617C1278.06 79.2231 1278.29 79.6815 1278.18 79.5513C1274.75 75.7752 1273.58 70.4732 1277.1 66.2336" stroke="#F09977" stroke-width="2.39549" stroke-miterlimit="1.5" stroke-linecap="round" stroke-linejoin="round"/>
<path d="M1207.23 92.0617C1205.75 92.869 1204.12 93.6867 1202.87 94.8325C1198.77 98.5825 1188.44 110.353 1196.84 114.916C1198.96 116.067 1201.71 114.129 1203.12 112.728C1207.29 108.588 1208.04 102.812 1209.25 97.3377C1209.4 96.671 1210.17 90.5669 1209.68 90.1971C1208.74 89.4783 1204.44 93.1919 1203.76 93.9002C1200.97 96.8168 1195.43 102.806 1194.81 106.692C1194.45 108.957 1194.56 112.265 1196.87 113.473C1198.48 114.312 1200.27 113.15 1201.47 112.14C1204.55 109.551 1206.09 105.4 1207.06 101.598C1207.42 100.208 1207.83 98.8169 1207.95 97.3794C1207.99 96.8377 1208.03 96.296 1208.11 95.7544C1208.14 95.546 1208.33 94.9783 1208.19 95.1346C1205.27 98.2648 1203.74 103.03 1201.91 106.801C1201.32 108.015 1200.52 109.103 1199.91 110.306C1199.63 110.843 1199.37 111.39 1199.09 111.921C1199.02 112.046 1198.87 112.416 1198.86 112.275C1198.66 108.088 1201.24 103.218 1203.57 99.9367C1204.55 98.5617 1207.3 95.6918 1207.49 93.8429C1207.53 93.52 1206.94 94.1814 1206.68 94.3741C1206.2 94.7283 1205.75 95.1189 1205.33 95.5304C1204.21 96.6033 1203.03 97.671 1202.01 98.8325C1199.03 102.234 1195.22 107.14 1196.07 112.02" stroke="#F09977" stroke-width="2.39549" stroke-miterlimit="1.5" stroke-linecap="round" stroke-linejoin="round"/>
<path d="M1167.63 86.1556C1166.22 86.7753 1164.81 87.4733 1163.48 88.2545C1159.83 90.3951 1150.99 96.5826 1152.23 101.843C1152.8 104.228 1155.13 106.171 1156.96 107.609C1158.41 108.754 1160.54 110.218 1162.44 110.411C1170.75 111.244 1169.39 96.4264 1169.14 91.5253C1169.06 89.8639 1169.59 86.817 1168.71 85.3014C1168.46 84.8587 1166.44 85.7701 1166.14 85.916C1163.89 87.0253 1161.38 89.6868 1159.75 91.5774C1156.43 95.4628 1151.73 98.8222 1155.26 104.249C1155.86 105.176 1156.65 105.994 1157.49 106.702C1158.43 107.499 1159.55 108.473 1160.71 108.937C1163.61 110.109 1166.39 107.676 1167.28 105.077C1168.94 100.176 1168.05 94.0566 1167.48 88.9733C1167.46 88.8274 1167.33 89.2337 1167.26 89.3691C1167.04 89.7962 1166.85 90.2493 1166.7 90.7076C1166.32 91.9524 1166.2 93.3014 1166.21 94.5982C1166.22 97.692 1167.69 108.973 1161.36 107.458C1159.99 107.129 1159.84 105.426 1159.62 104.255C1158.97 100.656 1160.26 97.3118 1162 94.2233C1162.58 93.192 1163.16 92.1555 1163.75 91.1243C1163.97 90.7545 1164.18 90.3795 1164.39 90.0045C1164.51 89.7962 1164.95 89.2389 1164.76 89.3847C1161.64 91.718 1158.28 95.5097 1157.21 99.3795C1156.83 100.781 1156.73 102.208 1156.85 103.656C1156.89 104.301 1157.02 104.926 1157.25 105.531C1157.28 105.593 1157.34 105.775 1157.33 105.708C1156.29 101.374 1158.07 98.9524 1160.8 95.9212C1160.84 95.8743 1163.49 92.7649 1163.79 92.9837C1163.95 93.1035 1163.2 95.2128 1163.1 95.5253C1162.39 97.8691 1162.08 100.239 1161.8 102.661C1161.77 102.874 1161.45 105.775 1161.51 105.775C1164.62 105.869 1165.45 98.0305 1165.47 95.7389" stroke="#F09977" stroke-width="2.39549" stroke-miterlimit="1.5" stroke-linecap="round" stroke-linejoin="round"/>
<path d="M1107.81 9.88989C1106.22 10.0566 1104.85 10.5462 1103.36 11.093C1102.26 11.4993 1101.14 11.843 1100.08 12.3586C1099.13 12.817 1098.21 13.317 1097.24 13.7336C1094.21 15.0305 1089.18 16.3639 1089.19 20.4055C1089.19 21.2597 1089.26 22.1659 1089.82 22.8586C1091.97 25.5357 1098.16 27.7857 1101.18 25.3065C1103.12 23.7076 1104.23 20.6711 1105.19 18.3847C1106.06 16.3013 1107.04 14.2441 1107.74 12.0878C1107.87 11.6711 1107.96 11.2493 1108.08 10.8378C1108.14 10.6399 1108.46 10.3014 1108.27 10.2441C1106.71 9.77011 1104.68 10.9055 1103.42 11.5878C1100.56 13.1399 1097.62 14.5566 1094.71 16.0045C1094.35 16.1816 1090.83 18.1191 1090.8 18.4784C1090.73 19.4316 1093.57 19.2232 1093.97 19.1711C1096.81 18.817 1099.55 17.1399 1101.64 15.2857C1102.3 14.7076 1102.93 14.1086 1103.58 13.5305C1103.87 13.2753 1104.16 13.0201 1104.46 12.7701C1104.54 12.7024 1104.77 12.4628 1104.71 12.5618C1103.1 15.6034 1098.99 17.5461 1095.98 18.744C1094.79 19.2232 1093.59 19.6712 1092.45 20.2857C1092.45 20.2857 1091.38 20.8014 1091.4 20.8482C1091.62 21.3482 1093.2 21.3534 1093.61 21.343C1096.3 21.3066 1098.52 19.8587 1100.68 18.4159C1101.41 17.9368 1102.16 17.4784 1102.86 16.9784C1103.08 16.8274 1103.29 16.6659 1103.49 16.4941C1103.61 16.4003 1103.83 16.0357 1103.83 16.1868C1103.91 18.9836 1098.5 22.1815 1096.31 22.9367C1095.28 23.2909 1094.23 23.317 1093.16 23.4211C1093.08 23.4263 1092.97 23.3742 1092.93 23.442C1092.87 23.5357 1094.53 23.9732 1096.02 23.9003C1098.19 23.7857 1100.42 23.0201 1101.79 21.2545" stroke="#F09977" stroke-width="2.39549" stroke-miterlimit="1.5" stroke-linecap="round" stroke-linejoin="round"/>
<path d="M508.211 883.951C508.211 887.191 508.129 890.431 507.965 893.666C507.801 896.906 507.555 900.136 507.228 903.361C506.904 906.587 506.495 909.802 506.008 913.009C505.516 916.215 504.947 919.406 504.296 922.584C503.645 925.766 502.917 928.923 502.107 932.067C501.297 935.21 500.405 938.334 499.441 941.435C498.472 944.539 497.426 947.615 496.303 950.667C495.179 953.719 493.979 956.742 492.706 959.736C491.428 962.73 490.078 965.69 488.651 968.621C487.229 971.548 485.73 974.445 484.158 977.304C482.586 980.159 480.942 982.979 479.231 985.761C477.514 988.538 475.735 991.276 473.879 993.971C472.028 996.666 470.109 999.313 468.123 1001.92C466.136 1004.52 464.087 1007.08 461.971 1009.58C459.859 1012.08 457.68 1014.54 455.443 1016.94C453.206 1019.34 450.906 1021.69 448.548 1023.98C446.191 1026.27 443.775 1028.51 441.307 1030.68C438.838 1032.86 436.312 1034.98 433.738 1037.03C431.158 1039.09 428.531 1041.08 425.855 1043.01C423.179 1044.94 420.45 1046.81 417.678 1048.61C414.906 1050.41 412.09 1052.14 409.231 1053.81C406.372 1055.48 403.475 1057.07 400.534 1058.6C397.593 1060.13 394.618 1061.58 391.605 1062.97C388.592 1064.36 385.545 1065.67 382.464 1066.91C379.383 1068.15 376.273 1069.31 373.135 1070.41C369.996 1071.5 366.833 1072.51 363.642 1073.45C360.45 1074.39 357.239 1075.26 354.004 1076.05C350.774 1076.83 347.52 1077.55 344.251 1078.18C340.982 1078.81 337.699 1079.36 334.401 1079.84C331.103 1080.31 327.796 1080.71 324.479 1081.03C321.157 1081.35 317.835 1081.58 314.504 1081.74C311.177 1081.9 307.846 1081.98 304.509 1081.98C301.178 1081.98 297.846 1081.9 294.515 1081.74C291.183 1081.58 287.862 1081.35 284.545 1081.03C281.228 1080.71 277.92 1080.31 274.623 1079.84C271.325 1079.36 268.042 1078.81 264.773 1078.18C261.499 1077.55 258.25 1076.83 255.015 1076.05C251.78 1075.26 248.569 1074.39 245.377 1073.45C242.19 1072.51 239.023 1071.5 235.884 1070.41C232.745 1069.31 229.636 1068.15 226.56 1066.91C223.479 1065.67 220.432 1064.36 217.419 1062.97C214.405 1061.58 211.426 1060.13 208.485 1058.6C205.549 1057.07 202.646 1055.48 199.787 1053.81C196.928 1052.14 194.113 1050.41 191.341 1048.61C188.568 1046.81 185.844 1044.94 183.169 1043.01C180.488 1041.08 177.861 1039.09 175.286 1037.03C172.707 1034.98 170.185 1032.86 167.712 1030.68C165.243 1028.51 162.828 1026.27 160.47 1023.98C158.118 1021.69 155.818 1019.34 153.581 1016.94C151.339 1014.54 149.165 1012.08 147.048 1009.58C144.932 1007.08 142.883 1004.52 140.896 1001.92C138.91 999.313 136.991 996.666 135.14 993.971C133.288 991.276 131.504 988.538 129.793 985.761C128.077 982.979 126.433 980.159 124.861 977.304C123.289 974.445 121.794 971.548 120.367 968.621C118.94 965.69 117.59 962.73 116.318 959.736C115.04 956.742 113.839 953.719 112.716 950.667C111.593 947.615 110.551 944.539 109.582 941.435C108.613 938.334 107.726 935.21 106.916 932.067C106.106 928.923 105.373 925.766 104.723 922.584C104.072 919.406 103.503 916.215 103.016 913.009C102.524 909.802 102.119 906.587 101.791 903.361C101.463 900.136 101.217 896.906 101.054 893.666C100.894 890.431 100.812 887.191 100.812 883.951C100.812 880.711 100.894 877.471 101.054 874.236C101.217 870.996 101.463 867.766 101.791 864.541C102.119 861.315 102.524 858.1 103.016 854.893C103.503 851.687 104.072 848.496 104.723 845.319C105.373 842.137 106.106 838.979 106.916 835.835C107.726 832.692 108.613 829.568 109.582 826.468C110.551 823.363 111.593 820.287 112.716 817.235C113.839 814.183 115.04 811.16 116.318 808.166C117.59 805.172 118.94 802.212 120.367 799.281C121.794 796.349 123.289 793.457 124.861 790.598C126.433 787.743 128.077 784.923 129.793 782.141C131.504 779.364 133.288 776.626 135.14 773.931C136.991 771.236 138.91 768.589 140.896 765.985C142.883 763.382 144.932 760.827 147.048 758.319C149.165 755.817 151.339 753.363 153.581 750.962C155.818 748.561 158.118 746.213 160.47 743.923C162.828 741.628 165.243 739.396 167.712 737.217C170.185 735.043 172.707 732.926 175.286 730.872C177.861 728.814 180.488 726.822 183.169 724.889C185.844 722.961 188.568 721.095 191.341 719.292C194.113 717.493 196.928 715.758 199.787 714.094C202.646 712.426 205.549 710.83 208.485 709.302C211.426 707.774 214.405 706.318 217.419 704.934C220.432 703.546 223.479 702.234 226.56 700.995C229.636 699.751 232.745 698.589 235.884 697.495C239.023 696.405 242.19 695.388 245.377 694.448C248.569 693.508 251.78 692.64 255.015 691.854C258.25 691.068 261.499 690.355 264.773 689.723C268.042 689.091 271.325 688.537 274.623 688.065C277.92 687.587 281.228 687.192 284.545 686.874C287.862 686.556 291.183 686.319 294.515 686.16C297.846 686.001 301.178 685.919 304.509 685.919C307.846 685.919 311.177 686.001 314.504 686.16C317.835 686.319 321.157 686.556 324.479 686.874C327.796 687.192 331.103 687.587 334.401 688.065C337.699 688.537 340.982 689.091 344.251 689.723C347.52 690.355 350.774 691.068 354.004 691.854C357.239 692.64 360.45 693.508 363.642 694.448C366.833 695.388 369.996 696.405 373.135 697.495C376.273 698.589 379.383 699.751 382.464 700.995C385.545 702.234 388.592 703.546 391.605 704.934C394.618 706.318 397.593 707.774 400.534 709.302C403.475 710.83 406.372 712.426 409.231 714.094C412.09 715.758 414.911 717.493 417.678 719.292C420.45 721.095 423.179 722.961 425.855 724.889C428.531 726.822 431.158 728.814 433.738 730.872C436.312 732.926 438.838 735.043 441.307 737.217C443.775 739.396 446.191 741.628 448.548 743.923C450.906 746.213 453.206 748.561 455.443 750.962C457.68 753.363 459.859 755.817 461.971 758.319C464.087 760.827 466.136 763.382 468.123 765.985C470.109 768.589 472.028 771.236 473.879 773.931C475.735 776.626 477.514 779.364 479.231 782.141C480.942 784.923 482.586 787.743 484.158 790.598C485.73 793.457 487.229 796.354 488.651 799.281C490.078 802.212 491.428 805.172 492.706 808.166C493.979 811.16 495.179 814.183 496.303 817.235C497.426 820.287 498.472 823.363 499.441 826.468C500.405 829.568 501.297 832.692 502.107 835.835C502.917 838.979 503.645 842.137 504.296 845.319C504.947 848.496 505.516 851.687 506.008 854.893C506.495 858.1 506.904 861.315 507.228 864.541C507.555 867.766 507.801 870.996 507.965 874.236C508.129 877.471 508.211 880.711 508.211 883.951Z" fill="#DF443C"/>
<mask id="mask2_1538_387" style="mask-type:luminance" maskUnits="userSpaceOnUse" x="99" y="684" width="411" height="400">
<path d="M99 684H510V1083.89H99V684Z" fill="white"/>
</mask>
<g mask="url(#mask2_1538_387)">
<path d="M508.211 883.951C508.211 887.191 508.129 890.431 507.965 893.666C507.801 896.906 507.555 900.136 507.227 903.361C506.904 906.587 506.494 909.802 506.007 913.009C505.515 916.215 504.947 919.406 504.296 922.584C503.645 925.766 502.917 928.923 502.107 932.067C501.297 935.21 500.405 938.335 499.441 941.435C498.472 944.539 497.425 947.615 496.302 950.667C495.179 953.719 493.978 956.742 492.705 959.736C491.428 962.73 490.078 965.69 488.651 968.621C487.229 971.548 485.729 974.446 484.157 977.304C482.586 980.159 480.942 982.979 479.23 985.761C477.514 988.538 475.735 991.276 473.879 993.971C472.027 996.667 470.108 999.313 468.122 1001.92C466.136 1004.52 464.087 1007.08 461.97 1009.58C459.858 1012.08 457.679 1014.54 455.442 1016.94C453.205 1019.34 450.905 1021.69 448.548 1023.98C446.19 1026.27 443.775 1028.51 441.306 1030.68C438.838 1032.86 436.312 1034.98 433.737 1037.03C431.158 1039.09 428.53 1041.08 425.854 1043.01C423.179 1044.94 420.45 1046.81 417.678 1048.61C414.905 1050.41 412.09 1052.14 409.231 1053.81C406.372 1055.48 403.474 1057.07 400.533 1058.6C397.592 1060.13 394.618 1061.58 391.604 1062.97C388.591 1064.36 385.544 1065.67 382.463 1066.91C379.383 1068.15 376.273 1069.31 373.134 1070.41C369.996 1071.5 366.833 1072.51 363.641 1073.45C360.45 1074.39 357.239 1075.26 354.004 1076.05C350.774 1076.83 347.519 1077.55 344.25 1078.18C340.982 1078.81 337.698 1079.37 334.401 1079.84C331.103 1080.31 327.796 1080.71 324.479 1081.03C321.157 1081.35 317.835 1081.58 314.503 1081.74C311.177 1081.9 307.845 1081.98 304.509 1081.98C301.178 1081.98 297.846 1081.9 294.515 1081.74C291.183 1081.58 287.861 1081.35 284.544 1081.03C281.227 1080.71 277.92 1080.31 274.622 1079.84C271.325 1079.37 268.041 1078.81 264.773 1078.18C261.499 1077.55 258.249 1076.83 255.014 1076.05C251.779 1075.26 248.568 1074.39 245.377 1073.45C242.19 1072.51 239.022 1071.5 235.884 1070.41C232.745 1069.31 229.636 1068.15 226.56 1066.91C223.479 1065.67 220.432 1064.36 217.419 1062.97C214.405 1061.58 211.426 1060.13 208.485 1058.6C205.549 1057.07 202.646 1055.48 199.787 1053.81C196.928 1052.14 194.113 1050.41 191.341 1048.61C188.568 1046.81 185.844 1044.94 183.169 1043.01C180.488 1041.08 177.86 1039.09 175.286 1037.03C172.707 1034.98 170.185 1032.86 167.712 1030.68C165.243 1028.51 162.828 1026.27 160.47 1023.98C158.118 1021.69 155.818 1019.34 153.581 1016.94C151.339 1014.54 149.165 1012.08 147.048 1009.58C144.931 1007.08 142.882 1004.52 140.896 1001.92C138.91 999.313 136.991 996.667 135.14 993.971C133.288 991.276 131.504 988.538 129.793 985.761C128.076 982.979 126.432 980.159 124.861 977.304C123.289 974.446 121.794 971.548 120.367 968.621C118.94 965.69 117.59 962.73 116.318 959.736C115.04 956.742 113.839 953.719 112.716 950.667C111.593 947.615 110.551 944.539 109.582 941.435C108.613 938.335 107.726 935.21 106.916 932.067C106.106 928.923 105.373 925.766 104.722 922.584C104.072 919.406 103.503 916.215 103.016 913.009C102.524 909.802 102.119 906.587 101.791 903.361C101.463 900.136 101.217 896.906 101.054 893.666C100.894 890.431 100.812 887.191 100.812 883.951C100.812 880.711 100.894 877.471 101.054 874.236C101.217 870.996 101.463 867.766 101.791 864.541C102.119 861.315 102.524 858.1 103.016 854.894C103.503 851.687 104.072 848.496 104.722 845.319C105.373 842.137 106.106 838.979 106.916 835.835C107.726 832.692 108.613 829.568 109.582 826.468C110.551 823.363 111.593 820.287 112.716 817.235C113.839 814.183 115.04 811.16 116.318 808.166C117.59 805.172 118.94 802.212 120.367 799.281C121.794 796.349 123.289 793.457 124.861 790.598C126.432 787.743 128.076 784.923 129.793 782.141C131.504 779.364 133.288 776.626 135.14 773.931C136.991 771.236 138.91 768.589 140.896 765.985C142.882 763.382 144.931 760.827 147.048 758.32C149.165 755.817 151.339 753.363 153.581 750.962C155.818 748.561 158.118 746.213 160.47 743.923C162.828 741.628 165.243 739.396 167.712 737.217C170.185 735.043 172.707 732.926 175.286 730.872C177.86 728.814 180.488 726.822 183.169 724.889C185.844 722.961 188.568 721.095 191.341 719.292C194.113 717.493 196.928 715.758 199.787 714.094C202.646 712.426 205.549 710.83 208.485 709.302C211.426 707.774 214.405 706.318 217.419 704.934C220.432 703.546 223.479 702.234 226.56 700.995C229.636 699.751 232.745 698.589 235.884 697.495C239.022 696.405 242.19 695.388 245.377 694.448C248.568 693.508 251.779 692.64 255.014 691.854C258.249 691.068 261.499 690.355 264.773 689.723C268.041 689.091 271.325 688.537 274.622 688.065C277.92 687.587 281.227 687.192 284.544 686.874C287.861 686.556 291.183 686.319 294.515 686.16C297.846 686.001 301.178 685.919 304.509 685.919C307.845 685.919 311.177 686.001 314.503 686.16C317.835 686.319 321.157 686.556 324.479 686.874C327.796 687.192 331.103 687.587 334.401 688.065C337.698 688.537 340.982 689.091 344.25 689.723C347.519 690.355 350.774 691.068 354.004 691.854C357.239 692.64 360.45 693.508 363.641 694.448C366.833 695.388 369.996 696.405 373.134 697.495C376.273 698.589 379.383 699.751 382.463 700.995C385.544 702.234 388.591 703.546 391.604 704.934C394.618 706.318 397.592 707.774 400.533 709.302C403.474 710.83 406.372 712.426 409.231 714.094C412.09 715.758 414.91 717.493 417.678 719.292C420.45 721.095 423.179 722.961 425.854 724.889C428.53 726.822 431.158 728.814 433.737 730.872C436.312 732.926 438.838 735.043 441.306 737.217C443.775 739.396 446.19 741.628 448.548 743.923C450.905 746.213 453.205 748.561 455.442 750.962C457.679 753.363 459.858 755.817 461.97 758.32C464.087 760.827 466.136 763.382 468.122 765.985C470.108 768.589 472.027 771.236 473.879 773.931C475.735 776.626 477.514 779.364 479.23 782.141C480.942 784.923 482.586 787.743 484.157 790.598C485.729 793.457 487.229 796.354 488.651 799.281C490.078 802.212 491.428 805.172 492.705 808.166C493.978 811.16 495.179 814.183 496.302 817.235C497.425 820.287 498.472 823.363 499.441 826.468C500.405 829.568 501.297 832.692 502.107 835.835C502.917 838.979 503.645 842.137 504.296 845.319C504.947 848.496 505.515 851.687 506.007 854.894C506.494 858.1 506.904 861.315 507.227 864.541C507.555 867.766 507.801 870.996 507.965 874.236C508.129 877.471 508.211 880.711 508.211 883.951Z" stroke="#DF443C" stroke-width="3.9895" stroke-miterlimit="1.5" stroke-linecap="round" stroke-linejoin="round"/>
</g>
<path fill-rule="evenodd" clip-rule="evenodd" d="M121.366 862.235C137.483 794.917 175.267 731.079 246.124 711.683C265.949 706.255 287.505 707.2 307.836 707.928C342.288 709.167 380.824 715.058 410.046 735.134C416.94 739.873 423.391 746.859 429.716 752.403C436.384 758.242 444.209 763.617 449.734 770.608C460.239 783.92 466.98 800.114 474.235 815.243C477.9 822.875 483.569 829.49 486.983 837.204C495.801 857.125 494.711 885.122 490.512 905.949C486.592 925.413 477.205 940.976 468.161 958.424C453.586 986.536 440.627 1016.65 410.947 1032.06C400.615 1037.42 388.755 1040.19 378.124 1045.04C353.257 1056.41 326.186 1066.13 298.362 1066.74C289.13 1066.94 280.244 1063.68 271.19 1062.21C251.587 1059.03 227.968 1059.18 210.968 1047.14C199.05 1038.7 190.791 1026.86 179.915 1017.3C169.862 1008.46 157.544 1002.01 148.871 991.651C136.23 976.561 117.706 919.232 116.708 898.843C116.231 889.056 119.818 871.931 121.366 862.235Z" fill="#C73321" stroke="#C73321" stroke-width="3.99249" stroke-miterlimit="1.5" stroke-linecap="round" stroke-linejoin="round"/>
<path fill-rule="evenodd" clip-rule="evenodd" d="M194.156 887.585C190.791 891.384 183.901 899.932 190.747 903.621C192.878 904.768 195.303 904.623 197.444 903.515C204.849 899.667 209.502 892.156 216.338 887.648C226.087 881.226 254.108 872.181 259.426 889.032C264.174 904.064 238.632 911.137 230.667 919.666C223.194 927.674 222.697 937.003 218.585 946.611C211.392 963.409 191.109 990.957 170.055 988.918C154.593 987.418 151.141 960.328 147.732 949.027C145.09 940.257 142.034 931.724 139.715 922.843C136.475 910.443 132.488 898.288 132.796 885.29C133.095 872.596 137.574 860.615 140.664 848.447C149.887 812.157 166.901 778.872 193.206 752.114C199.604 745.605 206.537 738.267 214.704 734.005C226.839 727.665 237.373 732.564 248.149 738.663C273.904 753.237 284.501 785.954 287.451 813.7C288.55 824.032 291.53 837.85 284.602 846.884C279.231 853.89 269.367 846.687 265.389 841.658C258.23 832.59 251.683 798.161 233.844 805.441C215.885 812.77 241.259 829.374 238.54 832.715C229.235 844.161 213.923 816.622 204.599 829.465C202.762 831.997 201.942 835.092 202.241 838.187C203.355 849.715 218.985 845.269 219 854.232C219.019 863.513 207.173 860.234 203.654 865.678C200.66 870.311 211.879 873.339 210.524 877.75C208.697 883.709 198.273 883.883 194.156 887.585Z" fill="#F96D55" stroke="#F96D55" stroke-width="1.597" stroke-miterlimit="1.5" stroke-linecap="round" stroke-linejoin="round"/>
<path fill-rule="evenodd" clip-rule="evenodd" d="M319.29 803.325C309.03 815.267 330.046 826.394 318.33 839.315C317.087 840.684 315.433 842.155 313.697 842.859C309.922 844.382 306.393 841.451 304.633 838.284C301.042 831.818 301.765 823.945 301.77 816.81C301.779 805.215 299.706 794.025 299.301 782.483C298.771 767.392 303.317 747.167 314.073 736.021C323.798 725.949 337.823 727.256 349.239 733.509C353.178 735.664 356.5 738.788 360.497 740.924C372.13 747.138 385.003 751.897 396.116 759.032C402.808 763.323 408.95 769.012 415.049 774.108C419.465 777.806 424.055 780.998 427.594 785.674C433.567 793.567 436.667 803.773 439.242 813.189C441.768 822.446 445.924 831.712 449.284 840.617C455.224 856.373 460.325 882.268 449.034 897.001C444.661 902.709 436.344 905.858 429.831 908.075C414.548 913.278 399.462 910.963 383.88 909.098C379.521 908.577 374.44 908.683 370.303 907.164C367.946 906.296 365.829 904.696 363.64 903.476C357.522 900.067 345.199 890.791 343.844 883.164C342.533 875.793 350.122 873.406 355.97 873.854C363.197 874.414 369.46 878.459 376.007 881.091C381.17 883.169 386.691 883.931 392.066 885.194C395.489 885.999 406.048 884.861 406.462 880.151C407.316 870.566 384 873.112 381.45 865.523C379.917 860.967 389.781 858.089 389.67 857.289C388.884 851.585 376.985 852.718 373.996 847.685C370.597 841.952 382.024 839.942 381.758 835.179C381.503 830.608 373.799 831.307 371.542 827.527C367.464 820.701 371.619 812.885 368.597 805.774C366.297 800.379 358.959 798.287 354.417 793.306C351.486 790.1 350.126 782.777 344.813 784.623C330.027 789.768 351.746 811.916 338.358 815.778C331.271 817.817 328.46 809.964 325.418 805.398C324.241 803.633 321.276 800.808 319.29 803.325Z" fill="#F96D55" stroke="#F96D55" stroke-width="1.597" stroke-miterlimit="1.5" stroke-linecap="round" stroke-linejoin="round"/>
<path fill-rule="evenodd" clip-rule="evenodd" d="M319.349 908.128C315.145 914.429 320.401 924.004 322.652 930.146C325.882 938.955 326.244 948.588 326.22 957.878C326.172 975.683 324.05 993.464 324.282 1011.31C324.412 1021.57 325.135 1033.31 332.863 1041.08C345.481 1053.75 362.268 1042.88 374.953 1035.88C378.998 1033.64 382.315 1030.46 386.321 1028.17C394.71 1023.36 403.702 1019.25 411.825 1014C428.757 1003.04 449.571 983.508 457.28 964.392C459.203 959.614 460.708 953.867 460.197 948.67C458.986 936.438 447.589 922.163 435.155 920.441C415.263 917.684 392.208 929.081 372.532 922.664C360.508 918.744 353.243 910.49 344.733 901.557C342.27 898.968 338.234 892.454 333.982 895.12C326.837 899.614 337.169 914.434 341.035 918.267C347.043 924.221 355.152 930.349 362.495 934.572C370.638 939.259 378.467 942.595 385.723 948.756C390.52 952.825 399.367 959.599 393.297 966.229C380.979 979.68 371.409 954.306 361.786 952.536C352.269 950.786 357.36 972.376 346.937 969.517C339.97 967.603 342.602 958.066 342.323 952.83C342.077 948.337 341.194 943.771 340.245 939.379C337.627 927.292 321.543 904.835 319.349 908.128Z" fill="#F96D55" stroke="#F96D55" stroke-width="1.597" stroke-miterlimit="1.5" stroke-linecap="round" stroke-linejoin="round"/>
<path fill-rule="evenodd" clip-rule="evenodd" d="M268.509 909.103C263.779 915.438 261.966 922.506 258.384 929.361C249.995 945.445 240.247 961.591 228.493 975.476C219.627 985.948 205.206 1000.13 208.027 1015.4C211.021 1031.62 220.446 1026.44 230.609 1033.97C237.668 1039.2 238.723 1047.05 249.094 1046.58C258.206 1046.18 265.491 1038.6 274.449 1038.41C285.687 1038.18 296.679 1049.67 305.594 1035.85C316.673 1018.69 313.423 965.13 313.134 944.196C313.086 940.72 312.613 915.544 308.491 914.502C300.199 912.415 299.461 926.136 299.62 931.208C300.155 948.434 308.477 977.058 297.947 992.24C296.795 993.898 295.199 995.267 293.589 996.458C276.006 1009.48 282.51 977.41 277.134 975.544C270.413 973.215 261.316 988.942 255.872 985.697C250.285 982.366 255.79 973.567 256.306 969.353C256.837 965.038 252.416 962.695 253.481 957.995C254.754 952.397 259.826 948.309 262.656 943.526C265.814 938.189 267.974 932.22 269.989 926.377C270.302 925.471 270.611 924.555 270.963 923.658C271.276 922.862 271.286 922.867 271.57 922.154C272.588 919.627 273.754 917.048 274.222 914.348C274.666 911.759 272.949 905.27 268.509 909.103Z" fill="#F96D55" stroke="#F96D55" stroke-width="1.597" stroke-miterlimit="1.5" stroke-linecap="round" stroke-linejoin="round"/>
<path fill-rule="evenodd" clip-rule="evenodd" d="M214.618 866.228C218.446 866.811 224.622 865.476 228.764 862.559C231.517 860.616 233.373 857.964 232.77 854.657C232.592 853.635 231.666 852.111 230.76 850.501C229.858 848.895 228.976 847.222 228.667 845.858C228.359 844.513 228.614 843.418 229.487 842.714C231.03 841.461 232.466 841.369 233.821 841.861C235.865 842.604 237.755 845.029 239.66 846.841C240.629 847.758 241.564 848.548 242.639 848.481C243.232 848.442 243.825 848.114 244.486 847.473C245.397 846.605 245.855 845.255 246.106 843.79C246.515 841.437 246.371 838.785 246.163 836.929C246.048 835.873 245.513 833.868 245.845 832.537C246.081 831.597 246.631 830.888 247.701 830.671C249.678 830.276 251.1 831.274 252.06 832.918C253.188 834.851 253.646 837.696 253.824 839.258C254.384 844.325 254.388 850.438 256.847 853.504C258.477 855.534 261.182 856.161 265.839 854.3C261.09 856.527 258.231 855.901 256.413 853.876C253.713 850.872 253.333 844.609 252.489 839.446C252.262 838.033 251.766 835.478 250.671 833.766C250.064 832.817 249.254 832.146 248.092 832.426C247.663 832.532 247.634 832.947 247.624 833.376C247.591 834.504 248.029 835.892 248.14 836.688C248.415 838.698 248.651 841.582 248.251 844.146C247.942 846.118 247.239 847.892 246.028 849.069C244.5 850.53 243.083 850.867 241.771 850.612C240.72 850.404 239.708 849.787 238.744 848.919C237.693 847.984 236.68 846.764 235.653 845.684C234.12 844.079 232.592 842.671 230.62 844.166C230.364 844.359 230.316 844.667 230.331 845.019C230.355 845.472 230.49 845.988 230.682 846.543C231.627 849.233 233.869 852.641 234.11 854.449C234.602 858.244 232.476 861.223 229.226 863.263C224.849 866.011 218.485 867.042 214.618 866.228Z" fill="#F96D55"/>
<path fill-rule="evenodd" clip-rule="evenodd" d="M296.661 853.032C298.701 860.92 303.555 865.278 308.897 865.698C314.003 866.103 319.523 862.877 323.342 855.718C326.278 850.217 325.309 843.428 326.548 837.479C327.117 834.736 328.144 832.166 330.125 829.948C332.203 827.62 334.802 827.417 337.535 827.591C339.845 827.735 342.251 828.184 344.42 827.335C345.317 826.988 346.165 826.395 346.951 825.45C347.462 824.828 347.911 824.197 348.272 823.517C348.624 822.866 348.889 822.167 349.044 821.41C349.319 820.07 349.111 818.209 348.981 816.304C348.846 814.303 348.788 812.259 349.237 810.601C349.752 808.716 350.871 807.279 353.069 806.72C354.014 806.478 354.955 806.474 355.847 806.671C356.734 806.864 357.577 807.269 358.344 807.857C360.581 809.598 361.671 811.845 362.104 814.347C362.553 816.945 362.273 819.828 361.892 822.668C361.526 825.416 361.053 828.116 361.208 830.43C361.323 832.166 362.538 832.933 363.859 833.593C365.701 834.514 367.75 835.247 368.835 836.756C369.428 837.575 369.78 838.607 369.698 839.991C369.558 842.31 368.145 843.776 366.072 844.74C364.004 845.704 361.241 846.157 358.763 846.692C357.047 847.064 355.48 847.454 354.468 848.172C353.214 849.074 352.78 850.14 352.732 851.282C352.66 852.878 353.219 854.594 353.455 856.258C353.735 858.22 353.609 860.095 352.028 861.682C351.122 862.593 349.955 863.094 348.619 863.35C346.556 863.745 344.068 863.552 341.638 863.678C339.411 863.793 337.227 864.174 335.52 865.678C332.734 868.128 331.938 871.589 331.355 875.085C330.723 878.86 330.352 882.678 328.24 885.441C326.697 887.461 324.219 888.926 320.02 889.375C319.099 889.471 318.173 889.461 317.257 889.38C316.341 889.298 315.435 889.138 314.533 888.936C315.435 889.11 316.346 889.245 317.262 889.302C318.173 889.36 319.089 889.341 320.001 889.216C324.079 888.671 326.461 887.2 327.912 885.19C329.903 882.437 330.154 878.686 330.675 874.978C331.196 871.276 331.996 867.621 334.874 864.96C335.814 864.092 336.889 863.528 338.047 863.162C340.674 862.323 343.726 862.53 346.397 862.337C348.258 862.207 349.931 861.899 351.049 860.727C352.428 859.276 352.216 857.545 351.855 855.785C351.421 853.654 350.789 851.47 351.425 849.542C351.748 848.568 352.375 847.647 353.484 846.823C354.632 845.969 356.411 845.429 358.378 844.971C360.706 844.422 363.319 843.968 365.258 843.028C366.636 842.363 367.659 841.437 367.731 839.885C367.818 838.058 366.709 837.252 365.417 836.597C363.676 835.719 361.627 835.064 360.378 833.699C359.66 832.913 359.168 831.92 359.067 830.58C358.894 828.14 359.337 825.281 359.713 822.379C360.051 819.766 360.335 817.109 359.925 814.723C359.588 812.746 358.759 810.957 356.999 809.583C356.502 809.193 355.953 808.923 355.374 808.788C354.8 808.658 354.198 808.663 353.59 808.812C352.255 809.135 351.594 810.027 351.266 811.165C350.857 812.616 350.924 814.414 351.025 816.174C351.146 818.286 351.31 820.344 350.987 821.82C350.779 822.769 350.437 823.642 349.989 824.452C349.555 825.233 349.02 825.966 348.412 826.675C347.376 827.89 346.252 828.632 345.081 829.071C342.646 829.972 339.98 829.524 337.415 829.317C335.183 829.138 333.032 829.153 331.302 831.019C329.47 832.99 328.515 835.309 327.941 837.788C326.558 843.79 327.319 850.684 324.205 856.195C320.034 863.571 314.172 866.778 308.849 866.218C303.416 865.645 298.522 861.127 296.661 853.032Z" fill="#F96D55"/>
<path fill-rule="evenodd" clip-rule="evenodd" d="M291.926 896.674C288.604 900.15 287.052 904.108 286.555 908.38C285.986 913.264 286.82 918.548 287.977 923.962C289.077 929.116 290.48 934.39 291.299 939.53C291.887 943.228 292.167 946.863 291.839 950.329C291.482 954.027 290.422 957.532 288.353 960.753C286.758 963.183 284.482 963.94 282.447 963.477C280.461 963.028 278.653 961.394 277.978 958.877C277.578 957.344 277.67 955.864 278.021 954.413C278.388 952.87 279.044 951.356 279.584 949.838C280.095 948.411 280.514 946.979 280.413 945.479C280.345 944.472 280.095 943.609 279.738 942.813C278.803 940.726 277.197 939.106 276.18 936.854C275.076 934.41 274.709 932.361 274.873 930.451C275.129 927.472 276.672 924.84 278.653 921.58C277.202 924.29 276.006 926.57 275.567 928.923C275.138 931.213 275.437 933.566 276.942 936.483C278.079 938.696 279.767 940.248 280.808 942.302C281.261 943.204 281.594 944.197 281.724 945.364C282.076 948.579 280.312 951.641 279.68 954.779C279.444 955.961 279.391 957.151 279.762 958.376C280.273 960.092 281.493 961.235 282.862 961.505C284.169 961.765 285.562 961.163 286.541 959.591C288.406 956.664 289.308 953.468 289.655 950.112C289.997 946.81 289.79 943.353 289.327 939.819C288.652 934.689 287.447 929.4 286.56 924.232C285.605 918.664 285.032 913.23 285.856 908.283C286.579 903.968 288.368 900.025 291.926 896.674Z" fill="#F96D55"/>
<path fill-rule="evenodd" clip-rule="evenodd" d="M289.978 864.319C291.323 869.415 298.232 874.482 300.209 877.872C300.652 878.633 300.85 879.328 300.768 879.921C300.484 881.965 299.625 883.17 298.492 883.917C297.099 884.834 295.238 885.036 293.358 885.185C291.675 885.32 289.973 885.407 288.667 886.092C286.536 887.21 285.432 889.1 284.438 891.125C283.378 893.3 282.442 895.628 280.808 897.537C279.506 899.061 277.771 900.319 275.225 901.062C274.246 901.337 272.246 901.91 270.655 901.824C269.666 901.766 268.823 901.438 268.268 900.84C267.598 900.117 267.42 899.302 267.583 898.415C267.723 897.687 268.148 896.877 268.769 896.033C269.661 894.818 270.987 893.483 272.154 892.089C272.916 891.183 273.605 890.257 274.029 889.312C274.42 888.44 274.569 887.562 274.155 886.69C272.954 884.125 270.36 883.098 267.555 882.143C264.618 881.15 261.436 880.287 258.963 878.445C256.924 876.927 255.333 874.776 254.711 871.397C254.542 870.461 254.45 869.497 254.537 868.557C254.624 867.578 254.889 866.624 255.429 865.751C257.902 861.764 260.694 861.19 263.437 862.126C267.526 863.524 271.527 868.562 274.087 870.129C275.461 870.968 277.178 871.455 278.788 871.344C280.432 871.238 281.96 870.51 282.905 868.923C282.013 870.587 280.485 871.392 278.812 871.58C277.139 871.773 275.326 871.339 273.861 870.529C271.286 869.097 267.188 864.305 263.129 863.099C260.81 862.41 258.529 863.037 256.596 866.445C256.196 867.14 256.027 867.897 255.988 868.663C255.94 869.473 256.051 870.293 256.225 871.093C256.847 873.957 258.24 875.75 260.009 876.994C262.897 879.014 266.74 879.627 269.96 880.822C272.631 881.82 274.888 883.214 276.127 885.745C276.768 887.08 276.724 888.43 276.228 889.77C275.804 890.923 275.032 892.07 274.126 893.169C272.935 894.625 271.513 896.014 270.553 897.272C270.182 897.754 269.883 898.208 269.739 898.637C269.642 898.926 269.623 899.191 269.83 899.423C270.139 899.77 270.708 899.775 271.305 899.76C272.554 899.726 273.957 899.331 274.69 899.133C276.831 898.569 278.306 897.562 279.424 896.323C281.011 894.568 281.922 892.388 282.982 890.383C284.188 888.107 285.562 886.039 288.04 884.843C289.52 884.134 291.405 884.062 293.285 883.985C294.982 883.917 296.675 883.845 297.957 883.069C298.931 882.486 299.645 881.488 299.948 879.795C300.122 878.841 299.269 877.597 298.083 876.117C296.149 873.716 293.261 870.804 291.458 867.81C290.764 866.648 290.229 865.481 289.978 864.319Z" fill="#F96D55"/>
<path d="M329.155 795.51C325.911 793.957 324.026 790.862 322.468 787.743C319.325 781.451 317.271 774.335 322.488 768.631C323.934 767.05 325.568 765.782 327.381 764.668C327.993 764.292 328.895 763.583 329.671 763.608C332.067 763.685 332.207 767.961 332.294 769.533C332.448 772.377 331.677 775.14 331.373 777.941C331.012 781.301 330.766 784.696 330.607 788.066C330.515 789.96 330.462 791.821 330.25 793.711C330.23 793.904 330.187 795.225 329.821 795.23C327.333 795.259 325.433 791.262 324.382 789.478C322.324 785.988 320.106 781.427 320.911 777.232C321.422 774.581 323.182 772.025 324.715 769.861C325.727 768.429 327.058 765.464 329.151 765.348C331.074 765.242 330.843 769.07 330.799 770.092C330.602 775.077 329.531 780.053 328.89 784.995C328.673 786.658 328.451 788.331 328.326 790.009C328.288 790.505 328.244 791.002 328.239 791.498C328.23 791.792 328.244 792.665 328.235 792.376C327.969 786.851 327.087 781.571 327.704 776.017C327.902 774.234 328.21 772.469 328.413 770.685C328.485 770.078 328.553 769.465 328.601 768.853C328.62 768.622 328.639 768.395 328.654 768.168C328.664 768.033 328.77 767.682 328.673 767.768C327.743 768.593 327.314 770.627 327.058 771.784C326.253 775.434 325.699 779.277 325.978 783.018C326.104 784.676 326.214 786.344 326.272 788.008C326.292 788.591 326.306 789.179 326.345 789.763C326.354 789.984 326.446 790.65 326.388 790.428C325.39 786.388 324.368 781.784 324.681 777.594C324.792 776.152 324.893 774.634 325.245 773.231C325.38 772.696 325.549 772.17 325.694 771.64C325.771 771.365 326.195 770.801 325.911 770.82C325.689 770.83 325.207 771.693 325.12 771.842C324.421 772.966 323.987 774.393 323.645 775.665C322.222 781.027 322.198 786.513 325.525 791.233" stroke="#F09977" stroke-width="2.39549" stroke-miterlimit="1.5" stroke-linecap="round" stroke-linejoin="round"/>
<path d="M343.502 776.225C342.427 773.626 341.651 770.974 341.091 768.226C340.605 765.82 340.291 763.366 340.952 760.965C341.598 758.632 343.478 755.749 346.318 756.231C350.088 756.872 352.976 760.7 352.161 764.499C351.611 767.035 349.934 769.268 348.511 771.374C347.465 772.922 346.289 774.455 345.006 775.81C344.756 776.07 344.515 776.34 344.293 776.63C344.273 776.654 343.984 777.064 343.96 777.049C343.724 776.89 343.555 776.35 343.468 776.109C343.097 775.068 342.928 773.939 342.755 772.855C342.162 769.137 342.075 764.943 343.343 761.351C343.796 760.054 344.905 758 346.568 758.203C347.34 758.295 347.909 758.748 348.473 759.249C351.742 762.142 349.693 766.52 347.836 769.61C347.195 770.68 346.496 771.741 345.802 772.782C345.595 773.096 345.387 773.404 345.18 773.722C345.103 773.843 345.03 773.963 344.948 774.074C344.905 774.132 344.799 774.315 344.818 774.243C345.17 772.879 345.927 771.717 346.482 770.439C347.224 768.718 347.721 766.9 347.889 765.03C347.991 763.916 347.986 762.802 347.827 761.693C347.779 761.356 347.735 760.999 347.644 760.671C347.586 760.488 347.494 759.958 347.431 760.136C347.132 760.961 347.282 762.05 347.123 762.913C346.771 764.827 346.279 766.65 345.696 768.501C345.431 769.359 345.247 770.217 344.92 771.056C344.823 771.312 344.722 771.572 344.625 771.828C344.577 771.967 344.553 772.368 344.476 772.242C344.023 771.495 344.433 769.605 344.495 768.785C344.722 765.787 345.503 762.851 345.783 759.857" stroke="#F09977" stroke-width="2.39549" stroke-miterlimit="1.5" stroke-linecap="round" stroke-linejoin="round"/>
<path d="M355.894 785.814C355.426 781.948 355.889 778.11 356.675 774.321C357.022 772.648 357.239 771.081 358.015 769.528C359.09 767.388 361.144 764.938 363.863 765.748C364.76 766.014 365.734 766.602 366.438 767.209C367.363 768.019 368.544 769.041 368.92 770.256C369.393 771.785 368.737 773.429 368.106 774.803C366.64 777.999 364.393 780.347 361.833 782.661C360.517 783.852 359.047 784.918 357.581 785.911C357.432 786.012 356.361 786.861 356.188 786.788C355.869 786.658 355.768 785.891 355.734 785.617C355.556 784.276 355.788 782.84 356.004 781.519C356.458 778.785 357.268 776.292 358.121 773.67C358.569 772.291 358.941 770.69 359.929 769.586C360.999 768.395 362.923 767.069 364.591 767.826C365.03 768.024 365.406 768.381 365.777 768.68C369.393 771.587 365.632 776.138 363.516 778.751C363.058 779.315 362.585 779.865 362.137 780.439C361.144 781.687 359.987 782.897 358.719 783.867C358.449 784.079 358.164 784.257 357.875 784.435C357.726 784.527 357.475 784.879 357.436 784.71C357.215 783.64 358.295 782.232 358.83 781.413C360.493 778.852 362.88 776.755 364.172 773.944C364.557 773.096 364.914 772.243 365.242 771.375C365.256 771.336 365.608 770.579 365.546 770.531C364.977 770.112 363.694 771.592 363.439 771.915C361.901 773.848 360.768 776.129 359.37 778.163C358.984 778.722 358.603 779.282 358.232 779.846C358.092 780.058 357.947 780.26 357.803 780.468C357.706 780.593 357.542 780.993 357.509 780.839C357.287 779.773 357.885 778.178 358.237 777.189C359.206 774.456 360.397 769.962 363.463 768.776" stroke="#F09977" stroke-width="2.39549" stroke-miterlimit="1.5" stroke-linecap="round" stroke-linejoin="round"/>
<path d="M372.83 796.33C373.283 792.907 374.763 789.295 377.444 787.025C380.043 784.821 383.446 785.472 385.153 788.307C387.077 791.499 383.639 793.673 381.306 795.105C380.587 795.549 379.893 796.021 379.088 796.296C378.398 796.527 377.709 796.773 377.01 796.966C375.94 797.265 374.893 797.477 373.789 797.569C373.505 797.593 372.917 797.752 372.695 797.463C371.846 796.368 373.216 794.411 373.799 793.538C374.233 792.887 374.73 792.299 375.25 791.725C377.145 789.657 380.505 785.53 383.47 788.461C384.579 789.551 383.615 791.219 382.786 792.116C381.031 794.015 378.437 795.124 376.002 795.833C375.52 795.973 374.402 796.609 373.881 796.455C373.746 796.416 373.871 795.881 373.886 795.838C374.083 795.177 374.662 794.642 375.216 794.276C377.217 792.945 379.488 792.463 381.349 790.829C381.74 790.481 382.887 789.58 382.728 788.929C382.54 788.177 381.108 788.852 380.799 789.04C379.136 790.038 377.463 791.61 376.296 793.162" stroke="#F09977" stroke-width="2.39549" stroke-miterlimit="1.5" stroke-linecap="round" stroke-linejoin="round"/>
<path d="M380.636 820.141C380.94 818.42 382.131 817.292 383.297 816.067C386.074 813.155 390.365 810.157 394.555 810.113C398.094 810.08 401.695 812.215 402.254 815.957C402.442 817.249 402.423 818.584 402.36 819.886C402.312 820.894 402.143 821.838 401.782 822.783C399.521 828.723 392.458 826.187 388.099 824.461C386.05 823.651 383.914 822.668 382.044 821.491C381.726 821.284 380.54 820.445 380.593 819.973C380.67 819.249 381.422 818.729 381.976 818.362C383.452 817.388 385.1 816.757 386.619 815.865C390.216 813.753 397.206 809.728 400.022 815.045C400.321 815.609 400.567 816.178 400.663 816.81C400.803 817.784 400.856 818.676 400.76 819.659C400.63 820.942 400.639 822.219 400.22 823.454C399.636 825.165 397.558 826.235 395.828 825.869C392.66 825.199 389.816 823.699 386.831 822.485C385.669 822.017 384.715 821.255 383.606 820.686C383.519 820.643 382.569 820.209 382.593 820.141C382.622 820.055 383.119 820.098 383.292 820.117C384.006 820.204 384.71 820.344 385.414 820.513C388.374 821.241 391.069 822.899 394.039 823.656C395.037 823.907 396.16 824.042 397.182 823.873C397.462 823.83 398.108 823.926 398.007 823.661C397.674 822.798 396.522 822.19 395.726 821.887C393.61 821.062 391.46 820.382 389.251 819.833C388.321 819.606 387.405 819.346 386.479 819.105C386.204 819.033 385.934 818.96 385.66 818.883C385.534 818.849 385.158 818.801 385.284 818.767C388.123 818.078 391.517 818.999 394.261 819.756C395.148 820.002 396.016 820.32 396.888 820.609C397.173 820.705 397.457 820.802 397.737 820.922C397.848 820.966 398.06 821.197 398.069 821.077C398.137 820.325 397.245 819.577 396.715 819.192C395.037 817.977 393.084 817.191 391.05 816.82C390.317 816.685 389.565 816.525 388.822 816.458C388.514 816.424 388.21 816.424 387.897 816.424C387.81 816.429 387.55 816.429 387.636 816.434C390.409 816.477 393.296 816.704 395.919 817.663C396.908 818.03 397.886 819.008 398.841 819.269C398.957 819.298 398.793 818.483 398.778 818.449C398.59 817.957 398.171 817.528 397.79 817.162C396.691 816.111 394.95 815.638 393.513 815.248C393.007 815.108 392.486 815.055 391.966 814.968C391.797 814.939 391.633 814.906 391.464 814.877C391.353 814.853 391.021 814.857 391.127 814.814C393.827 813.691 398.301 813.454 399.694 816.598" stroke="#F09977" stroke-width="2.39549" stroke-miterlimit="1.5" stroke-linecap="round" stroke-linejoin="round"/>
<path d="M390.389 843.061C392.245 840.487 394.848 837.685 397.857 836.461C401.656 834.908 405.113 836.74 405.653 840.853C405.749 841.576 405.556 842.266 405.325 842.936C403.748 847.487 398.247 846.258 394.646 845.211C393.662 844.922 390.895 844.748 390.384 843.577C389.878 842.425 391.965 840.892 392.66 840.385C393.262 839.942 393.937 839.628 394.627 839.339C397.008 838.356 402.702 836.046 403.782 839.951C404.968 844.257 399.583 844.585 396.729 844.213C395.962 844.117 393.937 844.02 393.489 843.162C393.108 842.449 394.255 841.374 394.752 841.031C396.357 839.922 399.077 839.628 400.981 839.826C401.487 839.879 402.514 839.884 402.774 840.453C403.16 841.311 402.35 842.246 401.641 842.627C400.2 843.399 398.262 842.998 396.705 842.96C396.131 842.945 395.552 842.96 394.979 843.027C394.81 843.042 394.641 843.066 394.472 843.09C394.395 843.1 394.173 843.172 394.241 843.133C394.853 842.786 395.49 842.468 396.131 842.169C396.589 841.957 396.613 841.947 397.201 841.726C397.785 841.509 398.411 841.378 399.024 841.268C400.171 841.06 401.343 841.152 402.49 841.321" stroke="#F09977" stroke-width="2.39549" stroke-miterlimit="1.5" stroke-linecap="round" stroke-linejoin="round"/>
<path d="M395.168 968.861C394.647 970.722 394.845 972.559 395.052 974.449C395.36 977.313 395.78 980.133 396.682 982.881C397.255 984.641 398.056 987.221 400.399 986.738C401.671 986.473 402.674 985.514 403.571 984.636C404.902 983.344 406.922 981.348 406.84 979.29C406.748 977.048 402.867 973.63 401.209 972.193C400.225 971.344 397.892 968.683 396.243 968.943C394.792 969.175 395.139 971.706 395.312 972.694C395.891 975.929 397.048 978.952 398.461 981.903C398.716 982.428 399.343 984.622 399.979 984.926C400.158 985.012 400.645 984.444 400.712 984.366C401.189 983.759 401.377 982.92 401.493 982.178C401.888 979.714 400.924 976.99 399.68 974.888C399.198 974.063 398.711 973.234 398.162 972.453C397.964 972.169 397.752 971.899 397.545 971.629C397.443 971.499 397.091 971.161 397.241 971.233C398.031 971.619 398.75 972.381 399.41 972.95C401.078 974.391 403.542 976.609 404.275 978.759C404.68 979.955 404.665 981.262 404.072 982.38C404.01 982.501 403.224 983.663 403.2 983.638C402.264 982.679 402.539 979.815 402.293 978.576C401.85 976.339 400.654 975.09 399.155 973.495C398.861 973.181 397.583 971.513 397.029 971.527C396.98 971.527 396.985 972.178 396.985 972.202C397 973.041 397.221 973.866 397.525 974.642C398.359 976.807 399.439 978.836 400.466 980.91C400.842 981.671 401.098 982.597 401.604 983.282" stroke="#F09977" stroke-width="2.39549" stroke-miterlimit="1.5" stroke-linecap="round" stroke-linejoin="round"/>
<path d="M395.061 948.478C397.891 951.703 401.358 955.044 405.345 956.765C407.163 957.547 409.756 957.903 410.865 955.806C412.259 953.178 411.868 949.76 411.27 946.988C411.039 945.908 410.697 944.346 409.602 943.796C407.486 942.731 404.135 943.531 401.835 943.579C399.81 943.618 397.395 943.859 395.452 944.457C394.7 944.688 393.687 945.007 393.306 945.773C392.448 947.475 394.589 949.23 395.717 950.151C398.412 952.349 401.792 954.225 404.911 955.753C406.888 956.717 408.807 957.007 410.007 954.813C410.639 953.661 410.619 952.287 410.427 951.023C409.916 947.784 409.139 945.113 405.572 944.529C404.901 944.418 404.246 944.457 403.571 944.495C402.467 944.558 401.416 944.717 400.331 944.92C399.063 945.151 397.795 945.392 396.522 945.609C396.349 945.638 395.476 945.681 395.375 945.85C395.114 946.275 396.503 947.687 396.754 947.943C398.716 949.924 401.175 951.371 403.407 953.005C404.13 953.535 404.829 954.099 405.581 954.586C405.861 954.765 406.145 954.933 406.435 955.092C406.55 955.15 406.878 955.343 406.777 955.266C404.578 953.521 402.558 951.65 400.615 949.616C399.916 948.883 399.193 948.16 398.436 947.48C398.205 947.268 397.969 947.065 397.728 946.872C397.617 946.786 397.279 946.689 397.4 946.617C397.564 946.516 399.208 947.538 399.429 947.663C401.387 948.748 403.238 950.117 405.003 951.491C405.63 951.978 406.242 952.465 406.82 953.01C407.037 953.217 407.259 953.429 407.49 953.622C407.597 953.709 407.871 954.013 407.809 953.892C406.777 951.911 404.955 950.112 403.431 948.502C402.906 947.947 402.332 947.451 401.744 946.974C401.551 946.814 401.348 946.665 401.146 946.52C401.064 946.463 400.794 946.337 400.895 946.347C403.113 946.602 405.832 947.952 407.331 949.611C407.823 950.156 408.262 950.744 408.643 951.375C408.787 951.626 408.927 951.877 409.053 952.137C409.125 952.282 409.308 952.749 409.26 952.59C408.619 950.633 407.548 948.984 406.372 947.311C405.991 946.776 405.625 946.405 405.07 946.053C404.873 945.927 404.675 945.807 404.472 945.686C404.4 945.638 404.164 945.561 404.251 945.551C406.237 945.339 408.016 946.983 409.139 948.401" stroke="#F09977" stroke-width="2.39549" stroke-miterlimit="1.5" stroke-linecap="round" stroke-linejoin="round"/>
<path d="M362.002 973.731C359.582 976.2 357.056 978.928 355.142 981.807C354.404 982.911 353.503 983.981 353.271 985.331C352.625 989.038 356.935 991.714 359.756 993.122C361.019 993.754 362.055 994.66 363.545 994.308C365.049 993.956 365.782 992.114 366.39 990.875C368.511 986.541 367.58 982.009 365.777 977.757C365.18 976.354 364.389 972.796 362.272 972.844C360.161 972.897 358.603 976.494 357.813 978.003C356.13 981.204 353.469 985.259 355.682 988.797C356.284 989.762 357.239 990.48 358.068 991.242C359.066 992.163 360.522 993.378 361.959 993.397C363.492 993.416 364.476 992.057 365.045 990.789C366.423 987.717 365.912 984.232 365.218 981.079C364.972 979.955 364.794 978.822 364.374 977.742C364.235 977.376 364.071 977.024 363.916 976.662C363.83 976.469 363.733 975.91 363.637 976.093C362.942 977.482 363.246 979.145 363.376 980.611C363.536 982.4 363.54 984.323 363.41 986.112C363.333 987.173 363.396 988.272 363.208 989.328C363.145 989.689 363.073 990.056 362.967 990.408C362.904 990.6 362.885 991.121 362.754 990.967C362.268 990.408 362.142 989.048 362.046 988.363C361.718 986.093 361.708 983.774 361.723 981.484C361.732 980.519 361.713 979.555 361.679 978.591C361.67 978.239 361.655 977.887 361.67 977.535C361.675 977.337 361.853 976.821 361.694 976.942C359.356 978.745 359.086 983.73 359.312 986.377C359.399 987.423 359.49 988.518 359.76 989.54C359.842 989.844 359.939 990.152 360.04 990.456C360.093 990.605 360.31 991.03 360.204 990.909C357.037 987.414 355.952 982.506 359.206 978.581" stroke="#F09977" stroke-width="2.39549" stroke-miterlimit="1.5" stroke-linecap="round" stroke-linejoin="round"/>
<path d="M294.529 1002.49C293.16 1003.24 291.656 1003.99 290.494 1005.05C286.695 1008.53 277.134 1019.42 284.916 1023.65C286.873 1024.71 289.424 1022.92 290.73 1021.62C294.582 1017.79 295.282 1012.44 296.4 1007.37C296.54 1006.76 297.253 1001.11 296.8 1000.76C295.932 1000.1 291.945 1003.54 291.319 1004.19C288.739 1006.89 283.605 1012.44 283.031 1016.03C282.698 1018.13 282.804 1021.19 284.945 1022.31C286.435 1023.09 288.083 1022.01 289.197 1021.08C292.046 1018.68 293.478 1014.84 294.375 1011.32C294.703 1010.03 295.089 1008.74 295.195 1007.41C295.233 1006.91 295.272 1006.41 295.344 1005.91C295.373 1005.71 295.552 1005.19 295.417 1005.33C292.712 1008.23 291.304 1012.64 289.602 1016.13C289.057 1017.26 288.315 1018.26 287.751 1019.38C287.495 1019.87 287.259 1020.38 286.994 1020.87C286.931 1020.99 286.791 1021.33 286.787 1021.2C286.594 1017.32 288.985 1012.82 291.145 1009.78C292.051 1008.51 294.597 1005.85 294.77 1004.14C294.804 1003.84 294.259 1004.45 294.018 1004.63C293.575 1004.96 293.165 1005.32 292.77 1005.7C291.738 1006.69 290.639 1007.68 289.699 1008.76C286.941 1011.91 283.417 1016.45 284.198 1020.96" stroke="#F09977" stroke-width="2.39549" stroke-miterlimit="1.5" stroke-linecap="round" stroke-linejoin="round"/>
<path d="M257.878 997.022C256.567 997.596 255.265 998.242 254.031 998.965C250.651 1000.95 242.47 1006.67 243.622 1011.54C244.147 1013.75 246.303 1015.55 248 1016.88C249.34 1017.94 251.312 1019.3 253.067 1019.47C260.761 1020.25 259.508 1006.53 259.277 1001.99C259.199 1000.46 259.686 997.635 258.876 996.232C258.64 995.822 256.774 996.666 256.499 996.801C254.417 997.828 252.088 1000.29 250.584 1002.04C247.503 1005.64 243.159 1008.75 246.423 1013.77C246.978 1014.63 247.71 1015.39 248.487 1016.04C249.354 1016.78 250.396 1017.68 251.466 1018.11C254.152 1019.2 256.726 1016.94 257.546 1014.54C259.088 1010 258.264 1004.34 257.734 999.631C257.719 999.496 257.599 999.872 257.531 999.997C257.324 1000.39 257.15 1000.81 257.015 1001.24C256.663 1002.39 256.553 1003.64 256.557 1004.84C256.567 1007.7 257.927 1018.14 252.074 1016.74C250.801 1016.44 250.661 1014.86 250.463 1013.78C249.856 1010.44 251.052 1007.35 252.662 1004.49C253.202 1003.54 253.732 1002.58 254.282 1001.62C254.484 1001.28 254.682 1000.93 254.88 1000.59C254.99 1000.39 255.395 999.877 255.217 1000.01C252.334 1002.17 249.219 1005.68 248.231 1009.26C247.874 1010.56 247.788 1011.88 247.894 1013.22C247.937 1013.82 248.053 1014.4 248.27 1014.96C248.289 1015.02 248.352 1015.18 248.337 1015.12C247.378 1011.11 249.027 1008.87 251.553 1006.06C251.591 1006.02 254.045 1003.14 254.32 1003.34C254.47 1003.45 253.771 1005.41 253.679 1005.7C253.023 1007.87 252.739 1010.06 252.474 1012.3C252.45 1012.5 252.156 1015.18 252.209 1015.18C255.092 1015.27 255.858 1008.01 255.873 1005.89" stroke="#F09977" stroke-width="2.39549" stroke-miterlimit="1.5" stroke-linecap="round" stroke-linejoin="round"/>
<path d="M202.498 926.425C201.027 926.579 199.764 927.033 198.385 927.539C197.358 927.915 196.326 928.233 195.343 928.71C194.465 929.135 193.612 929.597 192.715 929.983C189.909 931.184 185.257 932.418 185.262 936.159C185.262 936.95 185.329 937.789 185.845 938.43C187.836 940.908 193.564 942.991 196.36 940.696C198.158 939.216 199.19 936.405 200.077 934.288C200.882 932.36 201.789 930.456 202.435 928.46C202.555 928.074 202.642 927.683 202.753 927.303C202.806 927.119 203.1 926.806 202.922 926.753C201.48 926.314 199.6 927.365 198.433 927.997C195.786 929.434 193.067 930.745 190.377 932.085C190.044 932.249 186.78 934.043 186.756 934.375C186.694 935.258 189.316 935.065 189.692 935.016C192.315 934.689 194.851 933.136 196.789 931.42C197.397 930.885 197.98 930.33 198.583 929.795C198.853 929.559 199.123 929.323 199.398 929.091C199.475 929.029 199.682 928.807 199.634 928.898C198.144 931.714 194.34 933.512 191.553 934.621C190.445 935.065 189.34 935.479 188.285 936.048C188.28 936.048 187.291 936.526 187.311 936.569C187.518 937.032 188.974 937.037 189.355 937.027C191.848 936.993 193.901 935.653 195.902 934.317C196.577 933.874 197.267 933.45 197.922 932.987C198.12 932.847 198.318 932.697 198.506 932.538C198.612 932.452 198.814 932.114 198.814 932.254C198.886 934.843 193.882 937.803 191.852 938.502C190.898 938.83 189.933 938.854 188.935 938.951C188.868 938.955 188.762 938.907 188.723 938.97C188.675 939.057 190.208 939.462 191.582 939.394C193.593 939.288 195.656 938.579 196.924 936.945" stroke="#F09977" stroke-width="2.39549" stroke-miterlimit="1.5" stroke-linecap="round" stroke-linejoin="round"/>
<path d="M189.619 873.705C184.971 872.032 179.938 870.899 174.967 871.362C172.542 871.589 170.15 871.926 168.776 874.192C167.345 876.554 167.619 879.245 167.634 881.882C167.648 884.268 167.923 886.882 169.509 888.796C171.067 890.676 173.371 889.61 175.222 888.747C179.595 886.698 184.093 883.169 187.034 879.283C187.29 878.951 187.512 878.584 187.753 878.242C188.076 877.794 190.771 874.669 190.332 874.1C189.315 872.794 187.083 872.582 185.559 872.466C181.876 872.186 177.893 871.815 174.22 872.268C172.561 872.466 170.743 872.702 169.803 874.264C167.904 877.413 169.611 881.332 169.856 884.611C169.88 884.89 169.644 887.571 170.015 887.778C171.139 888.419 173.212 887.634 174.263 887.161C177.532 885.681 180.453 882.721 183.12 880.368C184.253 879.365 185.294 878.266 186.475 877.316C186.875 876.993 187.285 876.67 187.642 876.299C187.83 876.111 188.437 875.687 188.172 875.696C186.673 875.769 185.12 876.738 183.925 877.562C181.297 879.375 178.867 881.496 176.389 883.507C175.377 884.326 174.379 885.136 173.246 885.782C173.082 885.879 172.498 886.356 172.31 886.322C172.002 886.264 172.595 885.753 172.768 885.488C173.467 884.403 174.47 883.584 175.386 882.697C177.532 880.624 179.899 878.632 182.367 876.94C183.418 876.222 184.537 875.609 185.598 874.901C185.631 874.877 186.446 874.375 186.437 874.342C186.34 874.076 185.911 874.554 185.646 874.669C184.956 874.963 184.272 875.277 183.592 875.595C180.434 877.085 176.751 878.647 174.007 880.845C173.308 881.405 172.643 882.017 171.987 882.624C171.741 882.846 171.496 883.073 171.264 883.309C171.12 883.463 170.768 883.994 170.859 883.801C172.349 880.59 175.623 878.001 178.443 875.995C179.364 875.339 180.367 874.771 181.389 874.288C181.717 874.134 182.059 873.99 182.396 873.859C182.589 873.782 183.187 873.638 182.98 873.638C179.875 873.633 176.326 875.123 173.79 876.853C172.947 877.432 172.219 878.136 171.476 878.835C171.216 879.076 170.956 879.312 170.71 879.563C170.604 879.674 170.319 880.035 170.42 879.92C171.809 878.242 173.231 876.439 175.102 875.258C175.762 874.833 176.466 874.457 177.165 874.1C177.469 873.946 178.173 874.018 178.096 873.686C178.024 873.358 175.762 873.628 175.497 873.671C173.125 874.067 170.594 875.658 169.673 877.972" stroke="#F09977" stroke-width="2.39549" stroke-miterlimit="1.5" stroke-linecap="round" stroke-linejoin="round"/>
<path d="M174.949 859.328C172.678 857.655 168.522 855.963 165.625 856.035C163.089 856.098 161.373 858.696 161.797 861.136C162.115 862.929 163.942 863.99 165.577 864.294C168.518 864.839 171.598 863.354 174.433 862.746C175.614 862.491 176.8 862.274 177.986 862.042C178.078 862.023 178.888 861.96 178.931 861.801C179.254 860.721 177.625 859.637 176.907 859.241C174.274 857.795 171.179 856.903 168.209 856.536C168.05 856.517 164.685 856.132 164.651 856.826C164.608 857.602 166.517 858.455 166.999 858.667C168.817 859.468 170.827 859.829 172.765 860.205C173.315 860.312 174.592 860.827 175.147 860.644C175.499 860.533 174.886 860.572 174.033 860.437C173.141 860.297 172.249 860.225 171.367 860.027C169.472 859.608 167.573 859.28 165.654 859C165.119 858.918 164.14 858.61 163.61 858.802C163.306 858.909 164.825 860.509 164.935 860.586C166.391 861.666 168.498 862.086 170.287 862.187C170.803 862.216 171.314 862.206 171.83 862.134C172.124 862.095 173.001 861.917 172.712 861.994C170.109 862.655 165.866 864.087 163.59 861.931" stroke="#F09977" stroke-width="2.39549" stroke-miterlimit="1.5" stroke-linecap="round" stroke-linejoin="round"/>
<path d="M196.456 827.918C193.655 823.723 189.364 820.551 185.126 817.909C182.715 816.405 180.069 815.161 178.212 818.188C175.98 821.838 175.349 828.655 179.914 830.815C182.672 832.122 186.153 831.794 189.113 831.49C191.21 831.278 193.38 831.042 195.39 830.372C195.747 830.251 197.107 829.972 197.314 829.552C198.182 827.845 194.99 825.449 193.92 824.504C191.288 822.19 188.173 819.91 185.049 818.304C184.277 817.909 182.773 816.814 181.809 817.012C180.618 817.253 179.717 818.926 179.201 819.91C177.86 822.479 177.272 826.64 179.919 828.607C181.293 829.629 183.251 829.837 184.895 830.039C186.818 830.285 188.747 830.396 190.675 830.208C191.365 830.135 192.044 830.029 192.715 829.841C193.013 829.759 193.809 829.788 193.602 829.557C193.014 828.925 191.447 828.882 190.67 828.728C188.091 828.207 185.483 828.303 182.952 827.522C182.416 827.354 180.146 827.002 179.876 826.24C179.789 825.994 180.343 825.989 180.599 825.922C181.264 825.734 181.983 825.734 182.672 825.772C185.483 825.927 188.351 826.761 191.109 827.325C191.823 827.474 192.536 827.575 193.259 827.677C193.462 827.701 193.669 827.735 193.872 827.768C193.987 827.792 194.306 827.942 194.224 827.85C192.04 825.396 187.45 824.244 184.384 823.506C183.26 823.231 182.108 823.092 180.985 822.831C180.57 822.735 180.165 822.624 179.75 822.528C179.591 822.489 179.114 822.465 179.268 822.412C180.56 821.954 182.146 822.161 183.477 822.291C186.505 822.6 189.171 823.714 192.088 824.437C192.218 824.471 191.852 824.292 191.736 824.215C191.278 823.931 191.316 823.959 190.902 823.689C190.14 823.188 189.364 822.701 188.559 822.262C187.614 821.751 186.592 821.346 185.7 820.749C184.133 819.693 182.648 818.188 180.927 819.572C179.567 820.667 178.651 822.32 178.902 824.119C179.186 826.153 181.727 826.722 183.226 825.551C184.249 824.755 184.249 823.015 184.417 821.872C184.475 821.481 184.649 820.937 184.509 820.541C184.036 819.206 181.867 820.006 181.221 820.696C180.825 821.12 180.498 821.616 180.242 822.137C179.832 822.961 179.765 823.762 179.678 824.654" stroke="#F09977" stroke-width="2.39549" stroke-miterlimit="1.5" stroke-linecap="round" stroke-linejoin="round"/>
<path d="M203.524 814.896C201.311 814.771 199.566 813.478 197.946 812.08C194.711 809.274 191.061 803.932 193.091 799.54C193.539 798.576 194.282 797.877 195.034 797.149C195.849 796.349 196.861 795.071 198.023 794.767C199.682 794.333 201.031 796.522 201.812 797.612C204.353 801.16 205.689 806.121 205.086 810.441C204.917 811.646 204.628 812.808 204.373 813.994C204.281 814.404 204.213 815.041 203.755 815.224C201.793 816 199.797 813.507 198.852 812.162C197.454 810.181 195.395 807.924 194.783 805.528C194.344 803.788 194.658 801.908 195.241 800.254C195.622 799.159 196.225 797.515 197.493 797.115C198.698 796.734 199.884 798.451 200.419 799.265C202.16 801.932 202.945 805.331 203.003 808.488C203.023 809.621 203.027 810.644 202.753 811.743C202.738 811.805 202.608 812.596 202.492 812.625C202.266 812.683 202.131 812.321 201.986 812.138C201.523 811.569 201.253 810.861 201.065 810.161C200.337 807.452 200.009 804.627 199.397 801.883C199.219 801.078 198.963 800.312 198.606 799.564C198.481 799.299 198.452 798.605 198.216 798.779C197.493 799.319 197.512 800.615 197.579 801.416C197.772 803.59 198.201 805.798 198.929 807.857C199.185 808.59 199.407 809.332 199.73 810.041C199.855 810.321 199.99 810.595 200.14 810.861C200.188 810.952 200.385 811.15 200.284 811.131C199.575 810.986 198.737 809.631 198.356 809.067C197.093 807.192 196.61 805.128 196.34 802.915C196.244 802.124 196.09 801.218 196.336 800.432" stroke="#F09977" stroke-width="2.39549" stroke-miterlimit="1.5" stroke-linecap="round" stroke-linejoin="round"/>
<path d="M209.801 785.144C209.714 788.48 210.857 791.778 211.739 794.945C212.4 797.327 212.723 800.167 214.545 802.028C215.697 803.204 217.134 803.387 218.706 803.575C221.661 803.927 224.448 803.653 227.22 802.51C228.56 801.96 229.645 801.488 230.47 800.229C232.008 797.886 230.33 795.707 228.628 794.053C227.543 792.998 226.502 791.884 225.243 791.021C222.491 789.131 219.202 787.926 216.093 786.778C214.449 786.171 212.829 785.477 211.204 784.821C211.03 784.753 209.878 784.228 209.849 784.276C208.827 786.016 210.669 789.17 211.233 790.833C212.38 794.232 213.615 799.468 217.187 801.155C218.233 801.652 219.444 801.618 220.572 801.652C221.656 801.69 222.659 801.719 223.734 801.565C225.084 801.367 227.765 801.078 228.705 799.849C229.525 798.778 228.16 796.951 227.582 796.098C225.345 792.776 221.517 790.688 218.069 788.851C216.864 788.21 215.683 787.453 214.434 786.899C214.005 786.711 213.566 786.528 213.128 786.364C212.949 786.296 212.53 786.021 212.573 786.209C212.858 787.395 214.29 788.451 215.148 789.213C217.481 791.276 220.085 793.08 222.635 794.868C223.667 795.582 224.675 796.329 225.711 797.038C226.121 797.317 226.55 797.573 226.974 797.828C227.129 797.925 227.601 798.214 227.447 798.113C224.125 796.049 220.485 794.555 217.452 792.038C216.348 791.122 215.297 790.153 214.179 789.252C213.788 788.933 213.417 788.601 213.026 788.278C212.901 788.176 212.593 787.829 212.626 787.993C212.896 789.333 213.832 790.529 214.642 791.585C216.517 794.034 218.802 795.972 221.464 797.525C222.669 798.229 223.903 798.908 225.161 799.501C225.533 799.675 225.909 799.829 226.29 799.969C226.473 800.032 227.018 800.229 226.839 800.152C223.754 798.822 220.22 797.674 217.583 795.514C216.56 794.68 215.731 793.639 214.81 792.694C214.564 792.443 214.319 792.192 214.068 791.942C213.928 791.797 213.73 791.325 213.639 791.508C213.383 792.014 214.179 793.407 214.42 793.793C215.866 796.088 218.204 797.718 220.437 799.154C221.092 799.579 221.777 799.921 222.495 800.225C222.761 800.336 223.026 800.442 223.3 800.538C223.411 800.572 223.754 800.678 223.638 800.644C221.444 800.041 218.744 799.284 216.956 797.8C216.343 797.293 215.832 796.705 215.317 796.112C215.109 795.876 214.907 795.635 214.704 795.403C214.622 795.312 214.444 795.008 214.468 795.129C214.671 796.31 215.553 797.226 216.406 797.988C218.209 799.593 220.094 800.953 222.471 801.555" stroke="#F09977" stroke-width="2.39549" stroke-miterlimit="1.5" stroke-linecap="round" stroke-linejoin="round"/>
<mask id="mask3_1538_387" style="mask-type:luminance" maskUnits="userSpaceOnUse" x="93" y="618" width="380" height="386">
<path d="M93 618H472.484V1003.34H93V618Z" fill="white"/>
</mask>
<g mask="url(#mask3_1538_387)">
<path d="M435.109 814.026C432.812 827.625 427.687 842.521 419.088 853.542V853.547C410.641 864.365 398.849 871.458 383.104 869.938C375.146 869.167 354.073 861.406 346.995 867.635C342.375 871.698 348.38 881.474 350.172 885.552C362.453 913.51 347.635 944.245 320.963 956.453C318.432 957.609 315.823 958.672 313.141 959.635C300.172 964.318 285.479 966.76 270.141 966.76C255.281 966.76 240.302 964.474 225.609 959.969C202.739 952.948 182.703 941.177 167.667 925.911C159.281 917.396 152.792 908.141 148.656 898.922C146.599 894.339 145.12 889.771 144.281 885.302C143.713 882.297 143.443 879.281 143.448 876.297V876.292C143.474 866.276 146.729 856.651 153.219 849.323C156.547 845.557 160.724 842.401 165.755 840.104C168.542 838.828 171.505 837.87 174.016 836.109C176.521 834.344 178.568 831.526 178.37 828.469C178.078 823.901 173.333 821.156 169.182 819.24C164.5 817.083 160.172 814.969 156.219 812.693H156.213C145.349 806.438 137.375 798.938 133.088 785.729C132.578 784.151 132.12 782.49 131.713 780.734C129.427 770.859 129.182 760.651 130.427 750.609C131.318 743.458 132.958 736.391 135.161 729.589C140.797 713.651 149.786 699.792 161.167 689.5C172.917 678.88 187.531 669.849 203.432 663.391C213.286 659.391 223.349 656.552 232.828 655.052C237.989 654.229 242.969 653.813 247.656 653.813C258.729 653.813 273.042 656.406 280.213 665.76C289.208 677.495 294.078 688.422 295.411 702.906C295.771 706.807 296.302 711.078 299.161 713.755C304.255 718.526 308.734 711.193 311.469 707.734C314.974 703.292 317.833 700.036 322.771 696.609C339.526 685.021 363.187 674.068 383.536 683.297C383.588 683.323 383.641 683.349 383.693 683.37C410.937 695.828 424.745 729.115 431.651 756.193C436.927 776.901 438.094 796.359 435.109 814.026ZM466.318 747.344C439.75 643.109 360.109 619.531 316.213 668.099C301.578 594.021 195.088 610.557 137.177 662.932C83.9374 711.083 76.927 806.104 129.818 830.708C79.5103 870.531 118.229 964.474 215.12 994.203C317.432 1025.59 415.583 963.563 380.792 892.682C427.833 917.911 492.891 851.573 466.318 747.344Z" fill="#75A81E"/>
<path d="M461 818.417C456.818 842.021 445.005 869.286 423.49 881.901C417.344 885.505 410.505 887.521 403.354 887.26C397.703 887.057 392.896 884.333 387.463 883.719C382.516 883.167 376.588 882.036 374.505 884.724C370.979 889.26 373.594 899.672 375.229 905.677C379.328 920.719 376.792 939.677 367.609 952.656C362.031 960.542 355.01 967.318 347.062 972.792C340.312 977.438 333.01 981.25 325.385 984.25C306.172 991.818 285.281 994.578 264.713 993.604C255.135 993.151 245.599 991.859 236.219 989.885C208.974 984.13 182.354 972.651 160.536 955.172C149.896 946.651 140.391 936.604 133.062 925.073C124.677 911.901 118.641 896.479 117.917 880.755C117.557 873.036 118.552 865.214 121.448 858.016C123.745 852.302 129.234 844.776 133.536 840.396C136.687 837.188 148.443 832.057 147.255 828.917C146.208 826.141 136.453 822.87 132.026 820.651C86.6457 797.865 102.542 731.906 122.557 697.12C130.922 682.578 142.927 670.38 156.349 660.453C186.682 638.026 236.49 617.865 274.161 630.849C285.781 634.854 294.448 643.281 299.906 654.177C302.547 659.453 304.411 665.094 305.958 670.776C306.849 674.073 306.526 677.005 307.76 680.302C310.854 688.594 320.854 676.813 324.026 673.297C333.286 663.031 346.26 656.677 359.896 654.87C366.812 653.948 373.885 654.177 380.734 655.563C411.958 661.87 432.963 691.719 445.865 718.849C459.74 748.016 466.917 784.953 461 818.417ZM466.318 747.344C439.75 643.109 360.109 619.531 316.213 668.099C301.578 594.021 195.088 610.557 137.177 662.932C83.9374 711.083 76.927 806.104 129.818 830.708C79.5103 870.531 118.229 964.474 215.12 994.203C317.432 1025.59 415.583 963.568 380.792 892.688C427.833 917.911 492.891 851.573 466.318 747.344Z" fill="#5B7A0D"/>
</g>
</g>
<defs>
<clipPath id="clip0_1538_387">
<rect width="1440" height="1024" fill="white"/>
</clipPath>
</defs>
</svg>
