<svg width="461" height="378" viewBox="0 0 461 378" fill="none" xmlns="http://www.w3.org/2000/svg">
<path d="M173.833 212.658C164.061 212.796 155.635 203.826 155.765 193.348V166.119C155.765 164.814 156.77 163.738 157.988 163.738H189.635C190.855 163.738 191.86 164.814 191.86 166.119V193.348C192.052 203.689 183.499 212.864 173.833 212.658ZM157.988 165.568C157.71 165.568 157.475 165.82 157.475 166.119V193.348C157.475 201.241 162.458 208.173 169.577 210.21C178.003 212.818 187.476 206.985 189.572 197.854C190.64 195.475 189.957 169.23 190.127 166.095C190.127 165.798 189.892 165.546 189.614 165.546H157.988V165.568Z" fill="#A60F1B"/>
<path d="M152.257 222.292C151.872 222.314 151.616 221.995 151.402 221.698L147.318 217.326C147.061 217.12 146.783 216.869 146.761 216.48C146.741 216.183 146.848 215.908 147.041 215.724L154.267 208.906C154.61 208.564 155.208 208.609 155.507 209.021C156.598 210.461 157.817 211.79 159.165 212.933C159.548 213.254 159.592 213.894 159.27 214.26L152.899 221.995C152.727 222.177 152.492 222.292 152.257 222.292ZM148.901 216.411L152.237 219.98L157.39 213.733C156.448 212.864 155.55 211.903 154.737 210.897L148.901 216.411Z" fill="#A60F1B"/>
<path d="M173.812 220.256C151.637 220.416 140.218 190.945 156.02 174.309C156.535 173.737 157.518 174.172 157.497 174.951V193.348C157.497 201.241 162.479 208.173 169.599 210.21C178.025 212.818 187.497 206.985 189.592 197.854C190.64 194.881 189.977 178.336 190.149 174.951C190.127 174.149 191.11 173.715 191.625 174.309C207.405 190.945 195.986 220.416 173.812 220.256ZM155.765 177.33C143.106 193.324 154.182 218.584 173.812 218.426C193.442 218.608 204.519 193.348 191.86 177.33C191.688 181.174 192.373 194.833 191.24 198.335C188.93 208.425 178.453 214.878 169.15 211.994C161.281 209.73 155.765 202.065 155.785 193.348L155.765 177.33Z" fill="#A60F1B"/>
<path fill-rule="evenodd" clip-rule="evenodd" d="M122.791 209.318H127.988C130.619 209.318 132.756 207.03 132.756 204.216V197.741H118.002V204.216C118.002 207.007 120.162 209.318 122.791 209.318Z" fill="#FBD6D0"/>
<path d="M127.988 210.233H122.791C119.69 210.233 117.147 207.534 117.147 204.192V197.717C117.147 197.214 117.532 196.802 118.002 196.802H132.757C133.227 196.802 133.612 197.214 133.612 197.717V204.192C133.612 207.534 131.089 210.233 127.988 210.233ZM118.878 198.656V204.192C118.878 206.504 120.632 208.379 122.791 208.379H127.988C130.147 208.379 131.901 206.504 131.901 204.192V198.656H118.878Z" fill="#A60F1B"/>
<path d="M132.392 198.656H118.365C116.227 198.656 114.474 196.802 114.474 194.491V190.991C94.7794 179 102.67 146.714 125.379 146.553C148.109 146.692 155.978 178.978 136.263 190.991V194.491C136.285 196.802 134.532 198.656 132.392 198.656ZM125.379 148.407C104.168 148.568 97.1098 178.863 115.757 189.664C116.035 189.824 116.205 190.143 116.205 190.464V194.491C116.205 195.772 117.168 196.802 118.365 196.802H132.392C133.59 196.802 134.552 195.772 134.552 194.491V190.464C134.552 190.121 134.724 189.824 135.002 189.664C153.67 178.887 146.591 148.568 125.379 148.407Z" fill="#A60F1B"/>
<mask id="mask0_951_405" style="mask-type:luminance" maskUnits="userSpaceOnUse" x="124" y="132" width="3" height="8">
<path d="M124.322 132.116H126.503V139.533H124.322V132.116Z" fill="white"/>
</mask>
<g mask="url(#mask0_951_405)">
<path d="M125.379 139.415C124.908 139.415 124.523 139.003 124.523 138.5V133.031C124.523 132.528 124.908 132.116 125.379 132.116C125.849 132.116 126.234 132.528 126.234 133.031V138.5C126.234 139.003 125.849 139.415 125.379 139.415Z" fill="#A60F1B"/>
</g>
<path d="M104.36 148.728C104.145 148.728 103.91 148.637 103.76 148.453L100.147 144.61C99.355 143.786 100.575 142.459 101.365 143.305L104.98 147.171C105.513 147.698 105.086 148.75 104.36 148.728Z" fill="#A60F1B"/>
<path d="M95.6566 171.243H90.5459C89.4131 171.243 89.4131 169.413 90.5459 169.413H95.6566C96.769 169.389 96.769 171.221 95.6566 171.243Z" fill="#A60F1B"/>
<path d="M100.745 197.602C100.017 197.626 99.5898 196.572 100.147 196.024L103.76 192.157C104.53 191.31 105.77 192.615 104.98 193.461L101.344 197.329C101.195 197.511 100.959 197.602 100.745 197.602Z" fill="#A60F1B"/>
<path d="M146.421 148.728C145.693 148.75 145.266 147.698 145.821 147.149L149.434 143.283C150.204 142.435 151.444 143.741 150.654 144.586L147.041 148.453C146.848 148.637 146.634 148.728 146.421 148.728Z" fill="#A60F1B"/>
<path fill-rule="evenodd" clip-rule="evenodd" d="M147.917 216.663L152.022 221.034C152.707 221.765 152.707 222.932 152.022 223.665L132.627 244.418C131.944 245.149 130.854 245.149 130.169 244.418L126.084 240.047C125.421 239.316 125.421 238.149 126.084 237.417L145.479 216.663C146.142 215.954 147.254 215.954 147.917 216.663Z" fill="#FBD6D0"/>
<mask id="mask1_951_405" style="mask-type:luminance" maskUnits="userSpaceOnUse" x="124" y="215" width="30" height="31">
<path d="M124.322 215.133H153.542V245.866H124.322V215.133Z" fill="white"/>
</mask>
<g mask="url(#mask1_951_405)">
<path d="M131.387 245.882C130.704 245.882 130.041 245.585 129.549 245.082L125.463 240.711C124.46 239.683 124.46 237.829 125.463 236.799L144.859 216.045C145.864 214.969 147.511 214.969 148.536 216.045L152.622 220.416C153.627 221.444 153.627 223.322 152.622 224.352L133.227 245.104C132.734 245.609 132.072 245.882 131.387 245.882ZM146.698 217.051C146.484 217.051 146.249 217.144 146.078 217.326L126.683 238.08C126.341 238.447 126.341 239.041 126.683 239.407L130.767 243.777C131.089 244.121 131.666 244.121 132.007 243.777L151.402 223.025C151.744 222.658 151.744 222.062 151.402 221.698L147.318 217.326C147.146 217.144 146.933 217.051 146.698 217.051Z" fill="#A60F1B"/>
</g>
<path d="M125.379 198.656C124.908 198.656 124.523 198.244 124.523 197.741V181.586C124.523 181.083 124.908 180.671 125.379 180.671C125.849 180.671 126.234 181.083 126.234 181.586V197.741C126.234 198.244 125.849 198.656 125.379 198.656Z" fill="#A60F1B"/>
<path d="M125.379 182.501C125.166 182.501 124.93 182.41 124.781 182.226L118.152 175.133C117.36 174.309 118.58 172.982 119.37 173.83L125.999 180.923C126.534 181.495 126.128 182.547 125.379 182.501Z" fill="#A60F1B"/>
<path d="M125.379 182.501C124.651 182.523 124.224 181.471 124.781 180.923L131.409 173.83C132.179 172.982 133.419 174.287 132.627 175.133L125.999 182.226C125.828 182.41 125.614 182.501 125.379 182.501Z" fill="#A60F1B"/>
<path fill-rule="evenodd" clip-rule="evenodd" d="M162.244 187.031H169.535C169.707 187.031 169.857 187.192 169.857 187.374V196.618C169.857 196.802 169.707 196.963 169.535 196.963H162.244C162.073 196.963 161.923 196.802 161.923 196.618V187.374C161.944 187.192 162.073 187.031 162.244 187.031Z" fill="#FBD6D0"/>
<path d="M169.535 197.878H162.243C161.603 197.878 161.068 197.305 161.068 196.618V187.374C161.068 186.688 161.603 186.116 162.243 186.116H169.535C170.177 186.116 170.712 186.688 170.712 187.374V196.618C170.712 197.329 170.177 197.878 169.535 197.878ZM162.799 196.047H169.001V187.97H162.799V196.047Z" fill="#A60F1B"/>
<path fill-rule="evenodd" clip-rule="evenodd" d="M170.177 196.963H177.468C177.64 196.963 177.788 196.802 177.788 196.618V182.41C177.788 182.226 177.64 182.066 177.468 182.066H170.177C170.005 182.066 169.856 182.226 169.856 182.41V196.618C169.856 196.802 170.005 196.963 170.177 196.963Z" fill="#FBD6D0"/>
<path d="M177.468 197.878H170.177C169.535 197.878 169.001 197.305 169.001 196.618V182.41C169.001 181.723 169.535 181.151 170.177 181.151H177.468C178.11 181.151 178.645 181.723 178.645 182.41V196.618C178.645 197.329 178.11 197.878 177.468 197.878ZM170.712 196.047H176.913V183.004H170.712V196.047Z" fill="#A60F1B"/>
<path fill-rule="evenodd" clip-rule="evenodd" d="M178.088 174.63H185.38C185.552 174.63 185.702 174.79 185.702 174.973V196.642C185.702 196.824 185.552 196.984 185.38 196.984H178.088C177.918 196.984 177.768 196.824 177.768 196.642V174.973C177.768 174.767 177.918 174.63 178.088 174.63Z" fill="#FBD6D0"/>
<path d="M185.379 197.878H178.088C177.448 197.878 176.913 197.305 176.913 196.618V174.951C176.913 174.264 177.448 173.691 178.088 173.691H185.379C186.022 173.691 186.556 174.264 186.556 174.951V196.618C186.556 197.329 186.022 197.878 185.379 197.878ZM178.645 196.047H184.846V175.545H178.645V196.047Z" fill="#A60F1B"/>
<path d="M170.947 172.273H161.943C160.833 172.273 160.811 170.443 161.943 170.443H170.947C172.057 170.443 172.08 172.273 170.947 172.273Z" fill="#A60F1B"/>
<path d="M166.434 179.275H161.923C160.791 179.275 160.791 177.445 161.923 177.445H166.434C167.569 177.421 167.569 179.275 166.434 179.275Z" fill="#A60F1B"/>
<path d="M125.379 198.656C124.908 198.656 124.523 198.244 124.523 197.741V181.586C124.523 181.083 124.908 180.671 125.379 180.671C125.849 180.671 126.234 181.083 126.234 181.586V197.741C126.234 198.244 125.849 198.656 125.379 198.656Z" fill="#A60F1B"/>
<path d="M125.379 182.501C125.166 182.501 124.93 182.41 124.781 182.226L118.152 175.133C117.36 174.309 118.58 172.982 119.37 173.83L125.999 180.923C126.534 181.495 126.128 182.547 125.379 182.501Z" fill="#A60F1B"/>
<path d="M125.379 182.501C124.651 182.523 124.224 181.471 124.781 180.923L131.409 173.83C132.179 172.982 133.419 174.287 132.627 175.133L125.999 182.226C125.828 182.41 125.614 182.501 125.379 182.501Z" fill="#A60F1B"/>
<path fill-rule="evenodd" clip-rule="evenodd" d="M77.6211 173.892C77.9124 173.638 77.8937 176.697 77.7795 179.869C77.65 181.457 77.7914 183.074 77.8272 184.337C77.8613 185.598 77.88 186.479 77.8834 186.599C77.65 188.205 78.4064 192.557 78.6551 195.032C78.8 196.272 79.0402 197.004 78.8902 196.724C78.7335 196.304 78.6057 195.876 78.5086 195.439C78.3724 194.693 78.1764 193.594 77.9022 192.088C77.5683 190.227 77.0913 188.3 77.1305 186.67C77.1305 186.448 77.0487 185.591 76.9465 184.412C76.8783 183.236 76.6347 181.736 76.7523 180.235C76.8817 177.235 76.9925 174.231 77.6211 173.892Z" fill="#546E12"/>
<path fill-rule="evenodd" clip-rule="evenodd" d="M116.474 243.613C116.259 242.559 123.416 246.112 118.5 244.521C118.207 244.422 116.546 243.955 116.474 243.613Z" fill="#546E12"/>
<path fill-rule="evenodd" clip-rule="evenodd" d="M74.5646 204.086C75.1268 206.31 75.9701 208.487 76.7674 210.705C77.1336 211.821 77.6702 212.884 78.2035 213.948L79.7775 217.162L80.5578 218.79C80.8354 219.322 81.1608 219.827 81.4572 220.352C82.0586 221.395 82.6463 222.454 83.2204 223.531C84.2766 225.752 85.6565 227.755 86.7655 230.034C88.2613 232.96 85.9649 232.07 86.6787 233.692C87.9308 236.022 89.5355 238.499 91.59 240.689C92.6462 241.753 93.7638 242.802 94.9154 243.835C95.498 244.34 96.0585 244.887 96.6785 245.35L98.5814 246.69L102.409 249.297C103.723 250.073 105.058 250.771 106.336 251.506C108.847 253.057 111.409 254.173 113.622 255.489C114.341 255.874 115.113 256.882 116.058 257.713C116.985 258.583 117.997 259.52 118.992 260.094C122.028 262.01 125.44 262.801 128.847 263.785C130.586 264.137 132.356 264.372 134.145 264.682L136.859 265.132L139.642 265.404L142.564 265.701C143.588 265.829 144.615 265.874 145.644 265.838C147.75 265.798 149.952 265.732 152.225 265.624L159.196 264.574C161.565 264.126 163.937 263.368 166.375 262.742C176.025 259.808 185.696 254.607 194.035 248.141C196.028 246.728 196.885 245.955 197.127 245.893C197.369 245.831 196.953 246.433 196.085 247.383C195.177 248.268 193.822 249.499 192.313 250.821C191.55 251.471 190.775 252.188 189.947 252.818L187.42 254.558C175.388 262.766 162.717 266.695 150.366 267.086C147.278 267.196 144.194 267.096 141.116 266.787C138.039 266.481 134.992 265.967 131.975 265.249C128.958 264.531 125.995 263.614 123.087 262.495C120.177 261.377 117.346 260.068 114.591 258.568C114.477 258.502 111.861 257.117 109.295 255.839C107.985 255.254 106.801 254.459 105.885 253.989C104.968 253.52 104.372 253.263 104.377 253.48C104.377 253.746 105.246 254.525 106.602 255.577C107.368 256.185 108.178 256.725 109.026 257.193L111.983 258.909C114.011 260.17 116.302 261.089 118.266 261.949L120.941 263.107C121.719 263.452 122.407 263.617 122.888 263.803C132.557 267.513 144.305 269.015 155.564 267.537C166.845 266.151 177.414 261.897 185.54 256.878C193.161 252.361 199.436 246.591 204.829 240.585C210.304 234.595 214.374 227.821 217.769 221.001L220.03 215.764C220.411 214.902 220.733 214.016 220.997 213.104L221.856 210.412C223.101 206.875 223.771 203.173 224.466 199.525L224.718 198.16L224.858 196.769L225.113 193.993L225.336 191.222C225.43 190.3 225.461 189.374 225.428 188.446C225.338 184.723 225.338 181.034 224.652 177.361C224.52 176.489 224.314 175.499 224.052 174.433L223.614 172.791C223.42 172.233 223.19 171.673 222.96 171.095C222.011 168.811 220.953 166.441 219.757 164.378C219.072 163.326 218.067 161.046 216.677 159.554C215.287 158.063 213.532 157.409 211.274 159.292C210.814 159.664 211.03 160.865 211.653 162.559C212.279 164.25 213.384 166.445 214.219 168.946C214.693 170.2 215.185 171.495 215.67 172.781C216.156 174.068 216.442 175.412 216.812 176.692C217.488 179.231 218.084 181.581 218.084 183.22C218.185 185.959 218.463 188.763 218.192 191.481C218.018 194.208 217.919 196.928 217.386 199.454C216.653 204.591 215.183 209.114 213.854 212.621C212.449 215.675 211.245 218.819 209.538 221.661C208.723 223.105 207.986 224.594 207.115 225.989L204.391 230.083C203.928 230.758 203.504 231.459 203.013 232.106L201.49 234L198.453 237.776L195.122 241.214C194.015 242.362 192.919 243.518 191.681 244.49C182.224 252.84 171.027 258.526 159.623 260.837C148.685 263.036 137.239 261.991 126.477 258.183C125.14 257.675 123.763 257.296 122.455 256.674L118.527 254.813L116.564 253.865L114.673 252.724C113.421 251.962 112.159 251.198 110.888 250.429C106.017 246.998 101.227 243.228 97.0516 238.514C96.1556 237.517 95.2016 236.573 94.3327 235.524L91.8064 232.26C90.0159 230.161 88.6224 227.67 87.0432 225.314C86.2187 224.16 85.6054 222.841 84.9223 221.566C84.2392 220.294 83.5646 219.011 82.8814 217.72C82.3175 216.367 81.7469 215.008 81.1728 213.64C80.6259 212.264 79.9547 210.944 79.5629 209.484C75.718 198.173 73.9667 185.542 75.4266 173.066C76.241 164.905 78.8798 156.002 82.9547 147.736C87.004 139.437 92.4725 131.817 98.3923 125.364C99.3446 124.126 100.663 123.174 101.871 122.07C103.13 121.033 104.307 119.859 105.598 119.027C108.12 117.266 110.189 115.418 111.326 114.1C111.581 113.768 110.937 114.005 109.772 114.563C108.658 115.223 107.074 116.289 105.353 117.412C103.578 118.459 101.926 119.962 100.391 121.087C98.8574 122.212 97.5542 123.134 96.854 123.583L93.2748 127.119C92.0738 128.311 91.0619 129.726 89.9359 131.029L88.2817 133.036C87.7434 133.722 87.2868 134.477 86.7826 135.197C85.8081 136.664 84.7792 138.104 83.8388 139.619C80.1966 145.775 77.3125 152.567 75.1984 159.693C73.2427 166.881 72.2291 174.371 72.0195 181.887C72.0246 189.397 72.873 196.797 74.5646 204.086ZM84.6855 139.701C85.1591 139.628 84.8099 142.28 84.1898 142.377C83.694 142.472 84.0552 139.796 84.6855 139.701ZM82.97 143.11C82.97 143.11 82.7417 146.212 82.2187 146.309C82.154 146.34 81.0688 143.484 82.97 143.11ZM80.8167 147.72C81.2784 147.6 81.2784 149.696 80.8167 149.824C80.355 149.949 80.338 147.853 80.8082 147.72H80.8167ZM79.1711 151.86C79.6396 151.718 79.6481 153.759 79.2443 153.942C79.0212 154.024 78.8644 153.539 78.8235 153.01C78.8082 152.496 78.936 151.942 79.1711 151.86ZM74.258 169.712C75.3159 169.026 73.7367 177.386 74.0553 171.628C74.0689 171.378 74.0536 169.843 74.258 169.712ZM73.1609 184.474C73.4948 184.149 74.2035 185.509 74.0178 185.697C73.6856 186.032 72.9667 184.667 73.1609 184.474ZM81.1216 217.436C85.6327 225.652 90.5457 232.734 95.6036 239.325C96.6751 240.3 97.3566 240.815 98.4758 241.835C101.607 244.284 101.355 244.628 100.012 243.945C98.6206 243.332 96.3975 241.287 95.6036 239.325C89.0909 233.085 83.5577 225.329 81.1216 217.436C82.2375 214.419 78.1847 213.615 81.1216 217.436ZM101.2 245.777C101.251 246.305 102.505 246.631 103.735 246.981C104.997 247.286 106.292 247.521 106.401 248.217C105.551 248.227 104.707 248.15 103.871 247.988C102.6 247.676 101.321 246.95 101.2 245.777ZM106.767 250.268C106.655 249.57 108.886 250.857 110.372 251.696C111.895 252.456 112.532 253.148 108.994 251.552C108.661 251.38 106.839 250.653 106.765 250.268H106.767ZM112.738 254.213C112.597 253.692 115.172 253.856 115.361 254.523C115.528 255.061 112.931 254.887 112.736 254.213H112.738ZM117.838 257.161C117.367 255.908 125.254 259.337 119.675 257.784C119.431 257.718 117.937 257.409 117.837 257.161H117.838ZM124.436 260.026C123.84 258.818 134.651 262.017 126.964 260.611C126.591 260.542 124.603 260.387 124.435 260.026H124.436ZM133.245 262.482C132.889 261.889 135.482 262.168 137.196 262.412C138.067 262.478 138.705 262.58 138.642 262.679C138.581 262.73 137.796 262.968 135.833 262.799C135.45 262.768 133.452 262.808 133.245 262.482ZM199.447 242.672C198.936 242.639 199.803 240.554 200.316 240.581C200.829 240.607 199.97 242.703 199.447 242.672ZM202.202 239.495C201.735 239.495 202.216 237.861 202.49 237.856C202.964 237.838 202.483 239.486 202.202 239.495Z" fill="#546E12"/>
<path fill-rule="evenodd" clip-rule="evenodd" d="M78.4472 198.211C78.9123 197.635 79.8731 202.725 81.7521 207.893C81.9685 208.543 82.1559 209.214 82.391 209.858C82.6601 210.487 82.9276 211.112 83.1882 211.719L84.6363 215.152C84.9889 216.045 85.4012 216.903 85.8748 217.731L86.58 219.064C87.2393 220.303 87.9838 221.483 88.8117 222.6C89.5868 223.517 90.2461 224.275 90.6805 224.941C91.4965 226.193 91.7503 227.234 92.1115 228.162C92.5152 229.048 93.0706 229.79 94.3619 230.457C93.9684 230.247 93.1438 225.934 96.2494 230.178C96.3789 230.331 96.8014 233.193 97.7571 232.863C96.1183 233.421 94.4385 231.942 92.8866 230.107C92.4999 229.644 92.1234 229.162 91.7657 228.668L90.8662 227.099C90.2972 226.084 89.7929 225.156 89.3585 224.494C88.9224 223.803 88.4318 223.13 88.0229 222.392L86.8509 220.115C86.103 218.575 85.2257 217.137 84.6295 215.611C84.0349 214.087 83.4574 212.671 82.9446 211.38C82.6925 210.738 82.4216 210.146 82.2223 209.577L81.73 207.986C81.4745 207.176 80.3501 205.135 79.3706 203.082C78.5972 200.969 77.9924 198.853 78.4472 198.211Z" fill="#546E12"/>
<path fill-rule="evenodd" clip-rule="evenodd" d="M120.809 246.303C120.462 245.06 129.382 248.828 122.925 247.005C122.613 246.918 120.911 246.653 120.809 246.303Z" fill="#546E12"/>
<path fill-rule="evenodd" clip-rule="evenodd" d="M125.903 248.801C126.3 249.721 130.472 247.871 130.959 249.107C130.249 249.395 129.518 249.601 128.769 249.725C127.607 249.907 126.3 249.824 125.903 248.801Z" fill="#546E12"/>
<path fill-rule="evenodd" clip-rule="evenodd" d="M114.922 247.299C114.859 247.014 113.98 246.367 112.675 245.52C111.433 244.543 109.776 243.345 108.033 242.169C104.673 239.591 101.159 236.757 99.9257 235.8C101.665 236.95 99.3056 235.415 97.3533 234.334C96.3516 233.824 95.585 233.288 95.4215 233.403C95.2579 233.518 95.7111 234.283 97.5969 235.858L100.324 238.235C101.658 238.669 102.76 238.999 103.403 239.457C104.07 239.885 104.379 240.312 104.353 240.554C104.326 240.798 103.965 240.858 103.275 240.554C102.829 240.341 102.404 240.084 102.002 239.785C101.377 239.353 100.818 238.84 100.324 238.244C100.403 238.788 100.585 239.285 100.871 239.741C101.159 240.195 101.524 240.563 101.965 240.842C102.701 241.316 103.532 241.495 104.283 241.617C105.805 241.845 106.936 241.943 106.718 243.806C106.796 243.11 105.152 243.671 105.304 243.839C107.087 245.749 108.198 245.027 110.524 246.914C110.524 246.066 111.617 246.695 112.784 247.116C113.951 247.538 115.087 248.015 114.922 247.299ZM107.239 244.11C107.065 242.823 113.598 247.406 108.805 245.006C108.592 244.903 107.273 244.358 107.239 244.11Z" fill="#546E12"/>
<path fill-rule="evenodd" clip-rule="evenodd" d="M114.067 109.771C114.067 109.771 112.154 112.286 111.677 112.055C111.61 112.046 112.302 108.961 114.067 109.771Z" fill="#546E12"/>
<path fill-rule="evenodd" clip-rule="evenodd" d="M109.128 112.596C109.346 112.687 109.232 113.045 109.036 113.365C108.85 113.715 108.588 114.034 108.465 113.987C108.034 113.839 108.849 112.454 109.128 112.596Z" fill="#546E12"/>
<path fill-rule="evenodd" clip-rule="evenodd" d="M96.8525 123.574C97.2392 122.46 97.8406 121.499 98.6549 120.692C99.2035 120.165 99.6191 120.017 99.7775 120.147C99.936 120.278 99.844 120.688 99.384 121.273C98.9241 121.858 98.0501 122.557 96.8525 123.574Z" fill="#546E12"/>
<path fill-rule="evenodd" clip-rule="evenodd" d="M204.882 167.457C203.693 165.39 203.052 168.421 203.234 164.447C203.263 163.789 204.413 165.825 205.214 167.426C205.49 167.942 205.684 168.49 205.796 169.074C205.762 169.232 205.616 168.8 204.882 167.457Z" fill="#546E12"/>
<path fill-rule="evenodd" clip-rule="evenodd" d="M207.633 173.886C204.798 171.269 207.572 168.272 207.633 173.886V173.886Z" fill="#546E12"/>
<path fill-rule="evenodd" clip-rule="evenodd" d="M205.569 164.332C202.09 163.029 208.032 165.264 205.569 164.332V164.332Z" fill="#546E12"/>
<path fill-rule="evenodd" clip-rule="evenodd" d="M115.651 250.265C114.191 249.04 110.42 249.089 110.525 246.914C111.588 248.155 114.232 248.522 115.806 248.947C117.396 249.333 118.111 249.634 115.651 250.265Z" fill="#546E12"/>
<path fill-rule="evenodd" clip-rule="evenodd" d="M207.633 173.886C209.01 175.25 208.814 176.721 208.456 177.051C208.05 177.403 207.485 176.69 207.633 173.886Z" fill="#546E12"/>
<path fill-rule="evenodd" clip-rule="evenodd" d="M212.004 168.228C212.585 169.695 213.147 171.203 213.694 172.751C213.977 173.516 214.198 174.302 214.358 175.109L214.895 177.528C215.718 180.786 215.899 184.164 216.111 187.62C216.154 194.482 215.406 201.675 213.135 208.469L212.362 211.057L211.357 213.54C210.66 215.192 210.037 216.891 209.241 218.502C207.556 221.667 205.936 224.904 203.824 227.81C201.934 230.883 199.52 233.517 197.284 236.296C196.066 237.586 194.793 238.819 193.553 240.082C192.921 240.698 192.323 241.358 191.664 241.943L189.638 243.629C184.345 248.343 178.061 251.951 171.546 254.703L166.584 256.566C164.906 257.081 163.187 257.447 161.497 257.883L158.962 258.499L156.386 258.838C154.673 259.044 152.976 259.297 151.281 259.432C147.87 259.419 144.518 259.662 141.249 259.139C139.617 258.916 137.991 258.856 136.419 258.486L131.772 257.403C130.237 257.111 128.792 256.472 127.351 255.987C125.922 255.438 124.491 255.015 123.153 254.364L119.254 252.405C118.624 252.073 117.992 251.776 117.387 251.424L115.647 250.276L117.59 251.333L119.627 252.206L123.755 253.983C125.174 254.476 126.625 254.902 128.077 255.372L130.271 256.067C131.008 256.28 131.768 256.395 132.521 256.563L137.087 257.507C138.632 257.722 140.197 257.833 141.77 258.003L144.141 258.236C144.933 258.273 145.729 258.236 146.528 258.236L151.352 258.185L156.19 257.613L158.625 257.314L161.03 256.756L165.872 255.595L170.603 253.889L172.979 253.012L175.265 251.885C176.785 251.118 178.338 250.396 179.836 249.57C182.713 247.68 185.737 245.979 188.359 243.653L190.395 242.001L191.412 241.172L192.349 240.242L196.081 236.494C197.297 235.224 198.352 233.771 199.488 232.411L201.152 230.333C201.664 229.604 202.139 228.844 202.631 228.1C206.738 222.268 209.652 215.593 211.827 208.839L213.27 203.7C213.64 201.966 213.897 200.206 214.2 198.474C214.34 197.608 214.5 196.746 214.614 195.878L214.788 193.251C214.878 191.503 215.052 189.78 215.047 188.052C214.873 184.585 214.893 181.183 214.224 177.862C213.926 176.205 213.774 174.553 213.335 172.955C212.893 171.356 212.445 169.797 212.004 168.228Z" fill="#546E12"/>
<path fill-rule="evenodd" clip-rule="evenodd" d="M191.635 232.708C191.148 232.624 191.834 230.825 192.257 230.825C192.756 230.887 192.143 232.786 191.635 232.708Z" fill="#546E12"/>
<path fill-rule="evenodd" clip-rule="evenodd" d="M209.747 184.942C209.26 185.3 209.11 182.922 209.158 181.063C209.025 179.202 209.158 177.816 209.717 180.179C209.824 180.077 210.357 184.474 209.747 184.942Z" fill="#546E12"/>
<path fill-rule="evenodd" clip-rule="evenodd" d="M208.606 170.767C208.281 171.121 207.226 169.55 207.562 169.183C207.897 168.817 208.931 170.394 208.606 170.767Z" fill="#546E12"/>
<path fill-rule="evenodd" clip-rule="evenodd" d="M71.9634 160.484C72.4097 160.242 72.4336 161.213 72.2513 162.644C72.1065 164.083 71.5784 165.947 71.3978 167.632C70.8884 170.959 70.2479 173.294 70.5852 168.492C70.5852 168.438 70.6057 167.934 70.6295 167.202C70.6465 166.828 70.667 166.41 70.6891 165.955C70.7539 165.508 70.822 165.025 70.8936 164.555C71.1917 162.641 71.5869 160.685 71.9634 160.484Z" fill="#546E12"/>
<path fill-rule="evenodd" clip-rule="evenodd" d="M201.707 219.322C201.707 219.322 201.781 219.109 201.94 218.735L202.615 217.175L203.592 214.955C203.93 214.127 204.201 213.186 204.526 212.266C204.851 211.347 205.161 210.405 205.466 209.517L205.913 208.214L206.223 206.976C206.608 205.408 206.906 204.234 207.017 203.86C207.27 202.874 207.466 201.877 207.606 200.867C207.78 199.36 207.988 197.517 208.248 195.696C208.422 194.797 208.442 193.874 208.516 193.014C208.589 192.155 208.676 191.339 208.785 190.641C209.003 189.226 209.318 188.202 209.72 187.928C209.819 187.875 209.819 189.514 209.802 191.35C209.783 193.185 209.776 195.22 209.592 195.818C209.311 197.283 209.057 198.61 208.81 199.899C208.684 200.541 208.56 201.173 208.439 201.802C208.257 202.417 208.076 203.029 207.89 203.651L206.727 207.597C206.332 209.019 205.637 210.454 205.006 212.157C204.337 214.329 202.558 219.169 201.707 219.322Z" fill="#546E12"/>
<path fill-rule="evenodd" clip-rule="evenodd" d="M69.2429 175.184C69.9124 174.641 69.9822 178.551 69.8732 181.646C70.018 184.74 69.8732 187.101 69.2855 183.365C69.0384 183.123 68.7045 175.651 69.2429 175.184Z" fill="#546E12"/>
<mask id="mask2_951_405" style="mask-type:luminance" maskUnits="userSpaceOnUse" x="68" y="190" width="4" height="7">
<path d="M68.5308 190.867H71.5529V196.933H68.5308V190.867Z" fill="white"/>
</mask>
<g mask="url(#mask2_951_405)">
<path fill-rule="evenodd" clip-rule="evenodd" d="M69.2444 190.914C68.6107 191.76 71.8764 195.723 71.0366 196.802C70.4914 196.109 70.0161 195.364 69.609 194.569C68.9821 193.328 68.5306 191.811 69.2444 190.914Z" fill="#546E12"/>
</g>
<path fill-rule="evenodd" clip-rule="evenodd" d="M71.5067 204.447C71.7707 204.023 72.723 205.262 72.6055 205.499C72.3482 205.937 71.3482 204.706 71.5067 204.447Z" fill="#546E12"/>
<path fill-rule="evenodd" clip-rule="evenodd" d="M72.8594 208.312C73.1047 207.842 74.8321 209.929 74.5272 210.547C74.2904 211.057 72.5528 208.934 72.8594 208.312Z" fill="#546E12"/>
<path fill-rule="evenodd" clip-rule="evenodd" d="M75.1234 213.994C75.2103 213.843 76.6566 217.317 78.4283 221.02L81.3226 226.231L81.941 227.338C82.1608 227.664 82.3669 227.963 82.5526 228.235L83.3959 229.471C87.5713 235.49 80.355 225.965 79.6123 223.909C79.4385 223.592 78.9853 222.977 78.413 222.206L77.4777 220.923C77.1813 220.449 76.9036 219.931 76.6242 219.412C75.5169 217.335 74.6038 215.108 75.1234 213.994Z" fill="#546E12"/>
<path fill-rule="evenodd" clip-rule="evenodd" d="M84.3924 229.5C84.4844 229.017 85.8388 229.751 85.7842 230.036C85.7008 230.528 84.343 229.788 84.3924 229.5Z" fill="#546E12"/>
<path fill-rule="evenodd" clip-rule="evenodd" d="M212.005 168.228C210.717 167.484 210.717 166.325 210.982 165.911C211.248 165.497 212.088 165.822 212.005 168.228Z" fill="#546E12"/>
<path fill-rule="evenodd" clip-rule="evenodd" d="M84.7094 233.714C84.6992 232.706 91.2034 239.983 86.4896 235.763C86.3482 235.634 85.878 235.233 85.4453 234.814C85.0143 234.394 84.6838 233.9 84.7094 233.714Z" fill="#546E12"/>
<path fill-rule="evenodd" clip-rule="evenodd" d="M91.147 241.69C91.147 240.534 98.2406 247.213 93.1759 243.478C92.8761 243.261 91.147 242.067 91.147 241.69Z" fill="#546E12"/>
<path fill-rule="evenodd" clip-rule="evenodd" d="M96.3447 247.155C96.3447 247.155 99.452 247.884 99.5099 248.458C99.3617 248.52 99.2101 248.56 99.0534 248.577C98.711 248.633 98.3669 248.648 98.021 248.618C97.2561 248.551 96.4469 248.196 96.3447 247.155Z" fill="#546E12"/>
</svg>
