<svg width="1200" height="765" viewBox="0 0 1200 765" fill="none" xmlns="http://www.w3.org/2000/svg">
<g clip-path="url(#clip0_1538_387)">
<rect width="1200" height="765" fill="#F3EFE9"/>
<mask id="mask0_1538_387" style="mask-type:luminance" maskUnits="userSpaceOnUse" x="977" y="605" width="317" height="289">
<path d="M977.5 605.127H1293.74V893.006H977.5V605.127Z" fill="white"/>
</mask>
<g mask="url(#mask0_1538_387)">
<path d="M1262.59 751.572C1260.68 761.732 1256.41 772.86 1249.24 781.093V781.097C1242.2 789.179 1232.37 794.478 1219.25 793.342C1212.62 792.766 1195.06 786.969 1189.16 791.622C1185.31 794.657 1190.32 801.961 1191.81 805.007C1202.04 825.894 1189.7 848.855 1167.47 857.976C1165.36 858.839 1163.19 859.633 1160.95 860.353C1150.14 863.851 1137.9 865.676 1125.12 865.676C1112.73 865.676 1100.25 863.968 1088.01 860.602C1068.95 855.357 1052.25 846.563 1039.72 835.159C1032.73 828.797 1027.33 821.883 1023.88 814.996C1022.17 811.572 1020.93 808.159 1020.23 804.821C1019.76 802.576 1019.54 800.323 1019.54 798.093V798.089C1019.56 790.607 1022.27 783.416 1027.68 777.942C1030.46 775.129 1033.94 772.771 1038.13 771.055C1040.45 770.101 1042.92 769.385 1045.01 768.07C1047.1 766.751 1048.81 764.646 1048.64 762.362C1048.4 758.95 1044.44 756.899 1040.99 755.467C1037.08 753.856 1033.48 752.277 1030.18 750.576H1030.18C1021.12 745.903 1014.48 740.3 1010.91 730.433C1010.48 729.254 1010.1 728.012 1009.76 726.701C1007.86 719.324 1007.65 711.698 1008.69 704.196C1009.43 698.853 1010.8 693.573 1012.63 688.492C1017.33 676.585 1024.82 666.231 1034.31 658.543C1044.1 650.609 1056.28 643.862 1069.53 639.037C1077.74 636.049 1086.12 633.928 1094.02 632.808C1098.32 632.193 1102.47 631.882 1106.38 631.882C1115.61 631.882 1127.53 633.819 1133.51 640.808C1141.01 649.574 1145.07 657.737 1146.18 668.558C1146.48 671.472 1146.92 674.663 1149.3 676.663C1153.55 680.227 1157.28 674.749 1159.56 672.165C1162.48 668.846 1164.86 666.414 1168.98 663.854C1182.94 655.196 1202.66 647.014 1219.61 653.908C1219.66 653.928 1219.7 653.947 1219.74 653.963C1242.45 663.27 1253.95 688.138 1259.71 708.367C1264.11 723.837 1265.08 738.374 1262.59 751.572ZM1288.6 701.756C1266.46 623.886 1200.09 606.271 1163.51 642.555C1151.32 587.213 1062.57 599.567 1014.31 638.695C969.948 674.667 964.106 745.654 1008.18 764.035C966.259 793.786 998.524 863.968 1079.27 886.178C1164.53 909.629 1246.32 863.287 1217.33 810.334C1256.53 829.182 1310.74 779.623 1288.6 701.756Z" fill="#75A81E"/>
<path d="M1284.17 754.853C1280.68 772.487 1270.84 792.856 1252.91 802.28C1247.79 804.973 1242.09 806.478 1236.13 806.284C1231.42 806.132 1227.41 804.097 1222.89 803.638C1218.76 803.225 1213.82 802.381 1212.09 804.389C1209.15 807.778 1211.33 815.556 1212.69 820.042C1216.11 831.28 1213.99 845.443 1206.34 855.139C1201.69 861.03 1195.84 866.092 1189.22 870.182C1183.59 873.652 1177.51 876.501 1171.15 878.742C1155.14 884.396 1137.73 886.458 1120.59 885.73C1112.61 885.392 1104.67 884.427 1096.85 882.952C1074.15 878.652 1051.96 870.077 1033.78 857.018C1024.91 850.653 1016.99 843.147 1010.89 834.532C1003.9 824.692 998.867 813.171 998.264 801.424C997.964 795.657 998.793 789.813 1001.21 784.436C1003.12 780.167 1007.7 774.545 1011.28 771.273C1013.91 768.876 1023.7 765.043 1022.71 762.697C1021.84 760.623 1013.71 758.179 1010.02 756.522C972.205 739.499 985.451 690.223 1002.13 664.235C1009.1 653.372 1019.11 644.259 1030.29 636.843C1055.57 620.088 1097.07 605.026 1128.47 614.726C1138.15 617.718 1145.37 624.014 1149.92 632.154C1152.12 636.096 1153.68 640.309 1154.97 644.555C1155.71 647.018 1155.44 649.208 1156.47 651.671C1159.05 657.866 1167.38 649.064 1170.02 646.438C1177.74 638.769 1188.55 634.022 1199.91 632.671C1205.68 631.983 1211.57 632.154 1217.28 633.189C1243.3 637.901 1260.8 660.2 1271.55 680.468C1283.12 702.258 1289.1 729.853 1284.17 754.853ZM1288.6 701.756C1266.46 623.886 1200.09 606.271 1163.51 642.555C1151.32 587.213 1062.57 599.567 1014.31 638.695C969.948 674.667 964.106 745.654 1008.18 764.035C966.259 793.786 998.524 863.968 1079.27 886.178C1164.53 909.629 1246.32 863.291 1217.33 810.338C1256.53 829.182 1310.74 779.623 1288.6 701.756Z" fill="#5B7A0D"/>
</g>
<path d="M1198.39 -26.8905C1198.39 -24.2758 1198.32 -21.6611 1198.17 -19.0502C1198.02 -16.4355 1197.8 -13.8285 1197.5 -11.2254C1197.21 -8.62235 1196.84 -6.02705 1196.41 -3.43954C1195.96 -0.852036 1195.45 1.7238 1194.87 4.28796C1194.28 6.85602 1193.62 9.40462 1192.89 11.9415C1192.17 14.4785 1191.36 16.9998 1190.49 19.5017C1189.62 22.0075 1188.68 24.49 1187.67 26.953C1186.66 29.416 1185.58 31.8556 1184.43 34.2719C1183.28 36.6882 1182.07 39.0773 1180.78 41.443C1179.5 43.8049 1178.15 46.1434 1176.74 48.4507C1175.32 50.7542 1173.84 53.0304 1172.3 55.2755C1170.76 57.5167 1169.15 59.7268 1167.48 61.9019C1165.82 64.0769 1164.09 66.2131 1162.3 68.3142C1160.51 70.4154 1158.67 72.4776 1156.76 74.5009C1154.86 76.5203 1152.9 78.5008 1150.89 80.4386C1148.87 82.3763 1146.8 84.2712 1144.68 86.1194C1142.56 87.9715 1140.38 89.773 1138.16 91.5279C1135.94 93.2866 1133.66 94.9948 1131.35 96.6523C1129.02 98.3138 1126.66 99.9207 1124.25 101.481C1121.84 103.037 1119.38 104.543 1116.89 105.998C1114.39 107.45 1111.86 108.851 1109.28 110.193C1106.71 111.539 1104.1 112.827 1101.45 114.061C1098.81 115.294 1096.13 116.469 1093.42 117.586C1090.7 118.706 1087.96 119.765 1085.19 120.765C1082.41 121.769 1079.61 122.706 1076.79 123.59C1073.96 124.469 1071.12 125.29 1068.24 126.049C1065.37 126.807 1062.48 127.508 1059.57 128.142C1056.66 128.776 1053.73 129.352 1050.79 129.862C1047.84 130.372 1044.89 130.819 1041.92 131.2C1038.95 131.586 1035.97 131.905 1032.99 132.161C1030 132.418 1027.01 132.609 1024.01 132.737C1021.01 132.866 1018.01 132.932 1015.01 132.932C1012.01 132.932 1009.01 132.866 1006.01 132.737C1003.01 132.609 1000.02 132.418 997.035 132.161C994.049 131.905 991.072 131.586 988.103 131.2C985.134 130.819 982.179 130.372 979.236 129.862C976.289 129.352 973.364 128.776 970.451 128.142C967.539 127.508 964.648 126.807 961.775 126.049C958.906 125.29 956.055 124.469 953.229 123.59C950.404 122.706 947.604 121.769 944.835 120.765C942.062 119.765 939.318 118.706 936.606 117.586C933.893 116.469 931.211 115.294 928.563 114.061C925.92 112.827 923.307 111.539 920.733 110.193C918.16 108.851 915.625 107.45 913.129 105.998C910.634 104.543 908.181 103.037 905.772 101.481C903.359 99.9207 900.994 98.3138 898.676 96.6523C896.354 94.9948 894.084 93.2866 891.858 91.5279C889.635 89.773 887.461 87.9715 885.338 86.1194C883.22 84.2712 881.15 82.3763 879.136 80.4386C877.118 78.5008 875.16 76.5203 873.255 74.5009C871.35 72.4776 869.505 70.4154 867.717 68.3142C865.929 66.2131 864.201 64.0769 862.535 61.9019C860.868 59.7268 859.262 57.5167 857.721 55.2755C856.176 53.0304 854.696 50.7542 853.281 48.4507C851.866 46.1434 850.521 43.8049 849.236 41.443C847.951 39.0773 846.736 36.6882 845.59 34.2719C844.44 31.8556 843.359 29.416 842.348 26.953C841.337 24.49 840.399 22.0075 839.527 19.5017C838.654 16.9998 837.856 14.4785 837.127 11.9415C836.397 9.40462 835.738 6.85602 835.152 4.28796C834.566 1.7238 834.054 -0.852036 833.615 -3.43954C833.173 -6.02705 832.808 -8.62235 832.513 -11.2254C832.218 -13.8285 831.996 -16.4355 831.849 -19.0502C831.706 -21.6611 831.632 -24.2758 831.632 -26.8905C831.632 -29.5053 831.706 -32.12 831.849 -34.7309C831.996 -37.3456 832.218 -39.9526 832.513 -42.5557C832.808 -45.1588 833.173 -47.754 833.615 -50.3416C834.054 -52.9291 834.566 -55.5049 835.152 -58.0691C835.738 -60.6371 836.397 -63.1857 837.127 -65.7226C837.856 -68.2596 838.654 -70.7809 839.527 -73.2828C840.399 -75.7886 841.337 -78.2711 842.348 -80.7341C843.359 -83.1971 844.44 -85.6367 845.59 -88.053C846.736 -90.4693 847.951 -92.8584 849.236 -95.2241C850.521 -97.5899 851.866 -99.9245 853.281 -102.232C854.696 -104.535 856.176 -106.812 857.721 -109.057C859.262 -111.298 860.868 -113.508 862.535 -115.683C864.201 -117.858 865.929 -119.994 867.717 -122.095C869.505 -124.196 871.35 -126.259 873.255 -128.282C875.16 -130.301 877.118 -132.282 879.136 -134.22C881.15 -136.157 883.22 -138.052 885.338 -139.9C887.461 -141.753 889.635 -143.554 891.858 -145.313C894.084 -147.068 896.354 -148.776 898.676 -150.433C900.994 -152.095 903.359 -153.702 905.772 -155.262C908.181 -156.819 910.634 -158.324 913.129 -159.78C915.625 -161.231 918.16 -162.632 920.733 -163.974C923.307 -165.32 925.92 -166.608 928.563 -167.842C931.211 -169.075 933.893 -170.25 936.606 -171.367C939.318 -172.488 942.062 -173.546 944.835 -174.546C947.604 -175.55 950.404 -176.487 953.229 -177.371C956.055 -178.25 958.906 -179.071 961.775 -179.83C964.648 -180.589 967.539 -181.289 970.451 -181.923C973.364 -182.557 976.289 -183.133 979.236 -183.643C982.179 -184.153 985.134 -184.6 988.103 -184.982C991.072 -185.367 994.049 -185.686 997.035 -185.943C1000.02 -186.199 1003.01 -186.39 1006.01 -186.518C1009.01 -186.647 1012.01 -186.713 1015.01 -186.713C1018.01 -186.713 1021.01 -186.647 1024.01 -186.518C1027.01 -186.39 1030 -186.199 1032.99 -185.943C1035.97 -185.686 1038.95 -185.367 1041.92 -184.982C1044.89 -184.6 1047.84 -184.153 1050.79 -183.643C1053.73 -183.133 1056.66 -182.557 1059.57 -181.923C1062.48 -181.289 1065.37 -180.589 1068.24 -179.83C1071.12 -179.071 1073.96 -178.25 1076.79 -177.371C1079.61 -176.487 1082.41 -175.55 1085.19 -174.546C1087.96 -173.546 1090.7 -172.488 1093.42 -171.367C1096.13 -170.25 1098.81 -169.075 1101.45 -167.842C1104.1 -166.608 1106.71 -165.32 1109.28 -163.974C1111.86 -162.632 1114.4 -161.231 1116.89 -159.78C1119.38 -158.324 1121.84 -156.819 1124.25 -155.262C1126.66 -153.702 1129.02 -152.095 1131.35 -150.433C1133.66 -148.776 1135.94 -147.068 1138.16 -145.313C1140.38 -143.554 1142.56 -141.753 1144.68 -139.9C1146.8 -138.052 1148.87 -136.157 1150.89 -134.22C1152.9 -132.282 1154.86 -130.301 1156.76 -128.282C1158.67 -126.259 1160.51 -124.196 1162.3 -122.095C1164.09 -119.994 1165.82 -117.858 1167.48 -115.683C1169.15 -113.508 1170.76 -111.298 1172.3 -109.057C1173.84 -106.812 1175.32 -104.535 1176.74 -102.232C1178.15 -99.9245 1179.5 -97.586 1180.78 -95.2241C1182.07 -92.8584 1183.28 -90.4693 1184.43 -88.053C1185.58 -85.6367 1186.66 -83.1971 1187.67 -80.7341C1188.68 -78.2711 1189.62 -75.7886 1190.49 -73.2828C1191.36 -70.7809 1192.17 -68.2596 1192.89 -65.7226C1193.62 -63.1857 1194.28 -60.6371 1194.87 -58.0691C1195.45 -55.5049 1195.96 -52.9291 1196.41 -50.3416C1196.84 -47.754 1197.21 -45.1588 1197.5 -42.5557C1197.8 -39.9526 1198.02 -37.3456 1198.17 -34.7309C1198.32 -32.12 1198.39 -29.5053 1198.39 -26.8905Z" fill="#DF443C"/>
<mask id="mask1_1538_387" style="mask-type:luminance" maskUnits="userSpaceOnUse" x="830" y="-189" width="370" height="324">
<path d="M830 -188.262H1200V134.473H830V-188.262Z" fill="white"/>
</mask>
<g mask="url(#mask1_1538_387)">
<path d="M1198.39 -26.8905C1198.39 -24.2757 1198.32 -21.661 1198.17 -19.0501C1198.02 -16.4354 1197.8 -13.8284 1197.5 -11.2253C1197.21 -8.62225 1196.84 -6.02697 1196.41 -3.43946C1195.96 -0.85195 1195.45 1.72388 1194.86 4.28804C1194.28 6.85609 1193.62 9.4047 1192.89 11.9416C1192.17 14.4786 1191.36 16.9999 1190.49 19.5018C1189.62 22.0076 1188.68 24.4901 1187.67 26.9531C1186.66 29.4161 1185.58 31.8557 1184.43 34.272C1183.28 36.6883 1182.07 39.0774 1180.78 41.4431C1179.5 43.805 1178.15 46.1435 1176.74 48.4508C1175.32 50.7543 1173.84 53.0305 1172.3 55.2756C1170.75 57.5168 1169.15 59.7269 1167.48 61.902C1165.82 64.077 1164.09 66.2132 1162.3 68.3143C1160.51 70.4155 1158.67 72.4777 1156.76 74.501C1154.86 76.5204 1152.9 78.5009 1150.88 80.4387C1148.87 82.3764 1146.8 84.2713 1144.68 86.1195C1142.56 87.9716 1140.38 89.7732 1138.16 91.528C1135.94 93.2868 1133.66 94.9949 1131.35 96.6524C1129.02 98.3139 1126.66 99.9209 1124.25 101.481C1121.84 103.038 1119.38 104.543 1116.89 105.999C1114.39 107.45 1111.86 108.851 1109.28 110.193C1106.71 111.539 1104.1 112.827 1101.45 114.061C1098.81 115.294 1096.13 116.469 1093.42 117.586C1090.7 118.707 1087.96 119.765 1085.19 120.765C1082.41 121.769 1079.61 122.707 1076.79 123.59C1073.96 124.469 1071.12 125.29 1068.24 126.049C1065.37 126.808 1062.48 127.508 1059.57 128.142C1056.66 128.776 1053.73 129.352 1050.79 129.862C1047.84 130.372 1044.89 130.819 1041.92 131.201C1038.95 131.586 1035.97 131.905 1032.99 132.162C1030 132.418 1027 132.609 1024.01 132.738C1021.01 132.866 1018.01 132.932 1015.01 132.932C1012.01 132.932 1009.01 132.866 1006.01 132.738C1003.01 132.609 1000.02 132.418 997.035 132.162C994.049 131.905 991.072 131.586 988.103 131.201C985.134 130.819 982.179 130.372 979.236 129.862C976.289 129.352 973.363 128.776 970.451 128.142C967.539 127.508 964.648 126.808 961.775 126.049C958.906 125.29 956.054 124.469 953.229 123.59C950.403 122.707 947.604 121.769 944.835 120.765C942.061 119.765 939.318 118.707 936.606 117.586C933.893 116.469 931.211 115.294 928.563 114.061C925.92 112.827 923.307 111.539 920.733 110.193C918.16 108.851 915.625 107.45 913.129 105.999C910.633 104.543 908.181 103.038 905.772 101.481C903.359 99.9209 900.994 98.3139 898.676 96.6524C896.354 94.9949 894.084 93.2868 891.857 91.528C889.635 89.7732 887.461 87.9716 885.338 86.1195C883.22 84.2713 881.15 82.3764 879.136 80.4387C877.118 78.5009 875.16 76.5204 873.255 74.501C871.35 72.4777 869.505 70.4155 867.717 68.3143C865.929 66.2132 864.201 64.077 862.535 61.902C860.868 59.7269 859.262 57.5168 857.721 55.2756C856.176 53.0305 854.696 50.7543 853.281 48.4508C851.866 46.1435 850.521 43.805 849.236 41.4431C847.951 39.0774 846.736 36.6883 845.59 34.272C844.44 31.8557 843.359 29.4161 842.348 26.9531C841.337 24.4901 840.399 22.0076 839.527 19.5018C838.654 16.9999 837.856 14.4786 837.127 11.9416C836.397 9.4047 835.738 6.85609 835.152 4.28804C834.566 1.72388 834.054 -0.85195 833.615 -3.43946C833.173 -6.02697 832.808 -8.62225 832.513 -11.2253C832.218 -13.8284 831.996 -16.4354 831.849 -19.0501C831.706 -21.661 831.632 -24.2757 831.632 -26.8905C831.632 -29.5052 831.706 -32.12 831.849 -34.7308C831.996 -37.3456 832.218 -39.9525 832.513 -42.5556C832.808 -45.1587 833.173 -47.754 833.615 -50.3415C834.054 -52.929 834.566 -55.5048 835.152 -58.069C835.738 -60.6371 836.397 -63.1857 837.127 -65.7226C837.856 -68.2595 838.654 -70.7809 839.527 -73.2828C840.399 -75.7886 841.337 -78.271 842.348 -80.734C843.359 -83.197 844.44 -85.6367 845.59 -88.053C846.736 -90.4693 847.951 -92.8584 849.236 -95.2241C850.521 -97.5898 851.866 -99.9244 853.281 -102.232C854.696 -104.535 856.176 -106.811 857.721 -109.057C859.262 -111.298 860.868 -113.508 862.535 -115.683C864.201 -117.858 865.929 -119.994 867.717 -122.095C869.505 -124.196 871.35 -126.259 873.255 -128.282C875.16 -130.301 877.118 -132.282 879.136 -134.22C881.15 -136.157 883.22 -138.052 885.338 -139.9C887.461 -141.753 889.635 -143.554 891.857 -145.313C894.084 -147.068 896.354 -148.776 898.676 -150.433C900.994 -152.095 903.359 -153.702 905.772 -155.262C908.181 -156.819 910.633 -158.324 913.129 -159.78C915.625 -161.231 918.16 -162.632 920.733 -163.974C923.307 -165.32 925.92 -166.608 928.563 -167.842C931.211 -169.075 933.893 -170.25 936.606 -171.367C939.318 -172.488 942.061 -173.546 944.835 -174.546C947.604 -175.55 950.403 -176.487 953.229 -177.371C956.054 -178.25 958.906 -179.071 961.775 -179.83C964.648 -180.589 967.539 -181.289 970.451 -181.923C973.363 -182.557 976.289 -183.133 979.236 -183.643C982.179 -184.153 985.134 -184.6 988.103 -184.982C991.072 -185.367 994.049 -185.686 997.035 -185.943C1000.02 -186.199 1003.01 -186.39 1006.01 -186.518C1009.01 -186.647 1012.01 -186.713 1015.01 -186.713C1018.01 -186.713 1021.01 -186.647 1024.01 -186.518C1027 -186.39 1030 -186.199 1032.99 -185.943C1035.97 -185.686 1038.95 -185.367 1041.92 -184.982C1044.89 -184.6 1047.84 -184.153 1050.79 -183.643C1053.73 -183.133 1056.66 -182.557 1059.57 -181.923C1062.48 -181.289 1065.37 -180.589 1068.24 -179.83C1071.12 -179.071 1073.96 -178.25 1076.79 -177.371C1079.61 -176.487 1082.41 -175.55 1085.19 -174.546C1087.96 -173.546 1090.7 -172.488 1093.42 -171.367C1096.13 -170.25 1098.81 -169.075 1101.45 -167.842C1104.1 -166.608 1106.71 -165.32 1109.28 -163.974C1111.86 -162.632 1114.4 -161.231 1116.89 -159.78C1119.38 -158.324 1121.84 -156.819 1124.25 -155.262C1126.66 -153.702 1129.02 -152.095 1131.35 -150.433C1133.66 -148.776 1135.94 -147.068 1138.16 -145.313C1140.38 -143.554 1142.56 -141.753 1144.68 -139.9C1146.8 -138.052 1148.87 -136.157 1150.88 -134.22C1152.9 -132.282 1154.86 -130.301 1156.76 -128.282C1158.67 -126.259 1160.51 -124.196 1162.3 -122.095C1164.09 -119.994 1165.82 -117.858 1167.48 -115.683C1169.15 -113.508 1170.75 -111.298 1172.3 -109.057C1173.84 -106.811 1175.32 -104.535 1176.74 -102.232C1178.15 -99.9244 1179.5 -97.5859 1180.78 -95.2241C1182.07 -92.8584 1183.28 -90.4693 1184.43 -88.053C1185.58 -85.6367 1186.66 -83.197 1187.67 -80.734C1188.68 -78.271 1189.62 -75.7886 1190.49 -73.2828C1191.36 -70.7809 1192.17 -68.2595 1192.89 -65.7226C1193.62 -63.1857 1194.28 -60.6371 1194.86 -58.069C1195.45 -55.5048 1195.96 -52.929 1196.41 -50.3415C1196.84 -47.754 1197.21 -45.1587 1197.5 -42.5556C1197.8 -39.9525 1198.02 -37.3456 1198.17 -34.7308C1198.32 -32.12 1198.39 -29.5052 1198.39 -26.8905Z" stroke="#DF443C" stroke-width="3.9895" stroke-miterlimit="1.5" stroke-linecap="round" stroke-linejoin="round"/>
</g>
<path fill-rule="evenodd" clip-rule="evenodd" d="M850.134 -44.4163C864.644 -98.746 898.658 -150.266 962.447 -165.92C980.294 -170.301 999.7 -169.538 1018 -168.951C1049.02 -167.951 1083.71 -163.196 1110.02 -146.994C1116.22 -143.169 1122.03 -137.531 1127.72 -133.057C1133.73 -128.345 1140.77 -124.006 1145.75 -118.364C1155.2 -107.621 1161.27 -94.5515 1167.8 -82.3416C1171.1 -76.1822 1176.21 -70.8438 1179.28 -64.6182C1187.22 -48.5407 1186.24 -25.9458 1182.46 -9.13673C1178.93 6.57115 1170.48 19.1312 1162.33 33.2127C1149.21 55.901 1137.55 80.2079 1110.83 92.6396C1101.53 96.9664 1090.85 99.1998 1081.28 103.118C1058.89 112.289 1034.52 120.141 1009.47 120.631C1001.16 120.795 993.163 118.157 985.012 116.97C967.365 114.406 946.102 114.53 930.798 104.811C920.069 97.9975 912.634 88.4451 902.842 80.7293C893.793 73.5932 882.703 68.391 874.895 60.0293C863.515 47.8505 846.84 1.58291 845.941 -14.872C845.512 -22.7707 848.741 -36.5915 850.134 -44.4163Z" fill="#C73321" stroke="#C73321" stroke-width="3.99249" stroke-miterlimit="1.5" stroke-linecap="round" stroke-linejoin="round"/>
<path fill-rule="evenodd" clip-rule="evenodd" d="M915.664 -23.9573C912.634 -20.8912 906.432 -13.9925 912.595 -11.0159C914.514 -10.0899 916.697 -10.2066 918.624 -11.1015C925.291 -14.2065 929.479 -20.2687 935.634 -23.9067C944.41 -29.0895 969.635 -36.389 974.423 -22.79C978.698 -10.658 955.703 -4.9499 948.533 1.93325C941.805 8.39617 941.358 15.9252 937.656 23.68C931.18 37.2362 912.921 59.4692 893.967 57.8233C880.048 56.6132 876.94 34.7498 873.871 25.6293C871.493 18.5516 868.741 11.6646 866.654 4.49742C863.737 -5.51018 860.148 -15.3193 860.425 -25.8094C860.694 -36.0544 864.727 -45.7235 867.509 -55.5443C875.812 -84.8318 891.128 -111.695 914.809 -133.29C920.568 -138.543 926.81 -144.465 934.162 -147.905C945.087 -153.021 954.57 -149.068 964.271 -144.146C987.456 -132.383 996.996 -105.979 999.653 -83.5867C1000.64 -75.2483 1003.32 -64.0967 997.087 -56.805C992.252 -51.1514 983.372 -56.9646 979.791 -61.0229C973.346 -68.3418 967.452 -96.1273 951.393 -90.2519C935.226 -84.3376 958.068 -70.9371 955.62 -68.2406C947.244 -59.0034 933.459 -81.2287 925.065 -70.8631C923.411 -68.8204 922.673 -66.3224 922.943 -63.8244C923.945 -54.521 938.016 -58.1085 938.029 -50.8752C938.047 -43.385 927.383 -46.0309 924.214 -41.638C921.519 -37.8987 931.619 -35.4552 930.399 -31.8949C928.754 -27.0857 919.371 -26.9456 915.664 -23.9573Z" fill="#F96D55" stroke="#F96D55" stroke-width="1.597" stroke-miterlimit="1.5" stroke-linecap="round" stroke-linejoin="round"/>
<path fill-rule="evenodd" clip-rule="evenodd" d="M1028.37 -7.37777C1024.58 -2.29226 1029.31 5.43522 1031.34 10.3923C1034.25 17.5012 1034.57 25.2754 1034.55 32.7733C1034.51 47.1427 1032.6 61.4926 1032.81 75.8932C1032.92 84.1732 1033.58 93.6516 1040.53 99.92C1051.89 110.149 1067 101.371 1078.42 95.7216C1082.07 93.9201 1085.05 91.352 1088.66 89.4999C1096.21 85.6206 1104.3 82.3055 1111.62 78.0643C1126.86 69.224 1145.6 53.4578 1152.54 38.03C1154.27 34.174 1155.62 29.536 1155.16 25.3415C1154.07 15.4701 1143.81 3.94887 1132.62 2.55979C1114.71 0.334151 1093.96 9.53244 1076.24 4.35354C1065.42 1.19017 1058.88 -5.47119 1051.22 -12.6812C1049 -14.7706 1045.37 -20.0274 1041.54 -17.8757C1035.11 -14.2493 1044.41 -2.28836 1047.89 0.804972C1053.3 5.61034 1060.6 10.5558 1067.21 13.9643C1074.54 17.7463 1081.59 20.4389 1088.12 25.4115C1092.44 28.6955 1100.4 34.1624 1094.94 39.5125C1083.85 50.3683 1075.23 29.8901 1066.57 28.4621C1058 27.0496 1062.59 44.4735 1053.2 42.1661C1046.93 40.6214 1049.3 32.925 1049.05 28.6994C1048.83 25.073 1048.03 21.3883 1047.18 17.8436C1044.82 8.08888 1030.34 -10.0353 1028.37 -7.37777Z" fill="#F96D55" stroke="#F96D55" stroke-width="1.597" stroke-miterlimit="1.5" stroke-linecap="round" stroke-linejoin="round"/>
<path fill-rule="evenodd" clip-rule="evenodd" d="M982.6 -6.59189C978.342 -1.47914 976.71 4.22506 973.485 9.75804C965.933 22.7384 957.157 35.7693 946.575 46.9753C938.594 55.4265 925.612 66.8699 928.151 79.1965C930.846 92.2897 939.331 88.1069 948.481 94.1846C954.835 98.4063 955.785 104.737 965.121 104.363C973.324 104.037 979.883 97.9199 987.947 97.7682C998.064 97.5814 1007.96 106.854 1015.98 95.7021C1025.96 81.8502 1023.03 38.6252 1022.77 21.7306C1022.73 18.9252 1022.3 -1.39352 1018.59 -2.23397C1011.13 -3.91876 1010.46 7.15497 1010.61 11.2483C1011.09 25.1508 1018.58 48.2515 1009.1 60.5042C1008.06 61.8427 1006.63 62.9478 1005.18 63.9088C989.349 74.4145 995.204 48.5356 990.364 47.0298C984.314 45.1504 976.124 57.8428 971.224 55.2242C966.193 52.5355 971.15 45.4345 971.614 42.0337C972.092 38.5513 968.112 36.6603 969.071 32.8666C970.217 28.3491 974.783 25.0496 977.331 21.1898C980.173 16.8824 982.118 12.0654 983.932 7.34951C984.214 6.61801 984.492 5.87873 984.809 5.15501C985.091 4.51299 985.1 4.51688 985.356 3.94101C986.271 1.90214 987.322 -0.179548 987.743 -2.3585C988.142 -4.44796 986.597 -9.68522 982.6 -6.59189Z" fill="#F96D55" stroke="#F96D55" stroke-width="1.597" stroke-miterlimit="1.5" stroke-linecap="round" stroke-linejoin="round"/>
<path fill-rule="evenodd" clip-rule="evenodd" d="M1003.68 -16.6223C1000.69 -13.8169 999.292 -10.6224 998.845 -7.17499C998.333 -3.23342 999.084 1.03111 1000.13 5.40069C1001.11 9.56016 1002.38 13.8169 1003.12 17.9647C1003.65 20.9491 1003.9 23.8829 1003.6 26.6805C1003.28 29.6649 1002.33 32.4937 1000.46 35.0928C999.027 37.0539 996.979 37.6648 995.147 37.2912C993.359 36.9294 991.731 35.6103 991.124 33.5792C990.763 32.3419 990.846 31.1474 991.163 29.9762C991.493 28.7311 992.083 27.5093 992.569 26.2836C993.029 25.1319 993.407 23.9763 993.315 22.7662C993.255 21.953 993.029 21.2565 992.708 20.6145C991.866 18.9297 990.42 17.6223 989.505 15.8052C988.511 13.8325 988.181 12.1788 988.328 10.638C988.559 8.23333 989.947 6.10885 991.731 3.47854C990.425 5.66528 989.348 7.50571 988.953 9.40452C988.567 11.2527 988.836 13.1515 990.19 15.5056C991.215 17.2916 992.734 18.5445 993.671 20.202C994.079 20.9296 994.379 21.7312 994.496 22.6728C994.813 25.2681 993.224 27.7389 992.656 30.2719C992.443 31.2252 992.395 32.1863 992.73 33.1746C993.19 34.5598 994.288 35.4819 995.52 35.6998C996.697 35.9099 997.951 35.4236 998.832 34.1551C1000.51 31.7933 1001.32 29.2135 1001.64 26.5054C1001.94 23.8401 1001.76 21.0503 1001.34 18.1982C1000.73 14.0581 999.648 9.78973 998.849 5.61858C997.99 1.12449 997.473 -3.26066 998.216 -7.25281C998.867 -10.7352 1000.48 -13.9181 1003.68 -16.6223Z" fill="#F96D55"/>
<path d="M1096.62 41.6369C1096.15 43.1388 1096.33 44.6213 1096.52 46.1466C1096.8 48.4578 1097.17 50.734 1097.99 52.9519C1098.5 54.3721 1099.22 56.4538 1101.33 56.0647C1102.48 55.8507 1103.38 55.0764 1104.19 54.3682C1105.39 53.3254 1107.2 51.7146 1107.13 50.0531C1107.05 48.2438 1103.55 45.4851 1102.06 44.3256C1101.18 43.6408 1099.08 41.4929 1097.59 41.703C1096.28 41.8898 1096.6 43.9326 1096.75 44.7302C1097.27 47.3411 1098.32 49.7808 1099.59 52.162C1099.82 52.5862 1100.38 54.3565 1100.95 54.6017C1101.12 54.6717 1101.55 54.2126 1101.61 54.1503C1102.04 53.66 1102.21 52.983 1102.32 52.3838C1102.67 50.3955 1101.81 48.1971 1100.69 46.5006C1100.25 45.8353 1099.81 45.166 1099.32 44.5357C1099.14 44.3061 1098.95 44.0882 1098.76 43.8703C1098.67 43.7653 1098.35 43.4929 1098.49 43.5513C1099.2 43.8626 1099.85 44.4773 1100.44 44.9365C1101.94 46.0999 1104.16 47.8897 1104.82 49.6251C1105.19 50.5901 1105.17 51.6445 1104.64 52.5472C1104.58 52.6445 1103.88 53.5822 1103.85 53.5628C1103.01 52.7885 1103.26 50.4772 1103.04 49.4773C1102.64 47.6718 1101.56 46.6641 1100.21 45.3761C1099.95 45.1232 1098.8 43.7769 1098.3 43.7886C1098.25 43.7886 1098.26 44.3139 1098.26 44.3334C1098.27 45.0104 1098.47 45.6758 1098.75 46.3022C1099.5 48.0493 1100.47 49.6874 1101.39 51.3605C1101.73 51.9753 1101.96 52.7223 1102.42 53.2748" stroke="#F09977" stroke-width="2.39549" stroke-miterlimit="1.5" stroke-linecap="round" stroke-linejoin="round"/>
<path d="M1096.53 25.1857C1099.07 27.7888 1102.2 30.4852 1105.78 31.8743C1107.42 32.5047 1109.76 32.7926 1110.75 31.1C1112.01 28.9794 1111.66 26.2207 1111.12 23.9834C1110.91 23.1118 1110.6 21.8511 1109.62 21.4076C1107.71 20.5477 1104.7 21.1935 1102.62 21.2325C1100.8 21.2636 1098.63 21.4581 1096.88 21.9406C1096.2 22.1274 1095.29 22.3842 1094.95 23.0029C1094.17 24.3764 1096.1 25.7927 1097.12 26.5359C1099.54 28.3102 1102.59 29.8238 1105.39 31.0572C1107.17 31.8354 1108.9 32.0689 1109.98 30.2985C1110.55 29.3685 1110.53 28.2596 1110.36 27.2402C1109.9 24.6254 1109.2 22.4698 1105.99 21.999C1105.39 21.9095 1104.79 21.9406 1104.19 21.9718C1103.19 22.0223 1102.25 22.1507 1101.27 22.3142C1100.13 22.5009 1098.99 22.6955 1097.84 22.8706C1097.69 22.8939 1096.9 22.9289 1096.81 23.0651C1096.57 23.4075 1097.82 24.5476 1098.05 24.7538C1099.82 26.353 1102.03 27.5203 1104.04 28.8394C1104.69 29.2674 1105.32 29.7226 1106 30.1156C1106.25 30.2596 1106.51 30.3957 1106.77 30.5241C1106.87 30.5708 1107.16 30.7265 1107.07 30.6642C1105.09 29.2557 1103.28 27.746 1101.53 26.104C1100.9 25.5126 1100.25 24.9289 1099.56 24.3803C1099.36 24.2091 1099.14 24.0457 1098.93 23.89C1098.83 23.82 1098.52 23.7422 1098.63 23.6838C1098.78 23.6021 1100.26 24.427 1100.46 24.5281C1102.22 25.4036 1103.89 26.5087 1105.48 27.6176C1106.04 28.0106 1106.59 28.4036 1107.11 28.8432C1107.31 29.0106 1107.51 29.1817 1107.72 29.3374C1107.81 29.4074 1108.06 29.6526 1108 29.5553C1107.07 27.9561 1105.43 26.5047 1104.06 25.2052C1103.59 24.7577 1103.07 24.3569 1102.54 23.9717C1102.37 23.8433 1102.19 23.7227 1102 23.606C1101.93 23.5593 1101.69 23.4581 1101.78 23.4659C1103.77 23.6721 1106.22 24.7616 1107.57 26.1001C1108.02 26.5398 1108.41 27.0145 1108.75 27.5242C1108.88 27.7265 1109.01 27.9289 1109.12 28.139C1109.19 28.2557 1109.35 28.6331 1109.31 28.5047C1108.73 26.925 1107.77 25.5943 1106.71 24.2441C1106.37 23.8122 1106.04 23.5126 1105.54 23.2285C1105.36 23.1274 1105.18 23.0301 1105 22.9328C1104.93 22.8939 1104.72 22.8317 1104.8 22.8239C1106.59 22.6527 1108.19 23.9795 1109.2 25.1235" stroke="#F09977" stroke-width="2.39549" stroke-miterlimit="1.5" stroke-linecap="round" stroke-linejoin="round"/>
<path d="M1066.77 45.5668C1064.59 47.559 1062.31 49.7613 1060.59 52.0842C1059.93 52.9752 1059.11 53.839 1058.91 54.9285C1058.32 57.9207 1062.2 60.0802 1064.74 61.2163C1065.88 61.726 1066.81 62.4575 1068.15 62.1735C1069.51 61.8895 1070.17 60.4031 1070.72 59.4031C1072.62 55.9051 1071.79 52.2476 1070.16 48.8158C1069.63 47.6835 1068.91 44.8119 1067.01 44.8509C1065.11 44.8937 1063.71 47.7963 1062.99 49.0142C1061.48 51.5978 1059.08 54.8701 1061.08 57.7261C1061.62 58.5043 1062.48 59.0841 1063.22 59.6988C1064.12 60.442 1065.43 61.4225 1066.73 61.4381C1068.11 61.4537 1068.99 60.3564 1069.5 59.3331C1070.75 56.8545 1070.29 54.0414 1069.66 51.4967C1069.44 50.5901 1069.28 49.6757 1068.9 48.8041C1068.78 48.5084 1068.63 48.2243 1068.49 47.9325C1068.41 47.7769 1068.32 47.3255 1068.24 47.4734C1067.61 48.594 1067.89 49.9364 1068 51.1192C1068.15 52.5628 1068.15 54.1153 1068.03 55.5588C1067.96 56.4149 1068.02 57.302 1067.85 58.1541C1067.79 58.446 1067.73 58.7417 1067.63 59.0257C1067.58 59.1813 1067.56 59.6016 1067.44 59.477C1067 59.0257 1066.89 57.9284 1066.8 57.3759C1066.51 55.5433 1066.5 53.6717 1066.51 51.8235C1066.52 51.0453 1066.51 50.2671 1066.47 49.4889C1066.47 49.2049 1066.45 48.9208 1066.47 48.6368C1066.47 48.4772 1066.63 48.0609 1066.49 48.1582C1064.38 49.6134 1064.14 53.6367 1064.34 55.7729C1064.42 56.6172 1064.5 57.5004 1064.75 58.3253C1064.82 58.5704 1064.91 58.8195 1065 59.0646C1065.05 59.1852 1065.24 59.5276 1065.15 59.4304C1062.3 56.6094 1061.32 52.6484 1064.25 49.4811" stroke="#F09977" stroke-width="2.39549" stroke-miterlimit="1.5" stroke-linecap="round" stroke-linejoin="round"/>
<path d="M1006.02 68.7767C1004.79 69.3798 1003.44 69.9907 1002.39 70.8467C998.971 73.6482 990.364 82.4418 997.369 85.8503C999.131 86.7102 1001.43 85.2628 1002.6 84.2161C1006.07 81.1227 1006.7 76.8077 1007.71 72.7182C1007.83 72.2202 1008.48 67.6599 1008.07 67.3837C1007.29 66.8467 1003.7 69.621 1003.13 70.1502C1000.81 72.3291 996.189 76.8037 995.672 79.7064C995.373 81.399 995.468 83.8698 997.395 84.7725C998.736 85.399 1000.22 84.5313 1001.22 83.7764C1003.79 81.8426 1005.08 78.7415 1005.88 75.9011C1006.18 74.8622 1006.53 73.8233 1006.62 72.7494C1006.66 72.3447 1006.69 71.94 1006.76 71.5354C1006.78 71.3797 1006.94 70.9556 1006.82 71.0723C1004.39 73.4108 1003.12 76.9711 1001.59 79.7881C1001.1 80.6947 1000.43 81.508 999.921 82.4068C999.691 82.8075 999.478 83.2161 999.24 83.613C999.183 83.7063 999.057 83.9826 999.053 83.8776C998.879 80.7492 1001.03 77.1112 1002.98 74.6598C1003.79 73.6326 1006.08 71.4887 1006.24 70.1074C1006.27 69.8661 1005.78 70.3603 1005.56 70.5042C1005.16 70.7688 1004.8 71.0606 1004.44 71.368C1003.51 72.1696 1002.52 72.9673 1001.67 73.8349C999.192 76.3758 996.019 80.0411 996.722 83.6869" stroke="#F09977" stroke-width="2.39549" stroke-miterlimit="1.5" stroke-linecap="round" stroke-linejoin="round"/>
<path d="M973.029 64.3641C971.849 64.8271 970.677 65.3485 969.566 65.9321C966.523 67.5313 959.158 72.1538 960.195 76.0837C960.668 77.8658 962.608 79.3171 964.136 80.391C965.343 81.247 967.118 82.3404 968.698 82.4843C975.625 83.1069 974.496 72.0371 974.288 68.3757C974.218 67.1344 974.657 64.8582 973.928 63.7259C973.715 63.3952 972.035 64.0761 971.788 64.1851C969.913 65.0138 967.817 67.0021 966.462 68.4146C963.689 71.3172 959.778 73.8269 962.717 77.8813C963.216 78.5739 963.876 79.1848 964.574 79.714C965.356 80.3093 966.293 81.0369 967.257 81.3832C969.674 82.2587 971.992 80.4416 972.73 78.5C974.119 74.8386 973.376 70.2667 972.899 66.4691C972.886 66.3601 972.777 66.6636 972.717 66.7648C972.53 67.0839 972.374 67.4224 972.252 67.7648C971.935 68.6947 971.836 69.7025 971.84 70.6713C971.849 72.9826 973.073 81.4104 967.803 80.2782C966.658 80.033 966.532 78.7607 966.354 77.8852C965.807 75.1966 966.883 72.6985 968.333 70.3912C968.819 69.6208 969.297 68.8465 969.791 68.0761C969.974 67.7998 970.152 67.5196 970.33 67.2395C970.429 67.0838 970.794 66.6675 970.633 66.7765C968.038 68.5196 965.234 71.3523 964.344 74.2433C964.023 75.2899 963.945 76.3561 964.04 77.4378C964.08 77.9202 964.184 78.3872 964.379 78.8385C964.396 78.8852 964.453 79.0214 964.44 78.9708C963.576 75.7335 965.06 73.9242 967.335 71.6597C967.369 71.6246 969.579 69.3017 969.826 69.4651C969.961 69.5546 969.331 71.1305 969.249 71.3639C968.659 73.1149 968.402 74.8852 968.164 76.6946C968.142 76.8541 967.877 79.0214 967.925 79.0214C970.52 79.0914 971.211 73.2355 971.224 71.5235" stroke="#F09977" stroke-width="2.39549" stroke-miterlimit="1.5" stroke-linecap="round" stroke-linejoin="round"/>
<path d="M923.173 7.38837C921.849 7.51288 920.712 7.87865 919.47 8.2872C918.546 8.5907 917.617 8.84749 916.732 9.2327C915.942 9.5751 915.174 9.94864 914.366 10.2599C911.84 11.2288 907.652 12.2249 907.656 15.2443C907.656 15.8824 907.717 16.5594 908.181 17.0769C909.974 19.0769 915.13 20.7578 917.648 18.9057C919.266 17.7112 920.195 15.4427 920.994 13.7346C921.719 12.1782 922.535 10.6412 923.116 9.03037C923.225 8.71909 923.303 8.40392 923.403 8.09653C923.45 7.94867 923.715 7.69576 923.555 7.65296C922.257 7.29888 920.564 8.14713 919.514 8.65685C917.131 9.81636 914.683 10.8747 912.261 11.9564C911.962 12.0887 909.023 13.5361 909.002 13.8046C908.945 14.5167 911.306 14.361 911.645 14.3221C914.006 14.0575 916.289 12.8046 918.034 11.4194C918.581 10.9875 919.106 10.5401 919.648 10.1082C919.891 9.91751 920.135 9.72687 920.382 9.5401C920.451 9.48952 920.638 9.31052 920.595 9.38445C919.253 11.6568 915.829 13.1081 913.32 14.003C912.322 14.361 911.328 14.6957 910.378 15.1548C910.373 15.1548 909.484 15.54 909.501 15.575C909.687 15.9486 910.998 15.9524 911.341 15.9447C913.585 15.9174 915.434 14.8357 917.235 13.7579C917.843 13.4 918.464 13.0575 919.054 12.684C919.232 12.5712 919.41 12.4505 919.579 12.3221C919.674 12.2521 919.857 11.9797 919.857 12.0926C919.922 14.182 915.417 16.5711 913.589 17.1353C912.73 17.3999 911.862 17.4193 910.964 17.4972C910.903 17.501 910.807 17.4621 910.773 17.5127C910.729 17.5828 912.109 17.9096 913.346 17.8551C915.156 17.7695 917.014 17.1976 918.155 15.8785" stroke="#F09977" stroke-width="2.39549" stroke-miterlimit="1.5" stroke-linecap="round" stroke-linejoin="round"/>
<path d="M423.51 660.374C423.51 662.794 423.441 665.215 423.305 667.631C423.168 670.052 422.963 672.465 422.69 674.875C422.421 677.284 422.079 679.687 421.673 682.082C421.264 684.477 420.79 686.861 420.247 689.235C419.705 691.612 419.098 693.971 418.423 696.32C417.748 698.668 417.005 701.002 416.201 703.318C415.394 705.637 414.522 707.935 413.586 710.215C412.65 712.495 411.649 714.754 410.589 716.99C409.524 719.227 408.399 721.439 407.21 723.628C406.025 725.815 404.775 727.979 403.465 730.115C402.155 732.248 400.785 734.355 399.359 736.433C397.929 738.508 396.446 740.553 394.9 742.567C393.357 744.58 391.758 746.558 390.102 748.502C388.447 750.447 386.74 752.356 384.976 754.229C383.216 756.099 381.4 757.932 379.536 759.726C377.672 761.519 375.755 763.273 373.791 764.984C371.826 766.699 369.813 768.366 367.756 769.991C365.699 771.619 363.594 773.2 361.448 774.734C359.299 776.272 357.109 777.76 354.879 779.204C352.65 780.645 350.376 782.039 348.065 783.386C345.755 784.729 343.409 786.026 341.026 787.269C338.644 788.515 336.229 789.707 333.778 790.849C331.328 791.991 328.849 793.078 326.338 794.112C323.827 795.149 321.287 796.129 318.72 797.055C316.153 797.984 313.561 798.852 310.946 799.67C308.33 800.484 305.695 801.244 303.035 801.946C300.375 802.648 297.7 803.297 295.004 803.884C292.312 804.471 289.6 805.004 286.876 805.476C284.152 805.948 281.416 806.362 278.668 806.715C275.92 807.071 273.164 807.367 270.399 807.604C267.631 807.842 264.863 808.019 262.087 808.137C259.315 808.256 256.538 808.318 253.758 808.318C250.982 808.318 248.206 808.256 245.429 808.137C242.653 808.019 239.885 807.842 237.121 807.604C234.357 807.367 231.601 807.071 228.852 806.715C226.104 806.362 223.368 805.948 220.644 805.476C217.916 805.004 215.208 804.471 212.513 803.884C209.817 803.297 207.141 802.648 204.481 801.946C201.825 801.244 199.186 800.484 196.57 799.67C193.955 798.852 191.363 797.984 188.8 797.055C186.233 796.129 183.694 795.149 181.183 794.112C178.672 793.078 176.189 791.991 173.738 790.849C171.291 789.707 168.872 788.515 166.49 787.269C164.107 786.026 161.761 784.729 159.451 783.386C157.141 782.039 154.871 780.645 152.641 779.204C150.407 777.76 148.217 776.272 146.072 774.734C143.923 773.2 141.821 771.619 139.76 769.991C137.703 768.366 135.69 766.699 133.726 764.984C131.765 763.273 129.849 761.519 127.984 759.726C126.116 757.932 124.304 756.099 122.54 754.229C120.777 752.356 119.069 750.447 117.414 748.502C115.759 746.558 114.159 744.58 112.617 742.567C111.074 740.553 109.587 738.508 108.161 736.433C106.731 734.355 105.361 732.248 104.051 730.115C102.741 727.979 101.496 725.815 100.306 723.628C99.1173 721.439 97.9923 719.227 96.9316 716.99C95.8669 714.754 94.8665 712.495 93.9304 710.215C92.9943 707.935 92.1265 705.637 91.3189 703.318C90.5114 701.002 89.7721 698.668 89.0971 696.32C88.4222 693.971 87.8115 691.612 87.2691 689.235C86.7267 686.861 86.2526 684.477 85.8468 682.082C85.437 679.687 85.0995 677.284 84.8263 674.875C84.5531 672.465 84.3482 670.052 84.2116 667.631C84.079 665.215 84.0107 662.794 84.0107 660.374C84.0107 657.953 84.079 655.533 84.2116 653.116C84.3482 650.696 84.5531 648.282 84.8263 645.873C85.0995 643.463 85.437 641.061 85.8468 638.666C86.2526 636.27 86.7267 633.886 87.2691 631.512C87.8115 629.135 88.4222 626.776 89.0971 624.428C89.7721 622.079 90.5114 619.745 91.3189 617.429C92.1265 615.11 92.9943 612.812 93.9304 610.532C94.8665 608.252 95.8669 605.994 96.9316 603.757C97.9923 601.52 99.1173 599.309 100.306 597.119C101.496 594.929 102.741 592.768 104.051 590.632C105.361 588.5 106.731 586.393 108.161 584.315C109.587 582.24 111.074 580.194 112.617 578.181C114.159 576.167 115.759 574.19 117.414 572.245C119.069 570.3 120.777 568.391 122.54 566.518C124.304 564.649 126.116 562.815 127.984 561.022C129.849 559.228 131.765 557.474 133.726 555.763C135.69 554.049 137.703 552.381 139.76 550.753C141.821 549.129 143.923 547.547 146.072 546.013C148.217 544.475 150.407 542.987 152.641 541.543C154.871 540.102 157.141 538.709 159.451 537.361C161.761 536.018 164.107 534.721 166.49 533.479C168.872 532.232 171.291 531.04 173.738 529.899C176.189 528.757 178.672 527.669 181.183 526.635C183.694 525.598 186.233 524.618 188.8 523.693C191.363 522.763 193.955 521.895 196.57 521.078C199.186 520.264 201.825 519.504 204.481 518.801C207.141 518.099 209.817 517.451 212.513 516.864C215.208 516.277 217.916 515.743 220.644 515.272C223.368 514.8 226.104 514.386 228.852 514.033C231.601 513.676 234.357 513.381 237.121 513.143C239.885 512.905 242.653 512.729 245.429 512.61C248.206 512.491 250.982 512.43 253.758 512.43C256.538 512.43 259.315 512.491 262.087 512.61C264.863 512.729 267.631 512.905 270.399 513.143C273.164 513.381 275.92 513.676 278.668 514.033C281.416 514.386 284.152 514.8 286.876 515.272C289.6 515.743 292.312 516.277 295.004 516.864C297.7 517.451 300.375 518.099 303.035 518.801C305.695 519.504 308.33 520.264 310.946 521.078C313.561 521.895 316.153 522.763 318.72 523.693C321.287 524.618 323.827 525.598 326.338 526.635C328.849 527.669 331.328 528.757 333.778 529.899C336.229 531.04 338.644 532.232 341.026 533.479C343.409 534.721 345.759 536.018 348.065 537.361C350.376 538.709 352.65 540.102 354.879 541.543C357.109 542.987 359.299 544.475 361.448 546.013C363.594 547.547 365.699 549.129 367.756 550.753C369.813 552.381 371.826 554.049 373.791 555.763C375.755 557.474 377.672 559.228 379.536 561.022C381.4 562.815 383.216 564.649 384.976 566.518C386.74 568.391 388.447 570.3 390.102 572.245C391.758 574.19 393.357 576.167 394.9 578.181C396.446 580.194 397.929 582.24 399.359 584.315C400.785 586.393 402.155 588.5 403.465 590.632C404.775 592.768 406.025 594.933 407.21 597.119C408.399 599.309 409.524 601.52 410.589 603.757C411.649 605.994 412.65 608.252 413.586 610.532C414.522 612.812 415.394 615.11 416.201 617.429C417.005 619.745 417.748 622.079 418.423 624.428C419.098 626.776 419.705 629.135 420.247 631.512C420.79 633.886 421.264 636.27 421.673 638.666C422.079 641.061 422.421 643.463 422.69 645.873C422.963 648.282 423.168 650.696 423.305 653.116C423.441 655.533 423.51 657.953 423.51 660.374Z" fill="#DF443C"/>
<mask id="mask2_1538_387" style="mask-type:luminance" maskUnits="userSpaceOnUse" x="82" y="510" width="343" height="300">
<path d="M82.5 510.996H425V809.743H82.5V510.996Z" fill="white"/>
</mask>
<g mask="url(#mask2_1538_387)">
<path d="M423.509 660.374C423.509 662.794 423.441 665.215 423.304 667.631C423.168 670.052 422.963 672.465 422.689 674.875C422.42 677.284 422.079 679.687 421.673 682.082C421.263 684.477 420.789 686.861 420.247 689.235C419.704 691.612 419.098 693.971 418.423 696.32C417.748 698.668 417.004 701.002 416.201 703.318C415.393 705.638 414.522 707.936 413.585 710.215C412.649 712.495 411.649 714.754 410.588 716.99C409.524 719.227 408.399 721.439 407.209 723.629C406.024 725.815 404.775 727.98 403.465 730.115C402.155 732.248 400.785 734.355 399.359 736.433C397.928 738.508 396.446 740.553 394.899 742.567C393.356 744.58 391.757 746.558 390.102 748.503C388.447 750.448 386.739 752.356 384.975 754.229C383.216 756.099 381.4 757.932 379.536 759.726C377.671 761.519 375.755 763.274 373.79 764.984C371.826 766.699 369.813 768.367 367.756 769.991C365.699 771.619 363.593 773.2 361.448 774.734C359.298 776.272 357.109 777.76 354.879 779.204C352.649 780.645 350.375 782.039 348.065 783.386C345.755 784.729 343.409 786.026 341.026 787.269C338.644 788.515 336.229 789.707 333.778 790.849C331.327 791.991 328.848 793.078 326.337 794.112C323.826 795.149 321.287 796.129 318.72 797.055C316.153 797.984 313.561 798.852 310.946 799.67C308.33 800.484 305.695 801.244 303.035 801.946C300.375 802.648 297.699 803.297 295.003 803.884C292.312 804.471 289.6 805.004 286.876 805.476C284.152 805.948 281.416 806.362 278.668 806.715C275.919 807.071 273.163 807.367 270.399 807.605C267.631 807.842 264.863 808.019 262.087 808.138C259.314 808.256 256.538 808.318 253.758 808.318C250.982 808.318 248.205 808.256 245.429 808.138C242.653 808.019 239.885 807.842 237.121 807.605C234.357 807.367 231.6 807.071 228.852 806.715C226.104 806.362 223.368 805.948 220.644 805.476C217.916 805.004 215.208 804.471 212.512 803.884C209.816 803.297 207.141 802.648 204.481 801.946C201.825 801.244 199.186 800.484 196.57 799.67C193.955 798.852 191.363 797.984 188.8 797.055C186.233 796.129 183.694 795.149 181.182 794.112C178.671 793.078 176.188 791.991 173.738 790.849C171.291 789.707 168.872 788.515 166.49 787.269C164.107 786.026 161.761 784.729 159.451 783.386C157.141 782.039 154.871 780.645 152.641 779.204C150.407 777.76 148.217 776.272 146.072 774.734C143.922 773.2 141.821 771.619 139.76 769.991C137.703 768.367 135.69 766.699 133.726 764.984C131.765 763.274 129.849 761.519 127.984 759.726C126.116 757.932 124.304 756.099 122.54 754.229C120.777 752.356 119.069 750.448 117.414 748.503C115.758 746.558 114.159 744.58 112.617 742.567C111.074 740.553 109.587 738.508 108.161 736.433C106.731 734.355 105.361 732.248 104.051 730.115C102.741 727.98 101.496 725.815 100.306 723.629C99.1172 721.439 97.9923 719.227 96.9316 716.99C95.8669 714.754 94.8665 712.495 93.9304 710.215C92.9943 707.936 92.1265 705.638 91.3189 703.318C90.5114 701.002 89.7721 698.668 89.0971 696.32C88.4222 693.971 87.8115 691.612 87.2691 689.235C86.7267 686.861 86.2526 684.477 85.8468 682.082C85.437 679.687 85.0995 677.284 84.8263 674.875C84.5531 672.465 84.3482 670.052 84.2116 667.631C84.079 665.215 84.0107 662.794 84.0107 660.374C84.0107 657.953 84.079 655.533 84.2116 653.116C84.3482 650.696 84.5531 648.282 84.8263 645.873C85.0995 643.463 85.437 641.061 85.8468 638.666C86.2526 636.271 86.7267 633.886 87.2691 631.513C87.8115 629.135 88.4222 626.776 89.0971 624.428C89.7721 622.079 90.5114 619.745 91.3189 617.429C92.1265 615.11 92.9943 612.812 93.9304 610.532C94.8665 608.252 95.8669 605.994 96.9316 603.757C97.9923 601.52 99.1172 599.309 100.306 597.119C101.496 594.929 102.741 592.768 104.051 590.632C105.361 588.5 106.731 586.393 108.161 584.315C109.587 582.24 111.074 580.194 112.617 578.181C114.159 576.167 115.758 574.19 117.414 572.245C119.069 570.3 120.777 568.391 122.54 566.518C124.304 564.649 126.116 562.815 127.984 561.022C129.849 559.228 131.765 557.474 133.726 555.763C135.69 554.049 137.703 552.381 139.76 550.753C141.821 549.129 143.922 547.547 146.072 546.013C148.217 544.475 150.407 542.987 152.641 541.543C154.871 540.102 157.141 538.709 159.451 537.361C161.761 536.018 164.107 534.721 166.49 533.479C168.872 532.233 171.291 531.04 173.738 529.899C176.188 528.757 178.671 527.669 181.182 526.635C183.694 525.598 186.233 524.618 188.8 523.693C191.363 522.763 193.955 521.895 196.57 521.078C199.186 520.264 201.825 519.504 204.481 518.801C207.141 518.099 209.816 517.451 212.512 516.864C215.208 516.277 217.916 515.743 220.644 515.272C223.368 514.8 226.104 514.386 228.852 514.033C231.6 513.676 234.357 513.381 237.121 513.143C239.885 512.905 242.653 512.729 245.429 512.61C248.205 512.491 250.982 512.43 253.758 512.43C256.538 512.43 259.314 512.491 262.087 512.61C264.863 512.729 267.631 512.905 270.399 513.143C273.163 513.381 275.919 513.676 278.668 514.033C281.416 514.386 284.152 514.8 286.876 515.272C289.6 515.743 292.312 516.277 295.003 516.864C297.699 517.451 300.375 518.099 303.035 518.801C305.695 519.504 308.33 520.264 310.946 521.078C313.561 521.895 316.153 522.763 318.72 523.693C321.287 524.618 323.826 525.598 326.337 526.635C328.848 527.669 331.327 528.757 333.778 529.899C336.229 531.04 338.644 532.233 341.026 533.479C343.409 534.721 345.759 536.018 348.065 537.361C350.375 538.709 352.649 540.102 354.879 541.543C357.109 542.987 359.298 544.475 361.448 546.013C363.593 547.547 365.699 549.129 367.756 550.753C369.813 552.381 371.826 554.049 373.79 555.763C375.755 557.474 377.671 559.228 379.536 561.022C381.4 562.815 383.216 564.649 384.975 566.518C386.739 568.391 388.447 570.3 390.102 572.245C391.757 574.19 393.356 576.167 394.899 578.181C396.446 580.194 397.928 582.24 399.359 584.315C400.785 586.393 402.155 588.5 403.465 590.632C404.775 592.768 406.024 594.933 407.209 597.119C408.399 599.309 409.524 601.52 410.588 603.757C411.649 605.994 412.649 608.252 413.585 610.532C414.522 612.812 415.393 615.11 416.201 617.429C417.004 619.745 417.748 622.079 418.423 624.428C419.098 626.776 419.704 629.135 420.247 631.513C420.789 633.886 421.263 636.271 421.673 638.666C422.079 641.061 422.42 643.463 422.689 645.873C422.963 648.282 423.168 650.696 423.304 653.116C423.441 655.533 423.509 657.953 423.509 660.374Z" stroke="#DF443C" stroke-width="3.9895" stroke-miterlimit="1.5" stroke-linecap="round" stroke-linejoin="round"/>
</g>
<path fill-rule="evenodd" clip-rule="evenodd" d="M101.138 644.151C114.569 593.859 146.056 546.167 205.103 531.677C221.624 527.622 239.587 528.328 256.53 528.872C285.24 529.797 317.353 534.199 341.705 549.197C347.45 552.737 352.826 557.956 358.097 562.098C363.653 566.46 370.174 570.476 374.778 575.698C383.533 585.643 389.149 597.741 395.196 609.044C398.249 614.745 402.974 619.687 405.819 625.45C413.167 640.333 412.259 661.248 408.76 676.808C405.493 691.348 397.671 702.975 390.134 716.01C377.988 737.012 367.189 759.512 342.456 771.02C333.846 775.025 323.963 777.093 315.104 780.72C294.38 789.209 271.821 796.477 248.635 796.931C240.941 797.082 233.537 794.64 225.991 793.542C209.655 791.168 189.973 791.284 175.807 782.286C165.875 775.98 158.993 767.137 149.929 759.995C141.552 753.389 131.287 748.574 124.059 740.833C113.524 729.56 98.0885 686.731 97.2568 671.499C96.8591 664.187 99.8482 651.394 101.138 644.151Z" fill="#C73321" stroke="#C73321" stroke-width="3.99249" stroke-miterlimit="1.5" stroke-linecap="round" stroke-linejoin="round"/>
<path fill-rule="evenodd" clip-rule="evenodd" d="M161.797 663.089C158.992 665.927 153.251 672.313 158.956 675.068C160.732 675.926 162.753 675.817 164.537 674.989C170.708 672.115 174.585 666.503 180.282 663.136C188.406 658.338 211.756 651.581 216.188 664.169C220.145 675.4 198.86 680.683 192.222 687.055C185.995 693.038 185.581 700.007 182.154 707.185C176.16 719.734 159.257 740.315 141.712 738.791C128.827 737.671 125.951 717.433 123.11 708.99C120.909 702.438 118.361 696.063 116.429 689.429C113.729 680.165 110.406 671.085 110.663 661.374C110.913 651.891 114.645 642.94 117.22 633.849C124.906 606.739 139.085 581.872 161.005 561.882C166.336 557.019 172.114 551.538 178.92 548.354C189.032 543.617 197.811 547.277 206.791 551.833C228.253 562.721 237.084 587.163 239.543 607.891C240.459 615.61 242.942 625.933 237.168 632.682C232.693 637.916 224.472 632.535 221.158 628.778C215.192 622.003 209.736 596.283 194.87 601.721C179.904 607.196 201.049 619.601 198.783 622.097C191.029 630.647 178.269 610.074 170.499 619.669C168.968 621.56 168.285 623.872 168.534 626.185C169.462 634.797 182.488 631.476 182.5 638.172C182.516 645.105 172.644 642.656 169.711 646.722C167.216 650.183 176.566 652.445 175.437 655.741C173.914 660.193 165.228 660.323 161.797 663.089Z" fill="#F96D55" stroke="#F96D55" stroke-width="1.597" stroke-miterlimit="1.5" stroke-linecap="round" stroke-linejoin="round"/>
<path fill-rule="evenodd" clip-rule="evenodd" d="M266.075 600.14C257.525 609.062 275.038 617.375 265.275 627.027C264.239 628.05 262.86 629.149 261.414 629.675C258.268 630.813 255.327 628.623 253.861 626.257C250.868 621.427 251.47 615.545 251.474 610.214C251.482 601.552 249.755 593.192 249.417 584.57C248.975 573.296 252.764 558.187 261.727 549.859C269.831 542.335 281.519 543.311 291.032 547.983C294.315 549.593 297.083 551.927 300.414 553.522C310.108 558.165 320.836 561.72 330.096 567.05C335.673 570.256 340.791 574.506 345.874 578.313C349.554 581.076 353.379 583.46 356.328 586.954C361.306 592.85 363.889 600.475 366.035 607.509C368.14 614.425 371.603 621.347 374.403 628C379.353 639.771 383.604 659.116 374.194 670.123C370.55 674.387 363.62 676.739 358.192 678.396C345.456 682.282 332.885 680.554 319.899 679.16C316.268 678.771 312.033 678.85 308.586 677.715C306.621 677.067 304.857 675.871 303.033 674.96C297.935 672.414 287.666 665.484 286.537 659.786C285.444 654.279 291.768 652.496 296.641 652.831C302.664 653.248 307.883 656.27 313.339 658.237C317.642 659.789 322.242 660.358 326.722 661.302C329.574 661.904 338.373 661.053 338.718 657.535C339.429 650.374 320 652.276 317.875 646.607C316.597 643.203 324.817 641.053 324.725 640.455C324.07 636.194 314.154 637.04 311.663 633.28C308.831 628.998 318.353 627.496 318.132 623.937C317.919 620.523 311.499 621.045 309.618 618.221C306.219 613.121 309.683 607.282 307.163 601.97C305.247 597.939 299.132 596.376 295.347 592.656C292.905 590.26 291.772 584.789 287.344 586.169C275.022 590.012 293.122 606.558 281.965 609.444C276.059 610.967 273.716 605.1 271.181 601.689C270.201 600.371 267.73 598.26 266.075 600.14Z" fill="#F96D55" stroke="#F96D55" stroke-width="1.597" stroke-miterlimit="1.5" stroke-linecap="round" stroke-linejoin="round"/>
<path fill-rule="evenodd" clip-rule="evenodd" d="M266.125 678.436C262.621 683.143 267.001 690.296 268.877 694.885C271.569 701.465 271.87 708.662 271.85 715.602C271.81 728.904 270.042 742.187 270.235 755.517C270.343 763.182 270.946 771.956 277.386 777.759C287.901 787.228 301.89 779.102 312.461 773.872C315.832 772.205 318.596 769.827 321.935 768.113C328.925 764.522 336.418 761.453 343.188 757.527C357.298 749.344 374.643 734.75 381.067 720.468C382.67 716.899 383.923 712.606 383.497 708.723C382.489 699.585 372.991 688.92 362.63 687.635C346.053 685.574 326.84 694.089 310.444 689.295C300.424 686.367 294.369 680.2 287.278 673.526C285.225 671.592 281.862 666.726 278.319 668.718C272.364 672.075 280.974 683.147 284.196 686.01C289.202 690.458 295.96 695.036 302.079 698.191C308.865 701.692 315.39 704.185 321.436 708.788C325.434 711.828 332.806 716.888 327.748 721.841C317.483 731.89 309.508 712.933 301.489 711.612C293.558 710.304 297.8 726.433 289.114 724.297C283.309 722.867 285.502 715.743 285.269 711.831C285.064 708.474 284.329 705.064 283.538 701.782C281.356 692.753 267.953 675.976 266.125 678.436Z" fill="#F96D55" stroke="#F96D55" stroke-width="1.597" stroke-miterlimit="1.5" stroke-linecap="round" stroke-linejoin="round"/>
<path fill-rule="evenodd" clip-rule="evenodd" d="M223.757 679.163C219.816 683.896 218.305 689.176 215.32 694.298C208.329 706.314 200.206 718.376 190.41 728.749C183.022 736.572 171.005 747.165 173.355 758.576C175.85 770.696 183.705 766.824 192.174 772.45C198.056 776.358 198.936 782.218 207.578 781.872C215.171 781.569 221.242 775.907 228.707 775.767C238.072 775.594 247.233 784.177 254.661 773.854C263.894 761.032 261.186 721.02 260.945 705.381C260.905 702.784 260.511 683.975 257.076 683.198C250.165 681.638 249.551 691.889 249.683 695.678C250.129 708.547 257.064 729.931 248.289 741.273C247.329 742.512 245.999 743.535 244.657 744.424C230.005 754.149 235.425 730.194 230.945 728.8C225.344 727.06 217.763 738.809 213.227 736.385C208.57 733.896 213.159 727.323 213.588 724.175C214.03 720.951 210.346 719.201 211.234 715.689C212.295 711.508 216.521 708.453 218.88 704.88C221.511 700.893 223.311 696.434 224.991 692.069C225.252 691.392 225.509 690.707 225.802 690.037C226.063 689.443 226.071 689.447 226.308 688.914C227.156 687.026 228.128 685.099 228.518 683.082C228.888 681.148 227.457 676.3 223.757 679.163Z" fill="#F96D55" stroke="#F96D55" stroke-width="1.597" stroke-miterlimit="1.5" stroke-linecap="round" stroke-linejoin="round"/>
<path fill-rule="evenodd" clip-rule="evenodd" d="M178.849 647.133C182.039 647.569 187.185 646.571 190.637 644.392C192.931 642.94 194.477 640.959 193.975 638.489C193.827 637.725 193.055 636.587 192.3 635.384C191.549 634.184 190.813 632.935 190.556 631.915C190.299 630.91 190.512 630.093 191.239 629.567C192.525 628.63 193.722 628.562 194.851 628.929C196.555 629.484 198.13 631.296 199.717 632.65C200.524 633.334 201.304 633.925 202.199 633.875C202.694 633.846 203.188 633.601 203.738 633.122C204.498 632.474 204.879 631.465 205.088 630.37C205.43 628.612 205.309 626.631 205.136 625.245C205.04 624.456 204.594 622.958 204.871 621.964C205.068 621.261 205.526 620.732 206.418 620.57C208.065 620.274 209.25 621.02 210.05 622.248C210.99 623.692 211.372 625.817 211.52 626.984C211.987 630.77 211.991 635.337 214.04 637.628C215.398 639.144 217.651 639.612 221.533 638.222C217.575 639.886 215.193 639.418 213.678 637.905C211.428 635.661 211.111 630.982 210.408 627.125C210.219 626.07 209.805 624.161 208.893 622.882C208.387 622.172 207.712 621.672 206.743 621.881C206.386 621.96 206.362 622.27 206.354 622.59C206.326 623.433 206.691 624.47 206.784 625.065C207.013 626.567 207.21 628.721 206.876 630.637C206.619 632.11 206.032 633.435 205.024 634.314C203.75 635.405 202.569 635.658 201.476 635.467C200.6 635.312 199.757 634.851 198.953 634.202C198.077 633.504 197.234 632.592 196.378 631.786C195.1 630.586 193.827 629.535 192.183 630.651C191.97 630.795 191.93 631.026 191.942 631.289C191.962 631.627 192.075 632.013 192.236 632.427C193.023 634.437 194.891 636.983 195.092 638.334C195.502 641.168 193.73 643.394 191.022 644.918C187.374 646.971 182.071 647.742 178.849 647.133Z" fill="#F96D55"/>
<path fill-rule="evenodd" clip-rule="evenodd" d="M247.217 637.275C248.916 643.168 252.962 646.424 257.414 646.737C261.668 647.039 266.269 644.63 269.451 639.281C271.897 635.172 271.09 630.1 272.122 625.656C272.597 623.606 273.452 621.686 275.104 620.03C276.835 618.29 279.001 618.139 281.279 618.268C283.203 618.376 285.208 618.711 287.016 618.077C287.763 617.818 288.47 617.375 289.125 616.669C289.551 616.204 289.925 615.733 290.226 615.225C290.519 614.739 290.74 614.216 290.869 613.651C291.098 612.65 290.925 611.259 290.817 609.837C290.704 608.342 290.656 606.815 291.03 605.576C291.46 604.167 292.392 603.094 294.224 602.676C295.011 602.496 295.795 602.492 296.538 602.64C297.277 602.784 297.98 603.087 298.619 603.526C300.483 604.826 301.391 606.505 301.753 608.374C302.127 610.316 301.894 612.469 301.576 614.591C301.271 616.644 300.877 618.661 301.006 620.39C301.102 621.686 302.114 622.259 303.215 622.753C304.75 623.44 306.458 623.988 307.362 625.115C307.856 625.728 308.149 626.498 308.081 627.532C307.964 629.265 306.787 630.36 305.059 631.08C303.336 631.8 301.034 632.139 298.969 632.539C297.538 632.816 296.233 633.108 295.389 633.644C294.344 634.318 293.983 635.114 293.943 635.968C293.882 637.16 294.348 638.442 294.545 639.685C294.778 641.151 294.674 642.552 293.356 643.737C292.601 644.417 291.628 644.792 290.515 644.983C288.796 645.278 286.723 645.134 284.698 645.228C282.842 645.314 281.022 645.599 279.599 646.722C277.277 648.552 276.614 651.138 276.128 653.75C275.602 656.57 275.292 659.422 273.533 661.486C272.247 662.995 270.182 664.09 266.682 664.425C265.915 664.497 265.144 664.49 264.38 664.429C263.617 664.368 262.862 664.249 262.11 664.098C262.862 664.227 263.621 664.328 264.384 664.371C265.144 664.414 265.907 664.4 266.666 664.306C270.065 663.899 272.05 662.801 273.259 661.299C274.919 659.242 275.128 656.44 275.562 653.67C275.996 650.904 276.662 648.174 279.061 646.186C279.844 645.537 280.74 645.116 281.705 644.842C283.894 644.216 286.437 644.371 288.663 644.226C290.214 644.129 291.608 643.899 292.54 643.023C293.689 641.939 293.513 640.646 293.211 639.332C292.85 637.74 292.323 636.108 292.854 634.667C293.123 633.94 293.645 633.252 294.569 632.636C295.525 631.998 297.008 631.595 298.647 631.253C300.588 630.842 302.765 630.504 304.38 629.801C305.53 629.304 306.381 628.613 306.442 627.453C306.514 626.088 305.59 625.486 304.513 624.996C303.063 624.341 301.355 623.851 300.315 622.832C299.716 622.245 299.306 621.503 299.222 620.501C299.077 618.679 299.447 616.543 299.76 614.375C300.041 612.423 300.278 610.438 299.937 608.655C299.656 607.178 298.965 605.842 297.498 604.816C297.084 604.524 296.626 604.322 296.144 604.221C295.666 604.124 295.164 604.128 294.658 604.239C293.545 604.481 292.994 605.147 292.721 605.997C292.38 607.081 292.436 608.425 292.52 609.739C292.621 611.317 292.757 612.855 292.488 613.957C292.315 614.667 292.03 615.318 291.656 615.924C291.295 616.507 290.849 617.055 290.343 617.584C289.479 618.492 288.543 619.046 287.566 619.374C285.538 620.048 283.316 619.713 281.178 619.558C279.318 619.424 277.526 619.435 276.084 620.829C274.557 622.302 273.762 624.035 273.284 625.886C272.13 630.37 272.765 635.521 270.17 639.638C266.695 645.149 261.809 647.544 257.374 647.126C252.846 646.697 248.768 643.322 247.217 637.275Z" fill="#F96D55"/>
<path fill-rule="evenodd" clip-rule="evenodd" d="M243.272 669.879C240.504 672.476 239.21 675.433 238.796 678.624C238.322 682.272 239.017 686.22 239.981 690.265C240.897 694.115 242.067 698.055 242.75 701.895C243.24 704.658 243.473 707.373 243.2 709.963C242.902 712.726 242.018 715.344 240.295 717.75C238.965 719.565 237.069 720.131 235.373 719.785C233.718 719.45 232.211 718.229 231.649 716.349C231.315 715.204 231.392 714.098 231.685 713.014C231.99 711.861 232.537 710.73 232.987 709.596C233.412 708.529 233.762 707.46 233.678 706.34C233.621 705.587 233.412 704.942 233.115 704.348C232.336 702.788 230.998 701.578 230.15 699.896C229.23 698.07 228.925 696.539 229.061 695.113C229.274 692.887 230.56 690.92 232.211 688.485C231.002 690.51 230.005 692.213 229.64 693.971C229.282 695.682 229.531 697.44 230.785 699.619C231.733 701.272 233.139 702.432 234.007 703.966C234.385 704.64 234.662 705.381 234.77 706.253C235.064 708.656 233.593 710.943 233.067 713.287C232.87 714.17 232.826 715.06 233.135 715.974C233.561 717.257 234.578 718.11 235.719 718.312C236.807 718.506 237.969 718.056 238.784 716.882C240.339 714.696 241.09 712.308 241.38 709.801C241.665 707.334 241.492 704.751 241.106 702.111C240.544 698.279 239.539 694.328 238.8 690.466C238.005 686.306 237.527 682.247 238.214 678.552C238.816 675.328 240.307 672.382 243.272 669.879Z" fill="#F96D55"/>
<path fill-rule="evenodd" clip-rule="evenodd" d="M241.649 645.707C242.77 649.514 248.527 653.3 250.174 655.832C250.544 656.401 250.709 656.92 250.64 657.363C250.403 658.89 249.688 659.79 248.744 660.349C247.583 661.033 246.032 661.184 244.465 661.296C243.063 661.397 241.645 661.462 240.556 661.973C238.78 662.809 237.86 664.221 237.032 665.733C236.148 667.358 235.369 669.097 234.007 670.524C232.922 671.662 231.476 672.602 229.355 673.157C228.539 673.362 226.872 673.791 225.546 673.726C224.722 673.683 224.019 673.438 223.557 672.991C222.999 672.451 222.85 671.842 222.987 671.179C223.103 670.635 223.457 670.03 223.975 669.4C224.718 668.492 225.823 667.495 226.795 666.454C227.43 665.777 228.005 665.085 228.358 664.379C228.684 663.727 228.808 663.072 228.463 662.42C227.462 660.504 225.301 659.736 222.962 659.023C220.516 658.281 217.864 657.637 215.803 656.261C214.103 655.126 212.778 653.52 212.259 650.995C212.119 650.296 212.042 649.576 212.115 648.873C212.187 648.142 212.408 647.429 212.858 646.777C214.919 643.798 217.245 643.37 219.531 644.069C222.938 645.113 226.273 648.877 228.406 650.048C229.551 650.674 230.982 651.038 232.324 650.955C233.694 650.876 234.967 650.332 235.755 649.147C235.011 650.39 233.738 650.991 232.344 651.132C230.95 651.276 229.439 650.952 228.218 650.346C226.072 649.277 222.657 645.697 219.274 644.796C217.342 644.281 215.441 644.749 213.83 647.296C213.497 647.814 213.356 648.38 213.324 648.953C213.284 649.558 213.376 650.17 213.521 650.768C214.039 652.907 215.2 654.247 216.675 655.176C219.081 656.686 222.283 657.143 224.967 658.036C227.193 658.782 229.073 659.823 230.106 661.714C230.64 662.711 230.604 663.72 230.19 664.721C229.837 665.582 229.194 666.439 228.439 667.261C227.446 668.348 226.261 669.386 225.461 670.326C225.152 670.686 224.903 671.024 224.782 671.345C224.702 671.561 224.686 671.759 224.859 671.932C225.116 672.191 225.59 672.195 226.088 672.184C227.129 672.159 228.298 671.864 228.909 671.716C230.692 671.295 231.922 670.542 232.854 669.616C234.176 668.305 234.935 666.677 235.819 665.179C236.823 663.479 237.968 661.933 240.034 661.04C241.267 660.511 242.838 660.457 244.405 660.399C245.819 660.349 247.229 660.295 248.298 659.715C249.11 659.279 249.704 658.533 249.957 657.269C250.102 656.556 249.391 655.627 248.402 654.521C246.791 652.727 244.385 650.552 242.882 648.315C242.304 647.447 241.858 646.575 241.649 645.707Z" fill="#F96D55"/>
<path d="M274.296 594.302C271.592 593.142 270.021 590.83 268.723 588.499C266.104 583.799 264.392 578.483 268.739 574.222C269.944 573.04 271.306 572.093 272.817 571.261C273.327 570.98 274.079 570.451 274.726 570.469C276.722 570.526 276.839 573.721 276.911 574.895C277.04 577.02 276.397 579.084 276.144 581.177C275.842 583.687 275.638 586.223 275.505 588.74C275.429 590.156 275.384 591.546 275.208 592.958C275.192 593.102 275.155 594.089 274.85 594.093C272.777 594.114 271.194 591.128 270.318 589.796C268.603 587.188 266.754 583.781 267.425 580.647C267.851 578.666 269.318 576.757 270.595 575.14C271.439 574.07 272.548 571.855 274.292 571.769C275.895 571.69 275.702 574.549 275.666 575.313C275.501 579.037 274.609 582.754 274.075 586.446C273.894 587.689 273.709 588.939 273.605 590.192C273.572 590.563 273.536 590.934 273.532 591.305C273.524 591.525 273.536 592.177 273.528 591.96C273.307 587.833 272.572 583.889 273.086 579.74C273.251 578.407 273.508 577.089 273.677 575.756C273.737 575.302 273.793 574.845 273.834 574.387C273.85 574.214 273.866 574.045 273.878 573.876C273.886 573.775 273.974 573.512 273.894 573.577C273.118 574.193 272.761 575.713 272.548 576.577C271.877 579.304 271.415 582.174 271.648 584.969C271.752 586.208 271.845 587.455 271.893 588.697C271.909 589.133 271.921 589.572 271.953 590.008C271.961 590.174 272.038 590.671 271.989 590.505C271.158 587.487 270.306 584.047 270.567 580.917C270.66 579.84 270.744 578.706 271.037 577.658C271.15 577.258 271.29 576.865 271.411 576.469C271.475 576.264 271.829 575.842 271.592 575.857C271.407 575.864 271.005 576.509 270.933 576.62C270.35 577.46 269.989 578.526 269.703 579.477C268.518 583.482 268.498 587.581 271.27 591.107" stroke="#F09977" stroke-width="2.39549" stroke-miterlimit="1.5" stroke-linecap="round" stroke-linejoin="round"/>
<path d="M286.252 579.894C285.356 577.953 284.709 575.972 284.243 573.919C283.837 572.122 283.576 570.288 284.126 568.495C284.665 566.751 286.231 564.598 288.598 564.958C291.74 565.437 294.146 568.297 293.467 571.135C293.009 573.029 291.611 574.697 290.426 576.271C289.554 577.427 288.574 578.573 287.505 579.585C287.296 579.779 287.095 579.981 286.91 580.197C286.894 580.215 286.653 580.521 286.633 580.51C286.436 580.391 286.296 579.988 286.223 579.808C285.914 579.03 285.773 578.187 285.629 577.377C285.135 574.6 285.062 571.466 286.119 568.783C286.497 567.814 287.421 566.28 288.807 566.431C289.45 566.499 289.924 566.838 290.394 567.212C293.118 569.374 291.41 572.644 289.863 574.953C289.329 575.752 288.747 576.545 288.168 577.323C287.995 577.557 287.822 577.787 287.65 578.025C287.585 578.115 287.525 578.205 287.457 578.288C287.421 578.331 287.332 578.468 287.348 578.414C287.642 577.395 288.272 576.527 288.734 575.572C289.353 574.286 289.767 572.929 289.908 571.531C289.992 570.699 289.988 569.867 289.855 569.039C289.815 568.786 289.779 568.52 289.703 568.275C289.655 568.138 289.578 567.742 289.526 567.875C289.277 568.491 289.401 569.305 289.269 569.95C288.976 571.38 288.566 572.741 288.08 574.124C287.859 574.765 287.706 575.407 287.433 576.033C287.352 576.224 287.268 576.419 287.188 576.61C287.148 576.714 287.127 577.013 287.063 576.919C286.685 576.361 287.027 574.949 287.079 574.337C287.268 572.096 287.919 569.903 288.152 567.666" stroke="#F09977" stroke-width="2.39549" stroke-miterlimit="1.5" stroke-linecap="round" stroke-linejoin="round"/>
<path d="M296.577 587.059C296.187 584.17 296.573 581.303 297.228 578.472C297.517 577.222 297.698 576.052 298.345 574.892C299.241 573.293 300.952 571.463 303.218 572.068C303.966 572.266 304.777 572.705 305.364 573.159C306.135 573.764 307.12 574.528 307.433 575.436C307.827 576.577 307.28 577.806 306.754 578.832C305.533 581.22 303.66 582.974 301.527 584.703C300.43 585.593 299.205 586.389 297.983 587.131C297.859 587.206 296.967 587.84 296.822 587.786C296.557 587.689 296.473 587.116 296.445 586.911C296.296 585.91 296.489 584.836 296.67 583.849C297.047 581.807 297.722 579.945 298.433 577.986C298.807 576.956 299.116 575.76 299.94 574.935C300.832 574.045 302.435 573.055 303.825 573.62C304.191 573.768 304.504 574.035 304.813 574.258C307.827 576.43 304.693 579.83 302.929 581.782C302.547 582.203 302.154 582.614 301.78 583.043C300.952 583.975 299.988 584.88 298.932 585.603C298.707 585.762 298.469 585.895 298.228 586.029C298.104 586.097 297.895 586.36 297.863 586.234C297.678 585.434 298.578 584.382 299.024 583.77C300.41 581.858 302.399 580.291 303.476 578.191C303.797 577.557 304.094 576.92 304.367 576.271C304.379 576.242 304.673 575.677 304.621 575.641C304.146 575.328 303.078 576.433 302.865 576.675C301.583 578.119 300.639 579.823 299.474 581.343C299.152 581.76 298.835 582.178 298.526 582.6C298.409 582.758 298.289 582.909 298.168 583.064C298.088 583.158 297.951 583.457 297.923 583.342C297.738 582.546 298.236 581.353 298.53 580.615C299.337 578.573 300.33 575.216 302.885 574.33" stroke="#F09977" stroke-width="2.39549" stroke-miterlimit="1.5" stroke-linecap="round" stroke-linejoin="round"/>
<path d="M310.691 594.914C311.069 592.357 312.302 589.659 314.536 587.963C316.702 586.317 319.538 586.803 320.96 588.921C322.563 591.305 319.699 592.93 317.754 593.999C317.156 594.331 316.577 594.684 315.906 594.889C315.332 595.062 314.757 595.246 314.174 595.39C313.283 595.613 312.411 595.771 311.491 595.84C311.254 595.858 310.763 595.977 310.579 595.761C309.872 594.943 311.013 593.481 311.499 592.829C311.86 592.342 312.274 591.903 312.708 591.474C314.287 589.929 317.087 586.846 319.558 589.036C320.482 589.85 319.679 591.096 318.988 591.766C317.525 593.185 315.364 594.014 313.335 594.543C312.933 594.648 312.001 595.123 311.567 595.008C311.455 594.979 311.559 594.579 311.571 594.547C311.736 594.053 312.218 593.654 312.68 593.38C314.347 592.386 316.24 592.026 317.79 590.805C318.116 590.545 319.072 589.872 318.939 589.385C318.783 588.824 317.589 589.328 317.332 589.468C315.946 590.214 314.552 591.388 313.58 592.548" stroke="#F09977" stroke-width="2.39549" stroke-miterlimit="1.5" stroke-linecap="round" stroke-linejoin="round"/>
<path d="M317.197 612.703C317.45 611.418 318.442 610.575 319.415 609.66C321.729 607.484 325.304 605.244 328.796 605.212C331.745 605.186 334.746 606.782 335.212 609.577C335.369 610.542 335.353 611.54 335.3 612.512C335.26 613.265 335.12 613.971 334.818 614.677C332.934 619.115 327.048 617.22 323.416 615.931C321.709 615.325 319.929 614.591 318.37 613.712C318.105 613.557 317.116 612.93 317.161 612.577C317.225 612.037 317.852 611.648 318.314 611.374C319.543 610.647 320.917 610.175 322.183 609.509C325.18 607.931 331.006 604.923 333.352 608.896C333.601 609.318 333.806 609.743 333.886 610.215C334.003 610.942 334.047 611.608 333.967 612.343C333.858 613.301 333.866 614.256 333.517 615.178C333.03 616.456 331.299 617.256 329.856 616.982C327.217 616.482 324.846 615.361 322.359 614.454C321.391 614.104 320.596 613.535 319.672 613.11C319.599 613.078 318.808 612.754 318.828 612.703C318.852 612.639 319.266 612.671 319.411 612.685C320.005 612.75 320.592 612.855 321.178 612.981C323.645 613.525 325.891 614.764 328.366 615.329C329.198 615.516 330.134 615.617 330.985 615.491C331.218 615.459 331.757 615.531 331.672 615.333C331.395 614.688 330.435 614.234 329.772 614.007C328.008 613.391 326.216 612.883 324.376 612.473C323.601 612.304 322.838 612.109 322.066 611.929C321.837 611.875 321.612 611.821 321.383 611.763C321.279 611.738 320.965 611.702 321.07 611.677C323.436 611.162 326.265 611.85 328.551 612.415C329.29 612.599 330.013 612.837 330.74 613.053C330.977 613.125 331.214 613.197 331.448 613.287C331.54 613.319 331.717 613.492 331.725 613.402C331.781 612.84 331.038 612.282 330.596 611.994C329.198 611.086 327.57 610.499 325.875 610.222C325.264 610.121 324.638 610.002 324.019 609.952C323.762 609.926 323.509 609.926 323.247 609.926C323.175 609.93 322.958 609.93 323.03 609.934C325.341 609.966 327.747 610.135 329.933 610.852C330.756 611.126 331.572 611.857 332.368 612.051C332.464 612.073 332.327 611.464 332.315 611.439C332.159 611.072 331.809 610.751 331.492 610.477C330.576 609.692 329.125 609.339 327.928 609.048C327.506 608.943 327.072 608.903 326.638 608.839C326.498 608.817 326.361 608.792 326.22 608.77C326.128 608.752 325.851 608.756 325.939 608.723C328.189 607.884 331.918 607.708 333.079 610.056" stroke="#F09977" stroke-width="2.39549" stroke-miterlimit="1.5" stroke-linecap="round" stroke-linejoin="round"/>
<path d="M325.324 629.826C326.871 627.902 329.041 625.81 331.548 624.895C334.713 623.735 337.594 625.104 338.044 628.176C338.124 628.716 337.964 629.232 337.771 629.732C336.457 633.132 331.873 632.214 328.872 631.432C328.052 631.216 325.746 631.086 325.32 630.211C324.898 629.35 326.638 628.205 327.216 627.827C327.719 627.495 328.281 627.261 328.856 627.045C330.84 626.31 335.585 624.585 336.485 627.503C337.474 630.719 332.986 630.964 330.607 630.687C329.969 630.615 328.281 630.543 327.908 629.901C327.59 629.368 328.546 628.565 328.96 628.309C330.298 627.481 332.564 627.261 334.151 627.409C334.573 627.449 335.429 627.452 335.646 627.877C335.967 628.518 335.292 629.217 334.701 629.502C333.5 630.078 331.885 629.779 330.587 629.75C330.109 629.739 329.627 629.75 329.149 629.801C329.008 629.811 328.868 629.829 328.727 629.847C328.663 629.855 328.478 629.909 328.534 629.88C329.045 629.621 329.575 629.383 330.109 629.159C330.491 629.001 330.511 628.994 331.001 628.828C331.487 628.666 332.01 628.569 332.52 628.486C333.476 628.331 334.452 628.4 335.409 628.526" stroke="#F09977" stroke-width="2.39549" stroke-miterlimit="1.5" stroke-linecap="round" stroke-linejoin="round"/>
<path d="M329.307 723.808C328.873 725.198 329.038 726.57 329.21 727.982C329.467 730.122 329.817 732.229 330.568 734.282C331.046 735.596 331.713 737.523 333.666 737.163C334.727 736.965 335.562 736.248 336.31 735.593C337.418 734.627 339.102 733.136 339.034 731.598C338.957 729.923 335.723 727.37 334.341 726.296C333.521 725.663 331.577 723.674 330.203 723.869C328.993 724.042 329.283 725.933 329.427 726.671C329.909 729.088 330.874 731.346 332.051 733.55C332.264 733.943 332.786 735.582 333.316 735.809C333.465 735.874 333.871 735.449 333.927 735.391C334.325 734.937 334.481 734.31 334.578 733.756C334.907 731.915 334.104 729.88 333.067 728.31C332.665 727.694 332.26 727.074 331.802 726.491C331.637 726.278 331.46 726.077 331.287 725.875C331.203 725.778 330.91 725.526 331.034 725.58C331.693 725.868 332.292 726.437 332.842 726.862C334.232 727.939 336.285 729.596 336.896 731.202C337.234 732.095 337.222 733.071 336.727 733.907C336.675 733.997 336.02 734.865 336 734.847C335.221 734.13 335.45 731.991 335.245 731.065C334.875 729.394 333.879 728.461 332.629 727.269C332.384 727.035 331.32 725.789 330.858 725.799C330.817 725.799 330.821 726.286 330.821 726.304C330.833 726.93 331.018 727.546 331.271 728.126C331.966 729.743 332.866 731.26 333.722 732.809C334.036 733.378 334.248 734.069 334.67 734.581" stroke="#F09977" stroke-width="2.39549" stroke-miterlimit="1.5" stroke-linecap="round" stroke-linejoin="round"/>
<path d="M329.218 708.58C331.577 710.989 334.465 713.485 337.788 714.771C339.303 715.355 341.464 715.621 342.388 714.054C343.549 712.091 343.224 709.538 342.726 707.467C342.533 706.66 342.248 705.493 341.336 705.082C339.572 704.286 336.78 704.884 334.863 704.92C333.176 704.949 331.163 705.129 329.544 705.576C328.917 705.749 328.073 705.986 327.756 706.559C327.041 707.831 328.825 709.142 329.765 709.83C332.011 711.472 334.827 712.873 337.426 714.015C339.074 714.735 340.673 714.951 341.673 713.312C342.199 712.452 342.183 711.425 342.023 710.481C341.597 708.061 340.95 706.066 337.977 705.63C337.418 705.547 336.872 705.576 336.31 705.605C335.389 705.651 334.514 705.77 333.61 705.922C332.553 706.094 331.496 706.275 330.436 706.437C330.291 706.458 329.564 706.491 329.479 706.617C329.262 706.934 330.42 707.989 330.629 708.18C332.264 709.66 334.313 710.741 336.173 711.962C336.776 712.358 337.358 712.779 337.985 713.143C338.218 713.276 338.455 713.403 338.696 713.521C338.792 713.565 339.066 713.709 338.981 713.651C337.149 712.347 335.466 710.95 333.847 709.43C333.264 708.882 332.661 708.342 332.031 707.834C331.838 707.676 331.641 707.524 331.44 707.38C331.348 707.316 331.066 707.243 331.167 707.189C331.303 707.114 332.674 707.877 332.858 707.971C334.49 708.781 336.032 709.804 337.503 710.831C338.025 711.195 338.535 711.558 339.017 711.965C339.198 712.12 339.383 712.279 339.576 712.423C339.664 712.488 339.893 712.715 339.841 712.625C338.981 711.144 337.463 709.801 336.193 708.598C335.755 708.184 335.277 707.813 334.787 707.456C334.626 707.337 334.457 707.225 334.289 707.117C334.22 707.074 333.995 706.981 334.08 706.988C335.928 707.179 338.194 708.187 339.443 709.426C339.853 709.833 340.219 710.273 340.536 710.744C340.657 710.932 340.773 711.119 340.878 711.313C340.938 711.422 341.091 711.771 341.05 711.652C340.516 710.19 339.624 708.958 338.644 707.708C338.326 707.308 338.021 707.031 337.559 706.768C337.394 706.674 337.23 706.584 337.061 706.494C337.001 706.458 336.804 706.401 336.876 706.393C338.531 706.235 340.014 707.463 340.95 708.522" stroke="#F09977" stroke-width="2.39549" stroke-miterlimit="1.5" stroke-linecap="round" stroke-linejoin="round"/>
<path d="M301.668 727.445C299.651 729.29 297.546 731.328 295.951 733.478C295.336 734.303 294.585 735.103 294.392 736.111C293.854 738.881 297.446 740.88 299.796 741.932C300.849 742.404 301.712 743.081 302.954 742.818C304.207 742.555 304.818 741.179 305.324 740.253C307.092 737.015 306.317 733.63 304.814 730.453C304.316 729.405 303.657 726.747 301.893 726.783C300.133 726.822 298.836 729.509 298.177 730.637C296.775 733.028 294.557 736.057 296.401 738.701C296.903 739.421 297.699 739.958 298.39 740.527C299.221 741.215 300.435 742.123 301.632 742.137C302.91 742.152 303.729 741.136 304.203 740.189C305.352 737.894 304.926 735.29 304.348 732.935C304.143 732.095 303.994 731.249 303.645 730.442C303.528 730.168 303.392 729.906 303.263 729.635C303.191 729.491 303.11 729.074 303.03 729.21C302.452 730.248 302.705 731.49 302.813 732.585C302.946 733.922 302.95 735.359 302.841 736.695C302.777 737.487 302.829 738.309 302.673 739.097C302.62 739.367 302.56 739.641 302.472 739.904C302.419 740.048 302.403 740.437 302.295 740.322C301.889 739.904 301.785 738.888 301.704 738.377C301.431 736.68 301.423 734.948 301.435 733.237C301.443 732.517 301.427 731.796 301.399 731.076C301.391 730.813 301.379 730.55 301.391 730.287C301.395 730.14 301.544 729.754 301.411 729.844C299.462 731.191 299.237 734.916 299.426 736.893C299.499 737.675 299.575 738.492 299.8 739.256C299.868 739.483 299.949 739.713 300.033 739.94C300.077 740.052 300.258 740.369 300.17 740.279C297.53 737.667 296.626 734.001 299.338 731.069" stroke="#F09977" stroke-width="2.39549" stroke-miterlimit="1.5" stroke-linecap="round" stroke-linejoin="round"/>
<path d="M245.442 748.93C244.301 749.488 243.047 750.054 242.079 750.846C238.913 753.44 230.946 761.58 237.43 764.735C239.062 765.531 241.187 764.191 242.276 763.222C245.486 760.359 246.068 756.364 247.001 752.579C247.117 752.118 247.712 747.896 247.334 747.641C246.611 747.144 243.288 749.712 242.766 750.202C240.616 752.219 236.338 756.361 235.86 759.048C235.582 760.614 235.671 762.902 237.455 763.737C238.696 764.317 240.07 763.514 240.998 762.815C243.373 761.025 244.566 758.154 245.313 755.525C245.586 754.563 245.908 753.602 245.996 752.608C246.028 752.233 246.06 751.858 246.121 751.484C246.145 751.34 246.293 750.947 246.181 751.055C243.927 753.22 242.754 756.516 241.336 759.123C240.882 759.962 240.263 760.715 239.793 761.547C239.58 761.918 239.383 762.296 239.162 762.664C239.11 762.75 238.993 763.006 238.989 762.909C238.829 760.013 240.821 756.645 242.621 754.376C243.377 753.425 245.498 751.441 245.643 750.162C245.671 749.939 245.217 750.396 245.016 750.529C244.646 750.774 244.305 751.044 243.975 751.329C243.115 752.071 242.199 752.809 241.416 753.613C239.118 755.964 236.181 759.357 236.832 762.732" stroke="#F09977" stroke-width="2.39549" stroke-miterlimit="1.5" stroke-linecap="round" stroke-linejoin="round"/>
<path d="M214.899 744.846C213.806 745.275 212.721 745.757 211.693 746.297C208.876 747.778 202.058 752.057 203.019 755.695C203.457 757.344 205.252 758.688 206.667 759.682C207.784 760.474 209.427 761.486 210.889 761.619C217.302 762.196 216.257 751.949 216.064 748.559C216 747.41 216.406 745.303 215.731 744.255C215.534 743.949 213.979 744.579 213.75 744.68C212.014 745.447 210.074 747.288 208.82 748.595C206.253 751.282 202.633 753.605 205.353 757.359C205.815 758 206.426 758.565 207.073 759.055C207.796 759.606 208.664 760.28 209.555 760.6C211.793 761.411 213.939 759.729 214.622 757.931C215.907 754.542 215.22 750.31 214.778 746.795C214.766 746.694 214.666 746.975 214.61 747.068C214.437 747.364 214.292 747.677 214.18 747.994C213.886 748.855 213.794 749.788 213.798 750.684C213.806 752.824 214.939 760.625 210.062 759.577C209.001 759.35 208.884 758.173 208.72 757.362C208.214 754.873 209.21 752.561 210.552 750.425C211.002 749.712 211.444 748.995 211.902 748.282C212.071 748.026 212.235 747.767 212.4 747.508C212.492 747.364 212.83 746.978 212.681 747.079C210.279 748.693 207.683 751.315 206.86 753.991C206.562 754.96 206.49 755.947 206.578 756.948C206.614 757.395 206.711 757.827 206.892 758.245C206.908 758.288 206.96 758.414 206.948 758.367C206.148 755.37 207.522 753.696 209.628 751.599C209.66 751.567 211.705 749.417 211.934 749.568C212.058 749.651 211.476 751.109 211.4 751.326C210.853 752.946 210.616 754.585 210.395 756.26C210.375 756.408 210.13 758.414 210.174 758.414C212.577 758.479 213.216 753.058 213.228 751.473" stroke="#F09977" stroke-width="2.39549" stroke-miterlimit="1.5" stroke-linecap="round" stroke-linejoin="round"/>
<path d="M168.748 692.105C167.523 692.22 166.47 692.559 165.321 692.937C164.465 693.218 163.605 693.455 162.786 693.812C162.055 694.129 161.343 694.475 160.596 694.763C158.258 695.66 154.381 696.582 154.385 699.377C154.385 699.968 154.441 700.594 154.871 701.073C156.53 702.925 161.303 704.481 163.633 702.766C165.132 701.66 165.992 699.561 166.731 697.979C167.402 696.539 168.157 695.116 168.696 693.625C168.796 693.337 168.869 693.045 168.961 692.76C169.005 692.623 169.25 692.389 169.102 692.35C167.9 692.022 166.333 692.807 165.361 693.279C163.155 694.352 160.889 695.332 158.648 696.333C158.37 696.456 155.65 697.796 155.63 698.044C155.578 698.703 157.764 698.559 158.077 698.523C160.263 698.278 162.376 697.118 163.991 695.836C164.497 695.436 164.983 695.022 165.486 694.622C165.711 694.446 165.936 694.269 166.165 694.097C166.229 694.05 166.402 693.884 166.361 693.953C165.12 696.056 161.95 697.399 159.628 698.228C158.704 698.559 157.784 698.869 156.904 699.294C156.9 699.294 156.076 699.651 156.092 699.683C156.265 700.029 157.478 700.032 157.796 700.025C159.873 700 161.584 698.999 163.252 698.001C163.814 697.67 164.389 697.353 164.935 697.007C165.1 696.902 165.265 696.791 165.421 696.672C165.51 696.607 165.678 696.355 165.678 696.459C165.739 698.394 161.568 700.605 159.877 701.127C159.081 701.372 158.278 701.39 157.446 701.462C157.39 701.466 157.302 701.43 157.269 701.477C157.229 701.541 158.507 701.844 159.652 701.794C161.327 701.714 163.047 701.185 164.104 699.964" stroke="#F09977" stroke-width="2.39549" stroke-miterlimit="1.5" stroke-linecap="round" stroke-linejoin="round"/>
<path d="M158.016 652.719C154.143 651.469 149.948 650.623 145.806 650.969C143.785 651.138 141.792 651.39 140.647 653.083C139.454 654.848 139.683 656.858 139.695 658.828C139.707 660.611 139.936 662.563 141.258 663.993C142.556 665.397 144.476 664.601 146.019 663.957C149.663 662.426 153.412 659.789 155.862 656.886C156.075 656.638 156.26 656.364 156.461 656.108C156.73 655.774 158.976 653.44 158.61 653.015C157.763 652.038 155.902 651.88 154.633 651.794C151.563 651.585 148.245 651.307 145.183 651.646C143.801 651.794 142.287 651.97 141.503 653.137C139.92 655.489 141.342 658.417 141.547 660.866C141.567 661.075 141.371 663.078 141.68 663.233C142.616 663.712 144.344 663.125 145.219 662.772C147.943 661.666 150.378 659.455 152.6 657.697C153.544 656.948 154.412 656.126 155.396 655.417C155.73 655.176 156.071 654.934 156.369 654.657C156.525 654.516 157.031 654.2 156.81 654.207C155.561 654.261 154.267 654.985 153.271 655.601C151.081 656.955 149.056 658.54 146.991 660.042C146.148 660.654 145.316 661.259 144.372 661.742C144.235 661.814 143.749 662.17 143.592 662.145C143.335 662.102 143.829 661.72 143.974 661.522C144.557 660.712 145.392 660.099 146.156 659.437C147.943 657.888 149.916 656.4 151.973 655.136C152.849 654.599 153.781 654.142 154.665 653.612C154.693 653.594 155.372 653.22 155.364 653.195C155.284 652.997 154.926 653.353 154.705 653.44C154.131 653.659 153.56 653.893 152.994 654.131C150.362 655.244 147.293 656.411 145.007 658.053C144.424 658.471 143.87 658.929 143.323 659.382C143.118 659.548 142.913 659.717 142.72 659.894C142.6 660.009 142.307 660.405 142.383 660.261C143.624 657.863 146.352 655.928 148.703 654.43C149.47 653.94 150.306 653.515 151.158 653.155C151.431 653.04 151.716 652.932 151.997 652.834C152.158 652.777 152.656 652.669 152.483 652.669C149.896 652.665 146.939 653.778 144.826 655.071C144.123 655.503 143.516 656.029 142.897 656.551C142.68 656.732 142.463 656.908 142.258 657.095C142.17 657.178 141.933 657.448 142.017 657.362C143.174 656.108 144.36 654.761 145.919 653.879C146.469 653.562 147.056 653.281 147.638 653.015C147.891 652.899 148.478 652.953 148.414 652.705C148.353 652.46 146.469 652.662 146.248 652.694C144.271 652.989 142.162 654.178 141.395 655.907" stroke="#F09977" stroke-width="2.39549" stroke-miterlimit="1.5" stroke-linecap="round" stroke-linejoin="round"/>
<path d="M145.79 641.979C143.898 640.729 140.435 639.464 138.02 639.518C135.907 639.565 134.476 641.507 134.83 643.329C135.095 644.669 136.618 645.461 137.98 645.688C140.431 646.095 142.998 644.986 145.36 644.532C146.345 644.341 147.333 644.179 148.321 644.006C148.398 643.992 149.073 643.945 149.109 643.826C149.378 643.019 148.02 642.209 147.421 641.914C145.228 640.833 142.648 640.167 140.174 639.893C140.041 639.879 137.237 639.591 137.209 640.109C137.172 640.689 138.763 641.327 139.165 641.485C140.68 642.083 142.355 642.353 143.97 642.634C144.428 642.713 145.493 643.099 145.955 642.962C146.248 642.879 145.738 642.908 145.027 642.807C144.284 642.702 143.54 642.648 142.805 642.501C141.226 642.187 139.643 641.943 138.044 641.734C137.598 641.672 136.783 641.442 136.341 641.586C136.088 641.665 137.353 642.861 137.446 642.919C138.659 643.725 140.415 644.039 141.905 644.114C142.335 644.136 142.761 644.129 143.191 644.075C143.436 644.046 144.167 643.913 143.926 643.97C141.757 644.464 138.221 645.533 136.325 643.923" stroke="#F09977" stroke-width="2.39549" stroke-miterlimit="1.5" stroke-linecap="round" stroke-linejoin="round"/>
<path d="M163.714 618.513C161.379 615.379 157.804 613.009 154.272 611.035C152.263 609.912 150.057 608.982 148.511 611.244C146.65 613.971 146.124 619.064 149.929 620.677C152.227 621.653 155.128 621.409 157.595 621.182C159.342 621.023 161.15 620.847 162.826 620.346C163.123 620.256 164.256 620.047 164.429 619.734C165.152 618.459 162.492 616.669 161.6 615.963C159.407 614.234 156.811 612.53 154.208 611.331C153.565 611.035 152.311 610.218 151.508 610.365C150.515 610.546 149.764 611.795 149.334 612.53C148.217 614.45 147.727 617.558 149.933 619.028C151.078 619.791 152.709 619.946 154.079 620.098C155.682 620.281 157.289 620.364 158.896 620.224C159.471 620.17 160.037 620.09 160.596 619.95C160.845 619.889 161.508 619.91 161.335 619.737C160.845 619.266 159.539 619.233 158.892 619.118C156.743 618.729 154.569 618.801 152.46 618.217C152.014 618.091 150.122 617.828 149.897 617.259C149.824 617.076 150.286 617.072 150.499 617.022C151.054 616.881 151.652 616.881 152.227 616.91C154.569 617.025 156.96 617.648 159.258 618.07C159.853 618.181 160.447 618.257 161.05 618.333C161.219 618.351 161.391 618.376 161.56 618.401C161.656 618.419 161.922 618.531 161.853 618.462C160.033 616.629 156.209 615.768 153.653 615.217C152.717 615.012 151.757 614.907 150.821 614.713C150.475 614.641 150.138 614.558 149.792 614.486C149.66 614.457 149.262 614.439 149.39 614.399C150.467 614.057 151.789 614.212 152.898 614.309C155.421 614.54 157.643 615.372 160.074 615.912C160.182 615.937 159.877 615.804 159.78 615.747C159.399 615.534 159.431 615.556 159.085 615.354C158.45 614.979 157.804 614.616 157.133 614.288C156.345 613.906 155.493 613.603 154.75 613.157C153.444 612.368 152.207 611.244 150.773 612.278C149.64 613.096 148.876 614.331 149.085 615.675C149.322 617.194 151.44 617.619 152.689 616.744C153.541 616.15 153.541 614.85 153.681 613.996C153.73 613.704 153.874 613.297 153.758 613.002C153.364 612.004 151.556 612.602 151.018 613.117C150.688 613.434 150.415 613.805 150.202 614.194C149.861 614.81 149.804 615.408 149.732 616.074" stroke="#F09977" stroke-width="2.39549" stroke-miterlimit="1.5" stroke-linecap="round" stroke-linejoin="round"/>
<path d="M169.604 608.785C167.76 608.691 166.305 607.726 164.955 606.681C162.259 604.585 159.218 600.594 160.909 597.313C161.283 596.593 161.902 596.07 162.529 595.526C163.208 594.928 164.051 593.974 165.02 593.747C166.402 593.423 167.527 595.058 168.177 595.872C170.295 598.523 171.408 602.229 170.905 605.457C170.765 606.357 170.524 607.225 170.311 608.111C170.234 608.417 170.178 608.893 169.797 609.029C168.161 609.609 166.498 607.747 165.711 606.742C164.545 605.262 162.83 603.576 162.32 601.786C161.954 600.486 162.215 599.081 162.701 597.846C163.019 597.028 163.521 595.8 164.578 595.501C165.582 595.217 166.57 596.499 167.016 597.108C168.467 599.099 169.122 601.639 169.17 603.998C169.186 604.844 169.19 605.608 168.961 606.429C168.949 606.476 168.84 607.066 168.744 607.088C168.555 607.131 168.443 606.861 168.322 606.724C167.936 606.299 167.711 605.77 167.555 605.248C166.948 603.223 166.675 601.113 166.165 599.063C166.016 598.462 165.803 597.889 165.506 597.331C165.401 597.133 165.377 596.614 165.18 596.744C164.578 597.147 164.594 598.116 164.65 598.714C164.811 600.338 165.168 601.988 165.775 603.526C165.988 604.073 166.173 604.628 166.442 605.158C166.546 605.366 166.659 605.572 166.783 605.77C166.823 605.838 166.988 605.986 166.904 605.972C166.313 605.864 165.614 604.851 165.297 604.43C164.244 603.029 163.842 601.487 163.617 599.834C163.537 599.243 163.408 598.566 163.613 597.979" stroke="#F09977" stroke-width="2.39549" stroke-miterlimit="1.5" stroke-linecap="round" stroke-linejoin="round"/>
<path d="M174.835 586.558C174.762 589.05 175.715 591.514 176.45 593.88C177 595.659 177.269 597.781 178.788 599.171C179.748 600.05 180.946 600.187 182.255 600.327C184.718 600.59 187.04 600.385 189.351 599.531C190.468 599.121 191.371 598.768 192.059 597.828C193.34 596.077 191.942 594.449 190.524 593.214C189.62 592.425 188.752 591.593 187.703 590.948C185.409 589.536 182.669 588.636 180.078 587.779C178.708 587.325 177.358 586.806 176.004 586.316C175.859 586.266 174.899 585.873 174.875 585.909C174.023 587.21 175.558 589.565 176.028 590.808C176.984 593.347 178.013 597.259 180.99 598.519C181.862 598.89 182.87 598.865 183.81 598.89C184.714 598.919 185.55 598.941 186.446 598.825C187.571 598.678 189.805 598.462 190.588 597.543C191.271 596.743 190.134 595.378 189.652 594.741C187.788 592.259 184.598 590.7 181.725 589.327C180.721 588.848 179.736 588.283 178.696 587.869C178.338 587.728 177.973 587.591 177.607 587.469C177.458 587.418 177.109 587.213 177.145 587.354C177.382 588.24 178.575 589.028 179.29 589.598C181.235 591.139 183.404 592.486 185.53 593.822C186.39 594.355 187.229 594.914 188.093 595.443C188.435 595.652 188.792 595.843 189.146 596.034C189.274 596.106 189.668 596.322 189.539 596.246C186.771 594.705 183.738 593.588 181.211 591.708C180.291 591.024 179.415 590.3 178.483 589.626C178.157 589.389 177.848 589.14 177.523 588.899C177.418 588.823 177.161 588.564 177.189 588.686C177.414 589.688 178.194 590.581 178.868 591.37C180.431 593.199 182.336 594.647 184.553 595.807C185.558 596.333 186.586 596.841 187.635 597.284C187.944 597.413 188.258 597.529 188.575 597.633C188.728 597.68 189.182 597.828 189.033 597.77C186.462 596.776 183.517 595.919 181.319 594.305C180.468 593.682 179.776 592.904 179.009 592.198C178.804 592.011 178.599 591.823 178.39 591.636C178.274 591.528 178.109 591.175 178.033 591.312C177.82 591.69 178.483 592.731 178.684 593.019C179.889 594.734 181.838 595.951 183.698 597.024C184.244 597.341 184.815 597.597 185.413 597.824C185.634 597.907 185.855 597.986 186.084 598.058C186.177 598.083 186.462 598.163 186.365 598.137C184.537 597.687 182.288 597.122 180.797 596.012C180.287 595.634 179.861 595.195 179.431 594.752C179.258 594.575 179.089 594.395 178.921 594.222C178.852 594.154 178.704 593.927 178.724 594.017C178.893 594.899 179.628 595.584 180.339 596.153C181.842 597.352 183.412 598.368 185.393 598.818" stroke="#F09977" stroke-width="2.39549" stroke-miterlimit="1.5" stroke-linecap="round" stroke-linejoin="round"/>
<mask id="mask3_1538_387" style="mask-type:luminance" maskUnits="userSpaceOnUse" x="77" y="461" width="317" height="289">
<path d="M77.5 461.689H393.737V749.568H77.5V461.689Z" fill="white"/>
</mask>
<g mask="url(#mask3_1538_387)">
<path d="M362.591 608.135C360.677 618.294 356.406 629.423 349.241 637.656V637.66C342.201 645.741 332.374 651.041 319.254 649.905C312.622 649.329 295.061 643.531 289.162 648.185C285.313 651.22 290.317 658.523 291.81 661.57C302.044 682.457 289.696 705.418 267.47 714.538C265.36 715.402 263.186 716.196 260.951 716.915C250.143 720.413 237.899 722.238 225.117 722.238C212.734 722.238 200.252 720.53 188.008 717.165C168.95 711.919 152.253 703.126 139.722 691.721C132.734 685.36 127.326 678.445 123.88 671.558C122.166 668.134 120.933 664.722 120.234 661.383C119.761 659.138 119.536 656.885 119.54 654.656V654.652C119.562 647.169 122.274 639.979 127.682 634.504C130.456 631.691 133.937 629.333 138.129 627.617C140.451 626.664 142.921 625.948 145.013 624.633C147.101 623.314 148.807 621.209 148.642 618.925C148.399 615.512 144.445 613.462 140.985 612.03C137.083 610.419 133.477 608.839 130.182 607.139H130.178C121.124 602.466 114.479 596.863 110.907 586.995C110.482 585.816 110.1 584.575 109.761 583.264C107.856 575.886 107.652 568.26 108.689 560.758C109.432 555.416 110.799 550.136 112.635 545.054C117.331 533.148 124.822 522.794 134.306 515.105C144.097 507.171 156.276 500.424 169.527 495.6C177.739 492.611 186.124 490.491 194.024 489.37C198.325 488.755 202.474 488.444 206.38 488.444C215.608 488.444 227.535 490.382 233.511 497.37C241.007 506.136 245.065 514.3 246.176 525.121C246.476 528.035 246.918 531.226 249.301 533.226C253.546 536.79 257.279 531.311 259.557 528.728C262.478 525.409 264.861 522.977 268.976 520.416C282.938 511.759 302.656 503.576 319.614 510.471C319.657 510.49 319.701 510.51 319.744 510.525C342.448 519.833 353.954 544.7 359.709 564.929C364.106 580.4 365.078 594.937 362.591 608.135ZM388.598 558.319C366.458 480.448 300.091 462.834 263.511 499.117C251.315 443.775 162.574 456.129 114.314 495.257C69.948 531.229 64.106 602.217 108.182 620.598C66.2588 650.348 98.5244 720.53 179.267 742.74C264.527 766.191 346.32 719.849 317.326 666.897C356.528 685.745 410.742 636.185 388.598 558.319Z" fill="#75A81E"/>
<path d="M384.167 611.415C380.682 629.049 370.838 649.418 352.908 658.842C347.787 661.535 342.088 663.041 336.129 662.846C331.419 662.695 327.413 660.66 322.886 660.2C318.763 659.788 313.824 658.944 312.088 660.951C309.149 664.34 311.328 672.119 312.691 676.605C316.107 687.842 313.993 702.005 306.341 711.702C301.693 717.593 295.842 722.655 289.219 726.744C283.594 730.215 277.509 733.063 271.155 735.304C255.143 740.958 237.734 743.02 220.595 742.293C212.613 741.954 204.666 740.989 196.849 739.514C174.145 735.215 151.962 726.639 133.78 713.581C124.913 707.215 116.992 699.71 110.886 691.095C103.898 681.255 98.8673 669.733 98.264 657.986C97.9645 652.22 98.7935 646.376 101.207 640.998C103.121 636.73 107.695 631.107 111.28 627.835C113.906 625.438 123.702 621.606 122.713 619.259C121.84 617.185 113.711 614.742 110.022 613.084C72.205 596.061 85.4515 546.786 102.131 520.798C109.102 509.934 119.106 500.821 130.291 493.405C155.569 476.65 197.075 461.588 228.468 471.289C238.151 474.281 245.373 480.576 249.922 488.716C252.122 492.658 253.676 496.872 254.965 501.117C255.708 503.58 255.438 505.771 256.467 508.234C259.045 514.428 267.379 505.627 270.022 503C277.739 495.331 288.55 490.584 299.913 489.234C305.677 488.545 311.571 488.716 317.279 489.751C343.299 494.463 360.803 516.763 371.554 537.031C383.116 558.821 389.097 586.415 384.167 611.415ZM388.598 558.319C366.458 480.448 300.091 462.834 263.511 499.117C251.315 443.775 162.574 456.129 114.314 495.257C69.948 531.229 64.106 602.217 108.182 620.598C66.2588 650.348 98.5244 720.53 179.267 742.74C264.527 766.191 346.32 719.853 317.326 666.901C356.528 685.745 410.742 636.185 388.598 558.319Z" fill="#5B7A0D"/>
</g>
</g>
<defs>
<clipPath id="clip0_1538_387">
<rect width="1200" height="765" fill="white"/>
</clipPath>
</defs>
</svg>
