<svg width="424" height="433" viewBox="0 0 424 433" fill="none" xmlns="http://www.w3.org/2000/svg">
<mask id="mask0_951_480" style="mask-type:luminance" maskUnits="userSpaceOnUse" x="133" y="173" width="66" height="87">
<path d="M198.508 173.833H133.808V259.167H198.508V173.833Z" fill="white"/>
</mask>
<g mask="url(#mask0_951_480)">
<path d="M137.704 250.946C137.658 250.873 137.614 250.785 137.576 250.704C137.426 250.415 137.289 250.119 137.169 249.815C137.148 249.79 137.137 249.763 137.129 249.721C137.121 249.721 137.121 249.721 137.125 249.706C137.117 249.706 137.117 249.706 137.117 249.696V249.685C137.039 249.5 136.968 249.313 136.899 249.127C136.825 248.917 136.75 248.704 136.679 248.488C136.608 248.271 136.55 248.058 136.495 247.842C136.432 247.594 136.37 247.346 136.323 247.096C135.986 245.433 135.967 243.775 136.288 242.296C136.349 242.029 136.42 241.76 136.498 241.502C136.531 241.408 136.561 241.317 136.597 241.217C136.839 240.577 137.153 239.977 137.548 239.456C137.788 239.14 138.045 238.863 138.328 238.623C139.098 237.948 140.019 237.571 141.029 237.498H141.037C141.49 237.467 141.965 237.492 142.455 237.59C143.981 237.879 145.249 237.973 146.526 236.288C146.757 236.015 146.949 235.679 147.069 235.292C147.114 235.163 147.148 235.023 147.18 234.888C147.196 234.817 147.211 234.744 147.219 234.671C147.246 234.49 147.267 234.3 147.27 234.098C147.294 233.127 147.016 232.098 146.616 231.127C146.534 230.925 146.447 230.729 146.354 230.533C145.712 229.169 144.873 227.981 144.392 227.346L144.33 227.273L134.185 216.315L142.462 202.975C142.611 202.777 142.772 202.577 142.936 202.381C143.1 202.183 143.272 201.988 143.448 201.796C143.688 201.544 143.934 201.3 144.177 201.073C144.262 200.99 144.349 200.919 144.434 200.846C144.608 200.702 144.78 200.567 144.944 200.442C145.445 200.092 145.907 199.875 146.28 199.89C146.498 199.9 146.648 199.994 146.78 200.19C147.532 201.181 147.524 201.988 147.328 203.744C146.968 206.99 147.658 210.027 149.212 212.077C151.495 215.09 155.167 215.431 158.455 213.344C158.68 213.204 158.894 213.054 159.109 212.894C159.341 212.723 159.564 212.544 159.791 212.346C160.178 212.021 160.554 211.648 160.918 211.242C161.177 210.952 161.436 210.642 161.682 210.317C165.26 205.594 165.836 198.738 163.061 194.01C161.585 191.504 159.471 190.554 156.6 191.106C156.436 191.138 156.278 191.169 156.127 191.204C154.971 191.448 154.576 191.483 154.013 190.74C153.545 190.065 154.294 188.115 155.778 186.24L166.275 174.042L175.543 187.925C177.786 191.019 179.993 191.94 181.321 190.352C181.932 189.546 182.191 188.771 182.273 187.992C182.355 187.21 182.26 186.425 182.167 185.629C182.143 185.444 182.12 185.248 182.096 185.042C181.763 182.019 182.249 180.015 183.67 178.563C186.583 175.577 190.858 176.269 193.834 180.196C196.974 184.338 197.562 190.31 195.141 193.504C193.943 195.085 192.202 195.752 190.239 195.375C188.71 195.079 187.44 194.988 186.165 196.671C185.71 197.208 185.445 197.973 185.421 198.863C185.363 201.429 187.413 204.427 188.297 205.594L188.361 205.667L198.506 216.625C198.286 216.975 198.009 217.425 197.652 217.998L190.228 229.965C189.019 231.55 187.366 233.121 186.376 233.085C186.157 233.075 186.011 232.988 185.879 232.79C185.127 231.798 185.135 230.994 185.326 229.231C185.686 225.988 184.998 222.948 183.443 220.898C180.378 216.852 174.799 217.623 171.008 222.623C167.429 227.346 166.855 234.202 169.63 238.929C171.106 241.433 173.22 242.385 176.09 241.833C176.255 241.8 176.411 241.771 176.561 241.74C177.72 241.492 178.111 241.45 178.678 242.198C179.133 242.86 178.376 244.85 176.913 246.698L166.42 258.902L157.148 245.015C154.905 241.921 152.696 241 151.373 242.581C151.37 242.585 151.37 242.585 151.37 242.585C150.888 243.223 150.625 243.838 150.5 244.456C150.421 244.819 150.391 245.19 150.386 245.556C150.386 246.135 150.457 246.725 150.527 247.325C150.551 247.521 150.574 247.717 150.598 247.923C150.688 248.756 150.719 249.51 150.685 250.198C150.664 250.573 150.625 250.925 150.566 251.26C150.558 251.302 150.555 251.35 150.543 251.385C150.524 251.515 150.492 251.638 150.461 251.763C150.426 251.923 150.378 252.077 150.328 252.227C150.281 252.383 150.225 252.527 150.164 252.671C150.124 252.765 150.082 252.863 150.037 252.95C150.034 252.967 150.022 252.981 150.014 252.992C149.963 253.09 149.913 253.188 149.857 253.281C149.627 253.679 149.349 254.035 149.019 254.377C146.106 257.363 141.831 256.671 138.857 252.744C138.426 252.175 138.042 251.567 137.704 250.946Z" fill="#A60F1B"/>
</g>
<path d="M144.333 227.29L144.391 227.365C144.873 228.002 145.703 229.179 146.354 230.533C145.711 229.169 144.873 227.981 144.391 227.346L144.33 227.273L134.184 216.315L142.462 202.975C142.61 202.779 142.771 202.577 142.935 202.381C142.755 202.587 142.587 202.798 142.426 203.01L134.173 216.319L144.333 227.29Z" fill="#FBD6D0"/>
<path d="M138.327 238.623C139.097 237.948 140.017 237.571 141.028 237.498H141.036C141.49 237.467 141.964 237.494 142.453 237.59C143.98 237.879 145.248 237.973 146.525 236.287C146.756 236.015 146.948 235.679 147.07 235.292C146.936 235.662 146.756 235.994 146.525 236.269C145.248 237.952 143.98 237.86 142.449 237.565C142.327 237.54 142.206 237.523 142.086 237.508C141.842 237.477 141.604 237.462 141.372 237.467C141.279 237.467 141.184 237.467 141.094 237.471C141.028 237.477 140.969 237.481 140.903 237.487C140.837 237.494 140.766 237.502 140.703 237.512C140.347 237.56 140.002 237.652 139.678 237.781C139.586 237.817 139.496 237.854 139.406 237.9C139.313 237.942 139.223 237.987 139.133 238.035C139.105 238.05 139.075 238.071 139.046 238.087C138.977 238.127 138.901 238.175 138.835 238.221C138.75 238.273 138.668 238.329 138.589 238.392C138.483 238.469 138.377 238.556 138.279 238.644C138.213 238.702 138.15 238.762 138.088 238.825C138.041 238.867 137.998 238.915 137.954 238.96C137.946 238.96 137.938 238.971 137.935 238.975C137.885 239.031 137.829 239.094 137.779 239.15C137.7 239.244 137.621 239.337 137.547 239.435C137.147 239.962 136.831 240.567 136.596 241.217C136.838 240.577 137.152 239.977 137.547 239.456C137.787 239.142 138.044 238.862 138.327 238.623Z" fill="#FBD6D0"/>
<path d="M138.856 252.765C141.835 256.696 146.11 257.379 149.02 254.398C149.351 254.062 149.629 253.694 149.856 253.281C149.626 253.679 149.348 254.035 149.02 254.377C146.107 257.362 141.83 256.671 138.856 252.744C138.425 252.175 138.041 251.567 137.703 250.946C138.036 251.581 138.42 252.192 138.856 252.765Z" fill="#FBD6D0"/>
<mask id="mask1_951_480" style="mask-type:luminance" maskUnits="userSpaceOnUse" x="100" y="217" width="66" height="86">
<path d="M165.188 217.983H100.839V302.9H165.188V217.983Z" fill="white"/>
</mask>
<g mask="url(#mask1_951_480)">
<path d="M120.427 286.9C120.433 286.61 120.496 286.425 120.649 286.244C121.405 285.246 122.02 285.262 123.347 285.515C125.805 285.992 128.107 285.081 129.662 283.031C132.732 278.979 132.144 271.623 128.354 266.621C124.779 261.904 119.584 261.135 115.998 264.802C114.102 266.746 113.382 269.535 113.802 273.333C113.821 273.546 113.853 273.752 113.871 273.952C114.056 275.477 114.088 275.994 113.523 276.737C113.019 277.342 111.511 276.335 110.112 274.419L100.866 260.56L111.35 248.369L111.385 248.331C113.726 245.367 114.427 242.458 113.231 240.71C112.009 239.1 110.866 239.337 109.647 239.59C109.506 239.621 109.358 239.652 109.201 239.683C106.911 240.123 105.398 239.481 104.291 237.606C102.659 234.821 102.47 231.102 103.622 227.754C103.699 227.527 103.786 227.308 103.876 227.087C103.969 226.85 104.075 226.617 104.186 226.39C104.303 226.142 104.427 225.904 104.561 225.667C104.628 225.548 104.699 225.423 104.773 225.304C104.85 225.181 104.926 225.062 105.004 224.937C105.086 224.808 105.168 224.69 105.255 224.567C105.332 224.452 105.416 224.344 105.498 224.235C105.596 224.106 105.693 223.977 105.794 223.852C105.892 223.733 105.99 223.615 106.091 223.502C109.189 220.015 113.313 219.512 115.583 222.508C116.781 224.09 117.286 226.39 117.001 228.979C116.773 230.992 116.707 232.673 117.983 234.356C118.382 234.956 118.969 235.306 119.644 235.337C120.845 235.385 122.165 234.377 123.21 233.319L123.213 233.312C123.369 233.148 123.523 232.987 123.673 232.831C123.747 232.754 123.816 232.673 123.884 232.594C124.236 232.192 124.53 231.825 124.745 231.542L124.776 231.498L124.8 231.458L133.139 218.015L143.245 228.931C143.589 229.385 143.925 229.881 144.235 230.404C144.337 230.579 144.435 230.75 144.533 230.921C145.166 232.048 145.624 233.2 145.61 234.015C145.613 234.021 145.613 234.021 145.613 234.031C145.61 234.087 145.605 234.144 145.597 234.196C145.565 234.392 145.499 234.542 145.385 234.671C144.634 235.662 144.023 235.652 142.689 235.4C140.229 234.925 137.932 235.829 136.372 237.885C135.507 239.027 134.932 240.437 134.639 241.981C134.61 242.152 134.583 242.323 134.552 242.498C134.506 242.84 134.467 243.192 134.44 243.537C134.43 243.723 134.419 243.915 134.411 244.1C134.408 244.281 134.408 244.467 134.411 244.648C134.419 246.104 134.647 247.615 135.081 249.085C135.194 249.483 135.327 249.877 135.475 250.269C135.515 250.373 135.554 250.475 135.594 250.579C135.644 250.708 135.695 250.837 135.753 250.967C135.84 251.162 135.927 251.36 136.017 251.55C136.107 251.752 136.205 251.944 136.306 252.129C136.401 252.325 136.502 252.51 136.612 252.687C136.936 253.24 137.293 253.783 137.681 254.294C141.259 259.017 146.454 259.775 150.037 256.112C151.303 254.817 152.045 253.142 152.277 251.05C152.316 250.698 152.343 250.331 152.346 249.954C152.351 249.773 152.356 249.581 152.351 249.392C152.348 248.817 152.312 248.223 152.242 247.604C152.214 247.392 152.19 247.185 152.168 246.99C152.062 246.125 152.01 245.583 152.076 245.144C152.139 244.804 152.269 244.519 152.515 244.194C153.025 243.594 154.531 244.602 155.925 246.523L165.174 260.371L154.658 272.604C154.579 272.698 154.508 272.792 154.438 272.883C152.264 275.752 151.647 278.531 152.814 280.225C154.031 281.842 155.179 281.6 156.391 281.342C156.533 281.31 156.682 281.279 156.838 281.248C159.132 280.815 160.644 281.454 161.748 283.325C164.007 287.173 163.486 292.81 160.507 296.742C157.367 300.885 152.84 301.66 150.42 298.469C149.223 296.887 148.721 294.583 149.007 291.994C149.231 289.985 149.298 288.306 148.02 286.621C147.621 286.021 147.038 285.665 146.364 285.633C144.415 285.562 142.144 288.269 141.259 289.437L141.208 289.515L132.904 302.9L122.79 291.983C121.589 290.387 120.398 288.208 120.427 286.9Z" fill="#FBD6D0"/>
</g>
<mask id="mask2_951_480" style="mask-type:luminance" maskUnits="userSpaceOnUse" x="67" y="174" width="65" height="85">
<path d="M131.84 174.065H67.5584V258.979H131.84V174.065Z" fill="white"/>
</mask>
<g mask="url(#mask2_951_480)">
<path d="M72.1702 252.806C75.1462 256.733 79.4247 257.419 82.3344 254.44C83.76 252.981 84.2416 250.981 83.9084 247.96C83.8848 247.754 83.8611 247.556 83.8374 247.371C83.6464 245.765 83.4664 244.254 84.6836 242.648L84.6868 242.644C86.0114 241.062 88.2201 241.981 90.4619 245.077L99.7309 258.958L103.814 254.21L110.261 246.715C110.481 246.435 110.684 246.156 110.864 245.877C110.962 245.727 111.057 245.583 111.142 245.437C111.229 245.294 111.311 245.144 111.393 245.004C111.491 244.812 111.586 244.627 111.671 244.452C111.753 244.271 111.824 244.096 111.888 243.929C112.161 243.185 112.211 242.581 111.989 242.256C111.425 241.512 111.033 241.554 109.879 241.796C109.721 241.827 109.57 241.862 109.404 241.894C106.531 242.442 104.42 241.496 102.944 238.992C100.329 234.537 100.689 228.212 103.721 223.552C103.908 223.254 104.11 222.965 104.322 222.685C104.557 222.375 104.8 222.075 105.051 221.796C105.168 221.662 105.29 221.533 105.407 221.408C105.647 221.167 105.89 220.927 106.136 220.717L106.139 220.71C109.737 217.523 114.178 217.471 116.79 220.919C118.348 222.975 119.036 226.012 118.676 229.256C118.484 231.008 118.473 231.819 119.224 232.81C119.357 233.008 119.51 233.096 119.726 233.1C120.266 233.121 121.005 232.662 121.761 231.985C121.914 231.846 122.063 231.7 122.216 231.55C122.369 231.4 122.517 231.246 122.663 231.085C122.811 230.921 122.956 230.75 123.1 230.579C123.253 230.398 123.402 230.212 123.542 230.027L123.547 230.021L131.816 216.681L121.676 205.727L121.613 205.656C120.893 204.704 119.404 202.556 118.904 200.396C118.79 199.906 118.724 199.404 118.735 198.925C118.732 198.919 118.732 198.908 118.732 198.898C118.75 198.015 119.02 197.244 119.475 196.706C120.751 195.023 122.023 195.121 123.55 195.41C125.512 195.787 127.255 195.121 128.452 193.54C128.833 193.037 129.137 192.471 129.369 191.856C129.341 191.923 129.325 191.996 129.298 192.062C129.385 191.856 129.467 191.633 129.529 191.406C129.526 191.41 129.518 191.423 129.513 191.437C129.541 191.36 129.565 191.287 129.584 191.21C129.6 191.169 129.608 191.127 129.619 191.092C129.796 190.456 129.897 189.762 129.933 189.046C130.007 187.594 129.799 186.05 129.33 184.54C129.158 183.971 128.946 183.404 128.695 182.856C128.64 182.742 128.589 182.633 128.536 182.519C128.515 182.483 128.496 182.448 128.48 182.406C128.42 182.277 128.359 182.154 128.293 182.033C128.21 181.873 128.124 181.719 128.034 181.569C127.952 181.429 127.865 181.285 127.779 181.152C127.751 181.104 127.724 181.058 127.693 181.017C127.618 180.898 127.536 180.779 127.459 180.665C127.356 180.521 127.255 180.377 127.145 180.231C124.169 176.304 119.893 175.623 116.981 178.598C116.745 178.846 116.531 179.11 116.346 179.383C116.303 179.452 116.261 179.519 116.221 179.579C116.15 179.683 116.089 179.798 116.03 179.917C115.967 180.04 115.904 180.165 115.85 180.298C115.846 180.315 115.838 180.335 115.83 180.354C115.716 180.619 115.626 180.892 115.555 181.194C115.489 181.446 115.438 181.719 115.396 182.002C115.38 182.137 115.359 182.277 115.351 182.41C115.321 182.681 115.312 182.958 115.309 183.244C115.301 183.812 115.332 184.421 115.407 185.077C115.43 185.285 115.454 185.481 115.478 185.667C115.517 185.977 115.552 186.281 115.579 186.585C115.594 186.762 115.607 186.942 115.613 187.119C115.613 187.14 115.61 187.154 115.613 187.171C115.626 187.465 115.621 187.758 115.591 188.048C115.509 188.827 115.247 189.608 114.635 190.415C113.304 191.996 111.104 191.077 108.856 187.975L99.5857 174.098L89.0916 186.302C87.6044 188.192 86.8639 190.119 87.3265 190.802C87.8901 191.546 88.2817 191.504 89.4436 191.262C89.5936 191.231 89.7499 191.2 89.9109 191.162C92.7843 190.617 94.8983 191.567 96.3713 194.067C99.1499 198.8 98.5753 205.656 94.9962 210.379C91.2103 215.375 85.6277 216.15 82.5617 212.104C81.0035 210.048 80.3136 207.01 80.6735 203.765C80.8709 202.008 80.8788 201.202 80.1257 200.21C79.9978 200.008 79.8431 199.921 79.63 199.915C78.6338 199.875 76.9902 201.446 75.7809 203.031L67.5002 216.377L77.6439 227.335L77.707 227.406C78.5911 228.575 80.642 231.56 80.5835 234.14C80.5646 235.023 80.2915 235.798 79.8399 236.329C78.5643 238.015 77.2949 237.921 75.7635 237.627C73.8027 237.25 72.0613 237.917 70.863 239.498C68.4428 242.69 69.0269 248.656 72.1702 252.806Z" fill="#A60F1B"/>
</g>
<path d="M128.48 182.406C128.496 182.448 128.515 182.483 128.535 182.521C128.535 182.521 128.538 182.515 128.535 182.51C128.515 182.473 128.499 182.433 128.48 182.406Z" fill="#A60F1B"/>
<path d="M129.584 191.21C129.565 191.288 129.541 191.358 129.513 191.438C129.517 191.421 129.525 191.41 129.528 191.406L129.533 191.402C129.533 191.392 129.533 191.392 129.536 191.385C129.536 191.375 129.536 191.375 129.541 191.371C129.544 191.354 129.549 191.35 129.552 191.333C129.568 191.294 129.576 191.25 129.588 191.215L129.584 191.21Z" fill="#A60F1B"/>
<path d="M116.98 178.6C116.742 178.842 116.53 179.1 116.347 179.383C116.53 179.11 116.746 178.848 116.98 178.6Z" fill="#A60F1B"/>
<path d="M115.396 182.002C115.438 181.719 115.488 181.446 115.555 181.192C115.485 181.45 115.43 181.719 115.396 182.002Z" fill="#A60F1B"/>
<path d="M118.729 198.898C118.729 198.908 118.729 198.919 118.734 198.923C118.753 198.029 119.023 197.26 119.478 196.733C120.755 195.048 122.027 195.137 123.549 195.431C125.516 195.812 127.258 195.146 128.456 193.567C128.541 193.452 128.628 193.327 128.706 193.204L128.737 193.162C128.8 193.06 128.863 192.956 128.922 192.848C128.999 192.712 129.07 192.569 129.141 192.425C129.195 192.31 129.25 192.187 129.298 192.062C129.324 191.996 129.34 191.923 129.369 191.856C129.137 192.471 128.832 193.037 128.451 193.54C127.255 195.121 125.512 195.787 123.549 195.41C122.023 195.121 120.75 195.023 119.474 196.706C119.02 197.244 118.75 198.015 118.729 198.898Z" fill="#A60F1B"/>
<path d="M103.813 254.21L110.226 246.76L110.263 246.715L103.813 254.21Z" fill="#A60F1B"/>
<path d="M115.554 181.192C115.488 181.446 115.438 181.719 115.395 182.002C115.43 181.719 115.485 181.45 115.554 181.192ZM128.534 182.521C128.515 182.483 128.496 182.448 128.48 182.406C128.499 182.431 128.515 182.473 128.534 182.508C128.589 182.623 128.644 182.737 128.695 182.856C128.639 182.742 128.589 182.633 128.534 182.521ZM120.613 198.304C121.366 197.312 121.98 197.327 123.311 197.585C125.766 198.056 128.068 197.146 129.626 195.09C130.965 193.323 131.607 190.925 131.592 188.373C131.615 190.935 130.973 193.344 129.631 195.117C128.076 197.167 125.769 198.071 123.316 197.602C121.983 197.344 121.369 197.337 120.613 198.323C120.504 198.448 120.441 198.604 120.409 198.8C120.43 198.598 120.496 198.437 120.613 198.304ZM115.554 181.192C115.488 181.446 115.438 181.719 115.395 182.002C115.43 181.719 115.485 181.45 115.554 181.192ZM128.534 182.521C128.515 182.483 128.496 182.448 128.48 182.406C128.499 182.431 128.515 182.473 128.534 182.508C128.589 182.623 128.644 182.737 128.695 182.856C128.639 182.742 128.589 182.633 128.534 182.521Z" fill="black"/>
<path d="M122.755 204.044L132.864 214.967L141.169 201.579L141.224 201.496C141.271 201.435 141.322 201.367 141.38 201.3C141.435 201.227 141.494 201.16 141.557 201.079C141.596 201.027 141.639 200.971 141.686 200.919C141.748 200.835 141.819 200.752 141.889 200.671C142.301 200.179 142.814 199.627 143.373 199.135C143.491 199.033 143.608 198.929 143.729 198.831C143.835 198.744 143.941 198.665 144.05 198.583C144.14 198.517 144.239 198.448 144.332 198.385C145.002 197.937 145.7 197.637 146.361 197.662C147.034 197.694 147.621 198.046 148.02 198.646C149.298 200.329 149.227 202.004 149.004 204.023C148.718 206.61 149.222 208.91 150.42 210.492C152.331 213.012 155.562 213.06 158.388 210.921C158.581 210.781 158.764 210.621 158.949 210.46C159.372 210.09 159.782 209.66 160.174 209.185C160.275 209.06 160.373 208.931 160.471 208.802C163.447 204.875 163.971 199.233 161.713 195.394C160.608 193.515 159.094 192.879 156.803 193.319C156.645 193.348 156.497 193.379 156.352 193.406C155.139 193.665 153.996 193.902 152.774 192.29C151.615 190.596 152.23 187.81 154.399 184.948C154.473 184.85 154.544 184.758 154.618 184.669L159.606 178.862L165.139 172.429L155.891 158.583C154.473 156.631 152.994 155.648 152.481 156.252C151.912 157.002 151.947 157.523 152.132 159.048C152.155 159.244 152.179 159.452 152.203 159.669C152.621 163.467 151.901 166.254 150.002 168.194C146.423 171.86 141.224 171.096 137.645 166.373C133.859 161.379 133.268 154.017 136.338 149.965C137.893 147.915 140.198 147.01 142.653 147.481C143.984 147.74 144.599 147.744 145.354 146.758C145.502 146.581 145.565 146.385 145.573 146.096C145.605 144.794 144.415 142.612 143.213 141.017L133.099 130.1L124.8 143.481L124.74 143.558C123.856 144.727 121.589 147.44 119.639 147.356C118.965 147.335 118.382 146.979 117.98 146.375C116.702 144.69 116.772 143.017 116.996 140.996C117.282 138.408 116.78 136.115 115.578 134.527C113.16 131.335 108.633 132.11 105.493 136.254C102.514 140.185 101.996 145.827 104.255 149.665C105.36 151.546 106.871 152.187 109.165 151.742C109.318 151.717 109.467 151.685 109.615 151.654C110.825 151.402 111.972 151.158 113.194 152.771C114.393 154.527 113.687 157.431 111.347 160.396L100.831 172.631L110.078 186.477C111.472 188.4 112.98 189.406 113.485 188.802C113.832 188.344 113.949 187.971 113.957 187.392C113.954 187.035 113.903 186.596 113.835 186.012C113.813 185.817 113.789 185.61 113.766 185.392C113.763 185.346 113.755 185.294 113.75 185.248C113.711 184.885 113.687 184.535 113.673 184.194C113.66 183.992 113.657 183.792 113.652 183.59C113.652 183.435 113.652 183.279 113.657 183.129C113.66 182.825 113.676 182.535 113.699 182.246C113.718 182.015 113.742 181.785 113.777 181.565C113.827 181.229 113.887 180.902 113.965 180.592C114.036 180.283 114.13 179.983 114.232 179.694C114.612 178.604 115.191 177.662 115.965 176.869C119.544 173.2 124.745 173.965 128.319 178.681C129.192 179.833 129.893 181.11 130.422 182.448C130.496 182.637 130.57 182.829 130.637 183.021C130.716 183.237 130.79 183.46 130.856 183.683C130.93 183.935 131.004 184.19 131.071 184.442C131.075 184.446 131.075 184.458 131.075 184.469C131.169 184.829 131.251 185.196 131.319 185.562C131.494 186.508 131.589 187.45 131.592 188.373C131.615 190.935 130.973 193.344 129.631 195.117C128.076 197.167 125.771 198.071 123.316 197.602C121.983 197.344 121.369 197.337 120.613 198.325C120.504 198.448 120.441 198.604 120.409 198.8C120.398 198.846 120.395 198.902 120.395 198.965C120.39 199.125 120.406 199.302 120.438 199.487C120.453 199.569 120.469 199.652 120.488 199.74C120.507 199.817 120.528 199.904 120.551 199.987C120.602 200.158 120.66 200.329 120.723 200.504C120.779 200.65 120.837 200.8 120.899 200.944C120.959 201.073 121.012 201.206 121.08 201.335C121.53 202.26 122.141 203.223 122.755 204.044Z" fill="#FBD6D0"/>
<path d="M113.965 180.592C114.041 180.287 114.131 179.983 114.231 179.694C114.131 179.983 114.036 180.283 113.965 180.592Z" fill="#FBD6D0"/>
<path d="M120.409 198.8C120.441 198.604 120.504 198.448 120.613 198.325C121.369 197.338 121.983 197.344 123.316 197.602C125.771 198.071 128.076 197.167 129.631 195.117C130.973 193.344 131.615 190.935 131.592 188.373C131.607 190.925 130.966 193.323 129.626 195.09C128.068 197.146 125.766 198.056 123.311 197.585C121.98 197.327 121.366 197.313 120.613 198.304C120.496 198.44 120.43 198.598 120.409 198.8Z" fill="#FBD6D0"/>
<mask id="mask3_951_480" style="mask-type:luminance" maskUnits="userSpaceOnUse" x="116" y="153" width="16" height="21">
<path d="M131.222 153.625H116.369V173.625H131.222V153.625Z" fill="white"/>
</mask>
<g mask="url(#mask3_951_480)">
<path d="M130.775 173.594C130.883 173.594 130.987 173.54 131.067 173.44C131.178 173.296 131.222 173.083 131.183 172.885L130.243 168.202C130.823 166.771 131.127 165.156 131.127 163.519C131.127 158.079 127.817 153.654 123.748 153.654C119.68 153.654 116.369 158.079 116.369 163.519C116.369 168.958 119.68 173.383 123.748 173.383C124.999 173.383 126.228 172.958 127.316 172.154L130.647 173.569C130.69 173.585 130.733 173.594 130.775 173.594ZM127.267 170.979C127.193 170.979 127.119 171.006 127.054 171.058C126.056 171.842 124.912 172.256 123.748 172.256C120.144 172.256 117.212 168.338 117.212 163.519C117.212 158.702 120.144 154.781 123.748 154.781C127.351 154.781 130.284 158.702 130.284 163.519C130.284 165.04 129.987 166.535 129.427 167.848C129.372 167.977 129.356 168.129 129.386 168.273L130.169 172.183L127.395 171.006C127.352 170.988 127.31 170.979 127.267 170.979Z" fill="black"/>
</g>
<path d="M123.748 168.873C123.98 168.873 124.17 168.621 124.17 168.31V162.713C124.17 162.402 123.98 162.15 123.748 162.15C123.515 162.15 123.327 162.402 123.327 162.713V168.31C123.327 168.621 123.515 168.873 123.748 168.873Z" fill="black"/>
<path d="M123.749 160.671C124.222 160.671 124.607 160.154 124.607 159.521C124.607 158.888 124.222 158.373 123.749 158.373C123.275 158.373 122.888 158.888 122.888 159.521C122.888 160.154 123.275 160.671 123.749 160.671ZM123.749 159.119C123.914 159.119 124.049 159.3 124.049 159.521C124.049 159.742 123.914 159.923 123.749 159.923C123.583 159.923 123.449 159.742 123.449 159.521C123.449 159.3 123.583 159.119 123.749 159.119Z" fill="black"/>
<mask id="mask4_951_480" style="mask-type:luminance" maskUnits="userSpaceOnUse" x="118" y="237" width="15" height="21">
<path d="M133 237.635H118.147V257.635H133V237.635Z" fill="white"/>
</mask>
<g mask="url(#mask4_951_480)">
<path d="M132.553 257.604C132.661 257.604 132.765 257.55 132.845 257.448C132.956 257.306 133.002 257.094 132.961 256.896L132.023 252.212C132.601 250.781 132.905 249.167 132.905 247.529C132.905 242.09 129.595 237.665 125.526 237.665C121.458 237.665 118.147 242.09 118.147 247.529C118.147 252.969 121.458 257.394 125.526 257.394C126.777 257.394 128.007 256.969 129.094 256.165L132.427 257.579C132.468 257.596 132.511 257.604 132.553 257.604ZM129.045 254.99C128.971 254.99 128.897 255.017 128.832 255.067C127.834 255.852 126.691 256.267 125.526 256.267C121.922 256.267 118.99 252.346 118.99 247.529C118.99 242.712 121.922 238.792 125.526 238.792C129.131 238.792 132.062 242.712 132.062 247.529C132.062 249.05 131.766 250.546 131.205 251.858C131.15 251.987 131.134 252.14 131.164 252.283L131.947 256.192L129.173 255.017C129.132 254.998 129.088 254.99 129.045 254.99Z" fill="black"/>
</g>
<path d="M125.526 252.883C125.758 252.883 125.948 252.631 125.948 252.321V246.723C125.948 246.412 125.758 246.158 125.526 246.158C125.293 246.158 125.105 246.412 125.105 246.723V252.321C125.105 252.631 125.293 252.883 125.526 252.883Z" fill="black"/>
<path d="M125.526 244.679C126 244.679 126.385 244.165 126.385 243.531C126.385 242.898 126 242.383 125.526 242.383C125.052 242.383 124.667 242.898 124.667 243.531C124.667 244.165 125.052 244.679 125.526 244.679ZM125.526 243.129C125.692 243.129 125.826 243.31 125.826 243.531C125.826 243.752 125.692 243.933 125.526 243.933C125.36 243.933 125.226 243.752 125.226 243.531C125.226 243.31 125.36 243.129 125.526 243.129Z" fill="black"/>
<mask id="mask5_951_480" style="mask-type:luminance" maskUnits="userSpaceOnUse" x="151" y="217" width="16" height="21">
<path d="M166.397 217.748H151.544V237.748H166.397V217.748Z" fill="white"/>
</mask>
<g mask="url(#mask5_951_480)">
<path d="M165.949 237.598C166.057 237.598 166.162 237.544 166.243 237.444C166.355 237.302 166.399 237.092 166.36 236.894L165.414 232.238C165.997 230.815 166.303 229.21 166.303 227.583C166.303 222.175 162.969 217.777 158.872 217.777C154.775 217.777 151.44 222.175 151.44 227.583C151.44 232.99 154.775 237.39 158.872 237.39C160.132 237.39 161.369 236.967 162.465 236.169L165.82 237.573C165.863 237.59 165.907 237.598 165.949 237.598ZM162.416 235C162.342 235 162.268 235.025 162.201 235.077C161.196 235.856 160.045 236.269 158.872 236.269C155.242 236.269 152.29 232.371 152.29 227.583C152.29 222.794 155.242 218.898 158.872 218.898C162.501 218.898 165.454 222.794 165.454 227.583C165.454 229.094 165.155 230.581 164.59 231.885C164.535 232.015 164.521 232.167 164.549 232.308L165.338 236.196L162.546 235.025C162.503 235.008 162.459 235 162.416 235Z" fill="white"/>
</g>
<path d="M158.871 232.906C159.106 232.906 159.296 232.654 159.296 232.346V226.781C159.296 226.473 159.106 226.221 158.871 226.221C158.638 226.221 158.447 226.473 158.447 226.781V232.346C158.447 232.654 158.638 232.906 158.871 232.906Z" fill="white"/>
<path d="M158.871 224.75C159.348 224.75 159.736 224.238 159.736 223.608C159.736 222.979 159.348 222.467 158.871 222.467C158.394 222.467 158.006 222.979 158.006 223.608C158.006 224.238 158.394 224.75 158.871 224.75ZM158.871 223.21C159.039 223.21 159.174 223.388 159.174 223.608C159.174 223.829 159.039 224.008 158.871 224.008C158.705 224.008 158.57 223.829 158.57 223.608C158.57 223.39 158.705 223.21 158.871 223.21Z" fill="white"/>
<mask id="mask6_951_480" style="mask-type:luminance" maskUnits="userSpaceOnUse" x="101" y="196" width="16" height="21">
<path d="M116.26 196.613H101.407V216.5H116.26V196.613Z" fill="white"/>
</mask>
<g mask="url(#mask6_951_480)">
<path d="M115.812 216.465C115.919 216.465 116.025 216.41 116.104 216.308C116.216 216.167 116.262 215.956 116.221 215.758L115.277 211.104C115.858 209.679 116.166 208.075 116.166 206.448C116.166 201.042 112.831 196.642 108.734 196.642C104.638 196.642 101.303 201.042 101.303 206.448C101.303 211.854 104.638 216.254 108.734 216.254C109.994 216.254 111.232 215.833 112.328 215.033L115.683 216.438C115.725 216.456 115.768 216.465 115.812 216.465ZM112.279 213.865C112.203 213.865 112.129 213.892 112.064 213.942C111.058 214.721 109.907 215.133 108.734 215.133C105.105 215.133 102.153 211.238 102.153 206.448C102.153 201.658 105.105 197.763 108.734 197.763C112.364 197.763 115.316 201.658 115.316 206.448C115.316 207.96 115.018 209.448 114.453 210.752C114.398 210.879 114.382 211.031 114.412 211.175L115.201 215.06L112.407 213.892C112.366 213.873 112.321 213.865 112.279 213.865Z" fill="white"/>
</g>
<path d="M108.734 211.771C108.97 211.771 109.159 211.521 109.159 211.21V205.646C109.159 205.338 108.97 205.088 108.734 205.088C108.499 205.088 108.31 205.338 108.31 205.646V211.21C108.31 211.521 108.499 211.771 108.734 211.771Z" fill="white"/>
<path d="M108.734 203.617C109.211 203.617 109.6 203.104 109.6 202.473C109.6 201.844 109.211 201.333 108.734 201.333C108.258 201.333 107.869 201.844 107.869 202.473C107.869 203.104 108.258 203.617 108.734 203.617ZM108.734 202.075C108.902 202.075 109.038 202.254 109.038 202.473C109.038 202.694 108.902 202.873 108.734 202.873C108.567 202.873 108.431 202.694 108.431 202.473C108.431 202.254 108.567 202.075 108.734 202.075Z" fill="white"/>
</svg>
